<?xml version="1.0" encoding="utf-8"?>
<COLLADA xmlns="http://www.collada.org/2005/11/COLLADASchema" version="1.4.1" xmlns:xsi="http://www.w3.org/2001/XMLSchema-instance">
  <asset>
    <contributor>
      <author>Blender User</author>
      <authoring_tool>Blender 4.5.2 LTS commit date:2025-08-19, commit time:15:00, hash:ab25eae04993</authoring_tool>
    </contributor>
    <created>2026-09-25T11:52:06</created>
    <modified>2026-09-25T11:52:06</modified>
    <unit name="meter" meter="1"/>
    <up_axis>Z_UP</up_axis>
  </asset>
  <library_effects>
    <effect id="Material_003-effect">
      <profile_COMMON>
        <newparam sid="road_texture_png_001-surface">
          <surface type="2D">
            <init_from>road_texture_png_001</init_from>
          </surface>
        </newparam>
        <newparam sid="road_texture_png_001-sampler">
          <sampler2D>
            <source>road_texture_png_001-surface</source>
          </sampler2D>
        </newparam>
        <technique sid="common">
          <lambert>
            <emission>
              <color sid="emission">0 0 0 1</color>
            </emission>
            <diffuse>
              <texture texture="road_texture_png_001-sampler" texcoord="UVMap"/>
            </diffuse>
            <index_of_refraction>
              <float sid="ior">1.5</float>
            </index_of_refraction>
          </lambert>
        </technique>
      </profile_COMMON>
    </effect>
  </library_effects>
  <library_images>
    <image id="road_texture_png_001" name="road_texture_png_001">
      <init_from>road_texture.png</init_from>
    </image>
  </library_images>
  <library_materials>
    <material id="Material_003-material" name="Material.003">
      <instance_effect url="#Material_003-effect"/>
    </material>
  </library_materials>
  <library_geometries>
    <geometry id="Mesh_002-mesh" name="Mesh.002">
      <mesh>
        <source id="Mesh_002-mesh-positions">
          <float_array id="Mesh_002-mesh-positions-array" count="198">18.65115 7.348318 0 18.21133 6.501717 0 17.7556 5.640676 0 17.30019 4.762404 0 16.95837 4.129505 0 16.60597 3.555843 0 16.24115 3.032727 0 15.86208 2.551468 0 15.46693 2.103374 0 15.05384 1.679756 0 14.62099 1.271922 0 14.16654 0.8711819 0 13.68864 0.4688453 0 13.18546 0.05622166 0 12.65516 -0.3753796 0 12.09591 -0.8346481 0 11.27236 -1.483592 0 10.47294 -2.052837 0 9.692492 -2.557901 0 8.92584 -3.014298 0 8.167819 -3.437544 0 7.41326 -3.843156 0 6.657001 -4.246648 0 5.893869 -4.663538 0 5.1187 -5.10934 0 4.326326 -5.599571 0 3.51158 -6.149745 0 2.669296 -6.77538 0 1.61919 -7.729034 0 0.7074414 -8.800806 0 -0.09846413 -9.949295 0 -0.8310422 -11.1331 0 -1.522808 -12.31084 0 18.47253 7.438309 0 18.03421 6.594599 0 17.57844 5.733489 0 17.12342 4.855965 0 16.78504 4.229446 0 16.43859 3.66548 0 16.08043 3.151907 0 15.70841 2.679585 0 15.32024 2.239416 0 14.91361 1.822417 0 14.48624 1.419749 0 14.03598 1.022705 0 13.56082 0.6226764 0 13.05893 0.2111064 0 12.52857 -0.2205395 0 11.97054 -0.6788066 0 11.15239 -1.323494 0 10.36055 -1.887344 0 9.586973 -2.387961 0 8.825917 -2.841027 0 8.071714 -3.262141 0 7.318839 -3.666847 0 6.561983 -4.070657 0 5.796061 -4.489071 0 5.016206 -4.937569 0 4.217707 -5.431589 0 3.39593 -5.986511 0 2.54213 -6.620699 0 1.475198 -7.589634 0 0.5490738 -8.678304 0 -0.2654954 -9.839139 0 -1.002326 -11.02982 0 -1.694612 -12.20844 0</float_array>
          <technique_common>
            <accessor source="#Mesh_002-mesh-positions-array" count="66" stride="3">
              <param name="X" type="float"/>
              <param name="Y" type="float"/>
              <param name="Z" type="float"/>
            </accessor>
          </technique_common>
        </source>
        <source id="Mesh_002-mesh-normals">
          <float_array id="Mesh_002-mesh-normals-array" count="3">0 0 1</float_array>
          <technique_common>
            <accessor source="#Mesh_002-mesh-normals-array" count="1" stride="3">
              <param name="X" type="float"/>
              <param name="Y" type="float"/>
              <param name="Z" type="float"/>
            </accessor>
          </technique_common>
        </source>
        <source id="Mesh_002-mesh-map-0">
          <float_array id="Mesh_002-mesh-map-0-array" count="384">0 0 0 0 0 0 0 0 0 0 0 0 0 0 0 0 0 0 0 0 0 0 0 0 0 0 0 0 0 0 0 0 0 0 0 0 0 0 0 0 0 0 0 0 0 0 0 0 0 0 0 0 0 0 0 0 0 0 0 0 0 0 0 0 0 0 0 0 0 0 0 0 0 0 0 0 0 0 0 0 0 0 0 0 0 0 0 0 0 0 0 0 0 0 0 0 0 0 0 0 0 0 0 0 0 0 0 0 0 0 0 0 0 0 0 0 0 0 0 0 0 0 0 0 0 0 0 0 0 0 0 0 0 0 0 0 0 0 0 0 0 0 0 0 0 0 0 0 0 0 0 0 0 0 0 0 0 0 0 0 0 0 0 0 0 0 0 0 0 0 0 0 0 0 0 0 0 0 0 0 0 0 0 0 0 0 0 0 0 0 0 0 0 0 0 0 0 0 0 0 0 0 0 0 0 0 0 0 0 0 0 0 0 0 0 0 0 0 0 0 0 0 0 0 0 0 0 0 0 0 0 0 0 0 0 0 0 0 0 0 0 0 0 0 0 0 0 0 0 0 0 0 0 0 0 0 0 0 0 0 0 0 0 0 0 0 0 0 0 0 0 0 0 0 0 0 0 0 0 0 0 0 0 0 0 0 0 0 0 0 0 0 0 0 0 0 0 0 0 0 0 0 0 0 0 0 0 0 0 0 0 0 0 0 0 0 0 0 0 0 0 0 0 0 0 0 0 0 0 0 0 0 0 0 0 0 0 0 0 0 0 0 0 0 0 0 0 0 0 0 0 0 0 0 0 0 0 0 0 0 0 0 0 0 0 0 0 0 0 0 0 0 0 0 0 0 0 0 0 0 0 0 0 0</float_array>
          <technique_common>
            <accessor source="#Mesh_002-mesh-map-0-array" count="192" stride="2">
              <param name="S" type="float"/>
              <param name="T" type="float"/>
            </accessor>
          </technique_common>
        </source>
        <vertices id="Mesh_002-mesh-vertices">
          <input semantic="POSITION" source="#Mesh_002-mesh-positions"/>
        </vertices>
        <triangles material="Material_003-material" count="64">
          <input semantic="VERTEX" source="#Mesh_002-mesh-vertices" offset="0"/>
          <input semantic="NORMAL" source="#Mesh_002-mesh-normals" offset="1"/>
          <input semantic="TEXCOORD" source="#Mesh_002-mesh-map-0" offset="2" set="0"/>
          <p>33 0 0 1 0 1 0 0 2 34 0 3 2 0 4 1 0 5 36 0 6 2 0 7 35 0 8 37 0 9 3 0 10 36 0 11 38 0 12 4 0 13 37 0 14 39 0 15 5 0 16 38 0 17 39 0 18 7 0 19 6 0 20 40 0 21 8 0 22 7 0 23 41 0 24 9 0 25 8 0 26 42 0 27 10 0 28 9 0 29 43 0 30 11 0 31 10 0 32 44 0 33 12 0 34 11 0 35 45 0 36 13 0 37 12 0 38 46 0 39 14 0 40 13 0 41 48 0 42 14 0 43 47 0 44 49 0 45 15 0 46 48 0 47 49 0 48 17 0 49 16 0 50 50 0 51 18 0 52 17 0 53 51 0 54 19 0 55 18 0 56 52 0 57 20 0 58 19 0 59 53 0 60 21 0 61 20 0 62 54 0 63 22 0 64 21 0 65 55 0 66 23 0 67 22 0 68 56 0 69 24 0 70 23 0 71 57 0 72 25 0 73 24 0 74 58 0 75 26 0 76 25 0 77 59 0 78 27 0 79 26 0 80 60 0 81 28 0 82 27 0 83 62 0 84 28 0 85 61 0 86 63 0 87 29 0 88 62 0 89 64 0 90 30 0 91 63 0 92 65 0 93 31 0 94 64 0 95 33 0 96 34 0 97 1 0 98 34 0 99 35 0 100 2 0 101 36 0 102 3 0 103 2 0 104 37 0 105 4 0 106 3 0 107 38 0 108 5 0 109 4 0 110 39 0 111 6 0 112 5 0 113 39 0 114 40 0 115 7 0 116 40 0 117 41 0 118 8 0 119 41 0 120 42 0 121 9 0 122 42 0 123 43 0 124 10 0 125 43 0 126 44 0 127 11 0 128 44 0 129 45 0 130 12 0 131 45 0 132 46 0 133 13 0 134 46 0 135 47 0 136 14 0 137 48 0 138 15 0 139 14 0 140 49 0 141 16 0 142 15 0 143 49 0 144 50 0 145 17 0 146 50 0 147 51 0 148 18 0 149 51 0 150 52 0 151 19 0 152 52 0 153 53 0 154 20 0 155 53 0 156 54 0 157 21 0 158 54 0 159 55 0 160 22 0 161 55 0 162 56 0 163 23 0 164 56 0 165 57 0 166 24 0 167 57 0 168 58 0 169 25 0 170 58 0 171 59 0 172 26 0 173 59 0 174 60 0 175 27 0 176 60 0 177 61 0 178 28 0 179 62 0 180 29 0 181 28 0 182 63 0 183 30 0 184 29 0 185 64 0 186 31 0 187 30 0 188 65 0 189 32 0 190 31 0 191</p>
        </triangles>
      </mesh>
    </geometry>
  </library_geometries>
  <library_visual_scenes>
    <visual_scene id="Scene" name="Scene">
      <node id="BézierCircle" name="BézierCircle" type="NODE">
        <matrix sid="transform">1 0 0 0 0 1 0 0 0 0 1 0 0 0 0 1</matrix>
        <instance_geometry url="#Mesh_002-mesh" name="BézierCircle">
          <bind_material>
            <technique_common>
              <instance_material symbol="Material_003-material" target="#Material_003-material">
                <bind_vertex_input semantic="UVMap" input_semantic="TEXCOORD" input_set="0"/>
              </instance_material>
            </technique_common>
          </bind_material>
        </instance_geometry>
      </node>
    </visual_scene>
  </library_visual_scenes>
  <scene>
    <instance_visual_scene url="#Scene"/>
  </scene>
</COLLADA>