<?xml version="1.0" encoding="utf-8"?>
<COLLADA xmlns="http://www.collada.org/2005/11/COLLADASchema" version="1.4.1" xmlns:xsi="http://www.w3.org/2001/XMLSchema-instance">
  <asset>
    <contributor>
      <author>Blender User</author>
      <authoring_tool>Blender 4.5.2 LTS commit date:2025-08-19, commit time:15:00, hash:ab25eae04993</authoring_tool>
    </contributor>
    <created>2026-09-02T13:43:44</created>
    <modified>2026-09-02T13:43:44</modified>
    <unit name="meter" meter="1"/>
    <up_axis>Z_UP</up_axis>
  </asset>
  <library_effects>
    <effect id="Material_002-effect">
      <profile_COMMON>
        <newparam sid="road_texture_png-surface">
          <surface type="2D">
            <init_from>road_texture_png</init_from>
          </surface>
        </newparam>
        <newparam sid="road_texture_png-sampler">
          <sampler2D>
            <source>road_texture_png-surface</source>
          </sampler2D>
        </newparam>
        <technique sid="common">
          <lambert>
            <emission>
              <color sid="emission">0 0 0 1</color>
            </emission>
            <diffuse>
              <texture texture="road_texture_png-sampler"/>
            </diffuse>
            <index_of_refraction>
              <float sid="ior">1.5</float>
            </index_of_refraction>
          </lambert>
        </technique>
      </profile_COMMON>
    </effect>
  </library_effects>
  <library_images>
    <image id="road_texture_png" name="road_texture_png">
      <init_from>road_texture.png</init_from>
    </image>
  </library_images>
  <library_materials>
    <material id="Material_002-material" name="Material.002">
      <instance_effect url="#Material_002-effect"/>
    </material>
  </library_materials>
  <library_geometries>
    <geometry id="Mesh_002-mesh" name="Mesh.002">
      <mesh>
        <source id="Mesh_002-mesh-positions">
          <float_array id="Mesh_002-mesh-positions-array" count="720">-11.04682 -2.963878 0 -10.32753 -2.321027 0 -9.510045 -1.916553 0 -8.61738 -1.700536 0 -7.672565 -1.623055 0 -6.69863 -1.634189 0 -5.718601 -1.684018 0 -4.755506 -1.72262 0 -3.832372 -1.700074 0 -2.972227 -1.56646 0 -2.198098 -1.271857 0 -1.533014 -0.7663434 0 -1 0 0 -0.7376994 0.8033643 0 -0.7477157 1.565116 0 -0.9775313 2.294394 0 -1.374629 3.000338 0 -1.88649 3.692087 0 -2.460597 4.378782 0 -3.044434 5.069561 0 -3.585482 5.773564 0 -4.031223 6.499931 0 -4.32914 7.257802 0 -4.426716 8.056315 0 -4.271435 8.90461 0 -3.687762 10.32426 0 -2.971543 11.57795 0 -2.131585 12.67745 0 -1.176696 13.63454 0 -0.1156864 14.46097 0 1.042636 15.16853 0 2.289464 15.76899 0 3.615988 16.27411 0 5.013399 16.69567 0 6.472889 17.04545 0 7.98565 17.3352 0 9.542872 17.57671 0 10.51169 17.70044 0 11.46828 17.79187 0 12.40742 17.84122 0 13.32391 17.83871 0 14.21252 17.77456 0 15.06807 17.639 0 15.88532 17.42224 0 16.65909 17.1145 0 17.38414 16.70601 0 18.05528 16.18698 0 18.66729 15.54763 0 19.21497 14.77818 0 19.64888 13.93602 0 19.92076 13.10451 0 20.04686 12.28089 0 20.04342 11.46235 0 19.92666 10.64611 0 19.71282 9.829374 0 19.41813 9.009357 0 19.05883 8.183268 0 18.65115 7.348318 0 18.21133 6.501717 0 17.7556 5.640676 0 17.30019 4.762404 0 16.95837 4.129505 0 16.60597 3.555843 0 16.24115 3.032727 0 15.86208 2.551468 0 15.46693 2.103374 0 15.05384 1.679756 0 14.62099 1.271922 0 14.16654 0.8711819 0 13.68864 0.4688453 0 13.18546 0.05622166 0 12.65516 -0.3753796 0 12.09591 -0.8346481 0 11.27236 -1.483592 0 10.47294 -2.052837 0 9.692492 -2.557901 0 8.925839 -3.014298 0 8.167818 -3.437544 0 7.41326 -3.843156 0 6.657 -4.246648 0 5.893869 -4.663538 0 5.1187 -5.10934 0 4.326326 -5.599571 0 3.51158 -6.149745 0 2.669296 -6.77538 0 1.61919 -7.729034 0 0.7074414 -8.800805 0 -0.09846413 -9.949294 0 -0.8310422 -11.1331 0 -1.522808 -12.31084 0 -2.206277 -13.4411 0 -2.913964 -14.48248 0 -3.678385 -15.3936 0 -4.532054 -16.13305 0 -5.507487 -16.65943 0 -6.6372 -16.93135 0 -7.953707 -16.90741 0 -8.648087 -16.75222 0 -9.244774 -16.48905 0 -9.753502 -16.12885 0 -10.184 -15.68257 0 -10.54601 -15.16119 0 -10.84925 -14.57564 0 -11.10346 -13.93688 0 -11.31837 -13.25587 0 -11.50371 -12.54357 0 -11.66922 -11.81092 0 -11.82462 -11.06889 0 -11.97966 -10.32842 0 -12.12502 -9.630431 0 -12.25231 -8.952319 0 -12.35476 -8.292719 0 -12.42565 -7.650265 0 -12.45822 -7.023591 0 -12.44573 -6.411329 0 -12.38144 -5.812113 0 -12.25859 -5.224575 0 -12.07045 -4.64735 0 -11.81027 -4.07907 0 -11.47131 -3.518369 0 -10.89948 -3.100431 0 -10.2145 -2.488243 0 -9.441334 -2.105698 0 -8.585494 -1.898592 0 -7.66552 -1.823149 0 -6.704854 -1.834131 0 -5.727684 -1.883814 0 -4.757071 -1.922717 0 -3.814506 -1.899697 0 -2.920747 -1.760862 0 -2.100023 -1.448526 0 -1.386852 -0.9064638 0 -0.8190094 -0.09004479 0 -0.5372806 0.7728236 0 -0.5481199 1.597165 0 -0.793026 2.37433 0 -1.206433 3.109268 0 -1.729246 3.815819 0 -2.307502 4.507475 0 -2.888686 5.195116 0 -3.420508 5.887115 0 -3.851538 6.58951 0 -4.133701 7.307303 0 -4.224493 8.050302 0 -4.078482 8.847963 0 -3.507697 10.23627 0 -2.804507 11.46715 0 -1.980673 12.54554 0 -1.043938 13.48443 0 -0.001741945 14.29621 0 1.138391 14.99266 0 2.368582 15.58511 0 3.680536 16.08468 0 5.065629 16.50253 0 6.515029 16.84988 0 8.019799 17.13811 0 9.570871 17.37866 0 10.53388 17.50165 0 11.48305 17.59237 0 12.4124 17.6412 0 13.31642 17.63873 0 14.18963 17.5757 0 15.02667 17.44306 0 15.82251 17.23199 0 16.57265 16.93364 0 17.2733 16.5389 0 17.92112 16.0379 0 18.51278 15.41982 0 19.04374 14.67386 0 19.46375 13.85864 0 19.72555 13.05799 0 19.8468 12.26609 0 19.84348 11.477 0 19.73029 10.68573 0 19.52159 9.888639 0 19.23213 9.08314 0 18.87718 8.267069 0 18.47253 7.438309 0 18.03421 6.594599 0 17.57844 5.733489 0 17.12342 4.855965 0 16.78504 4.229446 0 16.43859 3.66548 0 16.08043 3.151907 0 15.70841 2.679585 0 15.32024 2.239416 0 14.91361 1.822417 0 14.48624 1.419749 0 14.03598 1.022705 0 13.56082 0.6226764 0 13.05893 0.2111064 0 12.52857 -0.2205395 0 11.97054 -0.6788066 0 11.15239 -1.323494 0 10.36055 -1.887344 0 9.586972 -2.387961 0 8.825916 -2.841027 0 8.071713 -3.262141 0 7.318839 -3.666847 0 6.561983 -4.070657 0 5.796061 -4.489071 0 5.016206 -4.937569 0 4.217707 -5.431589 0 3.39593 -5.986511 0 2.54213 -6.620699 0 1.475198 -7.589634 0 0.5490738 -8.678304 0 -0.2654954 -9.839139 0 -1.002326 -11.02982 0 -1.694612 -12.20844 0 -2.374676 -13.33307 0 -3.07369 -14.36169 0 -3.821367 -15.25285 0 -4.646382 -15.96748 0 -5.579578 -16.47107 0 -6.659136 -16.73092 0 -7.929835 -16.70782 0 -8.585323 -16.56131 0 -9.145638 -16.31418 0 -9.622601 -15.97647 0 -10.02889 -15.5553 0 -10.37435 -15.05774 0 -10.66709 -14.49247 0 -10.91493 -13.86972 0 -11.1261 -13.20056 0 -11.30934 -12.49634 0 -11.47379 -11.76839 0 -11.62887 -11.0279 0 -11.78388 -10.28754 0 -11.92882 -9.59159 0 -12.05516 -8.918513 0 -12.15646 -8.26639 0 -12.22622 -7.634094 0 -12.25812 -7.020436 0 -12.24595 -6.424061 0 -12.18364 -5.843324 0 -12.06506 -5.276184 0 -11.88385 -4.720205 0 -11.63319 -4.172739 0 -11.30583 -3.63123 0</float_array>
          <technique_common>
            <accessor source="#Mesh_002-mesh-positions-array" count="240" stride="3">
              <param name="X" type="float"/>
              <param name="Y" type="float"/>
              <param name="Z" type="float"/>
            </accessor>
          </technique_common>
        </source>
        <source id="Mesh_002-mesh-normals">
          <float_array id="Mesh_002-mesh-normals-array" count="720">0 0 1 0 0 1 0 0 1 0 0 1 0 0 1 0 0 1 0 0 1 0 0 1 0 0 1 0 0 1 0 0 1 0 0 1 0 0 1 0 0 1 0 0 1 0 0 1 0 0 1 0 0 1 0 0 1 0 0 1 0 0 1 0 0 1 0 0 1 0 0 1 0 0 1 0 0 1 0 0 1 0 0 1 0 0 1 0 0 1 0 0 1 0 0 1 0 0 1 0 0 1 0 0 1 0 0 1 0 0 1 0 0 1 0 0 1 0 0 1 0 0 1 0 0 1 0 0 1 0 0 1 0 0 1 0 0 1 0 0 1 0 0 1 0 0 1 0 0 1 0 0 1 0 0 1 0 0 1 0 0 1 0 0 1 0 0 1 0 0 1 0 0 1 0 0 1 0 0 1 0 0 1 0 0 1 0 0 1 0 0 1 0 0 1 0 0 1 0 0 1 0 0 1 0 0 1 0 0 1 0 0 1 0 0 1 0 0 1 0 0 1 0 0 1 0 0 1 0 0 1 0 0 1 0 0 1 0 0 1 0 0 1 0 0 1 0 0 1 0 0 1 0 0 1 0 0 1 0 0 1 0 0 1 0 0 1 0 0 1 0 0 1 0 0 1 0 0 1 0 0 1 0 0 1 0 0 1 0 0 1 0 0 1 0 0 1 0 0 1 0 0 1 0 0 1 0 0 1 0 0 1 0 0 1 0 0 1 0 0 1 0 0 1 0 0 1 0 0 1 0 0 1 0 0 1 0 0 1 0 0 1 0 0 1 0 0 1 0 0 1 0 0 1 0 0 1 0 0 1 0 0 1 0 0 1 0 0 1 0 0 1 0 0 1 0 0 1 0 0 1 0 0 1 0 0 1 0 0 1 0 0 1 0 0 1 0 0 1 0 0 1 0 0 1 0 0 1 0 0 1 0 0 1 0 0 1 0 0 1 0 0 1 0 0 1 0 0 1 0 0 1 0 0 1 0 0 1 0 0 1 0 0 1 0 0 1 0 0 1 0 0 1 0 0 1 0 0 1 0 0 1 0 0 1 0 0 1 0 0 1 0 0 1 0 0 1 0 0 1 0 0 1 0 0 1 0 0 1 0 0 1 0 0 1 0 0 1 0 0 1 0 0 1 0 0 1 0 0 1 0 0 1 0 0 1 0 0 1 0 0 1 0 0 1 0 0 1 0 0 1 0 0 1 0 0 1 0 0 1 0 0 1 0 0 1 0 0 1 0 0 1 0 0 1 0 0 1 0 0 1 0 0 1 0 0 1 0 0 1 0 0 1 0 0 1 0 0 1 0 0 1 0 0 1 0 0 1 0 0 1 0 0 1 0 0 1 0 0 1 0 0 1 0 0 1 0 0 1 0 0 1 0 0 1 0 0 1 0 0 1 0 0 1 0 0 1 0 0 1 0 0 1 0 0 1 0 0 1 0 0 1 0 0 1 0 0 1 0 0 1 0 0 1 0 0 1 0 0 1 0 0 1 0 0 1 0 0 1 0 0 1 0 0 1 0 0 1 0 0 1 0 0 1 0 0 1 0 0 1 0 0 1 0 0 1 0 0 1 0 0 1 0 0 1 0 0 1 0 0 1 0 0 1 0 0 1 0 0 1</float_array>
          <technique_common>
            <accessor source="#Mesh_002-mesh-normals-array" count="240" stride="3">
              <param name="X" type="float"/>
              <param name="Y" type="float"/>
              <param name="Z" type="float"/>
            </accessor>
          </technique_common>
        </source>
        <vertices id="Mesh_002-mesh-vertices">
          <input semantic="POSITION" source="#Mesh_002-mesh-positions"/>
        </vertices>
        <triangles material="Material_002-material" count="240">
          <input semantic="VERTEX" source="#Mesh_002-mesh-vertices" offset="0"/>
          <input semantic="NORMAL" source="#Mesh_002-mesh-normals" offset="1"/>
          <p>121 0 0 0 120 0 121 1 2 1 1 1 122 2 3 2 2 2 123 3 4 3 3 3 124 4 5 4 4 4 125 5 6 5 5 5 126 6 7 6 6 6 127 7 8 7 7 7 128 8 9 8 8 8 129 9 10 9 9 9 130 10 11 10 10 10 132 11 11 11 131 11 132 12 13 12 12 12 134 13 13 13 133 13 135 14 14 14 134 14 136 15 15 15 135 15 137 16 16 16 136 16 138 17 17 17 137 17 139 18 18 18 138 18 140 19 19 19 139 19 141 20 20 20 140 20 142 21 21 21 141 21 143 22 22 22 142 22 143 23 24 23 23 23 144 24 25 24 24 24 146 25 25 25 145 25 146 26 27 26 26 26 147 27 28 27 27 27 148 28 29 28 28 28 149 29 30 29 29 29 150 30 31 30 30 30 151 31 32 31 31 31 152 32 33 32 32 32 153 33 34 33 33 33 154 34 35 34 34 34 155 35 36 35 35 35 157 36 36 36 156 36 158 37 37 37 157 37 159 38 38 38 158 38 160 39 39 39 159 39 161 40 40 40 160 40 162 41 41 41 161 41 163 42 42 42 162 42 164 43 43 43 163 43 165 44 44 44 164 44 166 45 45 45 165 45 166 46 47 46 46 46 167 47 48 47 47 47 169 48 48 48 168 48 170 49 49 49 169 49 170 50 51 50 50 50 171 51 52 51 51 51 172 52 53 52 52 52 173 53 54 53 53 53 174 54 55 54 54 54 175 55 56 55 55 55 176 56 57 56 56 56 177 57 58 57 57 57 178 58 59 58 58 58 180 59 59 59 179 59 181 60 60 60 180 60 182 61 61 61 181 61 183 62 62 62 182 62 183 63 64 63 63 63 184 64 65 64 64 64 185 65 66 65 65 65 186 66 67 66 66 66 187 67 68 67 67 67 188 68 69 68 68 68 189 69 70 69 69 69 190 70 71 70 70 70 192 71 71 71 191 71 193 72 72 72 192 72 193 73 74 73 73 73 194 74 75 74 74 74 195 75 76 75 75 75 196 76 77 76 76 76 197 77 78 77 77 77 198 78 79 78 78 78 199 79 80 79 79 79 200 80 81 80 80 80 201 81 82 81 81 81 202 82 83 82 82 82 203 83 84 83 83 83 204 84 85 84 84 84 206 85 85 85 205 85 207 86 86 86 206 86 208 87 87 87 207 87 209 88 88 88 208 88 210 89 89 89 209 89 211 90 90 90 210 90 212 91 91 91 211 91 213 92 92 92 212 92 214 93 93 93 213 93 214 94 95 94 94 94 215 95 96 95 95 95 216 96 97 96 96 96 218 97 97 97 217 97 218 98 99 98 98 98 219 99 100 99 99 99 220 100 101 100 100 100 221 101 102 101 101 101 222 102 103 102 102 102 223 103 104 103 103 103 224 104 105 104 104 104 225 105 106 105 105 105 226 106 107 106 106 106 228 107 107 107 227 107 229 108 108 108 228 108 230 109 109 109 229 109 231 110 110 110 230 110 232 111 111 111 231 111 233 112 112 112 232 112 234 113 113 113 233 113 235 114 114 114 234 114 236 115 115 115 235 115 237 116 116 116 236 116 238 117 117 117 237 117 238 118 119 118 118 118 120 119 119 119 239 119 121 120 1 120 0 120 121 121 122 121 2 121 122 122 123 122 3 122 123 123 124 123 4 123 124 124 125 124 5 124 125 125 126 125 6 125 126 126 127 126 7 126 127 127 128 127 8 127 128 128 129 128 9 128 129 129 130 129 10 129 130 130 131 130 11 130 132 131 12 131 11 131 132 132 133 132 13 132 134 133 14 133 13 133 135 134 15 134 14 134 136 135 16 135 15 135 137 136 17 136 16 136 138 137 18 137 17 137 139 138 19 138 18 138 140 139 20 139 19 139 141 140 21 140 20 140 142 141 22 141 21 141 143 142 23 142 22 142 143 143 144 143 24 143 144 144 145 144 25 144 146 145 26 145 25 145 146 146 147 146 27 146 147 147 148 147 28 147 148 148 149 148 29 148 149 149 150 149 30 149 150 150 151 150 31 150 151 151 152 151 32 151 152 152 153 152 33 152 153 153 154 153 34 153 154 154 155 154 35 154 155 155 156 155 36 155 157 156 37 156 36 156 158 157 38 157 37 157 159 158 39 158 38 158 160 159 40 159 39 159 161 160 41 160 40 160 162 161 42 161 41 161 163 162 43 162 42 162 164 163 44 163 43 163 165 164 45 164 44 164 166 165 46 165 45 165 166 166 167 166 47 166 167 167 168 167 48 167 169 168 49 168 48 168 170 169 50 169 49 169 170 170 171 170 51 170 171 171 172 171 52 171 172 172 173 172 53 172 173 173 174 173 54 173 174 174 175 174 55 174 175 175 176 175 56 175 176 176 177 176 57 176 177 177 178 177 58 177 178 178 179 178 59 178 180 179 60 179 59 179 181 180 61 180 60 180 182 181 62 181 61 181 183 182 63 182 62 182 183 183 184 183 64 183 184 184 185 184 65 184 185 185 186 185 66 185 186 186 187 186 67 186 187 187 188 187 68 187 188 188 189 188 69 188 189 189 190 189 70 189 190 190 191 190 71 190 192 191 72 191 71 191 193 192 73 192 72 192 193 193 194 193 74 193 194 194 195 194 75 194 195 195 196 195 76 195 196 196 197 196 77 196 197 197 198 197 78 197 198 198 199 198 79 198 199 199 200 199 80 199 200 200 201 200 81 200 201 201 202 201 82 201 202 202 203 202 83 202 203 203 204 203 84 203 204 204 205 204 85 204 206 205 86 205 85 205 207 206 87 206 86 206 208 207 88 207 87 207 209 208 89 208 88 208 210 209 90 209 89 209 211 210 91 210 90 210 212 211 92 211 91 211 213 212 93 212 92 212 214 213 94 213 93 213 214 214 215 214 95 214 215 215 216 215 96 215 216 216 217 216 97 216 218 217 98 217 97 217 218 218 219 218 99 218 219 219 220 219 100 219 220 220 221 220 101 220 221 221 222 221 102 221 222 222 223 222 103 222 223 223 224 223 104 223 224 224 225 224 105 224 225 225 226 225 106 225 226 226 227 226 107 226 228 227 108 227 107 227 229 228 109 228 108 228 230 229 110 229 109 229 231 230 111 230 110 230 232 231 112 231 111 231 233 232 113 232 112 232 234 233 114 233 113 233 235 234 115 234 114 234 236 235 116 235 115 235 237 236 117 236 116 236 238 237 118 237 117 237 238 238 239 238 119 238 120 239 0 239 119 239</p>
        </triangles>
      </mesh>
    </geometry>
  </library_geometries>
  <library_visual_scenes>
    <visual_scene id="Scene" name="Scene">
      <node id="BézierCircle" name="BézierCircle" type="NODE">
        <matrix sid="transform">1 0 0 0 0 1 0 0 0 0 1 0 0 0 0 1</matrix>
        <instance_geometry url="#Mesh_002-mesh" name="BézierCircle">
          <bind_material>
            <technique_common>
              <instance_material symbol="Material_002-material" target="#Material_002-material"/>
            </technique_common>
          </bind_material>
        </instance_geometry>
      </node>
    </visual_scene>
  </library_visual_scenes>
  <scene>
    <instance_visual_scene url="#Scene"/>
  </scene>
</COLLADA>