<?xml version="1.0" encoding="utf-8"?>
<COLLADA xmlns="http://www.collada.org/2005/11/COLLADASchema" version="1.4.1" xmlns:xsi="http://www.w3.org/2001/XMLSchema-instance">
  <asset>
    <contributor>
      <author>Blender User</author>
      <authoring_tool>Blender 4.5.2 LTS commit date:2025-08-19, commit time:15:00, hash:ab25eae04993</authoring_tool>
    </contributor>
    <created>2026-08-30T13:03:13</created>
    <modified>2026-08-30T13:03:13</modified>
    <unit name="meter" meter="1"/>
    <up_axis>Z_UP</up_axis>
  </asset>
  <library_effects>
    <effect id="Material_001-effect">
      <profile_COMMON>
        <newparam sid="photo_2026-08-29_00-38-51_jpg_001-surface">
          <surface type="2D">
            <init_from>photo_2026-08-29_00-38-51_jpg_001</init_from>
          </surface>
        </newparam>
        <newparam sid="photo_2026-08-29_00-38-51_jpg_001-sampler">
          <sampler2D>
            <source>photo_2026-08-29_00-38-51_jpg_001-surface</source>
          </sampler2D>
        </newparam>
        <technique sid="common">
          <lambert>
            <emission>
              <color sid="emission">0 0 0 1</color>
            </emission>
            <diffuse>
              <texture texture="photo_2026-08-29_00-38-51_jpg_001-sampler" texcoord="Plane_012-mesh-map-0"/>
            </diffuse>
            <index_of_refraction>
              <float sid="ior">1.45</float>
            </index_of_refraction>
          </lambert>
        </technique>
      </profile_COMMON>
    </effect>
  </library_effects>
  <library_images>
    <image id="photo_2026-08-29_00-38-51_jpg_001" name="photo_2026-08-29_00-38-51_jpg_001">
      <init_from>map.png</init_from>
    </image>
  </library_images>
  <library_materials>
    <material id="Material_001-material" name="Material.001">
      <instance_effect url="#Material_001-effect"/>
    </material>
  </library_materials>
  <library_geometries>
    <geometry id="Plane_012-mesh" name="Plane.012">
      <mesh>
        <source id="Plane_012-mesh-positions">
          <float_array id="Plane_012-mesh-positions-array" count="60">-9.985057 6.479166 -8.72922e-7 -9.985057 6.479166 3.499999 -9.585058 6.079165 -8.37952e-7 -9.585058 6.079165 3.499999 5.814939 -6.320841 5.08358e-7 5.814939 -6.320841 3.5 5.814943 6.479161 5.08358e-7 5.814942 6.479161 3.5 5.414939 -5.920841 4.73389e-7 5.414938 -5.920841 3.5 5.414942 6.07916 3.5 5.414943 6.07916 4.73389e-7 -9.58506 -0.9708349 -8.37952e-7 -9.58506 -0.9708349 3.499999 -9.985059 -0.9708343 -8.72922e-7 -9.985059 -0.9708343 3.499999 -2.585061 -5.920837 3.5 -2.585061 -6.320837 3.5 -2.585061 -5.920837 -2.25993e-7 -2.585061 -6.320837 -2.25993e-7</float_array>
          <technique_common>
            <accessor source="#Plane_012-mesh-positions-array" count="20" stride="3">
              <param name="X" type="float"/>
              <param name="Y" type="float"/>
              <param name="Z" type="float"/>
            </accessor>
          </technique_common>
        </source>
        <source id="Plane_012-mesh-normals">
          <float_array id="Plane_012-mesh-normals-array" count="102">0 0 1 0 0 -1 -1 0 0 0 0 1 0 0 1 0 0 -1 3.31975e-7 1 0 -1.63913e-6 -1 0 -1 2.92594e-7 0 4.76837e-7 1 0 -3.49681e-7 -1 0 -1 3.63304e-7 -1.36239e-7 1 -3.40598e-7 1.36239e-7 0 0 -1 1 -3.09195e-7 0 -4.54131e-7 -1 -2.05035e-7 0 0 -1 -3.72529e-7 0 1 0 0 -1 -1 0 0 0 0 1 -1.41916e-7 0 1 0 0 -1 3.31975e-7 1 0 -1.63913e-6 -1 0 -1 0 0 0 0 1 4.76837e-7 1 0 -3.49681e-7 -1 0 -1 2.72478e-7 -1.36239e-7 1 -2.55448e-7 1.36239e-7 0 0 -1 -4.54131e-7 -1 0 0 0 -1</float_array>
          <technique_common>
            <accessor source="#Plane_012-mesh-normals-array" count="34" stride="3">
              <param name="X" type="float"/>
              <param name="Y" type="float"/>
              <param name="Z" type="float"/>
            </accessor>
          </technique_common>
        </source>
        <source id="Plane_012-mesh-map-0">
          <float_array id="Plane_012-mesh-map-0-array" count="216">0.4452342 0.777311 0.4464486 0.7731096 0.482883 0.7731102 0.5011002 0.777311 0.4998857 0.7731096 0.4998856 0.615556 0.462237 0.6523198 0.4634514 0.6523198 0.4634515 0.6890822 0.4464486 0.7731096 0.4452342 0.777311 0.4452342 0.6113545 0.482883 0.7731102 0.4828832 0.6890812 0.4840977 0.6890812 0.4998857 0.7731096 0.5011002 0.777311 0.4622371 0.7773117 0.07323044 0.2304508 0.07323044 0.1359938 0.1964884 0.1359938 0.4784805 0.6155561 0.4678539 0.6155561 0.4678539 0.6113547 0.07323044 0.2304508 0.01511192 0.2304508 0.01511192 0.1359938 0.4678539 0.6113547 0.4678539 0.6155561 0.4464488 0.615556 0.6606464 0.7086378 0.6606464 0.8895672 0.7659931 0.8895672 0.7659931 0.8895672 0.7659931 0.7086381 0.9901356 0.7086381 0.9901356 0.7086381 0.7659931 0.7086378 0.7659931 0.8895672 0.296343 0.2304508 0.1964883 0.2304508 0.1964884 0.1359938 0.4784805 0.6113547 0.5011002 0.6113545 0.4998856 0.615556 0.6606464 0.7086381 0.7659931 0.7086381 0.7659931 0.8895672 0.3618726 0.2304508 0.296343 0.2304508 0.296343 0.1359938 0.4634516 0.7731103 0.4622371 0.7773117 0.462237 0.6890822 0.4452342 0.777311 0.482883 0.7731102 0.4840975 0.7773117 0.5011002 0.777311 0.4998856 0.615556 0.5011002 0.6113545 0.462237 0.6523198 0.4634515 0.6890822 0.462237 0.6890822 0.4464486 0.7731096 0.4452342 0.6113545 0.4464488 0.615556 0.482883 0.7731102 0.4840977 0.6890812 0.4840975 0.7773117 0.4998857 0.7731096 0.4622371 0.7773117 0.4634516 0.7731103 0.07323044 0.2304508 0.1964884 0.1359938 0.1964883 0.2304508 0.4784805 0.6155561 0.4678539 0.6113547 0.4784805 0.6113547 0.07323044 0.2304508 0.01511192 0.1359938 0.07323044 0.1359938 0.4678539 0.6113547 0.4464488 0.615556 0.4452342 0.6113545 0.6606464 0.7086378 0.7659931 0.8895672 0.7659931 0.7086378 0.7659931 0.8895672 0.9901356 0.7086381 0.9901356 0.8895674 0.9901356 0.7086381 0.7659931 0.8895672 0.9901356 0.8895674 0.296343 0.2304508 0.1964884 0.1359938 0.296343 0.1359938 0.4784805 0.6113547 0.4998856 0.615556 0.4784805 0.6155561 0.6606464 0.7086381 0.7659931 0.8895672 0.6606464 0.8895674 0.3618726 0.2304508 0.296343 0.1359938 0.3618726 0.1359938 0.4634516 0.7731103 0.462237 0.6890822 0.4634515 0.6890822</float_array>
          <technique_common>
            <accessor source="#Plane_012-mesh-map-0-array" count="108" stride="2">
              <param name="S" type="float"/>
              <param name="T" type="float"/>
            </accessor>
          </technique_common>
        </source>
        <vertices id="Plane_012-mesh-vertices">
          <input semantic="POSITION" source="#Plane_012-mesh-positions"/>
        </vertices>
        <triangles material="Material_001-material" count="36">
          <input semantic="VERTEX" source="#Plane_012-mesh-vertices" offset="0"/>
          <input semantic="NORMAL" source="#Plane_012-mesh-normals" offset="1"/>
          <input semantic="TEXCOORD" source="#Plane_012-mesh-map-0" offset="2" set="0"/>
          <p>7 0 0 10 0 1 9 0 2 6 1 3 11 1 4 2 1 5 17 2 6 16 2 7 18 2 8 10 3 9 7 3 10 1 3 11 9 4 12 16 4 13 17 4 14 11 5 15 6 5 16 4 5 17 0 6 18 1 6 19 7 6 20 12 7 21 13 7 22 15 7 23 0 8 24 14 8 25 15 8 26 15 0 27 13 0 28 3 0 29 18 9 30 16 9 31 9 9 32 3 10 33 2 10 34 11 10 35 11 11 36 8 11 37 9 11 38 4 12 39 6 12 40 7 12 41 14 13 42 0 13 43 2 13 44 12 14 45 2 14 46 3 14 47 19 15 48 4 15 49 5 15 50 8 16 51 4 16 52 19 16 53 7 17 54 9 17 55 5 17 56 6 18 57 2 18 58 0 18 59 17 19 60 18 19 61 19 19 62 10 20 63 1 20 64 3 20 65 9 21 66 17 21 67 5 21 68 11 22 69 4 22 70 8 22 71 0 23 72 7 23 73 6 23 74 12 24 75 15 24 76 14 24 77 0 25 78 15 25 79 1 25 80 15 26 81 3 26 82 1 26 83 18 27 84 9 27 85 8 27 86 3 28 87 11 28 88 10 28 89 11 29 90 9 29 91 10 29 92 4 30 93 7 30 94 5 30 95 14 31 96 2 31 97 12 31 98 12 14 99 3 14 100 13 14 101 19 32 102 5 32 103 17 32 104 8 33 105 19 33 106 18 33 107</p>
        </triangles>
      </mesh>
    </geometry>
  </library_geometries>
  <library_visual_scenes>
    <visual_scene id="Scene" name="Scene">
      <node id="Plane_008" name="Plane.008" type="NODE">
        <matrix sid="transform">1 0 0 0 0 1 0 0 0 0 1 0 0 0 0 1</matrix>
        <instance_geometry url="#Plane_012-mesh" name="Plane.008">
          <bind_material>
            <technique_common>
              <instance_material symbol="Material_001-material" target="#Material_001-material">
                <bind_vertex_input semantic="Plane_012-mesh-map-0" input_semantic="TEXCOORD" input_set="0"/>
              </instance_material>
            </technique_common>
          </bind_material>
        </instance_geometry>
      </node>
    </visual_scene>
  </library_visual_scenes>
  <scene>
    <instance_visual_scene url="#Scene"/>
  </scene>
</COLLADA>