<?xml version="1.0" encoding="utf-8"?>
<COLLADA xmlns="http://www.collada.org/2005/11/COLLADASchema" version="1.4.1" xmlns:xsi="http://www.w3.org/2001/XMLSchema-instance">
  <asset>
    <contributor>
      <author>Blender User</author>
      <authoring_tool>Blender 4.5.2 LTS commit date:2025-08-19, commit time:15:00, hash:ab25eae04993</authoring_tool>
    </contributor>
    <created>2026-08-30T11:24:33</created>
    <modified>2026-08-30T11:24:33</modified>
    <unit name="meter" meter="1"/>
    <up_axis>Z_UP</up_axis>
  </asset>
  <library_effects>
    <effect id="Material_002-effect">
      <profile_COMMON>
        <newparam sid="photo_2026-08-29_00-38-51_jpg-surface">
          <surface type="2D">
            <init_from>photo_2026-08-29_00-38-51_jpg</init_from>
          </surface>
        </newparam>
        <newparam sid="photo_2026-08-29_00-38-51_jpg-sampler">
          <sampler2D>
            <source>photo_2026-08-29_00-38-51_jpg-surface</source>
          </sampler2D>
        </newparam>
        <technique sid="common">
          <lambert>
            <emission>
              <color sid="emission">0 0 0 1</color>
            </emission>
            <diffuse>
              <texture texture="photo_2026-08-29_00-38-51_jpg-sampler" texcoord="Plane_011-mesh-map-0"/>
            </diffuse>
            <index_of_refraction>
              <float sid="ior">1.45</float>
            </index_of_refraction>
          </lambert>
        </technique>
      </profile_COMMON>
    </effect>
  </library_effects>
  <library_images>
    <image id="photo_2026-08-29_00-38-51_jpg" name="photo_2026-08-29_00-38-51_jpg">
      <init_from>floor.png</init_from>
    </image>
  </library_images>
  <library_materials>
    <material id="Material_002-material" name="Material.002">
      <instance_effect url="#Material_002-effect"/>
    </material>
  </library_materials>
  <library_geometries>
    <geometry id="Plane_011-mesh" name="Plane.011">
      <mesh>
        <source id="Plane_011-mesh-positions">
          <float_array id="Plane_011-mesh-positions-array" count="48">5.814947 -6.320831 5.08359e-7 5.814943 6.479171 5.08359e-7 -9.985057 6.479166 -8.72921e-7 5.814947 -6.320831 -0.6999995 5.814943 6.479171 -0.6999995 -9.985057 6.479166 -0.7000009 5.814945 -0.5708303 -0.6999995 5.814945 -0.5708303 5.08359e-7 -9.985055 -0.9708343 -0.7000009 -9.985055 -0.9708343 -8.72921e-7 -2.585061 -6.320835 -2.25993e-7 -4.085057 6.479167 -3.57127e-7 -4.085057 6.479167 -0.7000004 -2.585061 -6.320835 -0.7000002 -2.585063 -0.9708324 -0.7000002 -2.585063 -0.9708324 -2.25993e-7</float_array>
          <technique_common>
            <accessor source="#Plane_011-mesh-positions-array" count="16" stride="3">
              <param name="X" type="float"/>
              <param name="Y" type="float"/>
              <param name="Z" type="float"/>
            </accessor>
          </technique_common>
        </source>
        <source id="Plane_011-mesh-normals">
          <float_array id="Plane_011-mesh-normals-array" count="81">1 2.36938e-7 0 -1 -3.65743e-7 0 -3.37158e-7 1 0 0 0 1 0 0 -1 0 0 1 1 1.93247e-7 0 0 0 -1 0 0 -1 0 0 1 4.5413e-7 -1 0 -3.2328e-7 1 0 -1 -3.18316e-7 0 2.5775e-7 -1 0 1 2.36938e-7 0 -1 -1.82871e-7 0 -3.37158e-7 1 0 0 0 1 0 0 -1 0 0 1 1 3.86494e-7 0 0 0 -1 0 0 -1 0 0 1 4.5413e-7 -1 0 -3.23279e-7 1 0 -1 -3.81979e-7 0</float_array>
          <technique_common>
            <accessor source="#Plane_011-mesh-normals-array" count="27" stride="3">
              <param name="X" type="float"/>
              <param name="Y" type="float"/>
              <param name="Z" type="float"/>
            </accessor>
          </technique_common>
        </source>
        <source id="Plane_011-mesh-map-0">
          <float_array id="Plane_011-mesh-map-0-array" count="168">0.2089383 0.25413 0.015998 0.2541301 0.015998 0.2069354 0.2089383 0.25413 0.015998 0.2541301 0.015998 0.2069353 0.015998 0.2541301 0.015998 0.2069354 0.2089383 0.2069352 0.386854 0.5778358 0.4981952 0.5778358 0.4981952 0.03694373 0.2529729 0.1191731 0.1697449 0.1191731 0.1697449 0.463218 0.4981952 0.5778358 0.5890055 0.5778358 0.5890055 0.03694373 0.015998 0.2541301 0.2089383 0.25413 0.2089383 0.2069352 0.1697449 0.1191731 0.03009098 0.1191732 0.03009098 0.4632181 0.1697449 0.463218 0.03009098 0.4632181 0.03009098 0.7438222 0.386854 0.9001852 0.4981952 0.9001852 0.4981952 0.5778358 0.2089383 0.25413 0.2089383 0.2069351 0.01599806 0.2069354 0.2089383 0.25413 0.2089383 0.2069351 0.015998 0.2069354 0.015998 0.2069354 0.2089383 0.2069352 0.2089383 0.25413 0.015998 0.2069353 0.015998 0.2541301 0.2089383 0.25413 0.2089383 0.25413 0.015998 0.2069354 0.2089383 0.2069351 0.2089383 0.25413 0.015998 0.2069353 0.2089383 0.2069351 0.015998 0.2541301 0.2089383 0.2069352 0.2089383 0.25413 0.386854 0.5778358 0.4981952 0.03694373 0.386854 0.03694373 0.2529729 0.1191731 0.1697449 0.463218 0.2529729 0.463218 0.4981952 0.5778358 0.5890055 0.03694373 0.4981952 0.03694373 0.015998 0.2541301 0.2089383 0.2069352 0.015998 0.2069354 0.1697449 0.1191731 0.03009098 0.4632181 0.1697449 0.463218 0.1697449 0.463218 0.03009098 0.7438222 0.1697449 0.743822 0.386854 0.9001852 0.4981952 0.5778358 0.386854 0.5778358 0.2089383 0.25413 0.01599806 0.2069354 0.015998 0.2541301 0.2089383 0.25413 0.015998 0.2069354 0.015998 0.2541301 0.015998 0.2069354 0.2089383 0.25413 0.015998 0.2541301 0.015998 0.2069353 0.2089383 0.25413 0.2089383 0.2069352</float_array>
          <technique_common>
            <accessor source="#Plane_011-mesh-map-0-array" count="84" stride="2">
              <param name="S" type="float"/>
              <param name="T" type="float"/>
            </accessor>
          </technique_common>
        </source>
        <vertices id="Plane_011-mesh-vertices">
          <input semantic="POSITION" source="#Plane_011-mesh-positions"/>
        </vertices>
        <triangles material="Material_002-material" count="28">
          <input semantic="VERTEX" source="#Plane_011-mesh-vertices" offset="0"/>
          <input semantic="NORMAL" source="#Plane_011-mesh-normals" offset="1"/>
          <input semantic="TEXCOORD" source="#Plane_011-mesh-map-0" offset="2" set="0"/>
          <p>3 0 0 6 0 1 7 0 2 5 1 3 8 1 4 9 1 5 12 2 6 11 2 7 1 2 8 11 3 9 15 3 10 7 3 11 5 4 12 12 4 13 14 4 14 15 5 15 10 5 16 0 5 17 6 6 18 4 6 19 1 6 20 12 7 21 4 7 22 6 7 23 14 8 24 6 8 25 3 8 26 2 9 27 9 9 28 15 9 29 3 10 30 0 10 31 10 10 32 5 11 33 2 11 34 11 11 35 10 12 36 15 12 37 14 12 38 9 13 39 8 13 40 14 13 41 3 14 42 7 14 43 0 14 44 5 15 45 9 15 46 2 15 47 12 16 48 1 16 49 4 16 50 11 17 51 7 17 52 1 17 53 5 18 54 14 18 55 8 18 56 15 19 57 0 19 58 7 19 59 6 20 60 1 20 61 7 20 62 12 21 63 6 21 64 14 21 65 14 22 66 3 22 67 13 22 68 2 23 69 15 23 70 11 23 71 3 24 72 10 24 73 13 24 74 5 25 75 11 25 76 12 25 77 10 26 78 14 26 79 13 26 80 9 13 81 14 13 82 15 13 83</p>
        </triangles>
      </mesh>
    </geometry>
  </library_geometries>
  <library_visual_scenes>
    <visual_scene id="Scene" name="Scene">
      <node id="Plane_002" name="Plane.002" type="NODE">
        <matrix sid="transform">1 0 0 0 0 1 0 0 0 0 1 0 0 0 0 1</matrix>
        <instance_geometry url="#Plane_011-mesh" name="Plane.002">
          <bind_material>
            <technique_common>
              <instance_material symbol="Material_002-material" target="#Material_002-material">
                <bind_vertex_input semantic="Plane_011-mesh-map-0" input_semantic="TEXCOORD" input_set="0"/>
              </instance_material>
            </technique_common>
          </bind_material>
        </instance_geometry>
      </node>
    </visual_scene>
  </library_visual_scenes>
  <scene>
    <instance_visual_scene url="#Scene"/>
  </scene>
</COLLADA>