<?xml version="1.0" encoding="utf-8"?>
<COLLADA xmlns="http://www.collada.org/2005/11/COLLADASchema" version="1.4.1" xmlns:xsi="http://www.w3.org/2001/XMLSchema-instance">
  <asset>
    <contributor>
      <author>Blender User</author>
      <authoring_tool>Blender 4.5.2 LTS commit date:2025-08-19, commit time:15:00, hash:ab25eae04993</authoring_tool>
    </contributor>
    <created>2026-09-25T11:46:59</created>
    <modified>2026-09-25T11:46:59</modified>
    <unit name="meter" meter="1"/>
    <up_axis>Z_UP</up_axis>
  </asset>
  <library_effects>
    <effect id="Material_001-effect">
      <profile_COMMON>
        <newparam sid="road_texture_png_001-surface">
          <surface type="2D">
            <init_from>road_texture_png_001</init_from>
          </surface>
        </newparam>
        <newparam sid="road_texture_png_001-sampler">
          <sampler2D>
            <source>road_texture_png_001-surface</source>
          </sampler2D>
        </newparam>
        <technique sid="common">
          <lambert>
            <emission>
              <color sid="emission">0 0 0 1</color>
            </emission>
            <diffuse>
              <texture texture="road_texture_png_001-sampler"/>
            </diffuse>
            <index_of_refraction>
              <float sid="ior">1.5</float>
            </index_of_refraction>
          </lambert>
        </technique>
      </profile_COMMON>
    </effect>
  </library_effects>
  <library_images>
    <image id="road_texture_png_001" name="road_texture_png_001">
      <init_from>road_texture.png</init_from>
    </image>
  </library_images>
  <library_materials>
    <material id="Material_001-material" name="Material.001">
      <instance_effect url="#Material_001-effect"/>
    </material>
  </library_materials>
  <library_geometries>
    <geometry id="Mesh_001-mesh" name="Mesh.001">
      <mesh>
        <source id="Mesh_001-mesh-positions">
          <float_array id="Mesh_001-mesh-positions-array" count="162">-19.04241 0.3704718 0 -19.03179 1.239249 0 -18.67491 2.209363 0 -17.69214 3.449561 0 -16.48472 4.029006 0 -15.08876 4.07278 0 -13.54038 3.705965 0 -11.87569 3.053642 0 -10.13081 2.240892 0 -8.341854 1.392797 0 -6.544937 0.6344391 0 -4.776178 0.09089905 0 -3.071692 -0.1127414 0 -1.467594 0.1485991 0 0 1 0 0.447528 1.48436 0 0.7237794 2.004451 0 0.8587099 2.556304 0 0.8822752 3.135951 0 0.8244307 3.739421 0 0.7151322 4.362747 0 0.5843355 5.001959 0 0.4619959 5.653087 0 0.3780692 6.312163 0 0.3625111 6.975217 0 0.4452772 7.638281 0 0.6563215 8.297387 0 -18.84199 0.404269 0 -18.83222 1.202445 0 -18.49826 2.110252 0 -17.56403 3.289202 0 -16.43625 3.830428 0 -15.10903 3.872046 0 -13.60021 3.514604 0 -11.95447 2.869707 0 -10.21587 2.059881 0 -8.423611 1.21022 0 -6.613369 0.4462379 0 -4.817749 -0.1055567 0 -3.067391 -0.3146776 0 -1.399087 -0.04287654 0 0.1264375 0.8421317 0 0.6120052 1.367662 0 0.9121248 1.932689 0 1.057733 2.528214 0 1.082664 3.141456 0 1.022773 3.766275 0 0.9116387 4.400073 0 0.7805985 5.040474 0 0.6596475 5.684212 0 0.5777719 6.32718 0 0.562803 6.965122 0 0.6414303 7.595028 0 0.8434197 8.225853 0</float_array>
          <technique_common>
            <accessor source="#Mesh_001-mesh-positions-array" count="54" stride="3">
              <param name="X" type="float"/>
              <param name="Y" type="float"/>
              <param name="Z" type="float"/>
            </accessor>
          </technique_common>
        </source>
        <source id="Mesh_001-mesh-normals">
          <float_array id="Mesh_001-mesh-normals-array" count="3">0 0 1</float_array>
          <technique_common>
            <accessor source="#Mesh_001-mesh-normals-array" count="1" stride="3">
              <param name="X" type="float"/>
              <param name="Y" type="float"/>
              <param name="Z" type="float"/>
            </accessor>
          </technique_common>
        </source>
        <vertices id="Mesh_001-mesh-vertices">
          <input semantic="POSITION" source="#Mesh_001-mesh-positions"/>
        </vertices>
        <triangles material="Material_001-material" count="52">
          <input semantic="VERTEX" source="#Mesh_001-mesh-vertices" offset="0"/>
          <input semantic="NORMAL" source="#Mesh_001-mesh-normals" offset="1"/>
          <p>27 0 1 0 0 0 28 0 2 0 1 0 30 0 2 0 29 0 30 0 4 0 3 0 31 0 5 0 4 0 32 0 6 0 5 0 33 0 7 0 6 0 34 0 8 0 7 0 35 0 9 0 8 0 36 0 10 0 9 0 37 0 11 0 10 0 38 0 12 0 11 0 39 0 13 0 12 0 41 0 13 0 40 0 42 0 14 0 41 0 43 0 15 0 42 0 44 0 16 0 43 0 45 0 17 0 44 0 46 0 18 0 45 0 47 0 19 0 46 0 48 0 20 0 47 0 49 0 21 0 48 0 50 0 22 0 49 0 51 0 23 0 50 0 52 0 24 0 51 0 52 0 26 0 25 0 27 0 28 0 1 0 28 0 29 0 2 0 30 0 3 0 2 0 30 0 31 0 4 0 31 0 32 0 5 0 32 0 33 0 6 0 33 0 34 0 7 0 34 0 35 0 8 0 35 0 36 0 9 0 36 0 37 0 10 0 37 0 38 0 11 0 38 0 39 0 12 0 39 0 40 0 13 0 41 0 14 0 13 0 42 0 15 0 14 0 43 0 16 0 15 0 44 0 17 0 16 0 45 0 18 0 17 0 46 0 19 0 18 0 47 0 20 0 19 0 48 0 21 0 20 0 49 0 22 0 21 0 50 0 23 0 22 0 51 0 24 0 23 0 52 0 25 0 24 0 52 0 53 0 26 0</p>
        </triangles>
      </mesh>
    </geometry>
  </library_geometries>
  <library_visual_scenes>
    <visual_scene id="Scene" name="Scene">
      <node id="BézierCircle_001" name="BézierCircle.001" type="NODE">
        <matrix sid="transform">1 0 0 0 0 1 0 0 0 0 1 0 0 0 0 1</matrix>
        <instance_geometry url="#Mesh_001-mesh" name="BézierCircle.001">
          <bind_material>
            <technique_common>
              <instance_material symbol="Material_001-material" target="#Material_001-material"/>
            </technique_common>
          </bind_material>
        </instance_geometry>
      </node>
    </visual_scene>
  </library_visual_scenes>
  <scene>
    <instance_visual_scene url="#Scene"/>
  </scene>
</COLLADA>