<?xml version="1.0" encoding="utf-8"?>
<COLLADA xmlns="http://www.collada.org/2005/11/COLLADASchema" version="1.4.1" xmlns:xsi="http://www.w3.org/2001/XMLSchema-instance">
  <asset>
    <contributor>
      <author>Blender User</author>
      <authoring_tool>Blender 4.5.2 LTS commit date:2025-08-19, commit time:15:00, hash:ab25eae04993</authoring_tool>
    </contributor>
    <created>2026-09-02T13:40:41</created>
    <modified>2026-09-02T13:40:41</modified>
    <unit name="meter" meter="1"/>
    <up_axis>Z_UP</up_axis>
  </asset>
  <library_effects>
    <effect id="Material_002-effect">
      <profile_COMMON>
        <newparam sid="road_texture_png-surface">
          <surface type="2D">
            <init_from>road_texture_png</init_from>
          </surface>
        </newparam>
        <newparam sid="road_texture_png-sampler">
          <sampler2D>
            <source>road_texture_png-surface</source>
          </sampler2D>
        </newparam>
        <technique sid="common">
          <lambert>
            <emission>
              <color sid="emission">0 0 0 1</color>
            </emission>
            <diffuse>
              <texture texture="road_texture_png-sampler"/>
            </diffuse>
            <index_of_refraction>
              <float sid="ior">1.5</float>
            </index_of_refraction>
          </lambert>
        </technique>
      </profile_COMMON>
    </effect>
  </library_effects>
  <library_images>
    <image id="road_texture_png" name="road_texture_png">
      <init_from>road_texture.png</init_from>
    </image>
  </library_images>
  <library_materials>
    <material id="Material_002-material" name="Material.002">
      <instance_effect url="#Material_002-effect"/>
    </material>
  </library_materials>
  <library_geometries>
    <geometry id="Mesh_001-mesh" name="Mesh.001">
      <mesh>
        <source id="Mesh_001-mesh-positions">
          <float_array id="Mesh_001-mesh-positions-array" count="576">-11.39049 -7.235313 0 -12.02097 -6.257022 0 -12.81818 -5.381554 0 -13.73082 -4.588493 0 -14.7076 -3.857424 0 -15.69721 -3.167929 0 -16.64837 -2.499594 0 -17.50977 -1.832002 0 -18.23011 -1.144738 0 -18.75809 -0.4173851 0 -19.04241 0.3704718 0 -19.03179 1.239249 0 -18.67491 2.209363 0 -17.69214 3.449561 0 -16.48472 4.029006 0 -15.08876 4.07278 0 -13.54038 3.705965 0 -11.87569 3.053642 0 -10.13081 2.240892 0 -8.341853 1.392797 0 -6.544937 0.6344391 0 -4.776178 0.09089905 0 -3.071692 -0.1127414 0 -1.467594 0.1485991 0 0 1 0 0.447528 1.48436 0 0.7237794 2.004451 0 0.8587099 2.556304 0 0.8822752 3.135951 0 0.8244307 3.739421 0 0.7151322 4.362747 0 0.5843355 5.001959 0 0.4619959 5.653087 0 0.3780692 6.312163 0 0.3625111 6.975217 0 0.4452772 7.638281 0 0.6563215 8.297386 0 0.8539264 8.739323 0 1.054148 9.156713 0 1.260822 9.549998 0 1.477783 9.91962 0 1.708866 10.26602 0 1.957907 10.58965 0 2.228739 10.89094 0 2.525199 11.17033 0 2.851121 11.42828 0 3.21034 11.66522 0 3.606692 11.8816 0 4.044011 12.07785 0 5.300489 12.57056 0 6.607182 13.03919 0 7.941862 13.45982 0 9.2823 13.80859 0 10.60627 14.06161 0 11.89154 14.19497 0 13.11588 14.18481 0 14.25706 14.00724 0 15.29286 13.63835 0 16.20105 13.05428 0 16.9594 12.23113 0 17.54568 11.14501 0 18.26317 8.381897 0 18.13431 5.924449 0 17.27493 3.722692 0 15.80085 1.726655 0 13.82789 -0.1136345 0 11.47187 -1.848148 0 8.848616 -3.526859 0 6.073952 -5.199737 0 3.263701 -6.916755 0 0.5336857 -8.727885 0 -2.000271 -10.6831 0 -4.222338 -12.83237 0 -4.598898 -13.31447 0 -4.926221 -13.84294 0 -5.217284 -14.39876 0 -5.485064 -14.96294 0 -5.74254 -15.51647 0 -6.002689 -16.04034 0 -6.27849 -16.51555 0 -6.58292 -16.9231 0 -6.928956 -17.24398 0 -7.329577 -17.45919 0 -7.79776 -17.54973 0 -8.346484 -17.49658 0 -9.227115 -17.17603 0 -9.856495 -16.6813 0 -10.2758 -16.03549 0 -10.52621 -15.26168 0 -10.6489 -14.38298 0 -10.68505 -13.42249 0 -10.67583 -12.40331 0 -10.66243 -11.34852 0 -10.68602 -10.28123 0 -10.78777 -9.224534 0 -11.00887 -8.201529 0 -11.21171 -7.143525 0 -11.86188 -6.13468 0 -12.67817 -5.238255 0 -13.60514 -4.432744 0 -14.59048 -3.695268 0 -15.58256 -3.004058 0 -16.52956 -2.338644 0 -17.37914 -1.68021 0 -18.07892 -1.012562 0 -18.57958 -0.3228337 0 -18.84199 0.404269 0 -18.83222 1.202445 0 -18.49826 2.110252 0 -17.56403 3.289202 0 -16.43625 3.830428 0 -15.10903 3.872046 0 -13.60021 3.514604 0 -11.95447 2.869707 0 -10.21587 2.059881 0 -8.423611 1.21022 0 -6.613369 0.4462379 0 -4.817749 -0.1055567 0 -3.067391 -0.3146776 0 -1.399087 -0.04287654 0 0.1264375 0.8421317 0 0.6120052 1.367662 0 0.9121248 1.932689 0 1.057733 2.528214 0 1.082664 3.141456 0 1.022773 3.766275 0 0.9116387 4.400073 0 0.7805985 5.040474 0 0.6596475 5.684212 0 0.5777719 6.32718 0 0.562803 6.965122 0 0.6414303 7.595028 0 0.8434197 8.225853 0 1.035412 8.655239 0 1.232892 9.066913 0 1.435681 9.452804 0 1.647353 9.813416 0 1.871491 10.14941 0 2.111751 10.46162 0 2.37194 10.75107 0 2.656087 11.01887 0 2.96846 11.26609 0 3.313497 11.49368 0 3.695686 11.70232 0 4.121506 11.89341 0 5.370769 12.3833 0 6.671023 12.84961 0 7.997137 13.26755 0 9.326299 13.61338 0 10.63541 13.86356 0 11.90106 13.99489 0 13.09959 13.98494 0 14.20771 13.81251 0 15.20406 13.45767 0 16.07132 12.89992 0 16.79532 12.11406 0 17.35818 11.07131 0 18.06183 8.361526 0 17.93628 5.967127 0 17.09828 3.820147 0 15.65093 1.860317 0 13.69996 0.04054021 0 11.35856 -1.683213 0 8.743063 -3.35696 0 5.970181 -5.028763 0 3.156244 -6.748033 0 0.4171658 -8.565176 0 -2.131291 -10.53158 0 -4.371389 -12.69829 0 -4.763205 -13.19992 0 -5.100049 -13.74376 0 -5.396282 -14.30946 0 -5.666078 -14.87788 0 -5.922804 -15.4298 0 -6.178929 -15.94556 0 -6.445654 -16.40514 0 -6.732258 -16.78883 0 -7.046165 -17.07991 0 -7.39742 -17.26861 0 -7.807301 -17.34786 0 -8.301933 -17.29996 0 -9.128658 -16.99903 0 -9.706816 -16.54457 0 -10.09366 -15.94875 0 -10.33055 -15.21672 0 -10.44942 -14.36535 0 -10.48501 -13.41964 0 -10.47584 -12.40548 0 -10.4624 -11.34758 0 -10.48623 -10.26942 0 -10.58981 -9.193718 0 -10.81684 -8.143281 0</float_array>
          <technique_common>
            <accessor source="#Mesh_001-mesh-positions-array" count="192" stride="3">
              <param name="X" type="float"/>
              <param name="Y" type="float"/>
              <param name="Z" type="float"/>
            </accessor>
          </technique_common>
        </source>
        <source id="Mesh_001-mesh-normals">
          <float_array id="Mesh_001-mesh-normals-array" count="576">0 0 1 0 0 1 0 0 1 0 0 1 0 0 1 0 0 1 0 0 1 0 0 1 0 0 1 0 0 1 0 0 1 0 0 1 0 0 1 0 0 1 0 0 1 0 0 1 0 0 1 0 0 1 0 0 1 0 0 1 0 0 1 0 0 1 0 0 1 0 0 1 0 0 1 0 0 1 0 0 1 0 0 1 0 0 1 0 0 1 0 0 1 0 0 1 0 0 1 0 0 1 0 0 1 0 0 1 0 0 1 0 0 1 0 0 1 0 0 1 0 0 1 0 0 1 0 0 1 0 0 1 0 0 1 0 0 1 0 0 1 0 0 1 0 0 1 0 0 1 0 0 1 0 0 1 0 0 1 0 0 1 0 0 1 0 0 1 0 0 1 0 0 1 0 0 1 0 0 1 0 0 1 0 0 1 0 0 1 0 0 1 0 0 1 0 0 1 0 0 1 0 0 1 0 0 1 0 0 1 0 0 1 0 0 1 0 0 1 0 0 1 0 0 1 0 0 1 0 0 1 0 0 1 0 0 1 0 0 1 0 0 1 0 0 1 0 0 1 0 0 1 0 0 1 0 0 1 0 0 1 0 0 1 0 0 1 0 0 1 0 0 1 0 0 1 0 0 1 0 0 1 0 0 1 0 0 1 0 0 1 0 0 1 0 0 1 0 0 1 0 0 1 0 0 1 0 0 1 0 0 1 0 0 1 0 0 1 0 0 1 0 0 1 0 0 1 0 0 1 0 0 1 0 0 1 0 0 1 0 0 1 0 0 1 0 0 1 0 0 1 0 0 1 0 0 1 0 0 1 0 0 1 0 0 1 0 0 1 0 0 1 0 0 1 0 0 1 0 0 1 0 0 1 0 0 1 0 0 1 0 0 1 0 0 1 0 0 1 0 0 1 0 0 1 0 0 1 0 0 1 0 0 1 0 0 1 0 0 1 0 0 1 0 0 1 0 0 1 0 0 1 0 0 1 0 0 1 0 0 1 0 0 1 0 0 1 0 0 1 0 0 1 0 0 1 0 0 1 0 0 1 0 0 1 0 0 1 0 0 1 0 0 1 0 0 1 0 0 1 0 0 1 0 0 1 0 0 1 0 0 1 0 0 1 0 0 1 0 0 1 0 0 1 0 0 1 0 0 1 0 0 1 0 0 1 0 0 1 0 0 1 0 0 1 0 0 1 0 0 1 0 0 1 0 0 1 0 0 1 0 0 1 0 0 1 0 0 1 0 0 1 0 0 1 0 0 1 0 0 1 0 0 1 0 0 1 0 0 1 0 0 1 0 0 1</float_array>
          <technique_common>
            <accessor source="#Mesh_001-mesh-normals-array" count="192" stride="3">
              <param name="X" type="float"/>
              <param name="Y" type="float"/>
              <param name="Z" type="float"/>
            </accessor>
          </technique_common>
        </source>
        <vertices id="Mesh_001-mesh-vertices">
          <input semantic="POSITION" source="#Mesh_001-mesh-positions"/>
        </vertices>
        <triangles material="Material_002-material" count="192">
          <input semantic="VERTEX" source="#Mesh_001-mesh-vertices" offset="0"/>
          <input semantic="NORMAL" source="#Mesh_001-mesh-normals" offset="1"/>
          <p>97 0 0 0 96 0 98 1 1 1 97 1 99 2 2 2 98 2 100 3 3 3 99 3 101 4 4 4 100 4 102 5 5 5 101 5 103 6 6 6 102 6 104 7 7 7 103 7 105 8 8 8 104 8 106 9 9 9 105 9 106 10 11 10 10 10 107 11 12 11 11 11 109 12 12 12 108 12 109 13 14 13 13 13 110 14 15 14 14 14 111 15 16 15 15 15 112 16 17 16 16 16 113 17 18 17 17 17 114 18 19 18 18 18 115 19 20 19 19 19 116 20 21 20 20 20 117 21 22 21 21 21 118 22 23 22 22 22 120 23 23 23 119 23 121 24 24 24 120 24 122 25 25 25 121 25 123 26 26 26 122 26 124 27 27 27 123 27 125 28 28 28 124 28 126 29 29 29 125 29 127 30 30 30 126 30 128 31 31 31 127 31 129 32 32 32 128 32 130 33 33 33 129 33 131 34 34 34 130 34 131 35 36 35 35 35 132 36 37 36 36 36 134 37 37 37 133 37 135 38 38 38 134 38 136 39 39 39 135 39 137 40 40 40 136 40 138 41 41 41 137 41 139 42 42 42 138 42 140 43 43 43 139 43 141 44 44 44 140 44 141 45 46 45 45 45 142 46 47 46 46 46 143 47 48 47 47 47 144 48 49 48 48 48 146 49 49 49 145 49 147 50 50 50 146 50 148 51 51 51 147 51 149 52 52 52 148 52 150 53 53 53 149 53 151 54 54 54 150 54 152 55 55 55 151 55 153 56 56 56 152 56 154 57 57 57 153 57 154 58 59 58 58 58 155 59 60 59 59 59 157 60 60 60 156 60 158 61 61 61 157 61 158 62 63 62 62 62 159 63 64 63 63 63 160 64 65 64 64 64 161 65 66 65 65 65 162 66 67 66 66 66 163 67 68 67 67 67 164 68 69 68 68 68 165 69 70 69 69 69 166 70 71 70 70 70 167 71 72 71 71 71 169 72 72 72 168 72 170 73 73 73 169 73 171 74 74 74 170 74 172 75 75 75 171 75 173 76 76 76 172 76 174 77 77 77 173 77 175 78 78 78 174 78 176 79 79 79 175 79 177 80 80 80 176 80 178 81 81 81 177 81 178 82 83 82 82 82 179 83 84 83 83 83 181 84 84 84 180 84 182 85 85 85 181 85 182 86 87 86 86 86 183 87 88 87 87 87 184 88 89 88 88 88 185 89 90 89 89 89 186 90 91 90 90 90 187 91 92 91 91 91 188 92 93 92 92 92 189 93 94 93 93 93 190 94 95 94 94 94 191 95 0 95 95 95 97 96 1 96 0 96 98 97 2 97 1 97 99 98 3 98 2 98 100 99 4 99 3 99 101 100 5 100 4 100 102 101 6 101 5 101 103 102 7 102 6 102 104 103 8 103 7 103 105 104 9 104 8 104 106 105 10 105 9 105 106 106 107 106 11 106 107 107 108 107 12 107 109 108 13 108 12 108 109 109 110 109 14 109 110 110 111 110 15 110 111 111 112 111 16 111 112 112 113 112 17 112 113 113 114 113 18 113 114 114 115 114 19 114 115 115 116 115 20 115 116 116 117 116 21 116 117 117 118 117 22 117 118 118 119 118 23 118 120 119 24 119 23 119 121 120 25 120 24 120 122 121 26 121 25 121 123 122 27 122 26 122 124 123 28 123 27 123 125 124 29 124 28 124 126 125 30 125 29 125 127 126 31 126 30 126 128 127 32 127 31 127 129 128 33 128 32 128 130 129 34 129 33 129 131 130 35 130 34 130 131 131 132 131 36 131 132 132 133 132 37 132 134 133 38 133 37 133 135 134 39 134 38 134 136 135 40 135 39 135 137 136 41 136 40 136 138 137 42 137 41 137 139 138 43 138 42 138 140 139 44 139 43 139 141 140 45 140 44 140 141 141 142 141 46 141 142 142 143 142 47 142 143 143 144 143 48 143 144 144 145 144 49 144 146 145 50 145 49 145 147 146 51 146 50 146 148 147 52 147 51 147 149 148 53 148 52 148 150 149 54 149 53 149 151 150 55 150 54 150 152 151 56 151 55 151 153 152 57 152 56 152 154 153 58 153 57 153 154 154 155 154 59 154 155 155 156 155 60 155 157 156 61 156 60 156 158 157 62 157 61 157 158 158 159 158 63 158 159 159 160 159 64 159 160 160 161 160 65 160 161 161 162 161 66 161 162 162 163 162 67 162 163 163 164 163 68 163 164 164 165 164 69 164 165 165 166 165 70 165 166 166 167 166 71 166 167 167 168 167 72 167 169 168 73 168 72 168 170 169 74 169 73 169 171 170 75 170 74 170 172 171 76 171 75 171 173 172 77 172 76 172 174 173 78 173 77 173 175 174 79 174 78 174 176 175 80 175 79 175 177 176 81 176 80 176 178 177 82 177 81 177 178 178 179 178 83 178 179 179 180 179 84 179 181 180 85 180 84 180 182 181 86 181 85 181 182 182 183 182 87 182 183 183 184 183 88 183 184 184 185 184 89 184 185 185 186 185 90 185 186 186 187 186 91 186 187 187 188 187 92 187 188 188 189 188 93 188 189 189 190 189 94 189 190 190 191 190 95 190 191 191 96 191 0 191</p>
        </triangles>
      </mesh>
    </geometry>
  </library_geometries>
  <library_visual_scenes>
    <visual_scene id="Scene" name="Scene">
      <node id="BézierCircle_001" name="BézierCircle.001" type="NODE">
        <matrix sid="transform">1 0 0 0 0 1 0 0 0 0 1 0 0 0 0 1</matrix>
        <instance_geometry url="#Mesh_001-mesh" name="BézierCircle.001">
          <bind_material>
            <technique_common>
              <instance_material symbol="Material_002-material" target="#Material_002-material"/>
            </technique_common>
          </bind_material>
        </instance_geometry>
      </node>
    </visual_scene>
  </library_visual_scenes>
  <scene>
    <instance_visual_scene url="#Scene"/>
  </scene>
</COLLADA>