<?xml version="1.0" encoding="utf-8"?>
<COLLADA xmlns="http://www.collada.org/2005/11/COLLADASchema" version="1.4.1" xmlns:xsi="http://www.w3.org/2001/XMLSchema-instance">
  <asset>
    <contributor>
      <author>Blender User</author>
      <authoring_tool>Blender 4.5.2 LTS commit date:2025-08-19, commit time:15:00, hash:ab25eae04993</authoring_tool>
    </contributor>
    <created>2026-09-11T01:11:19</created>
    <modified>2026-09-11T01:11:19</modified>
    <unit name="meter" meter="1"/>
    <up_axis>Z_UP</up_axis>
  </asset>
  <library_effects>
    <effect id="Material_001-effect">
      <profile_COMMON>
        <newparam sid="photo_2026-08-29_00-38-51_jpg_001-surface">
          <surface type="2D">
            <init_from>photo_2026-08-29_00-38-51_jpg_001</init_from>
          </surface>
        </newparam>
        <newparam sid="photo_2026-08-29_00-38-51_jpg_001-sampler">
          <sampler2D>
            <source>photo_2026-08-29_00-38-51_jpg_001-surface</source>
          </sampler2D>
        </newparam>
        <technique sid="common">
          <lambert>
            <emission>
              <color sid="emission">0 0 0 1</color>
            </emission>
            <diffuse>
              <texture texture="photo_2026-08-29_00-38-51_jpg_001-sampler" texcoord="Plane_002-mesh-map-0"/>
            </diffuse>
            <index_of_refraction>
              <float sid="ior">1.45</float>
            </index_of_refraction>
          </lambert>
        </technique>
      </profile_COMMON>
    </effect>
  </library_effects>
  <library_images>
    <image id="photo_2026-08-29_00-38-51_jpg_001" name="photo_2026-08-29_00-38-51_jpg_001">
      <init_from>map.png</init_from>
    </image>
  </library_images>
  <library_materials>
    <material id="Material_001-material" name="Material.001">
      <instance_effect url="#Material_001-effect"/>
    </material>
  </library_materials>
  <library_geometries>
    <geometry id="Plane_002-mesh" name="Plane.002">
      <mesh>
        <source id="Plane_002-mesh-positions">
          <float_array id="Plane_002-mesh-positions-array" count="216">-2.435058 6.079165 3.5 -2.285057 6.079165 3.5 -2.435058 4.979166 3.5 -2.285057 4.979166 3.5 -2.435059 3.879165 3.5 -2.285058 3.879165 3.5 -2.435059 1.679164 3.5 -2.285058 1.679164 3.5 -2.435059 0.5791654 3.5 -2.285059 0.5791654 3.5 -2.435059 -1.070835 3.5 -2.285059 -1.070835 3.5 -2.435059 3.879165 2.5 -2.435059 1.679164 2.5 -2.285058 3.879165 2.5 -2.285058 1.679164 2.5 -2.435058 6.079165 2.5 -2.435058 4.979166 2.5 -2.285057 6.079165 2.5 -2.285057 4.979166 2.5 -2.285059 -1.070835 2.5 -2.285059 0.5791654 2.5 -2.435059 0.5791654 2.5 -2.435059 -1.070835 2.5 -2.435059 4.304165 2.5 -2.435059 4.554165 2.5 -2.435059 4.245832 3.5 -2.435059 4.612499 3.5 -2.285058 4.612499 3.5 -2.285058 4.245832 3.5 -2.285058 4.304165 2.5 -2.285058 4.554165 2.5 -2.285059 -1.070835 2.875 -2.435058 6.079165 2.875 -2.435059 3.879165 2.875 -2.285058 3.879165 2.875 -2.435059 0.5791654 2.875 -2.285057 6.079165 2.875 -2.285057 4.979166 2.875 -2.435059 1.679164 2.875 -2.285058 1.679164 2.875 -2.435058 4.979166 2.875 -2.285059 0.5791654 2.875 -2.435059 -1.070835 2.875 -2.285058 4.304165 2.75 -2.285058 4.554165 2.75 -2.435059 4.304165 2.75 -2.435059 4.554165 2.75 -2.435059 1.004168 2.5 -2.435059 1.254164 2.5 -2.435059 0.9458322 3.5 -2.435059 1.312499 3.5 -2.285059 1.312499 3.5 -2.285059 0.9458322 3.5 -2.285059 1.254164 2.5 -2.285059 1.004168 2.5 -2.435059 1.254164 2.75 -2.435059 1.004168 2.75 -2.285059 1.004168 2.75 -2.285059 1.254164 2.75 -2.435059 1.679164 5.06639e-7 -2.435059 3.879165 5.06639e-7 -2.285058 3.879165 5.06639e-7 -2.285059 1.679164 5.06639e-7 -2.435059 -1.070835 5.06639e-7 -2.435059 0.5791654 5.06639e-7 -2.285059 0.5791654 5.06639e-7 -2.285059 -1.070835 5.06639e-7 -2.435059 4.979166 5.06639e-7 -2.435059 6.079165 5.06639e-7 -2.285058 6.079165 5.06639e-7 -2.285058 4.979166 5.06639e-7</float_array>
          <technique_common>
            <accessor source="#Plane_002-mesh-positions-array" count="72" stride="3">
              <param name="X" type="float"/>
              <param name="Y" type="float"/>
              <param name="Z" type="float"/>
            </accessor>
          </technique_common>
        </source>
        <source id="Plane_002-mesh-normals">
          <float_array id="Plane_002-mesh-normals-array" count="168">0 0 1 1 0 0 -1 0 0 -1 0 0 0 1 0 -7.94729e-7 -1 0 1 -3.46791e-7 0 1.86994e-6 0 -1 -1 1.53098e-6 0 0 0 -1 1 0 0 -1 5.60986e-7 0 1 -5.60981e-7 0 1 -4.33487e-7 0 -7.9473e-7 -1 0 -1 -8.9757e-7 0 -4.3349e-6 0 1 -4.33487e-6 0 1 1.86995e-6 0 -1 0 0 -1 -1 0 0 -1 0 0 -1 0 0 1 -5.20186e-7 0 1 0 0 0 1 0 1 0 0 0 1 2.17226e-7 0 -1 0 0 1 -1.64241e-7 0 -1 0 -3.25116e-6 0 1 -4.33488e-6 0 1 -1 1.04037e-6 0 -7.94728e-7 -1 0 1 -5.20186e-7 0 1 -7.47977e-7 0 -1 5.60985e-7 0 1 -8.97574e-7 0 1 -4.33488e-7 0 -7.94727e-7 -1 0 -1 1.12197e-6 0 1 -1.12197e-6 0 2.16745e-6 0 1 1 -8.66981e-7 0 -3.7399e-6 0 -1 -1 0 0 -1 0 0 1 -3.46791e-7 0 1 0 0 1 0 0 0 1 -3.1789e-7 0 -1 0 0 1 3.17888e-7 -7.9473e-7 -1 -1.58946e-7 -7.94726e-7 -1 0</float_array>
          <technique_common>
            <accessor source="#Plane_002-mesh-normals-array" count="56" stride="3">
              <param name="X" type="float"/>
              <param name="Y" type="float"/>
              <param name="Z" type="float"/>
            </accessor>
          </technique_common>
        </source>
        <source id="Plane_002-mesh-map-0">
          <float_array id="Plane_002-mesh-map-0-array" count="840">0.4124939 0.3378512 0.4109204 0.3378512 0.4109204 0.2979326 0.4124938 0.258014 0.4109203 0.258014 0.4109203 0.1781768 0.4124938 0.1382582 0.4109203 0.1382582 0.4109203 0.07838028 0.7483108 0.639104 0.7783902 0.6387373 0.7784827 0.6786414 0.7509303 0.6106744 0.770546 0.6110419 0.7704955 0.64963 0.7901366 0.6112048 0.8293597 0.6112123 0.8293648 0.6497673 0.770546 0.6110419 0.7781222 0.6035397 0.7770437 0.6497218 0.8489239 0.6110781 0.8782795 0.6106402 0.87833 0.6491109 0.5558196 0.426299 0.5558196 0.4117161 0.5733835 0.4117161 0.8611158 0.6378534 0.8819953 0.6380739 0.8819391 0.6790893 0.5558196 0.4429478 0.5558196 0.4283649 0.5733835 0.4283649 0.7994258 0.6379714 0.8403936 0.6377255 0.840406 0.6781946 0.7867925 0.6096755 0.790289 0.6075553 0.7907245 0.6104625 0.7783902 0.6387373 0.7862693 0.629961 0.785368 0.6787871 0.4124938 0.1515644 0.4109203 0.1515644 0.4109203 0.1382582 0.8293597 0.6112123 0.8369206 0.6036025 0.8359047 0.6497427 0.4124938 0.2713202 0.4109204 0.2713202 0.4109203 0.258014 0.8611158 0.6378534 0.8530933 0.6296751 0.8530915 0.6134279 0.4479203 0.7020509 0.4598639 0.7020509 0.4598639 0.7166339 0.4668894 0.702051 0.4788329 0.702051 0.4788329 0.716634 0.4598639 0.7020509 0.4668894 0.702051 0.4668894 0.7166339 0.8483847 0.6296443 0.8403936 0.6377255 0.840364 0.6133083 0.07632064 0.9971008 0.05273693 0.9971008 0.05273693 0.9155119 0.4124938 0.2979326 0.4109204 0.2979326 0.4109203 0.2846264 0.4124938 0.2846264 0.4109203 0.2846264 0.4109204 0.2713202 0.7825683 0.6035861 0.7901366 0.6112048 0.7901339 0.6497644 0.7781222 0.6035397 0.7825683 0.6035861 0.7835894 0.6497673 0.02628809 0.9152064 0.05031782 0.9152064 0.05031788 0.9983341 0.7825713 0.5882972 0.7901185 0.5880163 0.7901366 0.6112048 0.854147 0.6785514 0.8472564 0.6783559 0.8483847 0.6296443 0.8472564 0.6783559 0.840406 0.6781946 0.8403936 0.6377255 0.8610725 0.6787474 0.854147 0.6785514 0.8530933 0.6296751 0.8369245 0.5882856 0.8369206 0.6036025 0.8293597 0.6112123 0.7860156 0.6137101 0.7862693 0.629961 0.7783902 0.6387373 0.7997258 0.6132369 0.840364 0.6133083 0.8403936 0.6377255 0.5452812 0.4429478 0.5452812 0.4283649 0.5558196 0.4283649 0.8611131 0.6133065 0.8820341 0.6134178 0.8819953 0.6380739 0.5452812 0.426299 0.5452812 0.4117161 0.5558196 0.4117161 0.848883 0.5879242 0.8782498 0.5875996 0.8782795 0.6106402 0.7705904 0.5878757 0.7781505 0.5882003 0.7781222 0.6035397 0.7901185 0.5880163 0.8293762 0.5880751 0.8293597 0.6112123 0.7509672 0.5875326 0.7705904 0.5878757 0.770546 0.6110419 0.7483373 0.6154308 0.7782069 0.6150394 0.7783902 0.6387373 0.7997258 0.6132369 0.7994258 0.6379714 0.7910599 0.6293744 0.1020948 0.9951863 0.07913464 0.9951863 0.07913464 0.9157542 0.848883 0.5879242 0.8489239 0.6110781 0.8413614 0.6035883 0.1279342 0.9134815 0.1279342 0.9979876 0.1035057 0.9979876 0.8413614 0.6035883 0.8489239 0.6110781 0.8489714 0.6495711 0.8369206 0.6036025 0.8413614 0.6035883 0.8424397 0.6496791 0.4124938 0.1781768 0.4109203 0.1781768 0.4109203 0.1648707 0.4124938 0.1648706 0.4109203 0.1648707 0.4109203 0.1515644 0.7910599 0.6293744 0.7994258 0.6379714 0.7993832 0.6786249 0.7862693 0.629961 0.7910599 0.6293744 0.7923372 0.6787347 0.7921801 0.6066905 0.7989583 0.6075537 0.7997258 0.6132369 0.790289 0.6075553 0.7921801 0.6066905 0.7906705 0.6106687 0.8488328 0.4541309 0.8781633 0.4692751 0.8782498 0.5875996 0.7901996 0.4541587 0.8293013 0.454216 0.8293762 0.5880751 0.7511125 0.4691573 0.7706643 0.4540107 0.7705904 0.5878757 0.7990295 0.478741 0.8397125 0.473329 0.840364 0.6133083 0.7489128 0.4961574 0.7785033 0.4822266 0.7782069 0.6150394 0.7866897 0.6097378 0.78669 0.6097376 0.7867925 0.6096755 0.8607715 0.4709015 0.8821462 0.4868911 0.8820341 0.6134178 0.4911844 0.426299 0.4911844 0.4117162 0.5452812 0.4117161 0.3867979 0.7166335 0.3867979 0.7020506 0.4479203 0.7020509 0.5399553 0.7020514 0.5399553 0.7166343 0.4788329 0.716634 0.7977803 0.4849482 0.7990295 0.478741 0.7997258 0.6132369 0.4124939 0.3378512 0.4109204 0.2979326 0.4124938 0.2979326 0.4124938 0.258014 0.4109203 0.1781768 0.4124938 0.1781768 0.4124938 0.1382582 0.4109203 0.07838028 0.4124938 0.07838022 0.7483108 0.639104 0.7784827 0.6786414 0.7483108 0.6786414 0.7509303 0.6106744 0.7704955 0.64963 0.7508683 0.6492534 0.7901366 0.6112048 0.8293648 0.6497673 0.7901339 0.6497644 0.770546 0.6110419 0.7770437 0.6497218 0.7704955 0.64963 0.8489239 0.6110781 0.87833 0.6491109 0.8489714 0.6495711 0.5558196 0.426299 0.5733835 0.4117161 0.5733835 0.426299 0.8611158 0.6378534 0.8819391 0.6790893 0.8610725 0.6787474 0.5558196 0.4429478 0.5733835 0.4283649 0.5733835 0.4429478 0.7994258 0.6379714 0.840406 0.6781946 0.7993832 0.6786249 0.7867925 0.6096755 0.7907245 0.6104625 0.7865873 0.6097999 0.7783902 0.6387373 0.785368 0.6787871 0.7784827 0.6786414 0.4124938 0.1515644 0.4109203 0.1382582 0.4124938 0.1382582 0.8293597 0.6112123 0.8359047 0.6497427 0.8293648 0.6497673 0.4124938 0.2713202 0.4109203 0.258014 0.4124938 0.258014 0.8611158 0.6378534 0.8530915 0.6134279 0.8611131 0.6133065 0.4479203 0.7020509 0.4598639 0.7166339 0.4479203 0.7166338 0.4668894 0.702051 0.4788329 0.716634 0.4668894 0.7166339 0.4598639 0.7020509 0.4668894 0.7166339 0.4598639 0.7166339 0.8483847 0.6296443 0.840364 0.6133083 0.8483855 0.613413 0.07632064 0.9971008 0.05273693 0.9155119 0.07632064 0.9155119 0.4124938 0.2979326 0.4109203 0.2846264 0.4124938 0.2846264 0.4124938 0.2846264 0.4109204 0.2713202 0.4124938 0.2713202 0.7825683 0.6035861 0.7901339 0.6497644 0.7835894 0.6497673 0.7781222 0.6035397 0.7835894 0.6497673 0.7770437 0.6497218 0.02628809 0.9152064 0.05031788 0.9983341 0.02628809 0.9983341 0.7825713 0.5882972 0.7901366 0.6112048 0.7825683 0.6035861 0.854147 0.6785514 0.8483847 0.6296443 0.8530933 0.6296751 0.8472564 0.6783559 0.8403936 0.6377255 0.8483847 0.6296443 0.8610725 0.6787474 0.8530933 0.6296751 0.8611158 0.6378534 0.8369245 0.5882856 0.8293597 0.6112123 0.8293762 0.5880751 0.7860156 0.6137101 0.7783902 0.6387373 0.7782069 0.6150394 0.7997258 0.6132369 0.8403936 0.6377255 0.7994258 0.6379714 0.5452812 0.4429478 0.5558196 0.4283649 0.5558196 0.4429478 0.8611131 0.6133065 0.8819953 0.6380739 0.8611158 0.6378534 0.5452812 0.426299 0.5558196 0.4117161 0.5558196 0.426299 0.848883 0.5879242 0.8782795 0.6106402 0.8489239 0.6110781 0.7705904 0.5878757 0.7781222 0.6035397 0.770546 0.6110419 0.7901185 0.5880163 0.8293597 0.6112123 0.7901366 0.6112048 0.7509672 0.5875326 0.770546 0.6110419 0.7509303 0.6106744 0.7483373 0.6154308 0.7783902 0.6387373 0.7483108 0.639104 0.7997258 0.6132369 0.7910599 0.6293744 0.7907285 0.6120313 0.1020948 0.9951863 0.07913464 0.9157542 0.1020948 0.9157542 0.848883 0.5879242 0.8413614 0.6035883 0.8413404 0.5883159 0.1279342 0.9134815 0.1035057 0.9979876 0.1035057 0.9134815 0.8413614 0.6035883 0.8489714 0.6495711 0.8424397 0.6496791 0.8369206 0.6036025 0.8424397 0.6496791 0.8359047 0.6497427 0.4124938 0.1781768 0.4109203 0.1648707 0.4124938 0.1648706 0.4124938 0.1648706 0.4109203 0.1515644 0.4124938 0.1515644 0.7910599 0.6293744 0.7993832 0.6786249 0.7923372 0.6787347 0.7862693 0.629961 0.7923372 0.6787347 0.785368 0.6787871 0.7921801 0.6066905 0.7997258 0.6132369 0.7906705 0.6106687 0.790289 0.6075553 0.7906705 0.6106687 0.7907245 0.6104625 0.8488328 0.4541309 0.8782498 0.5875996 0.848883 0.5879242 0.7901996 0.4541587 0.8293762 0.5880751 0.7901185 0.5880163 0.7511125 0.4691573 0.7705904 0.5878757 0.7509672 0.5875326 0.7990295 0.478741 0.840364 0.6133083 0.7997258 0.6132369 0.7489128 0.4961574 0.7782069 0.6150394 0.7483373 0.6154308 0.7866897 0.6097378 0.7867925 0.6096755 0.7865873 0.6097999 0.8607715 0.4709015 0.8820341 0.6134178 0.8611131 0.6133065 0.4911844 0.426299 0.5452812 0.4117161 0.5452812 0.426299 0.3867979 0.7166335 0.4479203 0.7020509 0.4479203 0.7166338 0.5399553 0.7020514 0.4788329 0.716634 0.4788329 0.702051 0.7977803 0.4849482 0.7997258 0.6132369 0.7989583 0.6075537 0.5452812 0.4429478 0.4911844 0.4429478 0.5452812 0.4283649 0.4911844 0.4283649 0.5452812 0.4283649 0.4911844 0.4429478 0.8488328 0.4541309 0.4911844 0.4283649 0.4911844 0.4429478 0.7866897 0.6097378 0.4911844 0.4283649 0.78669 0.6097376 0.7901996 0.4541587 0.7990295 0.478741 0.7977803 0.4849482 0.5399553 0.7020514 0.7990295 0.478741 0.5399553 0.7166343 0.7511125 0.4691573 0.3867979 0.7020506 0.3867979 0.7166335 0.4911844 0.426299 0.3867979 0.7020506 0.4911844 0.4117162</float_array>
          <technique_common>
            <accessor source="#Plane_002-mesh-map-0-array" count="420" stride="2">
              <param name="S" type="float"/>
              <param name="T" type="float"/>
            </accessor>
          </technique_common>
        </source>
        <vertices id="Plane_002-mesh-vertices">
          <input semantic="POSITION" source="#Plane_002-mesh-positions"/>
        </vertices>
        <triangles material="Material_001-material" count="140">
          <input semantic="VERTEX" source="#Plane_002-mesh-vertices" offset="0"/>
          <input semantic="NORMAL" source="#Plane_002-mesh-normals" offset="1"/>
          <input semantic="TEXCOORD" source="#Plane_002-mesh-map-0" offset="2" set="0"/>
          <p>1 0 0 0 0 1 2 0 2 5 0 3 4 0 4 6 0 5 9 0 6 8 0 7 10 0 8 32 1 9 42 1 10 9 1 11 33 2 12 41 2 13 2 2 14 34 2 15 39 2 16 6 2 17 41 3 18 47 3 19 27 3 20 36 2 21 43 2 22 10 2 23 37 4 24 33 4 25 0 4 26 38 1 27 37 1 28 1 1 29 43 5 30 32 5 31 11 5 32 40 6 33 35 6 34 5 6 35 22 7 36 48 7 37 55 7 38 42 1 39 58 1 40 53 1 41 53 0 42 50 0 43 8 0 44 39 8 45 56 8 46 51 8 47 29 0 48 26 0 49 4 0 50 38 1 51 45 1 52 31 1 53 19 9 54 31 9 55 25 9 56 30 9 57 14 9 58 12 9 59 31 9 60 30 9 61 24 9 62 44 1 63 35 1 64 14 1 65 45 1 66 44 1 67 30 1 68 3 0 69 2 0 70 27 0 71 28 0 72 27 0 73 26 0 74 46 2 75 34 2 76 4 2 77 47 2 78 46 2 79 26 2 80 25 2 81 24 2 82 46 2 83 24 2 84 12 2 85 34 2 86 28 1 87 29 1 88 44 1 89 29 1 90 5 1 91 35 1 92 3 10 93 28 10 94 45 10 95 49 11 96 56 11 97 39 11 98 55 12 99 58 12 100 42 12 101 15 13 102 14 13 103 35 13 104 23 14 105 20 14 106 32 14 107 19 1 108 18 1 109 37 1 110 18 4 111 16 4 112 33 4 113 22 2 114 23 2 115 43 2 116 17 2 117 25 2 118 47 2 119 12 2 120 13 2 121 39 2 122 16 2 123 17 2 124 41 2 125 20 1 126 21 1 127 42 1 128 15 1 129 40 1 130 59 1 131 54 1 132 59 1 133 58 1 134 22 2 135 36 2 136 57 2 137 48 2 138 57 2 139 56 2 140 57 15 141 36 15 142 8 15 143 56 2 144 57 2 145 50 2 146 7 16 147 6 16 148 51 16 149 52 17 150 51 17 151 50 17 152 59 1 153 40 1 154 7 1 155 58 1 156 59 1 157 52 1 158 49 18 159 13 18 160 15 18 161 48 19 162 49 19 163 54 19 164 65 20 165 64 20 166 23 20 167 61 21 168 60 21 169 13 21 170 69 22 171 68 22 172 17 22 173 63 23 174 62 23 175 14 23 176 67 24 177 66 24 178 21 24 179 66 25 180 65 25 181 22 25 182 71 26 183 70 26 184 18 26 185 70 27 186 69 27 187 16 27 188 68 28 189 71 28 190 19 28 191 62 29 192 61 29 193 12 29 194 60 30 195 63 30 196 15 30 197 1 0 198 2 0 199 3 0 200 5 31 201 6 31 202 7 31 203 9 32 204 10 32 205 11 32 206 32 1 207 9 1 208 11 1 209 33 2 210 2 2 211 0 2 212 34 2 213 6 2 214 4 2 215 41 33 216 27 33 217 2 33 218 36 2 219 10 2 220 8 2 221 37 4 222 0 4 223 1 4 224 38 1 225 1 1 226 3 1 227 43 34 228 11 34 229 10 34 230 40 35 231 5 35 232 7 35 233 22 9 234 55 9 235 21 9 236 42 1 237 53 1 238 9 1 239 53 0 240 8 0 241 9 0 242 39 2 243 51 2 244 6 2 245 29 0 246 4 0 247 5 0 248 38 36 249 31 36 250 19 36 251 19 9 252 25 9 253 17 9 254 30 9 255 12 9 256 24 9 257 31 9 258 24 9 259 25 9 260 44 1 261 14 1 262 30 1 263 45 1 264 30 1 265 31 1 266 3 0 267 27 0 268 28 0 269 28 0 270 26 0 271 29 0 272 46 2 273 4 2 274 26 2 275 47 2 276 26 2 277 27 2 278 25 2 279 46 2 280 47 2 281 24 37 282 34 37 283 46 37 284 28 1 285 44 1 286 45 1 287 29 1 288 35 1 289 44 1 290 3 38 291 45 38 292 38 38 293 49 2 294 39 2 295 13 2 296 55 1 297 42 1 298 21 1 299 15 39 300 35 39 301 40 39 302 23 40 303 32 40 304 43 40 305 19 1 306 37 1 307 38 1 308 18 4 309 33 4 310 37 4 311 22 2 312 43 2 313 36 2 314 17 41 315 47 41 316 41 41 317 12 2 318 39 2 319 34 2 320 16 2 321 41 2 322 33 2 323 20 1 324 42 1 325 32 1 326 15 42 327 59 42 328 54 42 329 54 1 330 58 1 331 55 1 332 22 2 333 57 2 334 48 2 335 48 2 336 56 2 337 49 2 338 57 2 339 8 2 340 50 2 341 56 2 342 50 2 343 51 2 344 7 43 345 51 43 346 52 43 347 52 0 348 50 0 349 53 0 350 59 44 351 7 44 352 52 44 353 58 1 354 52 1 355 53 1 356 49 45 357 15 45 358 54 45 359 48 9 360 54 9 361 55 9 362 65 46 363 23 46 364 22 46 365 61 46 366 13 46 367 12 46 368 69 47 369 17 47 370 16 47 371 63 48 372 14 48 373 15 48 374 67 49 375 21 49 376 20 49 377 66 4 378 22 4 379 21 4 380 71 50 381 18 50 382 19 50 383 70 51 384 16 51 385 18 51 386 68 52 387 19 52 388 17 52 389 62 53 390 12 53 391 14 53 392 60 54 393 15 54 394 13 54 395 23 55 396 64 55 397 20 55 398 67 52 399 20 52 400 64 52 401 65 9 402 67 9 403 64 9 404 66 9 405 67 9 406 65 9 407 61 9 408 63 9 409 60 9 410 62 9 411 63 9 412 61 9 413 69 9 414 71 9 415 68 9 416 70 9 417 71 9 418 69 9 419</p>
        </triangles>
      </mesh>
    </geometry>
  </library_geometries>
  <library_visual_scenes>
    <visual_scene id="Scene" name="Scene">
      <node id="Plane_007" name="Plane.007" type="NODE">
        <matrix sid="transform">1 0 0 0 0 1 0 0 0 0 1 0 0 0 0 1</matrix>
        <instance_geometry url="#Plane_002-mesh" name="Plane.007">
          <bind_material>
            <technique_common>
              <instance_material symbol="Material_001-material" target="#Material_001-material">
                <bind_vertex_input semantic="Plane_002-mesh-map-0" input_semantic="TEXCOORD" input_set="0"/>
              </instance_material>
            </technique_common>
          </bind_material>
        </instance_geometry>
      </node>
    </visual_scene>
  </library_visual_scenes>
  <scene>
    <instance_visual_scene url="#Scene"/>
  </scene>
</COLLADA>