<?xml version="1.0" encoding="utf-8"?>
<COLLADA xmlns="http://www.collada.org/2005/11/COLLADASchema" version="1.4.1" xmlns:xsi="http://www.w3.org/2001/XMLSchema-instance">
  <asset>
    <contributor>
      <author>Blender User</author>
      <authoring_tool>Blender 4.5.2 LTS commit date:2025-08-19, commit time:15:00, hash:ab25eae04993</authoring_tool>
    </contributor>
    <created>2025-09-04T18:46:41</created>
    <modified>2025-09-04T18:46:41</modified>
    <unit name="meter" meter="1"/>
    <up_axis>Z_UP</up_axis>
  </asset>
  <library_effects>
    <effect id="Material_001-effect">
      <profile_COMMON>
        <newparam sid="textures_second1_png-surface">
          <surface type="2D">
            <init_from>textures_second1_png</init_from>
          </surface>
        </newparam>
        <newparam sid="textures_second1_png-sampler">
          <sampler2D>
            <source>textures_second1_png-surface</source>
          </sampler2D>
        </newparam>
        <technique sid="common">
          <lambert>
            <emission>
              <color sid="emission">0 0 0 1</color>
            </emission>
            <diffuse>
              <texture texture="textures_second1_png-sampler" texcoord="Plane_010-mesh-map-0"/>
            </diffuse>
            <index_of_refraction>
              <float sid="ior">1.5</float>
            </index_of_refraction>
          </lambert>
        </technique>
      </profile_COMMON>
    </effect>
  </library_effects>
  <library_images>
    <image id="textures_second1_png" name="textures_second1_png">
      <init_from>textures_second1.png</init_from>
    </image>
  </library_images>
  <library_materials>
    <material id="Material_001-material" name="Material.001">
      <instance_effect url="#Material_001-effect"/>
    </material>
  </library_materials>
  <library_geometries>
    <geometry id="Plane_010-mesh" name="Plane.010">
      <mesh>
        <source id="Plane_010-mesh-positions">
          <float_array id="Plane_010-mesh-positions-array" count="156">2.55 4.45 0 2.700001 4.45 0 2.55 6 0 2.700001 6 0 2.55 3.35 0 2.700001 3.35 0 2.700001 1.3 0 2.55 1.3 0 2.55 4.45 3 2.700001 4.45 3 2.55 6 3 2.700001 6 3 2.55 3.35 3 2.700001 3.35 3 2.700001 1.3 3 2.55 1.3 3 2.55 3.35 2 2.700001 3.35 2 2.700001 1.3 2 2.55 1.3 2 2.700001 6 2 2.700001 4.45 2 2.55 4.45 2 2.55 6 2 2.55 3.775002 2 2.55 4.024998 2 2.55 3.716666 3 2.55 4.083333 3 2.700001 4.083333 3 2.700001 3.716666 3 2.700001 3.775002 2 2.700001 4.024998 2 2.55 3.35 2.375 2.700001 6 2.375 2.55 4.45 2.375 2.700001 1.3 2.375 2.700001 3.35 2.375 2.55 1.3 2.375 2.700001 4.45 2.375 2.55 6 2.375 2.55 3.775002 2.25 2.55 4.024998 2.25 2.700001 3.775002 2.25 2.700001 4.024998 2.25 2.55 3.35 0.15 2.55 1.3 0.4 2.700001 1.3 0.4 2.700001 3.35 0.15 2.55 6 0.4 2.55 4.45 0.15 2.700001 6 0.4 2.700001 4.45 0.15</float_array>
          <technique_common>
            <accessor source="#Plane_010-mesh-positions-array" count="52" stride="3">
              <param name="X" type="float"/>
              <param name="Y" type="float"/>
              <param name="Z" type="float"/>
            </accessor>
          </technique_common>
        </source>
        <source id="Plane_010-mesh-normals">
          <float_array id="Plane_010-mesh-normals-array" count="54">0 0 -1 0 0 1 1 0 0 -1 0 0 0 -1 0 0 1 0 -1 -1.12196e-6 0 1 -8.97573e-7 0 -1 2.51463e-7 0 -1 -3.84546e-7 0 1 5.60983e-7 0 -1 -5.74117e-7 0 -1 6.73179e-7 0 1 -3.73988e-7 0 1 -3.87673e-7 0 -1 1.45377e-7 0 1 1.92273e-7 0 -1 -5.12728e-7 0</float_array>
          <technique_common>
            <accessor source="#Plane_010-mesh-normals-array" count="18" stride="3">
              <param name="X" type="float"/>
              <param name="Y" type="float"/>
              <param name="Z" type="float"/>
            </accessor>
          </technique_common>
        </source>
        <source id="Plane_010-mesh-map-0">
          <float_array id="Plane_010-mesh-map-0-array" count="624">0.4526472 0.7510876 0.4563711 0.8841398 0.4526471 0.8841398 0.5079072 0.0913425 0.4570133 0.1042185 0.4570133 0.0913425 0.4563712 0.3605149 0.4526472 0.4935671 0.4526472 0.3605149 0.4526473 0.2660908 0.4563713 0.09011858 0.4563712 0.2660908 0.4834636 0.4431601 0.4896121 0.4951274 0.4834636 0.4951274 0.8053706 0.04117077 0.7637255 0.09926325 0.7637255 0.04117077 0.7097458 0.9110024 0.6680364 0.9690048 0.6680546 0.9108396 0.5668696 0.0913425 0.5823861 0.1042186 0.5668696 0.1042186 0.7341709 0.04117071 0.6790919 0.09926319 0.6790919 0.04117071 0.4526472 0.5472173 0.4563712 0.4935671 0.4563711 0.5472173 0.7637255 0.04117077 0.753874 0.09926325 0.7523067 0.02955228 0.7943639 0.9109833 0.7392993 0.9691079 0.7392934 0.9110177 0.4526472 0.2975655 0.4563712 0.2660908 0.4563712 0.2975655 0.7097458 0.9110024 0.7211563 0.8763905 0.7211659 0.899486 0.7278731 0.8994321 0.7392874 0.8761498 0.7392934 0.9110177 0.1046513 0.9971253 0.1278157 0.9151678 0.1278157 0.9971253 0.4526472 0.3605149 0.4563712 0.3290402 0.4563712 0.3605149 0.4526472 0.3290402 0.4563712 0.2975655 0.4563712 0.3290402 0.7455899 0.02955228 0.7341709 0.09926325 0.7341709 0.04117071 0.7523067 0.02955228 0.7440224 0.09926325 0.7455899 0.02955228 0.4834636 0.5470947 0.4896121 0.599062 0.4834636 0.599062 0.4834636 0.4951274 0.4896121 0.5470947 0.4834636 0.5470947 0.1539 0.9155377 0.1307356 0.9974952 0.1307356 0.9155377 0.7455899 0.00631529 0.7341709 0.04117071 0.7341709 0.00631529 0.719596 0.969154 0.7278731 0.8994321 0.7294486 0.9691315 0.7294486 0.9691315 0.7392934 0.9110177 0.7392993 0.9691079 0.7097326 0.969154 0.7211659 0.899486 0.719596 0.969154 0.7943615 0.8761355 0.7392934 0.9110177 0.7392874 0.8761498 0.7637255 0.00631529 0.7523067 0.02955228 0.7523067 0.00631529 0.4526472 0.5794073 0.4563711 0.5472173 0.4563711 0.5794073 0.7341709 0.00631529 0.6790919 0.04117071 0.6790919 0.006315231 0.5575598 0.0913425 0.5668696 0.1042186 0.5575598 0.1042186 0.7097759 0.8760753 0.6680546 0.9108396 0.6680669 0.8759651 0.8053706 0.00631529 0.7637255 0.04117077 0.7637255 0.00631529 0.79436 0.7274976 0.7392874 0.8761498 0.7393134 0.7042214 0.5178377 0.0913425 0.5575598 0.1042186 0.5178377 0.1042186 0.7341709 -0.1656384 0.6790919 0.006315231 0.6790919 -0.1424013 0.5558083 0.06049174 0.5496597 0.2872583 0.5496597 0.06049174 0.709789 0.7041584 0.6680669 0.8759651 0.6681343 0.7272076 0.4526472 0.7167515 0.4563711 0.5794073 0.4563711 0.7167515 0.8053706 -0.1424013 0.7637255 0.00631529 0.7637255 -0.1656383 0.4896121 0.2163937 0.4834636 0.4431601 0.4834636 0.2163937 0.4896121 0.06049174 0.4834636 0.2163937 0.4834636 0.06049174 0.7341709 -0.1795806 0.6790919 -0.1424013 0.6790919 -0.1795806 0.5079072 0.0913425 0.5178377 0.1042186 0.5079072 0.1042186 0.7943625 0.6903403 0.7393134 0.7042214 0.7393155 0.6902905 0.7341709 -0.1795806 0.7637255 -0.1656384 0.7341709 -0.1656384 0.9065811 0.4537542 0.8616626 0.4938346 0.8616626 0.4537542 0.4526472 0.7510876 0.4563711 0.7167515 0.4563711 0.7510876 0.7097927 0.6902238 0.6681343 0.7272076 0.6681488 0.6900295 0.709789 0.7041584 0.7393155 0.6902905 0.7393134 0.7042214 0.8350698 0.6630098 0.8055151 0.6769521 0.8055151 0.6630098 0.4526472 0.7510876 0.4563711 0.7510876 0.4563711 0.8841398 0.5079072 0.0913425 0.5079072 0.1042186 0.4570133 0.1042185 0.4563712 0.3605149 0.4563712 0.4935671 0.4526472 0.4935671 0.4526473 0.2660908 0.4526473 0.09011858 0.4563713 0.09011858 0.4834636 0.4431601 0.4896121 0.4431601 0.4896121 0.4951274 0.8053706 0.04117077 0.8053706 0.09926325 0.7637255 0.09926325 0.7097458 0.9110024 0.7097326 0.969154 0.6680364 0.9690048 0.5668696 0.0913425 0.5823861 0.0913425 0.5823861 0.1042186 0.7341709 0.04117071 0.7341709 0.09926325 0.6790919 0.09926319 0.4526472 0.5472173 0.4526472 0.4935671 0.4563712 0.4935671 0.7637255 0.04117077 0.7637255 0.09926325 0.753874 0.09926325 0.7943639 0.9109833 0.7943677 0.9690649 0.7392993 0.9691079 0.4526472 0.2975655 0.4526473 0.2660908 0.4563712 0.2660908 0.7097458 0.9110024 0.7097759 0.8760753 0.7211563 0.8763905 0.7278731 0.8994321 0.7278592 0.876168 0.7392874 0.8761498 0.1046513 0.9971253 0.1046513 0.9151678 0.1278157 0.9151678 0.4526472 0.3605149 0.4526472 0.3290402 0.4563712 0.3290402 0.4526472 0.3290402 0.4526472 0.2975655 0.4563712 0.2975655 0.7455899 0.02955228 0.7440224 0.09926325 0.7341709 0.09926325 0.7523067 0.02955228 0.753874 0.09926325 0.7440224 0.09926325 0.4834636 0.5470947 0.4896121 0.5470947 0.4896121 0.599062 0.4834636 0.4951274 0.4896121 0.4951274 0.4896121 0.5470947 0.1539 0.9155377 0.1539 0.9974952 0.1307356 0.9974952 0.7455899 0.00631529 0.7455899 0.02955228 0.7341709 0.04117071 0.719596 0.969154 0.7211659 0.899486 0.7278731 0.8994321 0.7294486 0.9691315 0.7278731 0.8994321 0.7392934 0.9110177 0.7097326 0.969154 0.7097458 0.9110024 0.7211659 0.899486 0.7943615 0.8761355 0.7943639 0.9109833 0.7392934 0.9110177 0.7637255 0.00631529 0.7637255 0.04117077 0.7523067 0.02955228 0.4526472 0.5794073 0.4526472 0.5472173 0.4563711 0.5472173 0.7341709 0.00631529 0.7341709 0.04117071 0.6790919 0.04117071 0.5575598 0.0913425 0.5668696 0.0913425 0.5668696 0.1042186 0.7097759 0.8760753 0.7097458 0.9110024 0.6680546 0.9108396 0.8053706 0.00631529 0.8053706 0.04117077 0.7637255 0.04117077 0.79436 0.7274976 0.7943615 0.8761355 0.7392874 0.8761498 0.5178377 0.0913425 0.5575598 0.0913425 0.5575598 0.1042186 0.7341709 -0.1656384 0.7341709 0.00631529 0.6790919 0.006315231 0.5558083 0.06049174 0.5558083 0.2872583 0.5496597 0.2872583 0.709789 0.7041584 0.7097759 0.8760753 0.6680669 0.8759651 0.4526472 0.7167515 0.4526472 0.5794073 0.4563711 0.5794073 0.8053706 -0.1424013 0.8053706 0.00631529 0.7637255 0.00631529 0.4896121 0.2163937 0.4896121 0.4431601 0.4834636 0.4431601 0.4896121 0.06049174 0.4896121 0.2163937 0.4834636 0.2163937 0.7341709 -0.1795806 0.7341709 -0.1656384 0.6790919 -0.1424013 0.5079072 0.0913425 0.5178377 0.0913425 0.5178377 0.1042186 0.7943625 0.6903403 0.79436 0.7274976 0.7393134 0.7042214 0.7341709 -0.1795806 0.7637255 -0.1795806 0.7637255 -0.1656384 0.8053706 -0.1795805 0.8053706 -0.1424013 0.7637255 -0.1656383 0.4526472 0.7510876 0.4526472 0.7167515 0.4563711 0.7167515 0.7097927 0.6902238 0.709789 0.7041584 0.6681343 0.7272076 0.709789 0.7041584 0.7097927 0.6902238 0.7393155 0.6902905 0.8350698 0.6630098 0.8350698 0.6769521 0.8055151 0.6769521</float_array>
          <technique_common>
            <accessor source="#Plane_010-mesh-map-0-array" count="312" stride="2">
              <param name="S" type="float"/>
              <param name="T" type="float"/>
            </accessor>
          </technique_common>
        </source>
        <vertices id="Plane_010-mesh-vertices">
          <input semantic="POSITION" source="#Plane_010-mesh-positions"/>
        </vertices>
        <triangles material="Material_001-material" count="104">
          <input semantic="VERTEX" source="#Plane_010-mesh-vertices" offset="0"/>
          <input semantic="NORMAL" source="#Plane_010-mesh-normals" offset="1"/>
          <input semantic="TEXCOORD" source="#Plane_010-mesh-map-0" offset="2" set="0"/>
          <p>2 0 0 1 0 1 0 0 2 6 0 3 4 0 4 5 0 5 9 1 6 10 1 7 8 1 8 12 1 9 14 1 10 13 1 11 22 0 12 31 0 13 25 0 14 33 2 15 9 2 16 38 2 17 34 3 18 10 3 19 39 3 20 35 4 21 15 4 22 37 4 23 36 2 24 14 2 25 35 2 26 39 5 27 11 5 28 33 5 29 38 2 30 28 2 31 43 2 32 37 3 33 12 3 34 32 3 35 26 1 36 13 1 37 29 1 38 34 6 39 25 6 40 41 6 41 40 3 42 16 3 43 32 3 44 41 3 45 24 3 46 40 3 47 8 1 48 28 1 49 9 1 50 27 1 51 29 1 52 28 1 53 42 7 54 13 7 55 36 7 56 43 2 57 29 2 58 42 2 59 24 0 60 17 0 61 16 0 62 25 0 63 30 0 64 24 0 65 31 2 66 42 2 67 30 2 68 30 2 69 36 2 70 17 2 71 27 3 72 40 3 73 26 3 74 26 3 75 32 3 76 12 3 77 8 3 78 41 3 79 27 3 80 19 3 81 32 3 82 16 3 83 21 2 84 43 2 85 31 2 86 23 5 87 33 5 88 20 5 89 17 2 90 35 2 91 18 2 92 18 4 93 37 4 94 19 4 95 22 3 96 39 3 97 23 3 98 20 2 99 38 2 100 21 2 101 45 8 102 16 8 103 44 8 104 46 4 105 19 4 106 45 4 107 47 2 108 18 2 109 46 2 110 44 5 111 17 5 112 47 5 113 49 9 114 23 9 115 48 9 116 48 5 117 20 5 118 50 5 119 50 2 120 21 2 121 51 2 122 51 4 123 22 4 124 49 4 125 47 1 126 49 1 127 44 1 128 5 2 129 46 2 130 6 2 131 6 4 132 45 4 133 7 4 134 7 3 135 44 3 136 4 3 137 5 2 138 51 2 139 47 2 140 3 2 141 51 2 142 1 2 143 2 5 144 50 5 145 3 5 146 0 3 147 48 3 148 2 3 149 49 3 150 4 3 151 44 3 152 5 0 153 0 0 154 1 0 155 2 0 156 3 0 157 1 0 158 6 0 159 7 0 160 4 0 161 9 1 162 11 1 163 10 1 164 12 1 165 15 1 166 14 1 167 22 0 168 21 0 169 31 0 170 33 2 171 11 2 172 9 2 173 34 3 174 8 3 175 10 3 176 35 4 177 14 4 178 15 4 179 36 2 180 13 2 181 14 2 182 39 5 183 10 5 184 11 5 185 38 2 186 9 2 187 28 2 188 37 3 189 15 3 190 12 3 191 26 1 192 12 1 193 13 1 194 34 3 195 22 3 196 25 3 197 40 3 198 24 3 199 16 3 200 41 3 201 25 3 202 24 3 203 8 1 204 27 1 205 28 1 206 27 1 207 26 1 208 29 1 209 42 2 210 29 2 211 13 2 212 43 2 213 28 2 214 29 2 215 24 0 216 30 0 217 17 0 218 25 0 219 31 0 220 30 0 221 31 2 222 43 2 223 42 2 224 30 10 225 42 10 226 36 10 227 27 3 228 41 3 229 40 3 230 26 11 231 40 11 232 32 11 233 8 12 234 34 12 235 41 12 236 19 3 237 37 3 238 32 3 239 21 13 240 38 13 241 43 13 242 23 5 243 39 5 244 33 5 245 17 2 246 36 2 247 35 2 248 18 4 249 35 4 250 37 4 251 22 3 252 34 3 253 39 3 254 20 2 255 33 2 256 38 2 257 45 3 258 19 3 259 16 3 260 46 4 261 18 4 262 19 4 263 47 2 264 17 2 265 18 2 266 44 5 267 16 5 268 17 5 269 49 3 270 22 3 271 23 3 272 48 5 273 23 5 274 20 5 275 50 2 276 20 2 277 21 2 278 51 4 279 21 4 280 22 4 281 47 1 282 51 1 283 49 1 284 5 14 285 47 14 286 46 14 287 6 4 288 46 4 289 45 4 290 7 15 291 45 15 292 44 15 293 5 2 294 1 2 295 51 2 296 3 16 297 50 16 298 51 16 299 2 5 300 48 5 301 50 5 302 0 17 303 49 17 304 48 17 305 49 3 306 0 3 307 4 3 308 5 0 309 4 0 310 0 0 311</p>
        </triangles>
      </mesh>
    </geometry>
  </library_geometries>
  <library_visual_scenes>
    <visual_scene id="Scene" name="Scene">
      <node id="Plane_006" name="Plane.006" type="NODE">
        <matrix sid="transform">1 0 0 0 0 1 0 0 0 0 1 0 0 0 0 1</matrix>
        <instance_geometry url="#Plane_010-mesh" name="Plane.006">
          <bind_material>
            <technique_common>
              <instance_material symbol="Material_001-material" target="#Material_001-material">
                <bind_vertex_input semantic="Plane_010-mesh-map-0" input_semantic="TEXCOORD" input_set="0"/>
              </instance_material>
            </technique_common>
          </bind_material>
        </instance_geometry>
      </node>
    </visual_scene>
  </library_visual_scenes>
  <scene>
    <instance_visual_scene url="#Scene"/>
  </scene>
</COLLADA>