<?xml version="1.0" encoding="utf-8"?>
<COLLADA xmlns="http://www.collada.org/2005/11/COLLADASchema" version="1.4.1" xmlns:xsi="http://www.w3.org/2001/XMLSchema-instance">
  <asset>
    <contributor>
      <author>Blender User</author>
      <authoring_tool>Blender 4.5.2 LTS commit date:2025-08-19, commit time:15:00, hash:ab25eae04993</authoring_tool>
    </contributor>
    <created>2025-09-06T15:54:49</created>
    <modified>2025-09-06T15:54:49</modified>
    <unit name="meter" meter="1"/>
    <up_axis>Z_UP</up_axis>
  </asset>
  <library_effects>
    <effect id="Material_001-effect">
      <profile_COMMON>
        <newparam sid="textures_second1_png-surface">
          <surface type="2D">
            <init_from>textures_second1_png</init_from>
          </surface>
        </newparam>
        <newparam sid="textures_second1_png-sampler">
          <sampler2D>
            <source>textures_second1_png-surface</source>
          </sampler2D>
        </newparam>
        <technique sid="common">
          <lambert>
            <emission>
              <color sid="emission">0 0 0 1</color>
            </emission>
            <diffuse>
              <texture texture="textures_second1_png-sampler" texcoord="Plane_010-mesh-map-0"/>
            </diffuse>
            <index_of_refraction>
              <float sid="ior">1.5</float>
            </index_of_refraction>
          </lambert>
        </technique>
      </profile_COMMON>
    </effect>
  </library_effects>
  <library_images>
    <image id="textures_second1_png" name="textures_second1_png">
      <init_from>textures_second1.png</init_from>
    </image>
  </library_images>
  <library_materials>
    <material id="Material_001-material" name="Material.001">
      <instance_effect url="#Material_001-effect"/>
    </material>
  </library_materials>
  <library_geometries>
    <geometry id="Plane_010-mesh" name="Plane.010">
      <mesh>
        <source id="Plane_010-mesh-positions">
          <float_array id="Plane_010-mesh-positions-array" count="132">2.55 4.45 0 2.700001 4.45 0 2.55 6 0 2.700001 6 0 2.55 3.35 0 2.700001 3.35 0 2.700001 1.3 0 2.55 1.3 0 2.55 4.45 3 2.700001 4.45 3 2.55 6 3 2.700001 6 3 2.55 3.35 3 2.700001 3.35 3 2.700001 1.3 3 2.55 1.3 3 2.55 3.35 2 2.700001 3.35 2 2.700001 1.3 2 2.55 1.3 2 2.700001 6 2 2.700001 4.45 2 2.55 4.45 2 2.55 6 2 2.55 3.775002 2 2.55 4.024998 2 2.55 3.716666 3 2.55 4.083333 3 2.700001 4.083333 3 2.700001 3.716666 3 2.700001 3.775002 2 2.700001 4.024998 2 2.55 3.35 2.375 2.700001 6 2.375 2.55 4.45 2.375 2.700001 1.3 2.375 2.700001 3.35 2.375 2.55 1.3 2.375 2.700001 4.45 2.375 2.55 6 2.375 2.55 3.775002 2.25 2.55 4.024998 2.25 2.700001 3.775002 2.25 2.700001 4.024998 2.25</float_array>
          <technique_common>
            <accessor source="#Plane_010-mesh-positions-array" count="44" stride="3">
              <param name="X" type="float"/>
              <param name="Y" type="float"/>
              <param name="Z" type="float"/>
            </accessor>
          </technique_common>
        </source>
        <source id="Plane_010-mesh-normals">
          <float_array id="Plane_010-mesh-normals-array" count="36">0 0 -1 0 0 1 1 0 0 -1 0 0 0 -1 0 0 1 0 -1 -1.12196e-6 0 1 -8.97573e-7 0 1 5.60983e-7 0 -1 -5.74117e-7 0 -1 6.73179e-7 0 1 -3.73988e-7 0</float_array>
          <technique_common>
            <accessor source="#Plane_010-mesh-normals-array" count="12" stride="3">
              <param name="X" type="float"/>
              <param name="Y" type="float"/>
              <param name="Z" type="float"/>
            </accessor>
          </technique_common>
        </source>
        <source id="Plane_010-mesh-map-0">
          <float_array id="Plane_010-mesh-map-0-array" count="504">0.3923146 0.8569307 0.3884605 0.7191551 0.3923146 0.7191551 0.3884605 0.08360981 0.3923146 0.2658291 0.3884605 0.2658292 0.3962682 0.6302676 0.392414 0.7680432 0.392414 0.6302676 0.392414 0.5324915 0.3962682 0.3502722 0.3962682 0.5324914 0.3923146 0.5413802 0.3884605 0.5036029 0.3923146 0.5036029 0.8585878 0.3071804 0.816824 0.3654384 0.816824 0.3071804 0.7745115 0.3137612 0.7327477 0.3720192 0.7327477 0.3137612 0.3962682 0.2947176 0.3924141 0.3502722 0.392414 0.2947176 0.7871853 0.3071804 0.7319494 0.3654384 0.7319494 0.3071804 0.5545847 0.2947177 0.5507306 0.3502724 0.5507306 0.2947177 0.816824 0.3071804 0.8069446 0.3654384 0.8053728 0.2955287 0.8593861 0.3137612 0.8041502 0.3720192 0.8041502 0.3137612 0.392414 0.5650834 0.3962682 0.5324914 0.3962682 0.5650834 0.7745115 0.3137612 0.7859628 0.2788064 0.7859628 0.3021095 0.7926988 0.3021095 0.8041502 0.2788065 0.8041502 0.3137612 0.1046513 0.9971253 0.1278157 0.9151678 0.1278157 0.9971253 0.392414 0.6302676 0.3962682 0.5976755 0.3962682 0.6302676 0.392414 0.5976756 0.3962682 0.5650834 0.3962682 0.5976755 0.7986368 0.2955287 0.7871853 0.3654384 0.7871853 0.3071804 0.8053728 0.2955287 0.7970648 0.3654384 0.7986368 0.2955287 0.3923146 0.4813814 0.3884605 0.4436041 0.3923147 0.4436041 0.3923146 0.5036029 0.3884605 0.4813814 0.3923146 0.4813814 0.1539 0.9155377 0.1307356 0.9974952 0.1307356 0.9155377 0.7986368 0.2722256 0.7871853 0.3071804 0.7871853 0.2722256 0.7843909 0.3720192 0.7926988 0.3021095 0.7942708 0.3720192 0.7942708 0.3720192 0.8041502 0.3137612 0.8041502 0.3720192 0.7745115 0.3720192 0.7859628 0.3021095 0.7843909 0.3720192 0.8593861 0.2788065 0.8041502 0.3137612 0.8041502 0.2788065 0.816824 0.2722256 0.8053728 0.2955287 0.8053728 0.2722256 0.5545847 0.2613849 0.5507306 0.2947177 0.5507306 0.2613849 0.7871853 0.2722256 0.7319494 0.3071804 0.7319494 0.2722256 0.3962682 0.2613847 0.392414 0.2947176 0.3924141 0.2613847 0.7745115 0.2788064 0.7327477 0.3137612 0.7327477 0.2788064 0.8585878 0.2722256 0.816824 0.3071804 0.816824 0.2722256 0.3923146 0.8569307 0.3884605 0.8569307 0.3884605 0.7191551 0.3884605 0.08360981 0.3923146 0.08360981 0.3923146 0.2658291 0.3962682 0.6302676 0.3962682 0.7680432 0.392414 0.7680432 0.392414 0.5324915 0.3924141 0.3502722 0.3962682 0.3502722 0.3923146 0.5413802 0.3884605 0.5413802 0.3884605 0.5036029 0.8585878 0.3071804 0.8585878 0.3654384 0.816824 0.3654384 0.7745115 0.3137612 0.7745115 0.3720192 0.7327477 0.3720192 0.3962682 0.2947176 0.3962682 0.3502722 0.3924141 0.3502722 0.7871853 0.3071804 0.7871853 0.3654384 0.7319494 0.3654384 0.5545847 0.2947177 0.5545847 0.3502724 0.5507306 0.3502724 0.816824 0.3071804 0.816824 0.3654384 0.8069446 0.3654384 0.8593861 0.3137612 0.8593861 0.3720192 0.8041502 0.3720192 0.392414 0.5650834 0.392414 0.5324915 0.3962682 0.5324914 0.7745115 0.3137612 0.7745115 0.2788064 0.7859628 0.2788064 0.7926988 0.3021095 0.7926988 0.2788064 0.8041502 0.2788065 0.1046513 0.9971253 0.1046513 0.9151678 0.1278157 0.9151678 0.392414 0.6302676 0.392414 0.5976756 0.3962682 0.5976755 0.392414 0.5976756 0.392414 0.5650834 0.3962682 0.5650834 0.7986368 0.2955287 0.7970648 0.3654384 0.7871853 0.3654384 0.8053728 0.2955287 0.8069446 0.3654384 0.7970648 0.3654384 0.3923146 0.4813814 0.3884605 0.4813814 0.3884605 0.4436041 0.3923146 0.5036029 0.3884605 0.5036029 0.3884605 0.4813814 0.1539 0.9155377 0.1539 0.9974952 0.1307356 0.9974952 0.7986368 0.2722256 0.7986368 0.2955287 0.7871853 0.3071804 0.7843909 0.3720192 0.7859628 0.3021095 0.7926988 0.3021095 0.7942708 0.3720192 0.7926988 0.3021095 0.8041502 0.3137612 0.7745115 0.3720192 0.7745115 0.3137612 0.7859628 0.3021095 0.8593861 0.2788065 0.8593861 0.3137612 0.8041502 0.3137612 0.816824 0.2722256 0.816824 0.3071804 0.8053728 0.2955287 0.5545847 0.2613849 0.5545847 0.2947177 0.5507306 0.2947177 0.7871853 0.2722256 0.7871853 0.3071804 0.7319494 0.3071804 0.3962682 0.2613847 0.3962682 0.2947176 0.392414 0.2947176 0.7745115 0.2788064 0.7745115 0.3137612 0.7327477 0.3137612 0.8585878 0.2722256 0.8585878 0.3071804 0.816824 0.3071804 0.816824 0.2722256 0.8585878 0.08579993 0.8585878 0.2722256 0.5507306 0.08360981 0.5545847 0.2613849 0.5507306 0.2613849 0.7745115 0.0923807 0.7327477 0.2788064 0.7327477 0.0923807 0.3884605 0.7191551 0.3923146 0.5413802 0.3923146 0.7191551 0.7871853 0.08579993 0.7319494 0.2722256 0.7319494 0.08579993 0.3923146 0.2658291 0.3884605 0.4436041 0.3884605 0.2658292 0.8041502 0.2788065 0.8593861 0.09238076 0.8593861 0.2788065 0.3924141 0.08360981 0.3962682 0.2613847 0.3924141 0.2613847 0.816824 0.2722256 0.816824 0.08579993 0.8585878 0.08579993 0.5507306 0.08360981 0.5545847 0.08360981 0.5545847 0.2613849 0.7745115 0.0923807 0.7745115 0.2788064 0.7327477 0.2788064 0.3884605 0.7191551 0.3884605 0.5413802 0.3923146 0.5413802 0.7871853 0.08579993 0.7871853 0.2722256 0.7319494 0.2722256 0.3923146 0.2658291 0.3923147 0.4436041 0.3884605 0.4436041 0.8041502 0.2788065 0.8041502 0.09238076 0.8593861 0.09238076 0.3924141 0.08360981 0.3962682 0.08360981 0.3962682 0.2613847</float_array>
          <technique_common>
            <accessor source="#Plane_010-mesh-map-0-array" count="252" stride="2">
              <param name="S" type="float"/>
              <param name="T" type="float"/>
            </accessor>
          </technique_common>
        </source>
        <vertices id="Plane_010-mesh-vertices">
          <input semantic="POSITION" source="#Plane_010-mesh-positions"/>
        </vertices>
        <triangles material="Material_001-material" count="84">
          <input semantic="VERTEX" source="#Plane_010-mesh-vertices" offset="0"/>
          <input semantic="NORMAL" source="#Plane_010-mesh-normals" offset="1"/>
          <input semantic="TEXCOORD" source="#Plane_010-mesh-map-0" offset="2" set="0"/>
          <p>2 0 0 1 0 1 0 0 2 6 0 3 4 0 4 5 0 5 9 1 6 10 1 7 8 1 8 12 1 9 14 1 10 13 1 11 22 0 12 31 0 13 25 0 14 33 2 15 9 2 16 38 2 17 34 3 18 10 3 19 39 3 20 35 4 21 15 4 22 37 4 23 36 2 24 14 2 25 35 2 26 39 5 27 11 5 28 33 5 29 38 2 30 28 2 31 43 2 32 37 3 33 12 3 34 32 3 35 26 1 36 13 1 37 29 1 38 34 6 39 25 6 40 41 6 41 40 3 42 16 3 43 32 3 44 41 3 45 24 3 46 40 3 47 8 1 48 28 1 49 9 1 50 27 1 51 29 1 52 28 1 53 42 7 54 13 7 55 36 7 56 43 2 57 29 2 58 42 2 59 24 0 60 17 0 61 16 0 62 25 0 63 30 0 64 24 0 65 31 2 66 42 2 67 30 2 68 30 2 69 36 2 70 17 2 71 27 3 72 40 3 73 26 3 74 26 3 75 32 3 76 12 3 77 8 3 78 41 3 79 27 3 80 19 3 81 32 3 82 16 3 83 21 2 84 43 2 85 31 2 86 23 5 87 33 5 88 20 5 89 17 2 90 35 2 91 18 2 92 18 4 93 37 4 94 19 4 95 22 3 96 39 3 97 23 3 98 20 2 99 38 2 100 21 2 101 2 0 102 3 0 103 1 0 104 6 0 105 7 0 106 4 0 107 9 1 108 11 1 109 10 1 110 12 1 111 15 1 112 14 1 113 22 0 114 21 0 115 31 0 116 33 2 117 11 2 118 9 2 119 34 3 120 8 3 121 10 3 122 35 4 123 14 4 124 15 4 125 36 2 126 13 2 127 14 2 128 39 5 129 10 5 130 11 5 131 38 2 132 9 2 133 28 2 134 37 3 135 15 3 136 12 3 137 26 1 138 12 1 139 13 1 140 34 3 141 22 3 142 25 3 143 40 3 144 24 3 145 16 3 146 41 3 147 25 3 148 24 3 149 8 1 150 27 1 151 28 1 152 27 1 153 26 1 154 29 1 155 42 2 156 29 2 157 13 2 158 43 2 159 28 2 160 29 2 161 24 0 162 30 0 163 17 0 164 25 0 165 31 0 166 30 0 167 31 2 168 43 2 169 42 2 170 30 8 171 42 8 172 36 8 173 27 3 174 41 3 175 40 3 176 26 9 177 40 9 178 32 9 179 8 10 180 34 10 181 41 10 182 19 3 183 37 3 184 32 3 185 21 11 186 38 11 187 43 11 188 23 5 189 39 5 190 33 5 191 17 2 192 36 2 193 35 2 194 18 4 195 35 4 196 37 4 197 22 3 198 34 3 199 39 3 200 20 2 201 33 2 202 38 2 203 21 2 204 3 2 205 20 2 206 3 5 207 23 5 208 20 5 209 0 3 210 23 3 211 2 3 212 1 4 213 22 4 214 0 4 215 5 2 216 18 2 217 6 2 218 4 5 219 17 5 220 5 5 221 16 3 222 7 3 223 19 3 224 7 4 225 18 4 226 19 4 227 21 2 228 1 2 229 3 2 230 3 5 231 2 5 232 23 5 233 0 3 234 22 3 235 23 3 236 1 4 237 21 4 238 22 4 239 5 2 240 17 2 241 18 2 242 4 5 243 16 5 244 17 5 245 16 3 246 4 3 247 7 3 248 7 4 249 6 4 250 18 4 251</p>
        </triangles>
      </mesh>
    </geometry>
  </library_geometries>
  <library_visual_scenes>
    <visual_scene id="Scene" name="Scene">
      <node id="Plane_006" name="Plane.006" type="NODE">
        <matrix sid="transform">1 0 0 0 0 1 0 0 0 0 1 0 0 0 0 1</matrix>
        <instance_geometry url="#Plane_010-mesh" name="Plane.006">
          <bind_material>
            <technique_common>
              <instance_material symbol="Material_001-material" target="#Material_001-material">
                <bind_vertex_input semantic="Plane_010-mesh-map-0" input_semantic="TEXCOORD" input_set="0"/>
              </instance_material>
            </technique_common>
          </bind_material>
        </instance_geometry>
      </node>
    </visual_scene>
  </library_visual_scenes>
  <scene>
    <instance_visual_scene url="#Scene"/>
  </scene>
</COLLADA>