<?xml version="1.0" encoding="utf-8"?>
<COLLADA xmlns="http://www.collada.org/2005/11/COLLADASchema" version="1.4.1" xmlns:xsi="http://www.w3.org/2001/XMLSchema-instance">
  <asset>
    <contributor>
      <author>Blender User</author>
      <authoring_tool>Blender 4.5.2 LTS commit date:2025-08-19, commit time:15:00, hash:ab25eae04993</authoring_tool>
    </contributor>
    <created>2026-09-25T11:51:43</created>
    <modified>2026-09-25T11:51:43</modified>
    <unit name="meter" meter="1"/>
    <up_axis>Z_UP</up_axis>
  </asset>
  <library_effects>
    <effect id="Material_003-effect">
      <profile_COMMON>
        <newparam sid="road_texture_png_001-surface">
          <surface type="2D">
            <init_from>road_texture_png_001</init_from>
          </surface>
        </newparam>
        <newparam sid="road_texture_png_001-sampler">
          <sampler2D>
            <source>road_texture_png_001-surface</source>
          </sampler2D>
        </newparam>
        <technique sid="common">
          <lambert>
            <emission>
              <color sid="emission">0 0 0 1</color>
            </emission>
            <diffuse>
              <texture texture="road_texture_png_001-sampler" texcoord="UVMap"/>
            </diffuse>
            <index_of_refraction>
              <float sid="ior">1.5</float>
            </index_of_refraction>
          </lambert>
        </technique>
      </profile_COMMON>
    </effect>
  </library_effects>
  <library_images>
    <image id="road_texture_png_001" name="road_texture_png_001">
      <init_from>road_texture.png</init_from>
    </image>
  </library_images>
  <library_materials>
    <material id="Material_003-material" name="Material.003">
      <instance_effect url="#Material_003-effect"/>
    </material>
  </library_materials>
  <library_geometries>
    <geometry id="Mesh_002-mesh" name="Mesh.002">
      <mesh>
        <source id="Mesh_002-mesh-positions">
          <float_array id="Mesh_002-mesh-positions-array" count="276">-11.04682 -2.963878 0 -10.32753 -2.321027 0 -9.510046 -1.916553 0 -8.617381 -1.700536 0 -7.672565 -1.623055 0 -6.69863 -1.634189 0 -5.718601 -1.684018 0 -4.755506 -1.72262 0 -3.832372 -1.700074 0 -2.972227 -1.56646 0 -2.198098 -1.271857 0 -1.533014 -0.7663434 0 -1 0 0 -0.7376994 0.8033643 0 -0.7477157 1.565116 0 -0.9775313 2.294394 0 -2.206277 -13.4411 0 -2.913964 -14.48248 0 -3.678385 -15.3936 0 -4.532054 -16.13305 0 -5.507487 -16.65943 0 -6.6372 -16.93135 0 -7.953707 -16.90741 0 -8.648087 -16.75222 0 -9.244774 -16.48905 0 -9.753502 -16.12885 0 -10.184 -15.68257 0 -10.54601 -15.16119 0 -10.84925 -14.57564 0 -11.10346 -13.93688 0 -11.31837 -13.25587 0 -11.50371 -12.54357 0 -11.66922 -11.81092 0 -11.82462 -11.06889 0 -11.97966 -10.32842 0 -12.12502 -9.630432 0 -12.25231 -8.95232 0 -12.35476 -8.292719 0 -12.42565 -7.650265 0 -12.45822 -7.023591 0 -12.44573 -6.411329 0 -12.38144 -5.812113 0 -12.25859 -5.224575 0 -12.07045 -4.64735 0 -11.81027 -4.07907 0 -11.47131 -3.518369 0 -10.89948 -3.100431 0 -10.2145 -2.488243 0 -9.441334 -2.105698 0 -8.585494 -1.898592 0 -7.66552 -1.823149 0 -6.704854 -1.834131 0 -5.727684 -1.883814 0 -4.757071 -1.922717 0 -3.814506 -1.899697 0 -2.920747 -1.760862 0 -2.100023 -1.448526 0 -1.386852 -0.9064638 0 -0.8190094 -0.09004479 0 -0.5372806 0.7728236 0 -0.5481199 1.597165 0 -0.793026 2.37433 0 -2.374676 -13.33307 0 -3.07369 -14.36169 0 -3.821367 -15.25285 0 -4.646382 -15.96748 0 -5.579578 -16.47107 0 -6.659136 -16.73092 0 -7.929835 -16.70782 0 -8.585324 -16.56131 0 -9.145638 -16.31418 0 -9.622601 -15.97647 0 -10.02889 -15.5553 0 -10.37435 -15.05774 0 -10.66709 -14.49247 0 -10.91493 -13.86972 0 -11.1261 -13.20056 0 -11.30934 -12.49634 0 -11.47379 -11.76839 0 -11.62887 -11.0279 0 -11.78388 -10.28754 0 -11.92882 -9.59159 0 -12.05516 -8.918514 0 -12.15646 -8.26639 0 -12.22622 -7.634094 0 -12.25812 -7.020436 0 -12.24595 -6.424061 0 -12.18364 -5.843324 0 -12.06506 -5.276184 0 -11.88385 -4.720205 0 -11.63319 -4.172739 0 -11.30583 -3.63123 0</float_array>
          <technique_common>
            <accessor source="#Mesh_002-mesh-positions-array" count="92" stride="3">
              <param name="X" type="float"/>
              <param name="Y" type="float"/>
              <param name="Z" type="float"/>
            </accessor>
          </technique_common>
        </source>
        <source id="Mesh_002-mesh-normals">
          <float_array id="Mesh_002-mesh-normals-array" count="3">0 0 1</float_array>
          <technique_common>
            <accessor source="#Mesh_002-mesh-normals-array" count="1" stride="3">
              <param name="X" type="float"/>
              <param name="Y" type="float"/>
              <param name="Z" type="float"/>
            </accessor>
          </technique_common>
        </source>
        <source id="Mesh_002-mesh-map-0">
          <float_array id="Mesh_002-mesh-map-0-array" count="540">0 0 0 0 0 0 0 0 0 0 0 0 0 0 0 0 0 0 0 0 0 0 0 0 0 0 0 0 0 0 0 0 0 0 0 0 0 0 0 0 0 0 0 0 0 0 0 0 0 0 0 0 0 0 0 0 0 0 0 0 0 0 0 0 0 0 0 0 0 0 0 0 0 0 0 0 0 0 0 0 0 0 0 0 0 0 0 0 0 0 0 0 0 0 0 0 0 0 0 0 0 0 0 0 0 0 0 0 0 0 0 0 0 0 0 0 0 0 0 0 0 0 0 0 0 0 0 0 0 0 0 0 0 0 0 0 0 0 0 0 0 0 0 0 0 0 0 0 0 0 0 0 0 0 0 0 0 0 0 0 0 0 0 0 0 0 0 0 0 0 0 0 0 0 0 0 0 0 0 0 0 0 0 0 0 0 0 0 0 0 0 0 0 0 0 0 0 0 0 0 0 0 0 0 0 0 0 0 0 0 0 0 0 0 0 0 0 0 0 0 0 0 0 0 0 0 0 0 0 0 0 0 0 0 0 0 0 0 0 0 0 0 0 0 0 0 0 0 0 0 0 0 0 0 0 0 0 0 0 0 0 0 0 0 0 0 0 0 0 0 0 0 0 0 0 0 0 0 0 0 0 0 0 0 0 0 0 0 0 0 0 0 0 0 0 0 0 0 0 0 0 0 0 0 0 0 0 0 0 0 0 0 0 0 0 0 0 0 0 0 0 0 0 0 0 0 0 0 0 0 0 0 0 0 0 0 0 0 0 0 0 0 0 0 0 0 0 0 0 0 0 0 0 0 0 0 0 0 0 0 0 0 0 0 0 0 0 0 0 0 0 0 0 0 0 0 0 0 0 0 0 0 0 0 0 0 0 0 0 0 0 0 0 0 0 0 0 0 0 0 0 0 0 0 0 0 0 0 0 0 0 0 0 0 0 0 0 0 0 0 0 0 0 0 0 0 0 0 0 0 0 0 0 0 0 0 0 0 0 0 0 0 0 0 0 0 0 0 0 0 0 0 0 0 0 0 0 0 0 0 0 0 0 0 0 0 0 0 0 0 0 0 0 0 0 0 0 0 0 0 0 0 0 0 0 0 0 0 0 0 0 0 0 0 0 0 0 0 0 0 0 0 0 0 0 0 0 0 0 0 0 0 0 0 0 0 0 0 0 0 0 0 0 0 0 0 0 0 0 0 0 0 0 0 0 0 0 0 0 0</float_array>
          <technique_common>
            <accessor source="#Mesh_002-mesh-map-0-array" count="270" stride="2">
              <param name="S" type="float"/>
              <param name="T" type="float"/>
            </accessor>
          </technique_common>
        </source>
        <vertices id="Mesh_002-mesh-vertices">
          <input semantic="POSITION" source="#Mesh_002-mesh-positions"/>
        </vertices>
        <triangles material="Material_003-material" count="90">
          <input semantic="VERTEX" source="#Mesh_002-mesh-vertices" offset="0"/>
          <input semantic="NORMAL" source="#Mesh_002-mesh-normals" offset="1"/>
          <input semantic="TEXCOORD" source="#Mesh_002-mesh-map-0" offset="2" set="0"/>
          <p>47 0 0 0 0 1 46 0 2 47 0 3 2 0 4 1 0 5 48 0 6 3 0 7 2 0 8 49 0 9 4 0 10 3 0 11 50 0 12 5 0 13 4 0 14 51 0 15 6 0 16 5 0 17 52 0 18 7 0 19 6 0 20 53 0 21 8 0 22 7 0 23 54 0 24 9 0 25 8 0 26 55 0 27 10 0 28 9 0 29 56 0 30 11 0 31 10 0 32 58 0 33 11 0 34 57 0 35 58 0 36 13 0 37 12 0 38 60 0 39 13 0 40 59 0 41 61 0 42 14 0 43 60 0 44 63 0 45 16 0 46 62 0 47 64 0 48 17 0 49 63 0 50 65 0 51 18 0 52 64 0 53 66 0 54 19 0 55 65 0 56 66 0 57 21 0 58 20 0 59 67 0 60 22 0 61 21 0 62 68 0 63 23 0 64 22 0 65 70 0 66 23 0 67 69 0 68 70 0 69 25 0 70 24 0 71 71 0 72 26 0 73 25 0 74 72 0 75 27 0 76 26 0 77 73 0 78 28 0 79 27 0 80 74 0 81 29 0 82 28 0 83 75 0 84 30 0 85 29 0 86 76 0 87 31 0 88 30 0 89 77 0 90 32 0 91 31 0 92 78 0 93 33 0 94 32 0 95 80 0 96 33 0 97 79 0 98 81 0 99 34 0 100 80 0 101 82 0 102 35 0 103 81 0 104 83 0 105 36 0 106 82 0 107 84 0 108 37 0 109 83 0 110 85 0 111 38 0 112 84 0 113 86 0 114 39 0 115 85 0 116 87 0 117 40 0 118 86 0 119 88 0 120 41 0 121 87 0 122 89 0 123 42 0 124 88 0 125 90 0 126 43 0 127 89 0 128 90 0 129 45 0 130 44 0 131 46 0 132 45 0 133 91 0 134 47 0 135 1 0 136 0 0 137 47 0 138 48 0 139 2 0 140 48 0 141 49 0 142 3 0 143 49 0 144 50 0 145 4 0 146 50 0 147 51 0 148 5 0 149 51 0 150 52 0 151 6 0 152 52 0 153 53 0 154 7 0 155 53 0 156 54 0 157 8 0 158 54 0 159 55 0 160 9 0 161 55 0 162 56 0 163 10 0 164 56 0 165 57 0 166 11 0 167 58 0 168 12 0 169 11 0 170 58 0 171 59 0 172 13 0 173 60 0 174 14 0 175 13 0 176 61 0 177 15 0 178 14 0 179 63 0 180 17 0 181 16 0 182 64 0 183 18 0 184 17 0 185 65 0 186 19 0 187 18 0 188 66 0 189 20 0 190 19 0 191 66 0 192 67 0 193 21 0 194 67 0 195 68 0 196 22 0 197 68 0 198 69 0 199 23 0 200 70 0 201 24 0 202 23 0 203 70 0 204 71 0 205 25 0 206 71 0 207 72 0 208 26 0 209 72 0 210 73 0 211 27 0 212 73 0 213 74 0 214 28 0 215 74 0 216 75 0 217 29 0 218 75 0 219 76 0 220 30 0 221 76 0 222 77 0 223 31 0 224 77 0 225 78 0 226 32 0 227 78 0 228 79 0 229 33 0 230 80 0 231 34 0 232 33 0 233 81 0 234 35 0 235 34 0 236 82 0 237 36 0 238 35 0 239 83 0 240 37 0 241 36 0 242 84 0 243 38 0 244 37 0 245 85 0 246 39 0 247 38 0 248 86 0 249 40 0 250 39 0 251 87 0 252 41 0 253 40 0 254 88 0 255 42 0 256 41 0 257 89 0 258 43 0 259 42 0 260 90 0 261 44 0 262 43 0 263 90 0 264 91 0 265 45 0 266 46 0 267 0 0 268 45 0 269</p>
        </triangles>
      </mesh>
    </geometry>
  </library_geometries>
  <library_visual_scenes>
    <visual_scene id="Scene" name="Scene">
      <node id="BézierCircle" name="BézierCircle" type="NODE">
        <matrix sid="transform">1 0 0 0 0 1 0 0 0 0 1 0 0 0 0 1</matrix>
        <instance_geometry url="#Mesh_002-mesh" name="BézierCircle">
          <bind_material>
            <technique_common>
              <instance_material symbol="Material_003-material" target="#Material_003-material">
                <bind_vertex_input semantic="UVMap" input_semantic="TEXCOORD" input_set="0"/>
              </instance_material>
            </technique_common>
          </bind_material>
        </instance_geometry>
      </node>
    </visual_scene>
  </library_visual_scenes>
  <scene>
    <instance_visual_scene url="#Scene"/>
  </scene>
</COLLADA>