<?xml version="1.0" encoding="utf-8"?>
<COLLADA xmlns="http://www.collada.org/2005/11/COLLADASchema" version="1.4.1" xmlns:xsi="http://www.w3.org/2001/XMLSchema-instance">
  <asset>
    <contributor>
      <author>Blender User</author>
      <authoring_tool>Blender 4.5.2 LTS commit date:2025-08-19, commit time:15:00, hash:ab25eae04993</authoring_tool>
    </contributor>
    <created>2026-09-25T11:50:48</created>
    <modified>2026-09-25T11:50:48</modified>
    <unit name="meter" meter="1"/>
    <up_axis>Z_UP</up_axis>
  </asset>
  <library_effects>
    <effect id="Material_003-effect">
      <profile_COMMON>
        <newparam sid="road_texture_png_001-surface">
          <surface type="2D">
            <init_from>road_texture_png_001</init_from>
          </surface>
        </newparam>
        <newparam sid="road_texture_png_001-sampler">
          <sampler2D>
            <source>road_texture_png_001-surface</source>
          </sampler2D>
        </newparam>
        <technique sid="common">
          <lambert>
            <emission>
              <color sid="emission">0 0 0 1</color>
            </emission>
            <diffuse>
              <texture texture="road_texture_png_001-sampler" texcoord="UVMap"/>
            </diffuse>
            <index_of_refraction>
              <float sid="ior">1.5</float>
            </index_of_refraction>
          </lambert>
        </technique>
      </profile_COMMON>
    </effect>
  </library_effects>
  <library_images>
    <image id="road_texture_png_001" name="road_texture_png_001">
      <init_from>road_texture.png</init_from>
    </image>
  </library_images>
  <library_materials>
    <material id="Material_003-material" name="Material.003">
      <instance_effect url="#Material_003-effect"/>
    </material>
  </library_materials>
  <library_geometries>
    <geometry id="Mesh_002-mesh" name="Mesh.002">
      <mesh>
        <source id="Mesh_002-mesh-positions">
          <float_array id="Mesh_002-mesh-positions-array" count="720">-11.04682 -2.963878 0 -10.32753 -2.321027 0 -9.510046 -1.916553 0 -8.617381 -1.700536 0 -7.672565 -1.623055 0 -6.69863 -1.634189 0 -5.718601 -1.684018 0 -4.755506 -1.72262 0 -3.832372 -1.700074 0 -2.972227 -1.56646 0 -2.198098 -1.271857 0 -1.533014 -0.7663434 0 -1 0 0 -0.7376994 0.8033643 0 -0.7477157 1.565116 0 -0.9775313 2.294394 0 -1.374629 3.000338 0 -1.88649 3.692087 0 -2.460597 4.378782 0 -3.044434 5.069561 0 -3.585482 5.773564 0 -4.031223 6.499931 0 -4.32914 7.257802 0 -4.426716 8.056316 0 -4.271435 8.90461 0 -3.687762 10.32426 0 -2.971543 11.57795 0 -2.131585 12.67745 0 -1.176696 13.63454 0 -0.1156864 14.46097 0 1.042636 15.16853 0 2.289464 15.76899 0 3.615988 16.27411 0 5.013399 16.69567 0 6.472889 17.04545 0 7.98565 17.3352 0 9.542873 17.57671 0 10.51169 17.70044 0 11.46828 17.79187 0 12.40742 17.84122 0 13.32391 17.83871 0 14.21252 17.77456 0 15.06807 17.639 0 15.88532 17.42224 0 16.65909 17.1145 0 17.38414 16.70601 0 18.05528 16.18698 0 18.66729 15.54763 0 19.21497 14.77818 0 19.64888 13.93602 0 19.92076 13.10451 0 20.04686 12.28089 0 20.04342 11.46235 0 19.92666 10.64611 0 19.71282 9.829375 0 19.41813 9.009358 0 19.05883 8.183268 0 18.65115 7.348318 0 18.21133 6.501717 0 17.7556 5.640676 0 17.30019 4.762404 0 16.95837 4.129505 0 16.60597 3.555843 0 16.24115 3.032727 0 15.86208 2.551468 0 15.46693 2.103374 0 15.05384 1.679756 0 14.62099 1.271922 0 14.16654 0.8711819 0 13.68864 0.4688453 0 13.18546 0.05622166 0 12.65516 -0.3753796 0 12.09591 -0.8346481 0 11.27236 -1.483592 0 10.47294 -2.052837 0 9.692492 -2.557901 0 8.92584 -3.014298 0 8.167819 -3.437544 0 7.41326 -3.843156 0 6.657001 -4.246648 0 5.893869 -4.663538 0 5.1187 -5.10934 0 4.326326 -5.599571 0 3.51158 -6.149745 0 2.669296 -6.77538 0 1.61919 -7.729034 0 0.7074414 -8.800806 0 -0.09846413 -9.949295 0 -0.8310422 -11.1331 0 -1.522808 -12.31084 0 -2.206277 -13.4411 0 -2.913964 -14.48248 0 -3.678385 -15.3936 0 -4.532054 -16.13305 0 -5.507487 -16.65943 0 -6.6372 -16.93135 0 -7.953707 -16.90741 0 -8.648087 -16.75222 0 -9.244774 -16.48905 0 -9.753502 -16.12885 0 -10.184 -15.68257 0 -10.54601 -15.16119 0 -10.84925 -14.57564 0 -11.10346 -13.93688 0 -11.31837 -13.25587 0 -11.50371 -12.54357 0 -11.66922 -11.81092 0 -11.82462 -11.06889 0 -11.97966 -10.32842 0 -12.12502 -9.630432 0 -12.25231 -8.95232 0 -12.35476 -8.292719 0 -12.42565 -7.650265 0 -12.45822 -7.023591 0 -12.44573 -6.411329 0 -12.38144 -5.812113 0 -12.25859 -5.224575 0 -12.07045 -4.64735 0 -11.81027 -4.07907 0 -11.47131 -3.518369 0 -10.89948 -3.100431 0 -10.2145 -2.488243 0 -9.441334 -2.105698 0 -8.585494 -1.898592 0 -7.66552 -1.823149 0 -6.704854 -1.834131 0 -5.727684 -1.883814 0 -4.757071 -1.922717 0 -3.814506 -1.899697 0 -2.920747 -1.760862 0 -2.100023 -1.448526 0 -1.386852 -0.9064638 0 -0.8190094 -0.09004479 0 -0.5372806 0.7728236 0 -0.5481199 1.597165 0 -0.793026 2.37433 0 -1.206433 3.109268 0 -1.729246 3.815819 0 -2.307502 4.507475 0 -2.888686 5.195116 0 -3.420508 5.887115 0 -3.851538 6.58951 0 -4.133701 7.307303 0 -4.224493 8.050302 0 -4.078482 8.847964 0 -3.507697 10.23627 0 -2.804507 11.46715 0 -1.980673 12.54554 0 -1.043938 13.48443 0 -0.001741886 14.29621 0 1.138391 14.99266 0 2.368582 15.58511 0 3.680536 16.08468 0 5.065629 16.50253 0 6.515029 16.84988 0 8.0198 17.13811 0 9.570872 17.37866 0 10.53388 17.50165 0 11.48305 17.59237 0 12.4124 17.6412 0 13.31642 17.63873 0 14.18963 17.5757 0 15.02667 17.44306 0 15.82251 17.23199 0 16.57265 16.93364 0 17.2733 16.5389 0 17.92112 16.0379 0 18.51278 15.41982 0 19.04374 14.67386 0 19.46375 13.85864 0 19.72555 13.05799 0 19.8468 12.26609 0 19.84348 11.477 0 19.73029 10.68573 0 19.52159 9.88864 0 19.23213 9.08314 0 18.87718 8.267069 0 18.47253 7.438309 0 18.03421 6.594599 0 17.57844 5.733489 0 17.12342 4.855965 0 16.78504 4.229446 0 16.43859 3.66548 0 16.08043 3.151907 0 15.70841 2.679585 0 15.32024 2.239416 0 14.91361 1.822417 0 14.48624 1.419749 0 14.03598 1.022705 0 13.56082 0.6226764 0 13.05893 0.2111064 0 12.52857 -0.2205395 0 11.97054 -0.6788066 0 11.15239 -1.323494 0 10.36055 -1.887344 0 9.586973 -2.387961 0 8.825917 -2.841027 0 8.071714 -3.262141 0 7.318839 -3.666847 0 6.561983 -4.070657 0 5.796061 -4.489071 0 5.016206 -4.937569 0 4.217707 -5.431589 0 3.39593 -5.986511 0 2.54213 -6.620699 0 1.475198 -7.589634 0 0.5490738 -8.678304 0 -0.2654954 -9.839139 0 -1.002326 -11.02982 0 -1.694612 -12.20844 0 -2.374676 -13.33307 0 -3.07369 -14.36169 0 -3.821367 -15.25285 0 -4.646382 -15.96748 0 -5.579578 -16.47107 0 -6.659136 -16.73092 0 -7.929835 -16.70782 0 -8.585324 -16.56131 0 -9.145638 -16.31418 0 -9.622601 -15.97647 0 -10.02889 -15.5553 0 -10.37435 -15.05774 0 -10.66709 -14.49247 0 -10.91493 -13.86972 0 -11.1261 -13.20056 0 -11.30934 -12.49634 0 -11.47379 -11.76839 0 -11.62887 -11.0279 0 -11.78388 -10.28754 0 -11.92882 -9.59159 0 -12.05516 -8.918514 0 -12.15646 -8.26639 0 -12.22622 -7.634094 0 -12.25812 -7.020436 0 -12.24595 -6.424061 0 -12.18364 -5.843324 0 -12.06506 -5.276184 0 -11.88385 -4.720205 0 -11.63319 -4.172739 0 -11.30583 -3.63123 0</float_array>
          <technique_common>
            <accessor source="#Mesh_002-mesh-positions-array" count="240" stride="3">
              <param name="X" type="float"/>
              <param name="Y" type="float"/>
              <param name="Z" type="float"/>
            </accessor>
          </technique_common>
        </source>
        <source id="Mesh_002-mesh-normals">
          <float_array id="Mesh_002-mesh-normals-array" count="3">0 0 1</float_array>
          <technique_common>
            <accessor source="#Mesh_002-mesh-normals-array" count="1" stride="3">
              <param name="X" type="float"/>
              <param name="Y" type="float"/>
              <param name="Z" type="float"/>
            </accessor>
          </technique_common>
        </source>
        <source id="Mesh_002-mesh-map-0">
          <float_array id="Mesh_002-mesh-map-0-array" count="1404">0 0 0 0 0 0 0 0 0 0 0 0 0 0 0 0 0 0 0 0 0 0 0 0 0 0 0 0 0 0 0 0 0 0 0 0 0 0 0 0 0 0 0 0 0 0 0 0 0 0 0 0 0 0 0 0 0 0 0 0 0 0 0 0 0 0 0 0 0 0 0 0 0 0 0 0 0 0 0 0 0 0 0 0 0 0 0 0 0 0 0 0 0 0 0 0 0 0 0 0 0 0 0 0 0 0 0 0 0 0 0 0 0 0 0 0 0 0 0 0 0 0 0 0 0 0 0 0 0 0 0 0 0 0 0 0 0 0 0 0 0 0 0 0 0 0 0 0 0 0 0 0 0 0 0 0 0 0 0 0 0 0 0 0 0 0 0 0 0 0 0 0 0 0 0 0 0 0 0 0 0 0 0 0 0 0 0 0 0 0 0 0 0 0 0 0 0 0 0 0 0 0 0 0 0 0 0 0 0 0 0 0 0 0 0 0 0 0 0 0 0 0 0 0 0 0 0 0 0 0 0 0 0 0 0 0 0 0 0 0 0 0 0 0 0 0 0 0 0 0 0 0 0 0 0 0 0 0 0 0 0 0 0 0 0 0 0 0 0 0 0 0 0 0 0 0 0 0 0 0 0 0 0 0 0 0 0 0 0 0 0 0 0 0 0 0 0 0 0 0 0 0 0 0 0 0 0 0 0 0 0 0 0 0 0 0 0 0 0 0 0 0 0 0 0 0 0 0 0 0 0 0 0 0 0 0 0 0 0 0 0 0 0 0 0 0 0 0 0 0 0 0 0 0 0 0 0 0 0 0 0 0 0 0 0 0 0 0 0 0 0 0 0 0 0 0 0 0 0 0 0 0 0 0 0 0 0 0 0 0 0 0 0 0 0 0 0 0 0 0 0 0 0 0 0 0 0 0 0 0 0 0 0 0 0 0 0 0 0 0 0 0 0 0 0 0 0 0 0 0 0 0 0 0 0 0 0 0 0 0 0 0 0 0 0 0 0 0 0 0 0 0 0 0 0 0 0 0 0 0 0 0 0 0 0 0 0 0 0 0 0 0 0 0 0 0 0 0 0 0 0 0 0 0 0 0 0 0 0 0 0 0 0 0 0 0 0 0 0 0 0 0 0 0 0 0 0 0 0 0 0 0 0 0 0 0 0 0 0 0 0 0 0 0 0 0 0 0 0 0 0 0 0 0 0 0 0 0 0 0 0 0 0 0 0 0 0 0 0 0 0 0 0 0 0 0 0 0 0 0 0 0 0 0 0 0 0 0 0 0 0 0 0 0 0 0 0 0 0 0 0 0 0 0 0 0 0 0 0 0 0 0 0 0 0 0 0 0 0 0 0 0 0 0 0 0 0 0 0 0 0 0 0 0 0 0 0 0 0 0 0 0 0 0 0 0 0 0 0 0 0 0 0 0 0 0 0 0 0 0 0 0 0 0 0 0 0 0 0 0 0 0 0 0 0 0 0 0 0 0 0 0 0 0 0 0 0 0 0 0 0 0 0 0 0 0 0 0 0 0 0 0 0 0 0 0 0 0 0 0 0 0 0 0 0 0 0 0 0 0 0 0 0 0 0 0 0 0 0 0 0 0 0 0 0 0 0 0 0 0 0 0 0 0 0 0 0 0 0 0 0 0 0 0 0 0 0 0 0 0 0 0 0 0 0 0 0 0 0 0 0 0 0 0 0 0 0 0 0 0 0 0 0 0 0 0 0 0 0 0 0 0 0 0 0 0 0 0 0 0 0 0 0 0 0 0 0 0 0 0 0 0 0 0 0 0 0 0 0 0 0 0 0 0 0 0 0 0 0 0 0 0 0 0 0 0 0 0 0 0 0 0 0 0 0 0 0 0 0 0 0 0 0 0 0 0 0 0 0 0 0 0 0 0 0 0 0 0 0 0 0 0 0 0 0 0 0 0 0 0 0 0 0 0 0 0 0 0 0 0 0 0 0 0 0 0 0 0 0 0 0 0 0 0 0 0 0 0 0 0 0 0 0 0 0 0 0 0 0 0 0 0 0 0 0 0 0 0 0 0 0 0 0 0 0 0 0 0 0 0 0 0 0 0 0 0 0 0 0 0 0 0 0 0 0 0 0 0 0 0 0 0 0 0 0 0 0 0 0 0 0 0 0 0 0 0 0 0 0 0 0 0 0 0 0 0 0 0 0 0 0 0 0 0 0 0 0 0 0 0 0 0 0 0 0 0 0 0 0 0 0 0 0 0 0 0 0 0 0 0 0 0 0 0 0 0 0 0 0 0 0 0 0 0 0 0 0 0 0 0 0 0 0 0 0 0 0 0 0 0 0 0 0 0 0 0 0 0 0 0 0 0 0 0 0 0 0 0 0 0 0 0 0 0 0 0 0 0 0 0 0 0 0 0 0 0 0 0 0 0 0 0 0 0 0 0 0 0 0 0 0 0 0 0 0 0 0 0 0 0 0 0 0 0 0 0 0 0 0 0 0 0 0 0 0 0 0 0 0 0 0 0 0 0 0 0 0 0 0 0 0 0 0 0 0 0 0 0 0 0 0 0 0 0 0 0 0 0 0 0 0 0 0 0 0 0 0 0 0 0 0 0 0 0 0 0 0 0 0 0 0 0 0 0 0 0 0 0 0 0 0 0 0 0 0 0 0 0 0 0 0 0 0 0 0 0 0 0 0 0 0 0 0 0 0 0 0 0 0 0 0 0 0 0 0 0 0 0 0 0 0 0 0 0 0 0 0 0 0 0 0 0 0 0 0 0 0 0 0 0 0 0 0 0 0 0 0 0 0 0 0 0 0 0 0 0 0 0 0 0 0 0 0 0 0 0 0 0 0 0 0 0 0 0 0 0 0 0 0 0 0 0 0 0 0 0 0 0 0 0 0 0 0 0 0 0 0 0 0 0 0 0 0 0 0 0 0 0 0 0 0 0 0 0 0 0 0 0 0 0 0 0 0 0 0 0 0 0 0 0 0 0 0 0 0 0 0 0 0 0 0 0 0 0 0 0 0 0 0 0 0 0 0 0 0 0 0 0 0 0 0 0 0 0 0 0 0 0 0 0 0 0 0 0 0 0 0 0 0 0 0 0 0 0 0 0 0 0 0 0 0 0 0 0 0 0 0 0 0 0 0 0 0 0 0 0 0 0 0 0 0 0 0 0</float_array>
          <technique_common>
            <accessor source="#Mesh_002-mesh-map-0-array" count="702" stride="2">
              <param name="S" type="float"/>
              <param name="T" type="float"/>
            </accessor>
          </technique_common>
        </source>
        <vertices id="Mesh_002-mesh-vertices">
          <input semantic="POSITION" source="#Mesh_002-mesh-positions"/>
        </vertices>
        <triangles material="Material_003-material" count="234">
          <input semantic="VERTEX" source="#Mesh_002-mesh-vertices" offset="0"/>
          <input semantic="NORMAL" source="#Mesh_002-mesh-normals" offset="1"/>
          <input semantic="TEXCOORD" source="#Mesh_002-mesh-map-0" offset="2" set="0"/>
          <p>121 0 0 0 0 1 120 0 2 121 0 3 2 0 4 1 0 5 122 0 6 3 0 7 2 0 8 123 0 9 4 0 10 3 0 11 124 0 12 5 0 13 4 0 14 125 0 15 6 0 16 5 0 17 126 0 18 7 0 19 6 0 20 127 0 21 8 0 22 7 0 23 128 0 24 9 0 25 8 0 26 129 0 27 10 0 28 9 0 29 130 0 30 11 0 31 10 0 32 132 0 33 11 0 34 131 0 35 132 0 36 13 0 37 12 0 38 134 0 39 13 0 40 133 0 41 135 0 42 14 0 43 134 0 44 137 0 45 16 0 46 136 0 47 138 0 48 17 0 49 137 0 50 139 0 51 18 0 52 138 0 53 140 0 54 19 0 55 139 0 56 141 0 57 20 0 58 140 0 59 142 0 60 21 0 61 141 0 62 143 0 63 22 0 64 142 0 65 143 0 66 24 0 67 23 0 68 144 0 69 25 0 70 24 0 71 146 0 72 25 0 73 145 0 74 146 0 75 27 0 76 26 0 77 147 0 78 28 0 79 27 0 80 148 0 81 29 0 82 28 0 83 149 0 84 30 0 85 29 0 86 150 0 87 31 0 88 30 0 89 151 0 90 32 0 91 31 0 92 152 0 93 33 0 94 32 0 95 153 0 96 34 0 97 33 0 98 154 0 99 35 0 100 34 0 101 155 0 102 36 0 103 35 0 104 157 0 105 36 0 106 156 0 107 158 0 108 37 0 109 157 0 110 159 0 111 38 0 112 158 0 113 160 0 114 39 0 115 159 0 116 161 0 117 40 0 118 160 0 119 162 0 120 41 0 121 161 0 122 163 0 123 42 0 124 162 0 125 164 0 126 43 0 127 163 0 128 165 0 129 44 0 130 164 0 131 166 0 132 45 0 133 165 0 134 166 0 135 47 0 136 46 0 137 167 0 138 48 0 139 47 0 140 169 0 141 48 0 142 168 0 143 170 0 144 49 0 145 169 0 146 170 0 147 51 0 148 50 0 149 171 0 150 52 0 151 51 0 152 172 0 153 53 0 154 52 0 155 173 0 156 54 0 157 53 0 158 174 0 159 55 0 160 54 0 161 175 0 162 56 0 163 55 0 164 177 0 165 58 0 166 57 0 167 178 0 168 59 0 169 58 0 170 180 0 171 59 0 172 179 0 173 181 0 174 60 0 175 180 0 176 182 0 177 61 0 178 181 0 179 183 0 180 62 0 181 182 0 182 183 0 183 64 0 184 63 0 185 184 0 186 65 0 187 64 0 188 185 0 189 66 0 190 65 0 191 186 0 192 67 0 193 66 0 194 187 0 195 68 0 196 67 0 197 188 0 198 69 0 199 68 0 200 189 0 201 70 0 202 69 0 203 190 0 204 71 0 205 70 0 206 192 0 207 71 0 208 191 0 209 193 0 210 72 0 211 192 0 212 193 0 213 74 0 214 73 0 215 194 0 216 75 0 217 74 0 218 195 0 219 76 0 220 75 0 221 196 0 222 77 0 223 76 0 224 197 0 225 78 0 226 77 0 227 198 0 228 79 0 229 78 0 230 199 0 231 80 0 232 79 0 233 200 0 234 81 0 235 80 0 236 201 0 237 82 0 238 81 0 239 202 0 240 83 0 241 82 0 242 203 0 243 84 0 244 83 0 245 204 0 246 85 0 247 84 0 248 206 0 249 85 0 250 205 0 251 207 0 252 86 0 253 206 0 254 208 0 255 87 0 256 207 0 257 209 0 258 88 0 259 208 0 260 211 0 261 90 0 262 210 0 263 212 0 264 91 0 265 211 0 266 213 0 267 92 0 268 212 0 269 214 0 270 93 0 271 213 0 272 214 0 273 95 0 274 94 0 275 215 0 276 96 0 277 95 0 278 216 0 279 97 0 280 96 0 281 218 0 282 97 0 283 217 0 284 218 0 285 99 0 286 98 0 287 219 0 288 100 0 289 99 0 290 220 0 291 101 0 292 100 0 293 221 0 294 102 0 295 101 0 296 222 0 297 103 0 298 102 0 299 223 0 300 104 0 301 103 0 302 224 0 303 105 0 304 104 0 305 225 0 306 106 0 307 105 0 308 226 0 309 107 0 310 106 0 311 228 0 312 107 0 313 227 0 314 229 0 315 108 0 316 228 0 317 230 0 318 109 0 319 229 0 320 231 0 321 110 0 322 230 0 323 232 0 324 111 0 325 231 0 326 233 0 327 112 0 328 232 0 329 234 0 330 113 0 331 233 0 332 235 0 333 114 0 334 234 0 335 236 0 336 115 0 337 235 0 338 237 0 339 116 0 340 236 0 341 238 0 342 117 0 343 237 0 344 238 0 345 119 0 346 118 0 347 120 0 348 119 0 349 239 0 350 121 0 351 1 0 352 0 0 353 121 0 354 122 0 355 2 0 356 122 0 357 123 0 358 3 0 359 123 0 360 124 0 361 4 0 362 124 0 363 125 0 364 5 0 365 125 0 366 126 0 367 6 0 368 126 0 369 127 0 370 7 0 371 127 0 372 128 0 373 8 0 374 128 0 375 129 0 376 9 0 377 129 0 378 130 0 379 10 0 380 130 0 381 131 0 382 11 0 383 132 0 384 12 0 385 11 0 386 132 0 387 133 0 388 13 0 389 134 0 390 14 0 391 13 0 392 135 0 393 15 0 394 14 0 395 137 0 396 17 0 397 16 0 398 138 0 399 18 0 400 17 0 401 139 0 402 19 0 403 18 0 404 140 0 405 20 0 406 19 0 407 141 0 408 21 0 409 20 0 410 142 0 411 22 0 412 21 0 413 143 0 414 23 0 415 22 0 416 143 0 417 144 0 418 24 0 419 144 0 420 145 0 421 25 0 422 146 0 423 26 0 424 25 0 425 146 0 426 147 0 427 27 0 428 147 0 429 148 0 430 28 0 431 148 0 432 149 0 433 29 0 434 149 0 435 150 0 436 30 0 437 150 0 438 151 0 439 31 0 440 151 0 441 152 0 442 32 0 443 152 0 444 153 0 445 33 0 446 153 0 447 154 0 448 34 0 449 154 0 450 155 0 451 35 0 452 155 0 453 156 0 454 36 0 455 157 0 456 37 0 457 36 0 458 158 0 459 38 0 460 37 0 461 159 0 462 39 0 463 38 0 464 160 0 465 40 0 466 39 0 467 161 0 468 41 0 469 40 0 470 162 0 471 42 0 472 41 0 473 163 0 474 43 0 475 42 0 476 164 0 477 44 0 478 43 0 479 165 0 480 45 0 481 44 0 482 166 0 483 46 0 484 45 0 485 166 0 486 167 0 487 47 0 488 167 0 489 168 0 490 48 0 491 169 0 492 49 0 493 48 0 494 170 0 495 50 0 496 49 0 497 170 0 498 171 0 499 51 0 500 171 0 501 172 0 502 52 0 503 172 0 504 173 0 505 53 0 506 173 0 507 174 0 508 54 0 509 174 0 510 175 0 511 55 0 512 175 0 513 176 0 514 56 0 515 177 0 516 178 0 517 58 0 518 178 0 519 179 0 520 59 0 521 180 0 522 60 0 523 59 0 524 181 0 525 61 0 526 60 0 527 182 0 528 62 0 529 61 0 530 183 0 531 63 0 532 62 0 533 183 0 534 184 0 535 64 0 536 184 0 537 185 0 538 65 0 539 185 0 540 186 0 541 66 0 542 186 0 543 187 0 544 67 0 545 187 0 546 188 0 547 68 0 548 188 0 549 189 0 550 69 0 551 189 0 552 190 0 553 70 0 554 190 0 555 191 0 556 71 0 557 192 0 558 72 0 559 71 0 560 193 0 561 73 0 562 72 0 563 193 0 564 194 0 565 74 0 566 194 0 567 195 0 568 75 0 569 195 0 570 196 0 571 76 0 572 196 0 573 197 0 574 77 0 575 197 0 576 198 0 577 78 0 578 198 0 579 199 0 580 79 0 581 199 0 582 200 0 583 80 0 584 200 0 585 201 0 586 81 0 587 201 0 588 202 0 589 82 0 590 202 0 591 203 0 592 83 0 593 203 0 594 204 0 595 84 0 596 204 0 597 205 0 598 85 0 599 206 0 600 86 0 601 85 0 602 207 0 603 87 0 604 86 0 605 208 0 606 88 0 607 87 0 608 209 0 609 89 0 610 88 0 611 211 0 612 91 0 613 90 0 614 212 0 615 92 0 616 91 0 617 213 0 618 93 0 619 92 0 620 214 0 621 94 0 622 93 0 623 214 0 624 215 0 625 95 0 626 215 0 627 216 0 628 96 0 629 216 0 630 217 0 631 97 0 632 218 0 633 98 0 634 97 0 635 218 0 636 219 0 637 99 0 638 219 0 639 220 0 640 100 0 641 220 0 642 221 0 643 101 0 644 221 0 645 222 0 646 102 0 647 222 0 648 223 0 649 103 0 650 223 0 651 224 0 652 104 0 653 224 0 654 225 0 655 105 0 656 225 0 657 226 0 658 106 0 659 226 0 660 227 0 661 107 0 662 228 0 663 108 0 664 107 0 665 229 0 666 109 0 667 108 0 668 230 0 669 110 0 670 109 0 671 231 0 672 111 0 673 110 0 674 232 0 675 112 0 676 111 0 677 233 0 678 113 0 679 112 0 680 234 0 681 114 0 682 113 0 683 235 0 684 115 0 685 114 0 686 236 0 687 116 0 688 115 0 689 237 0 690 117 0 691 116 0 692 238 0 693 118 0 694 117 0 695 238 0 696 239 0 697 119 0 698 120 0 699 0 0 700 119 0 701</p>
        </triangles>
      </mesh>
    </geometry>
  </library_geometries>
  <library_visual_scenes>
    <visual_scene id="Scene" name="Scene">
      <node id="BézierCircle" name="BézierCircle" type="NODE">
        <matrix sid="transform">1 0 0 0 0 1 0 0 0 0 1 0 0 0 0 1</matrix>
        <instance_geometry url="#Mesh_002-mesh" name="BézierCircle">
          <bind_material>
            <technique_common>
              <instance_material symbol="Material_003-material" target="#Material_003-material">
                <bind_vertex_input semantic="UVMap" input_semantic="TEXCOORD" input_set="0"/>
              </instance_material>
            </technique_common>
          </bind_material>
        </instance_geometry>
      </node>
    </visual_scene>
  </library_visual_scenes>
  <scene>
    <instance_visual_scene url="#Scene"/>
  </scene>
</COLLADA>