<?xml version="1.0" encoding="utf-8"?>
<COLLADA xmlns="http://www.collada.org/2005/11/COLLADASchema" version="1.4.1" xmlns:xsi="http://www.w3.org/2001/XMLSchema-instance">
  <asset>
    <contributor>
      <author>Blender User</author>
      <authoring_tool>Blender 4.5.2 LTS commit date:2025-08-19, commit time:15:00, hash:ab25eae04993</authoring_tool>
    </contributor>
    <created>2026-09-11T01:11:04</created>
    <modified>2026-09-11T01:11:04</modified>
    <unit name="meter" meter="1"/>
    <up_axis>Z_UP</up_axis>
  </asset>
  <library_effects>
    <effect id="Material_001-effect">
      <profile_COMMON>
        <newparam sid="photo_2026-08-29_00-38-51_jpg_001-surface">
          <surface type="2D">
            <init_from>photo_2026-08-29_00-38-51_jpg_001</init_from>
          </surface>
        </newparam>
        <newparam sid="photo_2026-08-29_00-38-51_jpg_001-sampler">
          <sampler2D>
            <source>photo_2026-08-29_00-38-51_jpg_001-surface</source>
          </sampler2D>
        </newparam>
        <technique sid="common">
          <lambert>
            <emission>
              <color sid="emission">0 0 0 1</color>
            </emission>
            <diffuse>
              <texture texture="photo_2026-08-29_00-38-51_jpg_001-sampler" texcoord="Plane_010-mesh-map-0"/>
            </diffuse>
            <index_of_refraction>
              <float sid="ior">1.45</float>
            </index_of_refraction>
          </lambert>
        </technique>
      </profile_COMMON>
    </effect>
  </library_effects>
  <library_images>
    <image id="photo_2026-08-29_00-38-51_jpg_001" name="photo_2026-08-29_00-38-51_jpg_001">
      <init_from>map.png</init_from>
    </image>
  </library_images>
  <library_materials>
    <material id="Material_001-material" name="Material.001">
      <instance_effect url="#Material_001-effect"/>
    </material>
  </library_materials>
  <library_geometries>
    <geometry id="Plane_010-mesh" name="Plane.010">
      <mesh>
        <source id="Plane_010-mesh-positions">
          <float_array id="Plane_010-mesh-positions-array" count="132">-6.835059 2.879162 3.5 -6.835059 3.029163 3.5 -2.435059 2.87916 3.5 -2.435059 3.029161 3.5 -7.935059 2.879162 3.5 -7.935059 3.029163 3.5 -9.585061 3.029164 3.5 -9.585061 2.879163 3.5 -7.935059 2.879162 2.5 -7.935059 3.029163 2.5 -9.585061 3.029164 2.5 -9.585061 2.879163 2.5 -2.435059 3.029161 2.5 -6.835059 3.029163 2.5 -6.835059 2.879162 2.5 -2.435059 2.87916 2.5 -7.510057 2.879162 2.5 -7.260061 2.879162 2.5 -7.568393 2.879162 3.5 -7.201726 2.879162 3.5 -7.201726 3.029163 3.5 -7.568393 3.029163 3.5 -7.510057 3.029163 2.5 -7.260061 3.029163 2.5 -7.935059 2.879162 2.875 -2.435059 3.029161 2.875 -6.835059 2.879162 2.875 -9.585061 3.029164 2.875 -7.935059 3.029163 2.875 -9.585061 2.879163 2.875 -6.835059 3.029163 2.875 -2.435059 2.87916 2.875 -7.510057 2.879162 2.75 -7.260061 2.879162 2.75 -7.510057 3.029163 2.75 -7.260061 3.029163 2.75 -7.935059 2.879162 5.06639e-7 -9.585061 2.879163 5.06639e-7 -9.585061 3.029164 5.06639e-7 -7.935059 3.029163 5.06639e-7 -2.435059 2.879161 5.06639e-7 -6.835059 2.879162 5.06639e-7 -2.435059 3.029162 5.06639e-7 -6.835059 3.029163 5.06639e-7</float_array>
          <technique_common>
            <accessor source="#Plane_010-mesh-positions-array" count="44" stride="3">
              <param name="X" type="float"/>
              <param name="Y" type="float"/>
              <param name="Z" type="float"/>
            </accessor>
          </technique_common>
        </source>
        <source id="Plane_010-mesh-normals">
          <float_array id="Plane_010-mesh-normals-array" count="135">0 0 1 0 0 1 0 0 -1 3.25116e-7 1 0 -3.25116e-7 -1 0 -1 0 0 4.33488e-7 1 0 1 0 0 4.7843e-7 1 0 -4.33488e-7 -1 0 0 0 1 -5.60981e-7 -1 0 0 -1 0 0 0 1 0 1 0 0 1 3.17898e-7 -6.50229e-7 -1 2.16743e-7 0 -1 5.41859e-7 -4.33489e-7 -1 0 5.60981e-7 1 0 4.33488e-7 1 0 -3.25117e-7 -1 0 3.25117e-7 1 0 -4.33488e-7 -1 -2.31194e-7 4.33488e-7 1 2.31194e-7 -3.25116e-7 -1 0 3.25116e-7 1 0 0 0 -1 3.25116e-7 1 0 -3.25116e-7 -1 0 4.33488e-7 1 0 -4.33488e-7 -1 0 -5.60983e-7 -1 0 0 1 8.66978e-7 6.50229e-7 1 0 0 -1 -6.35796e-7 -5.60982e-7 -1 0 -4.33488e-7 -1 0 5.60983e-7 1 0 4.33488e-7 1 0 3.25116e-7 1 0 -4.33488e-7 -1 -2.31194e-7 4.33488e-7 1 2.31194e-7 -3.25116e-7 -1 -1.73395e-7 3.25116e-7 1 3.46791e-7</float_array>
          <technique_common>
            <accessor source="#Plane_010-mesh-normals-array" count="45" stride="3">
              <param name="X" type="float"/>
              <param name="Y" type="float"/>
              <param name="Z" type="float"/>
            </accessor>
          </technique_common>
        </source>
        <source id="Plane_010-mesh-map-0">
          <float_array id="Plane_010-mesh-map-0-array" count="504">0.5246649 0.06867295 0.5246649 0.07092678 0.5055543 0.07092666 0.5294426 0.07092678 0.5294426 0.06867295 0.5366089 0.06867301 0.4812075 0.6850252 0.4934592 0.6850254 0.4934592 0.6999844 0.7545073 0.5733904 0.8281089 0.5733905 0.8281089 0.6095584 0.7894388 0.5476537 0.8630404 0.5476537 0.8630404 0.5838215 0.4468109 0.06867235 0.4468109 0.07092618 0.4440963 0.07092618 0.8465093 0.5733904 0.87411 0.5733904 0.87411 0.6095584 0.5579041 0.3926695 0.5579041 0.3777104 0.5759212 0.3777104 0.8281089 0.5733905 0.8352183 0.5661568 0.8342424 0.6095584 0.7434377 0.5476537 0.7710382 0.5476537 0.7710382 0.5838215 0.52785 0.07092678 0.52785 0.06867295 0.5294426 0.06867295 0.7894388 0.5476537 0.7823294 0.5404201 0.7823294 0.5259529 0.7781476 0.5404201 0.7710382 0.5476537 0.7710382 0.5259529 0.07594549 0.9967796 0.05283176 0.9967796 0.05283176 0.9168184 0.5246649 0.07092678 0.5246649 0.06867295 0.5262574 0.06867295 0.5262574 0.07092678 0.5262574 0.06867295 0.52785 0.06867295 0.8394 0.5661568 0.8465093 0.5733904 0.8465093 0.6095584 0.8352183 0.5661568 0.8394 0.5661568 0.8403759 0.6095584 0.5006659 0.6850253 0.5129176 0.6850253 0.5129176 0.6999844 0.4934592 0.6850254 0.5006659 0.6850253 0.5006659 0.6999844 0.07966428 0.9172527 0.1022 0.9172527 0.1022 0.9952188 0.8394002 0.5516896 0.8465093 0.5516896 0.8465093 0.5733904 0.7833053 0.5838215 0.7771718 0.5838215 0.7781476 0.5404201 0.7771718 0.5838215 0.7710382 0.5838215 0.7710382 0.5476537 0.7894388 0.5838215 0.7833053 0.5838215 0.7823294 0.5404201 0.7434377 0.5259529 0.7710382 0.5259529 0.7710382 0.5476537 0.8281089 0.5516896 0.8352183 0.5516896 0.8352183 0.5661568 0.5470939 0.3926695 0.5470939 0.3777104 0.5579041 0.3777104 0.8465093 0.5516896 0.87411 0.5516896 0.87411 0.5733904 0.4484397 0.06867235 0.4484397 0.07092618 0.4468109 0.07092618 0.7894388 0.5259529 0.8630404 0.5259529 0.8630404 0.5476537 0.7545073 0.5516896 0.8281089 0.5516896 0.8281089 0.5733905 0.7434377 0.4145558 0.7710382 0.4000887 0.7710382 0.5259529 0.455389 0.06867241 0.455389 0.07092624 0.4484397 0.07092618 0.8465093 0.4258253 0.87411 0.4402925 0.87411 0.5516896 0.5756171 0.6850253 0.5756171 0.6999846 0.5129176 0.6999844 0.7894388 0.4000887 0.8630404 0.4145558 0.8630404 0.5259529 0.4916012 0.3926695 0.4916012 0.3777104 0.5470939 0.3777104 0.7545073 0.4402925 0.8281089 0.4258254 0.8281089 0.5516896 0.418508 0.6999844 0.418508 0.6850252 0.4812075 0.6850252 0.5246649 0.06867295 0.5055543 0.07092666 0.5055543 0.06867277 0.5294426 0.07092678 0.5366089 0.06867301 0.5366089 0.07092684 0.4812075 0.6850252 0.4934592 0.6999844 0.4812075 0.6999844 0.7545073 0.5733904 0.8281089 0.6095584 0.7545073 0.6095584 0.7894388 0.5476537 0.8630404 0.5838215 0.7894388 0.5838215 0.4468109 0.06867235 0.4440963 0.07092618 0.4440963 0.06867229 0.8465093 0.5733904 0.87411 0.6095584 0.8465093 0.6095584 0.5579041 0.3926695 0.5759212 0.3777104 0.5759212 0.3926695 0.8281089 0.5733905 0.8342424 0.6095584 0.8281089 0.6095584 0.7434377 0.5476537 0.7710382 0.5838215 0.7434377 0.5838215 0.52785 0.07092678 0.5294426 0.06867295 0.5294426 0.07092678 0.7894388 0.5476537 0.7823294 0.5259529 0.7894388 0.5259529 0.7781476 0.5404201 0.7710382 0.5259529 0.7781476 0.5259529 0.07594549 0.9967796 0.05283176 0.9168184 0.07594549 0.9168184 0.5246649 0.07092678 0.5262574 0.06867295 0.5262574 0.07092678 0.5262574 0.07092678 0.52785 0.06867295 0.52785 0.07092678 0.8394 0.5661568 0.8465093 0.6095584 0.8403759 0.6095584 0.8352183 0.5661568 0.8403759 0.6095584 0.8342424 0.6095584 0.5006659 0.6850253 0.5129176 0.6999844 0.5006659 0.6999844 0.4934592 0.6850254 0.5006659 0.6999844 0.4934592 0.6999844 0.07966428 0.9172527 0.1022 0.9952188 0.07966428 0.9952188 0.8394002 0.5516896 0.8465093 0.5733904 0.8394 0.5661568 0.7833053 0.5838215 0.7781476 0.5404201 0.7823294 0.5404201 0.7771718 0.5838215 0.7710382 0.5476537 0.7781476 0.5404201 0.7894388 0.5838215 0.7823294 0.5404201 0.7894388 0.5476537 0.7434377 0.5259529 0.7710382 0.5476537 0.7434377 0.5476537 0.8281089 0.5516896 0.8352183 0.5661568 0.8281089 0.5733905 0.5470939 0.3926695 0.5579041 0.3777104 0.5579041 0.3926695 0.8465093 0.5516896 0.87411 0.5733904 0.8465093 0.5733904 0.4484397 0.06867235 0.4468109 0.07092618 0.4468109 0.06867235 0.7894388 0.5259529 0.8630404 0.5476537 0.7894388 0.5476537 0.7545073 0.5516896 0.8281089 0.5733905 0.7545073 0.5733904 0.7434377 0.4145558 0.7710382 0.5259529 0.7434377 0.5259529 0.455389 0.06867241 0.4484397 0.07092618 0.4484397 0.06867235 0.8465093 0.4258253 0.87411 0.5516896 0.8465093 0.5516896 0.5756171 0.6850253 0.5129176 0.6999844 0.5129176 0.6850253 0.7894388 0.4000887 0.8630404 0.5259529 0.7894388 0.5259529 0.4916012 0.3926695 0.5470939 0.3777104 0.5470939 0.3926695 0.7545073 0.4402925 0.8281089 0.5516896 0.7545073 0.5516896 0.418508 0.6999844 0.4812075 0.6850252 0.4812075 0.6999844 0.7894388 0.4000887 0.4916012 0.3777104 0.4916012 0.3926695 0.4916012 0.3777104 0.7894388 0.4000887 0.418508 0.6999844 0.7434377 0.4145558 0.5756171 0.6999846 0.5756171 0.6850253 0.87411 0.4402925 0.8465093 0.4258253 0.7434377 0.4145558</float_array>
          <technique_common>
            <accessor source="#Plane_010-mesh-map-0-array" count="252" stride="2">
              <param name="S" type="float"/>
              <param name="T" type="float"/>
            </accessor>
          </technique_common>
        </source>
        <vertices id="Plane_010-mesh-vertices">
          <input semantic="POSITION" source="#Plane_010-mesh-positions"/>
        </vertices>
        <triangles material="Material_001-material" count="84">
          <input semantic="VERTEX" source="#Plane_010-mesh-vertices" offset="0"/>
          <input semantic="NORMAL" source="#Plane_010-mesh-normals" offset="1"/>
          <input semantic="TEXCOORD" source="#Plane_010-mesh-map-0" offset="2" set="0"/>
          <p>1 0 0 0 0 1 2 0 2 4 1 3 5 1 4 6 1 5 14 2 6 17 2 7 23 2 8 25 3 9 30 3 10 1 3 11 26 4 12 31 4 13 2 4 14 27 5 15 29 5 16 7 5 17 28 6 18 27 6 19 6 6 20 31 7 21 25 7 22 3 7 23 30 8 24 35 8 25 20 8 26 29 9 27 24 9 28 4 9 29 18 10 30 21 10 31 5 10 32 26 11 33 33 11 34 17 11 35 32 12 36 24 12 37 8 12 38 33 12 39 32 12 40 16 12 41 0 10 42 1 10 43 20 10 44 19 13 45 20 13 46 21 13 47 34 14 48 28 14 49 5 14 50 35 15 51 34 15 52 21 15 53 16 2 54 8 2 55 9 2 56 17 2 57 16 2 58 22 2 59 23 14 60 22 14 61 34 14 62 22 14 63 9 14 64 28 14 65 19 16 66 18 16 67 32 16 68 18 12 69 4 12 70 24 12 71 0 17 72 19 17 73 33 17 74 11 18 75 8 18 76 24 18 77 13 19 78 23 19 79 35 19 80 15 7 81 12 7 82 25 7 83 9 20 84 10 20 85 27 20 86 10 5 87 11 5 88 29 5 89 14 21 90 15 21 91 31 21 92 12 22 93 13 22 94 30 22 95 37 23 96 36 23 97 8 23 98 38 5 99 37 5 100 11 5 101 39 24 102 38 24 103 10 24 104 36 7 105 39 7 106 9 7 107 41 25 108 40 25 109 15 25 110 40 7 111 42 7 112 12 7 113 42 26 114 43 26 115 13 26 116 43 5 117 41 5 118 14 5 119 1 10 120 2 10 121 3 10 122 4 10 123 6 10 124 7 10 125 14 27 126 23 27 127 13 27 128 25 28 129 1 28 130 3 28 131 26 29 132 2 29 133 0 29 134 27 5 135 7 5 136 6 5 137 28 30 138 6 30 139 5 30 140 31 7 141 3 7 142 2 7 143 30 14 144 20 14 145 1 14 146 29 31 147 4 31 148 7 31 149 18 10 150 5 10 151 4 10 152 26 32 153 17 32 154 14 32 155 32 12 156 8 12 157 16 12 158 33 12 159 16 12 160 17 12 161 0 10 162 20 10 163 19 10 164 19 10 165 21 10 166 18 10 167 34 33 168 5 33 169 21 33 170 35 34 171 21 34 172 20 34 173 16 2 174 9 2 175 22 2 176 17 2 177 22 2 178 23 2 179 23 14 180 34 14 181 35 14 182 22 14 183 28 14 184 34 14 185 19 35 186 32 35 187 33 35 188 18 12 189 24 12 190 32 12 191 0 36 192 33 36 193 26 36 194 11 37 195 24 37 196 29 37 197 13 38 198 35 38 199 30 38 200 15 7 201 25 7 202 31 7 203 9 39 204 27 39 205 28 39 206 10 5 207 29 5 208 27 5 209 14 29 210 31 29 211 26 29 212 12 40 213 30 40 214 25 40 215 37 41 216 8 41 217 11 41 218 38 5 219 11 5 220 10 5 221 39 42 222 10 42 223 9 42 224 36 7 225 9 7 226 8 7 227 41 43 228 15 43 229 14 43 230 40 7 231 12 7 232 15 7 233 42 44 234 13 44 235 12 44 236 43 5 237 14 5 238 13 5 239 41 2 240 42 2 241 40 2 242 42 2 243 41 2 244 43 2 245 37 2 246 39 2 247 36 2 248 38 2 249 39 2 250 37 2 251</p>
        </triangles>
      </mesh>
    </geometry>
  </library_geometries>
  <library_visual_scenes>
    <visual_scene id="Scene" name="Scene">
      <node id="Plane_006" name="Plane.006" type="NODE">
        <matrix sid="transform">1 0 0 0 0 1 0 0 0 0 1 0 0 0 0 1</matrix>
        <instance_geometry url="#Plane_010-mesh" name="Plane.006">
          <bind_material>
            <technique_common>
              <instance_material symbol="Material_001-material" target="#Material_001-material">
                <bind_vertex_input semantic="Plane_010-mesh-map-0" input_semantic="TEXCOORD" input_set="0"/>
              </instance_material>
            </technique_common>
          </bind_material>
        </instance_geometry>
      </node>
    </visual_scene>
  </library_visual_scenes>
  <scene>
    <instance_visual_scene url="#Scene"/>
  </scene>
</COLLADA>