<?xml version="1.0" encoding="utf-8"?>
<COLLADA xmlns="http://www.collada.org/2005/11/COLLADASchema" version="1.4.1" xmlns:xsi="http://www.w3.org/2001/XMLSchema-instance">
  <asset>
    <contributor>
      <author>Blender User</author>
      <authoring_tool>Blender 4.5.2 LTS commit date:2025-08-19, commit time:15:00, hash:ab25eae04993</authoring_tool>
    </contributor>
    <created>2026-09-05T22:16:44</created>
    <modified>2026-09-05T22:16:44</modified>
    <unit name="meter" meter="1"/>
    <up_axis>Z_UP</up_axis>
  </asset>
  <library_effects>
    <effect id="Material_001-effect">
      <profile_COMMON>
        <newparam sid="photo_2026-08-29_00-38-51_jpg_001-surface">
          <surface type="2D">
            <init_from>photo_2026-08-29_00-38-51_jpg_001</init_from>
          </surface>
        </newparam>
        <newparam sid="photo_2026-08-29_00-38-51_jpg_001-sampler">
          <sampler2D>
            <source>photo_2026-08-29_00-38-51_jpg_001-surface</source>
          </sampler2D>
        </newparam>
        <technique sid="common">
          <lambert>
            <emission>
              <color sid="emission">0 0 0 1</color>
            </emission>
            <diffuse>
              <texture texture="photo_2026-08-29_00-38-51_jpg_001-sampler" texcoord="Plane_003-mesh-map-0"/>
            </diffuse>
            <index_of_refraction>
              <float sid="ior">1.45</float>
            </index_of_refraction>
          </lambert>
        </technique>
      </profile_COMMON>
    </effect>
  </library_effects>
  <library_images>
    <image id="photo_2026-08-29_00-38-51_jpg_001" name="photo_2026-08-29_00-38-51_jpg_001">
      <init_from>map.png</init_from>
    </image>
  </library_images>
  <library_materials>
    <material id="Material_001-material" name="Material.001">
      <instance_effect url="#Material_001-effect"/>
    </material>
  </library_materials>
  <library_geometries>
    <geometry id="Plane_003-mesh" name="Plane.003">
      <mesh>
        <source id="Plane_003-mesh-positions">
          <float_array id="Plane_003-mesh-positions-array" count="156">-0.7850587 -1.070835 9.62702e-7 -0.7850588 -1.220836 9.62702e-7 -2.43506 -1.070834 1.10695e-6 -2.435061 -1.220835 1.10695e-6 0.3149411 -1.070836 8.66537e-7 0.3149411 -1.220837 8.66537e-7 1.964941 -1.220838 7.22289e-7 1.964941 -1.070837 7.22289e-7 -0.7850585 -1.070835 3.5 -0.7850586 -1.220836 3.5 -2.43506 -1.070834 3.5 -2.43506 -1.220835 3.5 0.3149414 -1.070836 3.5 0.3149413 -1.220837 3.5 1.964942 -1.220838 3.5 1.964942 -1.070837 3.5 0.3149413 -1.070836 2.5 0.3149412 -1.220837 2.5 1.964941 -1.220838 2.5 1.964942 -1.070837 2.5 -2.43506 -1.220835 2.5 -0.7850586 -1.220836 2.5 -0.7850586 -1.070835 2.5 -2.43506 -1.070834 2.5 -0.1100606 -1.070836 2.5 -0.3600569 -1.070836 2.5 -0.05172455 -1.070836 3.5 -0.4183917 -1.070836 3.5 -0.4183918 -1.220837 3.5 -0.05172467 -1.220837 3.5 -0.1100608 -1.220837 2.5 -0.3600569 -1.220837 2.5 0.3149414 -1.070836 2.875 -2.43506 -1.220835 2.875 -0.7850586 -1.070835 2.875 1.964941 -1.220838 2.875 0.3149412 -1.220837 2.875 1.964942 -1.070837 2.875 -0.7850586 -1.220836 2.875 -2.43506 -1.070834 2.875 -0.1100606 -1.070836 2.75 -0.3600568 -1.070836 2.75 -0.1100607 -1.220837 2.75 -0.3600569 -1.220837 2.75 0.3149412 -1.070836 0.3250001 1.964941 -1.070837 0.5749999 1.964941 -1.220838 0.5749999 0.3149411 -1.220837 0.3250001 -2.43506 -1.070834 0.5750004 -0.7850587 -1.070835 0.3250002 -2.435061 -1.220835 0.5750004 -0.7850588 -1.220836 0.3250002</float_array>
          <technique_common>
            <accessor source="#Plane_003-mesh-positions-array" count="52" stride="3">
              <param name="X" type="float"/>
              <param name="Y" type="float"/>
              <param name="Z" type="float"/>
            </accessor>
          </technique_common>
        </source>
        <source id="Plane_003-mesh-normals">
          <float_array id="Plane_003-mesh-normals-array" count="261">0 0 -1 0 0 -1 0 0 1 0 0 -1 -1.08372e-6 -1 -3.21262e-7 1.08372e-6 1 0 1 -2.54311e-6 -1.90735e-7 -5.77985e-7 -1 2.8225e-7 -1 0 0 -5.74116e-7 -1 -2.39215e-7 5.77985e-7 1 0 5.60983e-7 1 0 5.60982e-7 1 0 4.76844e-7 1 1.87756e-7 -5.60982e-7 -1 0 -4.76844e-7 -1 0 -4.76844e-7 -1 0 -5.60982e-7 -1 -2.91398e-7 6.50232e-7 1 0 3.25117e-7 1 0 6.50232e-7 1 0 5.77984e-7 1 0 -5.60983e-7 -1 6.84868e-7 -5.77984e-7 -1 0 1 -2.11926e-6 0 1.08372e-6 1 0 -1.08372e-6 -1 0 5.77984e-7 1 0 1 0 0 -5.77984e-7 -1 0 -1 3.6539e-7 0 1.08372e-6 1 0 -1 0 1.23854e-7 -1.08372e-6 -1 1.21659e-7 1 -7.3078e-7 0 0 0 1 -5.77984e-7 -1 3.06794e-7 1 0 -2.07321e-7 5.77984e-7 1 0 -5.41861e-7 -1 0 -1.08372e-6 -1 0 -1 2.76426e-6 0 1.08372e-6 1 0 5.4186e-7 1 -1.78537e-7 0 0 -1 0 0 -1 0 0 -1 4.81649e-7 0 1 4.8165e-7 0 1 -1.08372e-6 -1 0 1.08372e-6 1 -2.31194e-7 1 0 -1.90735e-7 -5.77985e-7 -1 0 -1 2.54311e-6 0 -6.50233e-7 -1 2.60093e-7 5.77984e-7 1 0 5.60982e-7 1 0 5.60982e-7 1 5.60982e-7 4.76844e-7 1 0 -3.25117e-7 -1 0 -6.50232e-7 -1 -2.16744e-7 -4.76844e-7 -1 0 -5.60982e-7 -1 0 5.26273e-7 1 3.82744e-7 5.60983e-7 1 0 5.77984e-7 1 0 -5.60982e-7 -1 0 -1 4.23852e-6 0 1 0 0 1.08372e-6 1 0 -1.08372e-6 -1 0 5.77985e-7 1 0 1 0 0 -5.77984e-7 -1 0 -1 3.6539e-7 0 1.08372e-6 1 0 -1 0 1.23854e-7 -1.08372e-6 -1 0 1 -7.3078e-7 0 0 0 1 -5.77984e-7 -1 0 1 -2.76426e-6 -2.07321e-7 5.77984e-7 1 0 -5.4186e-7 -1 0 1.08372e-6 1 0 5.4186e-7 1 0 0 0 -1</float_array>
          <technique_common>
            <accessor source="#Plane_003-mesh-normals-array" count="87" stride="3">
              <param name="X" type="float"/>
              <param name="Y" type="float"/>
              <param name="Z" type="float"/>
            </accessor>
          </technique_common>
        </source>
        <source id="Plane_003-mesh-map-0">
          <float_array id="Plane_003-mesh-map-0-array" count="624">0.4974473 0.4576033 0.4902905 0.4576033 0.4902905 0.4553525 0.4783625 0.4553525 0.4855192 0.4553525 0.4855192 0.4576033 0.4512532 0.4553525 0.4512532 0.4576033 0.4440963 0.4576033 0.4560244 0.4576033 0.4560244 0.4553525 0.4631813 0.4553525 0.4813337 0.7336794 0.4690657 0.7336794 0.4690657 0.7187003 0.7557312 0.6204876 0.7827872 0.6205937 0.7827812 0.656055 0.7904524 0.6345166 0.817522 0.63449 0.8175244 0.669967 0.5580149 0.3756445 0.5580149 0.3606653 0.5760562 0.3606653 0.8008126 0.6205837 0.8278526 0.620507 0.8278622 0.6559405 0.5099176 0.4576033 0.5099176 0.4553525 0.5126284 0.4553525 0.7827872 0.6205937 0.789751 0.6135708 0.7887969 0.6560653 0.7453951 0.6343717 0.7724307 0.6344718 0.7724181 0.6699027 0.454434 0.4576033 0.454434 0.4553525 0.4560244 0.4553525 0.7904524 0.6345166 0.7834887 0.6274716 0.7834982 0.6133853 0.7793979 0.6274264 0.7724307 0.6344718 0.7724396 0.6132048 0.1541691 0.9948313 0.1309988 0.9948313 0.1309988 0.9146768 0.4512532 0.4576033 0.4512532 0.4553525 0.4528436 0.4553525 0.4528436 0.4576033 0.4528436 0.4553525 0.454434 0.4553525 0.7938445 0.6135256 0.8008126 0.6205837 0.8008224 0.6560273 0.789751 0.6135708 0.7938445 0.6135256 0.7948113 0.6560518 0.4618493 0.7336795 0.4495812 0.7336794 0.4495812 0.7187003 0.4690657 0.7336794 0.4618493 0.7336795 0.4618493 0.7187003 0.1036552 0.9132796 0.1278949 0.9132796 0.1278949 0.9971283 0.7938348 0.5993263 0.8008051 0.5993179 0.8008126 0.6205837 0.7844356 0.669967 0.7784262 0.6699352 0.7793979 0.6274264 0.7784262 0.6699352 0.7724181 0.6699027 0.7724307 0.6344718 0.7904515 0.6699852 0.7844356 0.669967 0.7834887 0.6274716 0.7454021 0.613117 0.7724396 0.6132048 0.7724307 0.6344718 0.7827988 0.599309 0.7897453 0.5994724 0.789751 0.6135708 0.508291 0.4576033 0.508291 0.4553525 0.5099176 0.4553525 0.8008051 0.5993179 0.8278471 0.5992478 0.8278526 0.620507 0.5471903 0.3756445 0.5471903 0.3606653 0.5580149 0.3606653 0.7904392 0.613214 0.8175197 0.6132192 0.817522 0.63449 0.7557384 0.5992124 0.7827988 0.599309 0.7827872 0.6205937 0.745426 0.5040447 0.7724506 0.4899189 0.7724396 0.6132048 0.4916233 0.3756445 0.4916233 0.3606653 0.5471903 0.3606653 0.8007988 0.4759976 0.8278319 0.4901351 0.8278471 0.5992478 0.3867979 0.7336794 0.3867979 0.7187002 0.4495812 0.7187003 0.7904574 0.4899309 0.8174981 0.5040631 0.8175197 0.6132192 0.5013511 0.4576033 0.5013511 0.4553525 0.508291 0.4553525 0.7557607 0.4901262 0.782788 0.4760011 0.7827988 0.599309 0.5441171 0.7187003 0.5441171 0.7336794 0.4813337 0.7336794 0.386798 0.7942869 0.386798 0.7793077 0.4185504 0.7793077 0.800798 0.4575844 0.8278284 0.4575484 0.8278319 0.4901351 0.4750255 0.3756445 0.4750255 0.3606653 0.4916233 0.3606653 0.7454306 0.4714693 0.7724518 0.4715099 0.7724506 0.4899189 0.800798 0.4575844 0.8007988 0.4759976 0.782788 0.4760011 0.7557652 0.4575486 0.7827887 0.4575887 0.782788 0.4760011 0.4974473 0.4576033 0.4974473 0.4553525 0.5013511 0.4553525 0.7904572 0.4715173 0.8174932 0.4714692 0.8174981 0.5040631 0.7904574 0.4899309 0.7724506 0.4899189 0.7724518 0.4715099 0.4855192 0.4553525 0.4902905 0.4553525 0.4902905 0.4576033 0.4974473 0.4576033 0.4902905 0.4553525 0.4974473 0.4553525 0.4783625 0.4553525 0.4855192 0.4576033 0.4783625 0.4576033 0.4512532 0.4553525 0.4440963 0.4576033 0.4440963 0.4553526 0.4560244 0.4576033 0.4631813 0.4553525 0.4631813 0.4576033 0.4813337 0.7336794 0.4690657 0.7187003 0.4813337 0.7187003 0.7557312 0.6204876 0.7827812 0.656055 0.7557196 0.6559491 0.7904524 0.6345166 0.8175244 0.669967 0.7904515 0.6699852 0.5580149 0.3756445 0.5760562 0.3606653 0.5760562 0.3756445 0.8008126 0.6205837 0.8278622 0.6559405 0.8008224 0.6560273 0.5099176 0.4576033 0.5126284 0.4553525 0.5126284 0.4576033 0.7827872 0.6205937 0.7887969 0.6560653 0.7827812 0.656055 0.7453951 0.6343717 0.7724181 0.6699027 0.7453836 0.6697977 0.454434 0.4576033 0.4560244 0.4553525 0.4560244 0.4576033 0.7904524 0.6345166 0.7834982 0.6133853 0.7904392 0.613214 0.7793979 0.6274264 0.7724396 0.6132048 0.7794098 0.6132371 0.1541691 0.9948313 0.1309988 0.9146768 0.1541691 0.9146768 0.4512532 0.4576033 0.4528436 0.4553525 0.4528436 0.4576033 0.4528436 0.4576033 0.454434 0.4553525 0.454434 0.4576033 0.7938445 0.6135256 0.8008224 0.6560273 0.7948113 0.6560518 0.789751 0.6135708 0.7948113 0.6560518 0.7887969 0.6560653 0.4618493 0.7336795 0.4495812 0.7187003 0.4618493 0.7187003 0.4690657 0.7336794 0.4618493 0.7187003 0.4690657 0.7187003 0.1036552 0.9132796 0.1278949 0.9971283 0.1036552 0.9971283 0.7938348 0.5993263 0.8008126 0.6205837 0.7938445 0.6135256 0.7844356 0.669967 0.7793979 0.6274264 0.7834887 0.6274716 0.7784262 0.6699352 0.7724307 0.6344718 0.7793979 0.6274264 0.7904515 0.6699852 0.7834887 0.6274716 0.7904524 0.6345166 0.7454021 0.613117 0.7724307 0.6344718 0.7453951 0.6343717 0.7827988 0.599309 0.789751 0.6135708 0.7827872 0.6205937 0.508291 0.4576033 0.5099176 0.4553525 0.5099176 0.4576033 0.8008051 0.5993179 0.8278526 0.620507 0.8008126 0.6205837 0.5471903 0.3756445 0.5580149 0.3606653 0.5580149 0.3756445 0.7904392 0.613214 0.817522 0.63449 0.7904524 0.6345166 0.7557384 0.5992124 0.7827872 0.6205937 0.7557312 0.6204876 0.745426 0.5040447 0.7724396 0.6132048 0.7454021 0.613117 0.4916233 0.3756445 0.5471903 0.3606653 0.5471903 0.3756445 0.8007988 0.4759976 0.8278471 0.5992478 0.8008051 0.5993179 0.3867979 0.7336794 0.4495812 0.7187003 0.4495812 0.7336794 0.7904574 0.4899309 0.8175197 0.6132192 0.7904392 0.613214 0.5013511 0.4576033 0.508291 0.4553525 0.508291 0.4576033 0.7557607 0.4901262 0.7827988 0.599309 0.7557384 0.5992124 0.5441171 0.7187003 0.4813337 0.7336794 0.4813337 0.7187003 0.386798 0.7942869 0.4185504 0.7793077 0.4185504 0.7942869 0.800798 0.4575844 0.8278319 0.4901351 0.8007988 0.4759976 0.4750255 0.3756445 0.4916233 0.3606653 0.4916233 0.3756445 0.7454306 0.4714693 0.7724506 0.4899189 0.745426 0.5040447 0.800798 0.4575844 0.782788 0.4760011 0.7827887 0.4575887 0.7557652 0.4575486 0.782788 0.4760011 0.7557607 0.4901262 0.4974473 0.4576033 0.5013511 0.4553525 0.5013511 0.4576033 0.7904572 0.4715173 0.8174981 0.5040631 0.7904574 0.4899309 0.7904574 0.4899309 0.7724518 0.4715099 0.7904572 0.4715173 0.4855192 0.4553525 0.4902905 0.4576033 0.4855192 0.4576033</float_array>
          <technique_common>
            <accessor source="#Plane_003-mesh-map-0-array" count="312" stride="2">
              <param name="S" type="float"/>
              <param name="T" type="float"/>
            </accessor>
          </technique_common>
        </source>
        <vertices id="Plane_003-mesh-vertices">
          <input semantic="POSITION" source="#Plane_003-mesh-positions"/>
        </vertices>
        <triangles material="Material_001-material" count="104">
          <input semantic="VERTEX" source="#Plane_003-mesh-vertices" offset="0"/>
          <input semantic="NORMAL" source="#Plane_003-mesh-normals" offset="1"/>
          <input semantic="TEXCOORD" source="#Plane_003-mesh-map-0" offset="2" set="0"/>
          <p>2 0 0 0 0 1 1 0 2 6 1 3 5 1 4 4 1 5 9 2 6 8 2 7 10 2 8 12 2 9 13 2 10 14 2 11 22 3 12 25 3 13 31 3 14 33 4 15 38 4 16 9 4 17 34 5 18 39 5 19 10 5 20 35 6 21 37 6 22 15 6 23 36 7 24 35 7 25 14 7 26 39 8 27 33 8 28 11 8 29 38 9 30 43 9 31 28 9 32 37 10 33 32 10 34 12 10 35 26 2 36 29 2 37 13 2 38 34 11 39 41 11 40 25 11 41 40 12 42 32 12 43 16 12 44 41 13 45 40 13 46 24 13 47 8 2 48 9 2 49 28 2 50 27 2 51 28 2 52 29 2 53 42 14 54 36 14 55 13 14 56 43 15 57 42 15 58 29 15 59 24 3 60 16 3 61 17 3 62 25 3 63 24 3 64 30 3 65 31 16 66 30 16 67 42 16 68 30 17 69 17 17 70 36 17 71 27 18 72 26 18 73 40 18 74 26 19 75 12 19 76 32 19 77 8 20 78 27 20 79 41 20 80 19 21 81 16 21 82 32 21 83 21 22 84 31 22 85 43 22 86 23 8 87 20 8 88 33 8 89 17 23 90 18 23 91 35 23 92 18 24 93 19 24 94 37 24 95 22 25 96 23 25 97 39 25 98 20 26 99 21 26 100 38 26 101 45 27 102 44 27 103 16 27 104 46 28 105 45 28 106 19 28 107 47 29 108 46 29 109 18 29 110 44 30 111 47 30 112 17 30 113 49 31 114 48 31 115 23 31 116 48 32 117 50 32 118 20 32 119 50 33 120 51 33 121 21 33 122 51 34 123 49 34 124 22 34 125 47 35 126 44 35 127 49 35 128 5 36 129 6 36 130 46 36 131 6 37 132 7 37 133 45 37 134 7 38 135 4 38 136 44 38 137 5 39 138 47 39 139 51 39 140 3 40 141 1 40 142 51 40 143 2 41 144 3 41 145 50 41 146 0 42 147 2 42 148 48 42 149 49 43 150 44 43 151 4 43 152 5 44 153 1 44 154 0 44 155 2 45 156 1 45 157 3 45 158 6 46 159 4 46 160 7 46 161 9 47 162 10 47 163 11 47 164 12 48 165 14 48 166 15 48 167 22 3 168 31 3 169 21 3 170 33 49 171 9 49 172 11 49 173 34 50 174 10 50 175 8 50 176 35 51 177 15 51 178 14 51 179 36 52 180 14 52 181 13 52 182 39 53 183 11 53 184 10 53 185 38 54 186 28 54 187 9 54 188 37 55 189 12 55 190 15 55 191 26 2 192 13 2 193 12 2 194 34 56 195 25 56 196 22 56 197 40 57 198 16 57 199 24 57 200 41 58 201 24 58 202 25 58 203 8 2 204 28 2 205 27 2 206 27 2 207 29 2 208 26 2 209 42 59 210 13 59 211 29 59 212 43 60 213 29 60 214 28 60 215 24 3 216 17 3 217 30 3 218 25 3 219 30 3 220 31 3 221 31 61 222 42 61 223 43 61 224 30 62 225 36 62 226 42 62 227 27 58 228 40 58 229 41 58 230 26 63 231 32 63 232 40 63 233 8 64 234 41 64 235 34 64 236 19 65 237 32 65 238 37 65 239 21 66 240 43 66 241 38 66 242 23 67 243 33 67 244 39 67 245 17 23 246 35 23 247 36 23 248 18 68 249 37 68 250 35 68 251 22 69 252 39 69 253 34 69 254 20 70 255 38 70 256 33 70 257 45 71 258 16 71 259 19 71 260 46 72 261 19 72 262 18 72 263 47 73 264 18 73 265 17 73 266 44 74 267 17 74 268 16 74 269 49 75 270 23 75 271 22 75 272 48 76 273 20 76 274 23 76 275 50 77 276 21 77 277 20 77 278 51 78 279 22 78 280 21 78 281 47 79 282 49 79 283 51 79 284 5 80 285 46 80 286 47 80 287 6 81 288 45 81 289 46 81 290 7 82 291 44 82 292 45 82 293 5 83 294 51 83 295 1 83 296 3 77 297 51 77 298 50 77 299 2 8 300 50 8 301 48 8 302 0 84 303 48 84 304 49 84 305 49 85 306 4 85 307 0 85 308 5 86 309 0 86 310 4 86 311</p>
        </triangles>
      </mesh>
    </geometry>
  </library_geometries>
  <library_visual_scenes>
    <visual_scene id="Scene" name="Scene">
      <node id="Plane_009" name="Plane.009" type="NODE">
        <matrix sid="transform">1 0 0 0 0 1 0 0 0 0 1 0 0 0 0 1</matrix>
        <instance_geometry url="#Plane_003-mesh" name="Plane.009">
          <bind_material>
            <technique_common>
              <instance_material symbol="Material_001-material" target="#Material_001-material">
                <bind_vertex_input semantic="Plane_003-mesh-map-0" input_semantic="TEXCOORD" input_set="0"/>
              </instance_material>
            </technique_common>
          </bind_material>
        </instance_geometry>
      </node>
    </visual_scene>
  </library_visual_scenes>
  <scene>
    <instance_visual_scene url="#Scene"/>
  </scene>
</COLLADA>