<?xml version="1.0" encoding="utf-8"?>
<COLLADA xmlns="http://www.collada.org/2005/11/COLLADASchema" version="1.4.1" xmlns:xsi="http://www.w3.org/2001/XMLSchema-instance">
  <asset>
    <contributor>
      <author>Blender User</author>
      <authoring_tool>Blender 4.5.2 LTS commit date:2025-08-19, commit time:15:00, hash:ab25eae04993</authoring_tool>
    </contributor>
    <created>2026-09-25T11:40:23</created>
    <modified>2026-09-25T11:40:23</modified>
    <unit name="meter" meter="1"/>
    <up_axis>Z_UP</up_axis>
  </asset>
  <library_effects>
    <effect id="Material_002-effect">
      <profile_COMMON>
        <newparam sid="road_texture_png-surface">
          <surface type="2D">
            <init_from>road_texture_png</init_from>
          </surface>
        </newparam>
        <newparam sid="road_texture_png-sampler">
          <sampler2D>
            <source>road_texture_png-surface</source>
          </sampler2D>
        </newparam>
        <technique sid="common">
          <lambert>
            <emission>
              <color sid="emission">0 0 0 1</color>
            </emission>
            <diffuse>
              <texture texture="road_texture_png-sampler"/>
            </diffuse>
            <index_of_refraction>
              <float sid="ior">1.5</float>
            </index_of_refraction>
          </lambert>
        </technique>
      </profile_COMMON>
    </effect>
  </library_effects>
  <library_images>
    <image id="road_texture_png" name="road_texture_png">
      <init_from>road_texture.png</init_from>
    </image>
  </library_images>
  <library_materials>
    <material id="Material_002-material" name="Material.002">
      <instance_effect url="#Material_002-effect"/>
    </material>
  </library_materials>
  <library_geometries>
    <geometry id="Mesh-mesh" name="Mesh">
      <mesh>
        <source id="Mesh-mesh-positions">
          <float_array id="Mesh-mesh-positions-array" count="576">-1 0 0 -0.5299703 0.4395307 0 -0.1860334 0.9170895 0 0.05478966 1.42726 0 0.2154781 1.964626 0 0.319011 2.523772 0 0.3883674 3.09928 0 0.4465266 3.685735 0 0.5164676 4.277721 0 0.6211695 4.869821 0 0.7836114 5.456618 0 1.026772 6.032698 0 1.373631 6.592643 0 1.870061 7.224976 0 2.369694 7.78635 0 2.875573 8.28689 0 3.390741 8.736723 0 3.918239 9.145974 0 4.461111 9.524765 0 5.022398 9.883224 0 5.605144 10.23148 0 6.212391 10.57965 0 6.847182 10.93786 0 7.512559 11.31625 0 8.211566 11.72493 0 8.820165 12.12848 0 9.407901 12.58417 0 9.978387 13.06837 0 10.53524 13.5575 0 11.08206 14.02794 0 11.62247 14.45611 0 12.16008 14.8184 0 12.6985 15.0912 0 13.24135 15.25092 0 13.79223 15.27397 0 14.35476 15.13672 0 14.93255 14.8156 0 15.99504 13.86988 0 16.75138 12.80217 0 17.2281 11.63085 0 17.45173 10.3743 0 17.4488 9.050924 0 17.24585 7.679092 0 16.86941 6.277201 0 16.34603 4.863634 0 15.70222 3.456779 0 14.96453 2.075024 0 14.15948 0.7367544 0 13.31363 -0.5396409 0 12.57842 -1.455703 0 11.78519 -2.188723 0 10.93994 -2.769513 0 10.04866 -3.228886 0 9.117356 -3.597654 0 8.152016 -3.906631 0 7.158642 -4.18663 0 6.143231 -4.468463 0 5.111781 -4.782944 0 4.070288 -5.160885 0 3.02475 -5.633099 0 1.981165 -6.2304 0 0.5498662 -7.314518 0 -0.7169385 -8.564431 0 -1.856309 -9.924334 0 -2.905305 -11.33843 0 -3.900988 -12.75092 0 -4.880416 -14.10601 0 -5.88065 -15.3479 0 -6.938752 -16.42078 0 -8.09178 -17.26885 0 -9.376795 -17.83632 0 -10.83086 -18.06739 0 -12.49102 -17.90627 0 -14.16829 -17.40125 0 -15.73513 -16.638 0 -17.17074 -15.64848 0 -18.4543 -14.46463 0 -19.56501 -13.11844 0 -20.48204 -11.64185 0 -21.18459 -10.06684 0 -21.65185 -8.425357 0 -21.86299 -6.749369 0 -21.79722 -5.070837 0 -21.43371 -3.421722 0 -20.75165 -1.83399 0 -19.69753 -0.4620888 0 -18.42053 0.3302196 0 -16.95522 0.6503182 0 -15.3362 0.6055901 0 -13.59804 0.3034187 0 -11.77533 -0.1488127 0 -9.902647 -0.643721 0 -8.014571 -1.073923 0 -6.145684 -1.332035 0 -4.330573 -1.310674 0 -2.603816 -0.9024562 0 -0.8809632 -0.1625072 0 -0.379097 0.3067942 0 -0.01301008 0.8151085 0 0.242087 1.355518 0 0.4101766 1.917634 0 0.5168184 2.49357 0 0.587183 3.077444 0 0.6453652 3.664132 0 0.7144122 4.248551 0 0.8164578 4.825628 0 0.9729065 5.390777 0 1.204984 5.940597 0 1.537804 6.477879 0 2.023562 7.096619 0 2.514874 7.648643 0 3.011813 8.140338 0 3.517918 8.58226 0 4.036836 8.98485 0 4.572204 9.358407 0 5.127543 9.713068 0 5.706191 10.05887 0 6.311278 10.4058 0 6.945761 10.76385 0 7.612469 11.14299 0 8.317387 11.55512 0 8.936861 11.96589 0 9.533946 12.42882 0 10.1091 12.91699 0 10.66645 13.40655 0 11.20943 13.87369 0 11.74063 14.29456 0 12.26155 14.6456 0 12.77254 14.90451 0 13.27424 15.05213 0 13.77231 15.07296 0 14.28116 14.94881 0 14.81608 14.65151 0 15.84503 13.73566 0 16.57484 12.7054 0 17.03489 11.57501 0 17.25169 10.35686 0 17.24883 9.065856 0 17.04969 7.719796 0 16.67865 6.337985 0 16.16106 4.940075 0 15.5229 3.545571 0 14.79051 2.173732 0 13.99035 0.8435934 0 13.15194 -0.4215641 0 12.43175 -1.318916 0 11.66004 -2.032052 0 10.83709 -2.597523 0 9.96583 -3.046576 0 9.049981 -3.409224 0 8.094387 -3.715083 0 7.104768 -3.994023 0 6.087314 -4.276423 0 5.048462 -4.59316 0 3.994906 -4.975479 0 2.933706 -5.454766 0 1.870657 -6.063207 0 0.4186959 -7.162976 0 -0.8641552 -8.42872 0 -2.013413 -9.800426 0 -3.067378 -11.22122 0 -4.063774 -12.63473 0 -5.039451 -13.98462 0 -6.030107 -15.21461 0 -7.070021 -16.26905 0 -8.192625 -17.09475 0 -9.433834 -17.64288 0 -10.83699 -17.86586 0 -12.45216 -17.7091 0 -14.09519 -17.21439 0 -15.63401 -16.46479 0 -17.04556 -15.49185 0 -18.3087 -14.32685 0 -19.40219 -13.00152 0 -20.30494 -11.54792 0 -20.99613 -9.998379 0 -21.45532 -8.38525 0 -21.6625 -6.740726 0 -21.59807 -5.09648 0 -21.24247 -3.483265 0 -20.57778 -1.935966 0 -19.56113 -0.6128304 0 -18.34428 0.1421598 0 -16.93637 0.4497209 0 -15.3562 0.4060661 0 -13.6393 0.1075919 0 -11.82496 -0.342562 0 -9.950427 -0.8379601 0 -8.050536 -1.270854 0 -6.158258 -1.532196 0 -4.306093 -1.510399 0 -2.530336 -1.090598 0</float_array>
          <technique_common>
            <accessor source="#Mesh-mesh-positions-array" count="192" stride="3">
              <param name="X" type="float"/>
              <param name="Y" type="float"/>
              <param name="Z" type="float"/>
            </accessor>
          </technique_common>
        </source>
        <source id="Mesh-mesh-normals">
          <float_array id="Mesh-mesh-normals-array" count="3">0 0 1</float_array>
          <technique_common>
            <accessor source="#Mesh-mesh-normals-array" count="1" stride="3">
              <param name="X" type="float"/>
              <param name="Y" type="float"/>
              <param name="Z" type="float"/>
            </accessor>
          </technique_common>
        </source>
        <vertices id="Mesh-mesh-vertices">
          <input semantic="POSITION" source="#Mesh-mesh-positions"/>
        </vertices>
        <triangles material="Material_002-material" count="186">
          <input semantic="VERTEX" source="#Mesh-mesh-vertices" offset="0"/>
          <input semantic="NORMAL" source="#Mesh-mesh-normals" offset="1"/>
          <p>97 0 0 0 96 0 98 0 1 0 97 0 99 0 2 0 98 0 100 0 3 0 99 0 101 0 4 0 100 0 102 0 5 0 101 0 103 0 6 0 102 0 104 0 7 0 103 0 105 0 8 0 104 0 106 0 9 0 105 0 107 0 10 0 106 0 107 0 12 0 11 0 108 0 13 0 12 0 110 0 15 0 14 0 111 0 16 0 15 0 112 0 17 0 16 0 113 0 18 0 17 0 114 0 19 0 18 0 115 0 20 0 19 0 116 0 21 0 20 0 117 0 22 0 21 0 118 0 23 0 22 0 119 0 24 0 23 0 120 0 25 0 24 0 122 0 25 0 121 0 123 0 26 0 122 0 124 0 27 0 123 0 125 0 28 0 124 0 126 0 29 0 125 0 127 0 30 0 126 0 128 0 31 0 127 0 129 0 32 0 128 0 130 0 33 0 129 0 130 0 35 0 34 0 131 0 36 0 35 0 133 0 36 0 132 0 134 0 37 0 133 0 134 0 39 0 38 0 135 0 40 0 39 0 136 0 41 0 40 0 137 0 42 0 41 0 138 0 43 0 42 0 139 0 44 0 43 0 140 0 45 0 44 0 141 0 46 0 45 0 142 0 47 0 46 0 144 0 47 0 143 0 145 0 48 0 144 0 145 0 50 0 49 0 146 0 51 0 50 0 147 0 52 0 51 0 148 0 53 0 52 0 149 0 54 0 53 0 150 0 55 0 54 0 151 0 56 0 55 0 152 0 57 0 56 0 153 0 58 0 57 0 155 0 60 0 59 0 156 0 61 0 60 0 158 0 61 0 157 0 159 0 62 0 158 0 160 0 63 0 159 0 161 0 64 0 160 0 162 0 65 0 161 0 163 0 66 0 162 0 164 0 67 0 163 0 165 0 68 0 164 0 166 0 69 0 165 0 166 0 71 0 70 0 167 0 72 0 71 0 168 0 73 0 72 0 169 0 74 0 73 0 170 0 75 0 74 0 171 0 76 0 75 0 172 0 77 0 76 0 174 0 77 0 173 0 175 0 78 0 174 0 176 0 79 0 175 0 177 0 80 0 176 0 178 0 81 0 177 0 179 0 82 0 178 0 180 0 83 0 179 0 181 0 84 0 180 0 181 0 86 0 85 0 183 0 88 0 87 0 184 0 89 0 88 0 185 0 90 0 89 0 186 0 91 0 90 0 187 0 92 0 91 0 188 0 93 0 92 0 189 0 94 0 93 0 190 0 95 0 94 0 96 0 95 0 191 0 97 0 1 0 0 0 98 0 2 0 1 0 99 0 3 0 2 0 100 0 4 0 3 0 101 0 5 0 4 0 102 0 6 0 5 0 103 0 7 0 6 0 104 0 8 0 7 0 105 0 9 0 8 0 106 0 10 0 9 0 107 0 11 0 10 0 107 0 108 0 12 0 108 0 109 0 13 0 110 0 111 0 15 0 111 0 112 0 16 0 112 0 113 0 17 0 113 0 114 0 18 0 114 0 115 0 19 0 115 0 116 0 20 0 116 0 117 0 21 0 117 0 118 0 22 0 118 0 119 0 23 0 119 0 120 0 24 0 120 0 121 0 25 0 122 0 26 0 25 0 123 0 27 0 26 0 124 0 28 0 27 0 125 0 29 0 28 0 126 0 30 0 29 0 127 0 31 0 30 0 128 0 32 0 31 0 129 0 33 0 32 0 130 0 34 0 33 0 130 0 131 0 35 0 131 0 132 0 36 0 133 0 37 0 36 0 134 0 38 0 37 0 134 0 135 0 39 0 135 0 136 0 40 0 136 0 137 0 41 0 137 0 138 0 42 0 138 0 139 0 43 0 139 0 140 0 44 0 140 0 141 0 45 0 141 0 142 0 46 0 142 0 143 0 47 0 144 0 48 0 47 0 145 0 49 0 48 0 145 0 146 0 50 0 146 0 147 0 51 0 147 0 148 0 52 0 148 0 149 0 53 0 149 0 150 0 54 0 150 0 151 0 55 0 151 0 152 0 56 0 152 0 153 0 57 0 153 0 154 0 58 0 155 0 156 0 60 0 156 0 157 0 61 0 158 0 62 0 61 0 159 0 63 0 62 0 160 0 64 0 63 0 161 0 65 0 64 0 162 0 66 0 65 0 163 0 67 0 66 0 164 0 68 0 67 0 165 0 69 0 68 0 166 0 70 0 69 0 166 0 167 0 71 0 167 0 168 0 72 0 168 0 169 0 73 0 169 0 170 0 74 0 170 0 171 0 75 0 171 0 172 0 76 0 172 0 173 0 77 0 174 0 78 0 77 0 175 0 79 0 78 0 176 0 80 0 79 0 177 0 81 0 80 0 178 0 82 0 81 0 179 0 83 0 82 0 180 0 84 0 83 0 181 0 85 0 84 0 181 0 182 0 86 0 183 0 184 0 88 0 184 0 185 0 89 0 185 0 186 0 90 0 186 0 187 0 91 0 187 0 188 0 92 0 188 0 189 0 93 0 189 0 190 0 94 0 190 0 191 0 95 0 96 0 0 0 95 0</p>
        </triangles>
      </mesh>
    </geometry>
  </library_geometries>
  <library_visual_scenes>
    <visual_scene id="Scene" name="Scene">
      <node id="BézierCircle" name="BézierCircle" type="NODE">
        <matrix sid="transform">1 0 0 0 0 1 0 0 0 0 1 0 0 0 0 1</matrix>
        <instance_geometry url="#Mesh-mesh" name="BézierCircle">
          <bind_material>
            <technique_common>
              <instance_material symbol="Material_002-material" target="#Material_002-material"/>
            </technique_common>
          </bind_material>
        </instance_geometry>
      </node>
    </visual_scene>
  </library_visual_scenes>
  <scene>
    <instance_visual_scene url="#Scene"/>
  </scene>
</COLLADA>