<?xml version="1.0" encoding="utf-8"?>
<COLLADA xmlns="http://www.collada.org/2005/11/COLLADASchema" version="1.4.1" xmlns:xsi="http://www.w3.org/2001/XMLSchema-instance">
  <asset>
    <contributor>
      <author>Blender User</author>
      <authoring_tool>Blender 4.5.2 LTS commit date:2025-08-19, commit time:15:00, hash:ab25eae04993</authoring_tool>
    </contributor>
    <created>2026-09-11T01:11:56</created>
    <modified>2026-09-11T01:11:56</modified>
    <unit name="meter" meter="1"/>
    <up_axis>Z_UP</up_axis>
  </asset>
  <library_effects>
    <effect id="Material_001-effect">
      <profile_COMMON>
        <newparam sid="photo_2026-08-29_00-38-51_jpg_001-surface">
          <surface type="2D">
            <init_from>photo_2026-08-29_00-38-51_jpg_001</init_from>
          </surface>
        </newparam>
        <newparam sid="photo_2026-08-29_00-38-51_jpg_001-sampler">
          <sampler2D>
            <source>photo_2026-08-29_00-38-51_jpg_001-surface</source>
          </sampler2D>
        </newparam>
        <technique sid="common">
          <lambert>
            <emission>
              <color sid="emission">0 0 0 1</color>
            </emission>
            <diffuse>
              <texture texture="photo_2026-08-29_00-38-51_jpg_001-sampler" texcoord="Plane_003-mesh-map-0"/>
            </diffuse>
            <index_of_refraction>
              <float sid="ior">1.45</float>
            </index_of_refraction>
          </lambert>
        </technique>
      </profile_COMMON>
    </effect>
  </library_effects>
  <library_images>
    <image id="photo_2026-08-29_00-38-51_jpg_001" name="photo_2026-08-29_00-38-51_jpg_001">
      <init_from>map.png</init_from>
    </image>
  </library_images>
  <library_materials>
    <material id="Material_001-material" name="Material.001">
      <instance_effect url="#Material_001-effect"/>
    </material>
  </library_materials>
  <library_geometries>
    <geometry id="Plane_003-mesh" name="Plane.003">
      <mesh>
        <source id="Plane_003-mesh-positions">
          <float_array id="Plane_003-mesh-positions-array" count="132">-0.7850585 -1.070835 3.5 -0.7850586 -1.220836 3.5 -2.43506 -1.070834 3.5 -2.43506 -1.220835 3.5 0.3149414 -1.070836 3.5 0.3149413 -1.220837 3.5 1.964942 -1.220838 3.5 1.964942 -1.070837 3.5 0.3149413 -1.070836 2.5 0.3149412 -1.220837 2.5 1.964941 -1.220838 2.5 1.964942 -1.070837 2.5 -2.43506 -1.220835 2.5 -0.7850586 -1.220836 2.5 -0.7850586 -1.070835 2.5 -2.43506 -1.070834 2.5 -0.1100606 -1.070836 2.5 -0.3600569 -1.070836 2.5 -0.05172455 -1.070836 3.5 -0.4183917 -1.070836 3.5 -0.4183918 -1.220837 3.5 -0.05172467 -1.220837 3.5 -0.1100608 -1.220837 2.5 -0.3600569 -1.220837 2.5 0.3149414 -1.070836 2.875 -2.43506 -1.220835 2.875 -0.7850586 -1.070835 2.875 1.964941 -1.220838 2.875 0.3149412 -1.220837 2.875 1.964942 -1.070837 2.875 -0.7850586 -1.220836 2.875 -2.43506 -1.070834 2.875 -0.1100606 -1.070836 2.75 -0.3600568 -1.070836 2.75 -0.1100607 -1.220837 2.75 -0.3600569 -1.220837 2.75 0.3149412 -1.070836 5.06639e-7 1.964941 -1.070837 5.06639e-7 1.964941 -1.220838 5.06639e-7 0.3149411 -1.220837 5.06639e-7 -2.43506 -1.070834 5.06639e-7 -0.7850587 -1.070836 5.06639e-7 -2.435061 -1.220835 5.06639e-7 -0.7850588 -1.220837 5.06639e-7</float_array>
          <technique_common>
            <accessor source="#Plane_003-mesh-positions-array" count="44" stride="3">
              <param name="X" type="float"/>
              <param name="Y" type="float"/>
              <param name="Z" type="float"/>
            </accessor>
          </technique_common>
        </source>
        <source id="Plane_003-mesh-normals">
          <float_array id="Plane_003-mesh-normals-array" count="189">0 0 1 0 0 -1 -1.08372e-6 -1 -3.21262e-7 1.08372e-6 1 0 1 -2.54311e-6 -1.90735e-7 -5.77985e-7 -1 2.8225e-7 -1 0 0 -5.74116e-7 -1 -2.39215e-7 5.77985e-7 1 0 5.60983e-7 1 0 5.60982e-7 1 0 4.76844e-7 1 1.87756e-7 -5.60982e-7 -1 0 -4.76844e-7 -1 0 -4.76844e-7 -1 0 -5.60982e-7 -1 -2.91398e-7 6.50232e-7 1 0 3.25117e-7 1 0 6.50232e-7 1 0 5.77984e-7 1 0 -5.60983e-7 -1 6.84868e-7 -5.77984e-7 -1 0 1 -2.11926e-6 0 1.08372e-6 1 0 -1.08372e-6 -1 0 5.77984e-7 1 0 1 0 0 -5.77984e-7 -1 0 -1 6.35779e-7 0 1.15597e-6 1 0 -1 0 0 -1.15597e-6 -1 0 1 -1.27156e-6 0 4.81649e-7 0 1 4.8165e-7 0 1 -1.08372e-6 -1 0 1.08372e-6 1 -2.31194e-7 1 0 -1.90735e-7 -5.77985e-7 -1 0 -1 2.54311e-6 0 -6.50233e-7 -1 2.60093e-7 5.77984e-7 1 0 5.60982e-7 1 0 5.60982e-7 1 5.60982e-7 4.76844e-7 1 0 -3.25117e-7 -1 0 -6.50232e-7 -1 -2.16744e-7 -4.76844e-7 -1 0 -5.60982e-7 -1 0 5.26273e-7 1 3.82744e-7 5.60983e-7 1 0 5.77984e-7 1 0 -5.60982e-7 -1 0 -1 4.23852e-6 0 1 0 0 1.08372e-6 1 0 -1.08372e-6 -1 0 1 -2.54311e-6 0 -5.77984e-7 -1 0 -1 3.17889e-7 0 1.08372e-6 1 0 -1.08372e-6 -1 0 1 -6.35778e-7 0</float_array>
          <technique_common>
            <accessor source="#Plane_003-mesh-normals-array" count="63" stride="3">
              <param name="X" type="float"/>
              <param name="Y" type="float"/>
              <param name="Z" type="float"/>
            </accessor>
          </technique_common>
        </source>
        <source id="Plane_003-mesh-map-0">
          <float_array id="Plane_003-mesh-map-0-array" count="504">0.4512532 0.4553525 0.4512532 0.4576033 0.4440963 0.4576033 0.4560244 0.4576033 0.4560244 0.4553525 0.4631813 0.4553525 0.4813337 0.7336794 0.4690657 0.7336794 0.4690657 0.7187003 0.7557312 0.6204876 0.7827872 0.6205937 0.7827812 0.656055 0.7904524 0.6345166 0.817522 0.63449 0.8175244 0.669967 0.5580149 0.3756445 0.5580149 0.3606653 0.5760562 0.3606653 0.8008126 0.6205837 0.8278526 0.620507 0.8278622 0.6559405 0.5099176 0.4576033 0.5099176 0.4553525 0.5126284 0.4553525 0.7827872 0.6205937 0.789751 0.6135708 0.7887969 0.6560653 0.7453951 0.6343717 0.7724307 0.6344718 0.7724181 0.6699027 0.454434 0.4576033 0.454434 0.4553525 0.4560244 0.4553525 0.7904524 0.6345166 0.7834887 0.6274716 0.7834982 0.6133853 0.7793979 0.6274264 0.7724307 0.6344718 0.7724396 0.6132048 0.1541691 0.9948313 0.1309988 0.9948313 0.1309988 0.9146768 0.4512532 0.4576033 0.4512532 0.4553525 0.4528436 0.4553525 0.4528436 0.4576033 0.4528436 0.4553525 0.454434 0.4553525 0.7938445 0.6135256 0.8008126 0.6205837 0.8008224 0.6560273 0.789751 0.6135708 0.7938445 0.6135256 0.7948113 0.6560518 0.4618493 0.7336795 0.4495812 0.7336794 0.4495812 0.7187003 0.4690657 0.7336794 0.4618493 0.7336795 0.4618493 0.7187003 0.1036552 0.9132796 0.1278949 0.9132796 0.1278949 0.9971283 0.7938348 0.5993263 0.8008051 0.5993179 0.8008126 0.6205837 0.7844356 0.669967 0.7784262 0.6699352 0.7793979 0.6274264 0.7784262 0.6699352 0.7724181 0.6699027 0.7724307 0.6344718 0.7904515 0.6699852 0.7844356 0.669967 0.7834887 0.6274716 0.7454021 0.613117 0.7724396 0.6132048 0.7724307 0.6344718 0.7827988 0.599309 0.7897453 0.5994724 0.789751 0.6135708 0.508291 0.4576033 0.508291 0.4553525 0.5099176 0.4553525 0.8008051 0.5993179 0.8278471 0.5992478 0.8278526 0.620507 0.5471903 0.3756445 0.5471903 0.3606653 0.5580149 0.3606653 0.7904392 0.613214 0.8175197 0.6132192 0.817522 0.63449 0.7557384 0.5992124 0.7827988 0.599309 0.7827872 0.6205937 0.745426 0.5040447 0.7724506 0.4899189 0.7724396 0.6132048 0.4916233 0.3756445 0.4916233 0.3606653 0.5471903 0.3606653 0.8007988 0.4759976 0.8278319 0.4901351 0.8278471 0.5992478 0.3867979 0.7336794 0.3867979 0.7187002 0.4495812 0.7187003 0.7904574 0.4899309 0.8174981 0.5040631 0.8175197 0.6132192 0.5013511 0.4576033 0.5013511 0.4553525 0.508291 0.4553525 0.7557607 0.4901262 0.782788 0.4760011 0.7827988 0.599309 0.5441171 0.7187003 0.5441171 0.7336794 0.4813337 0.7336794 0.4916233 0.3606653 0.8007988 0.4759976 0.3867979 0.7336794 0.4512532 0.4553525 0.4440963 0.4576033 0.4440963 0.4553526 0.4560244 0.4576033 0.4631813 0.4553525 0.4631813 0.4576033 0.4813337 0.7336794 0.4690657 0.7187003 0.4813337 0.7187003 0.7557312 0.6204876 0.7827812 0.656055 0.7557196 0.6559491 0.7904524 0.6345166 0.8175244 0.669967 0.7904515 0.6699852 0.5580149 0.3756445 0.5760562 0.3606653 0.5760562 0.3756445 0.8008126 0.6205837 0.8278622 0.6559405 0.8008224 0.6560273 0.5099176 0.4576033 0.5126284 0.4553525 0.5126284 0.4576033 0.7827872 0.6205937 0.7887969 0.6560653 0.7827812 0.656055 0.7453951 0.6343717 0.7724181 0.6699027 0.7453836 0.6697977 0.454434 0.4576033 0.4560244 0.4553525 0.4560244 0.4576033 0.7904524 0.6345166 0.7834982 0.6133853 0.7904392 0.613214 0.7793979 0.6274264 0.7724396 0.6132048 0.7794098 0.6132371 0.1541691 0.9948313 0.1309988 0.9146768 0.1541691 0.9146768 0.4512532 0.4576033 0.4528436 0.4553525 0.4528436 0.4576033 0.4528436 0.4576033 0.454434 0.4553525 0.454434 0.4576033 0.7938445 0.6135256 0.8008224 0.6560273 0.7948113 0.6560518 0.789751 0.6135708 0.7948113 0.6560518 0.7887969 0.6560653 0.4618493 0.7336795 0.4495812 0.7187003 0.4618493 0.7187003 0.4690657 0.7336794 0.4618493 0.7187003 0.4690657 0.7187003 0.1036552 0.9132796 0.1278949 0.9971283 0.1036552 0.9971283 0.7938348 0.5993263 0.8008126 0.6205837 0.7938445 0.6135256 0.7844356 0.669967 0.7793979 0.6274264 0.7834887 0.6274716 0.7784262 0.6699352 0.7724307 0.6344718 0.7793979 0.6274264 0.7904515 0.6699852 0.7834887 0.6274716 0.7904524 0.6345166 0.7454021 0.613117 0.7724307 0.6344718 0.7453951 0.6343717 0.7827988 0.599309 0.789751 0.6135708 0.7827872 0.6205937 0.508291 0.4576033 0.5099176 0.4553525 0.5099176 0.4576033 0.8008051 0.5993179 0.8278526 0.620507 0.8008126 0.6205837 0.5471903 0.3756445 0.5580149 0.3606653 0.5580149 0.3756445 0.7904392 0.613214 0.817522 0.63449 0.7904524 0.6345166 0.7557384 0.5992124 0.7827872 0.6205937 0.7557312 0.6204876 0.745426 0.5040447 0.7724396 0.6132048 0.7454021 0.613117 0.4916233 0.3756445 0.5471903 0.3606653 0.5471903 0.3756445 0.8007988 0.4759976 0.8278471 0.5992478 0.8008051 0.5993179 0.3867979 0.7336794 0.4495812 0.7187003 0.4495812 0.7336794 0.7904574 0.4899309 0.8175197 0.6132192 0.7904392 0.613214 0.5013511 0.4576033 0.508291 0.4553525 0.508291 0.4576033 0.7557607 0.4901262 0.7827988 0.599309 0.7557384 0.5992124 0.5441171 0.7187003 0.4813337 0.7336794 0.4813337 0.7187003 0.8278319 0.4901351 0.8007988 0.4759976 0.4916233 0.3606653 0.5441171 0.7187003 0.7557607 0.4901262 0.5441171 0.7336794 0.5441171 0.7336794 0.7557607 0.4901262 0.5013511 0.4576033</float_array>
          <technique_common>
            <accessor source="#Plane_003-mesh-map-0-array" count="252" stride="2">
              <param name="S" type="float"/>
              <param name="T" type="float"/>
            </accessor>
          </technique_common>
        </source>
        <vertices id="Plane_003-mesh-vertices">
          <input semantic="POSITION" source="#Plane_003-mesh-positions"/>
        </vertices>
        <triangles material="Material_001-material" count="84">
          <input semantic="VERTEX" source="#Plane_003-mesh-vertices" offset="0"/>
          <input semantic="NORMAL" source="#Plane_003-mesh-normals" offset="1"/>
          <input semantic="TEXCOORD" source="#Plane_003-mesh-map-0" offset="2" set="0"/>
          <p>1 0 0 0 0 1 2 0 2 4 0 3 5 0 4 6 0 5 14 1 6 17 1 7 23 1 8 25 2 9 30 2 10 1 2 11 26 3 12 31 3 13 2 3 14 27 4 15 29 4 16 7 4 17 28 5 18 27 5 19 6 5 20 31 6 21 25 6 22 3 6 23 30 7 24 35 7 25 20 7 26 29 8 27 24 8 28 4 8 29 18 0 30 21 0 31 5 0 32 26 9 33 33 9 34 17 9 35 32 10 36 24 10 37 8 10 38 33 11 39 32 11 40 16 11 41 0 0 42 1 0 43 20 0 44 19 0 45 20 0 46 21 0 47 34 12 48 28 12 49 5 12 50 35 13 51 34 13 52 21 13 53 16 1 54 8 1 55 9 1 56 17 1 57 16 1 58 22 1 59 23 14 60 22 14 61 34 14 62 22 15 63 9 15 64 28 15 65 19 16 66 18 16 67 32 16 68 18 17 69 4 17 70 24 17 71 0 18 72 19 18 73 33 18 74 11 19 75 8 19 76 24 19 77 13 20 78 23 20 79 35 20 80 15 6 81 12 6 82 25 6 83 9 21 84 10 21 85 27 21 86 10 22 87 11 22 88 29 22 89 14 23 90 15 23 91 31 23 92 12 24 93 13 24 94 30 24 95 37 25 96 36 25 97 8 25 98 38 26 99 37 26 100 11 26 101 39 27 102 38 27 103 10 27 104 36 28 105 39 28 106 9 28 107 41 29 108 40 29 109 15 29 110 40 30 111 42 30 112 12 30 113 42 31 114 43 31 115 13 31 116 43 32 117 41 32 118 14 32 119 37 1 120 39 1 121 36 1 122 1 33 123 2 33 124 3 33 125 4 34 126 6 34 127 7 34 128 14 1 129 23 1 130 13 1 131 25 35 132 1 35 133 3 35 134 26 36 135 2 36 136 0 36 137 27 37 138 7 37 139 6 37 140 28 38 141 6 38 142 5 38 143 31 39 144 3 39 145 2 39 146 30 40 147 20 40 148 1 40 149 29 41 150 4 41 151 7 41 152 18 0 153 5 0 154 4 0 155 26 42 156 17 42 157 14 42 158 32 43 159 8 43 160 16 43 161 33 44 162 16 44 163 17 44 164 0 0 165 20 0 166 19 0 167 19 0 168 21 0 169 18 0 170 34 45 171 5 45 172 21 45 173 35 46 174 21 46 175 20 46 176 16 1 177 9 1 178 22 1 179 17 1 180 22 1 181 23 1 182 23 47 183 34 47 184 35 47 185 22 48 186 28 48 187 34 48 188 19 44 189 32 44 190 33 44 191 18 49 192 24 49 193 32 49 194 0 50 195 33 50 196 26 50 197 11 51 198 24 51 199 29 51 200 13 52 201 35 52 202 30 52 203 15 53 204 25 53 205 31 53 206 9 21 207 27 21 208 28 21 209 10 54 210 29 54 211 27 54 212 14 55 213 31 55 214 26 55 215 12 56 216 30 56 217 25 56 218 37 41 219 8 41 220 11 41 221 38 57 222 11 57 223 10 57 224 39 58 225 10 58 226 9 58 227 36 59 228 9 59 229 8 59 230 41 60 231 15 60 232 14 60 233 40 30 234 12 30 235 15 30 236 42 61 237 13 61 238 12 61 239 43 62 240 14 62 241 13 62 242 38 1 243 39 1 244 37 1 245 43 1 246 42 1 247 41 1 248 41 1 249 42 1 250 40 1 251</p>
        </triangles>
      </mesh>
    </geometry>
  </library_geometries>
  <library_visual_scenes>
    <visual_scene id="Scene" name="Scene">
      <node id="Plane_009" name="Plane.009" type="NODE">
        <matrix sid="transform">1 0 0 0 0 1 0 0 0 0 1 0 0 0 0 1</matrix>
        <instance_geometry url="#Plane_003-mesh" name="Plane.009">
          <bind_material>
            <technique_common>
              <instance_material symbol="Material_001-material" target="#Material_001-material">
                <bind_vertex_input semantic="Plane_003-mesh-map-0" input_semantic="TEXCOORD" input_set="0"/>
              </instance_material>
            </technique_common>
          </bind_material>
        </instance_geometry>
      </node>
    </visual_scene>
  </library_visual_scenes>
  <scene>
    <instance_visual_scene url="#Scene"/>
  </scene>
</COLLADA>