<?xml version="1.0" encoding="utf-8"?>
<COLLADA xmlns="http://www.collada.org/2005/11/COLLADASchema" version="1.4.1" xmlns:xsi="http://www.w3.org/2001/XMLSchema-instance">
  <asset>
    <contributor>
      <author>Blender User</author>
      <authoring_tool>Blender 4.5.2 LTS commit date:2025-08-19, commit time:15:00, hash:ab25eae04993</authoring_tool>
    </contributor>
    <created>2026-09-11T01:12:12</created>
    <modified>2026-09-11T01:12:12</modified>
    <unit name="meter" meter="1"/>
    <up_axis>Z_UP</up_axis>
  </asset>
  <library_effects>
    <effect id="Material_001-effect">
      <profile_COMMON>
        <newparam sid="photo_2026-08-29_00-38-51_jpg_001-surface">
          <surface type="2D">
            <init_from>photo_2026-08-29_00-38-51_jpg_001</init_from>
          </surface>
        </newparam>
        <newparam sid="photo_2026-08-29_00-38-51_jpg_001-sampler">
          <sampler2D>
            <source>photo_2026-08-29_00-38-51_jpg_001-surface</source>
          </sampler2D>
        </newparam>
        <technique sid="common">
          <lambert>
            <emission>
              <color sid="emission">0 0 0 1</color>
            </emission>
            <diffuse>
              <texture texture="photo_2026-08-29_00-38-51_jpg_001-sampler" texcoord="Plane_005-mesh-map-0"/>
            </diffuse>
            <index_of_refraction>
              <float sid="ior">1.45</float>
            </index_of_refraction>
          </lambert>
        </technique>
      </profile_COMMON>
    </effect>
  </library_effects>
  <library_images>
    <image id="photo_2026-08-29_00-38-51_jpg_001" name="photo_2026-08-29_00-38-51_jpg_001">
      <init_from>map.png</init_from>
    </image>
  </library_images>
  <library_materials>
    <material id="Material_001-material" name="Material.001">
      <instance_effect url="#Material_001-effect"/>
    </material>
  </library_materials>
  <library_geometries>
    <geometry id="Plane_005-mesh" name="Plane.005">
      <mesh>
        <source id="Plane_005-mesh-positions">
          <float_array id="Plane_005-mesh-positions-array" count="132">3.214941 -0.8208354 3.5 3.214941 -0.9708355 3.5 2.11494 -0.8208353 3.5 2.11494 -0.9708354 3.5 4.31494 -0.8208354 3.5 4.31494 -0.9708355 3.5 5.414941 -0.9708356 3.5 5.414941 -0.8208355 3.5 2.11494 -0.8208353 2.5 2.11494 -0.9708354 2.5 3.214941 -0.9708355 2.5 3.214941 -0.8208354 2.5 5.414941 -0.9708356 2.5 5.414941 -0.8208355 2.5 4.31494 -0.9708355 2.5 4.31494 -0.8208354 2.5 3.581607 -0.8208354 3.5 3.948274 -0.8208354 3.5 3.639943 -0.8208354 2.5 3.889942 -0.8208354 2.5 3.581607 -0.9708355 3.5 3.948274 -0.9708355 3.5 3.889942 -0.9708355 2.5 3.639939 -0.9708355 2.5 5.414941 -0.9708356 2.875 4.31494 -0.9708355 2.875 2.11494 -0.8208353 2.875 3.214941 -0.9708355 2.875 2.11494 -0.9708354 2.875 3.214941 -0.8208354 2.875 5.414941 -0.8208355 2.875 4.31494 -0.8208354 2.875 3.639943 -0.8208354 2.75 3.889942 -0.8208354 2.75 3.889942 -0.9708355 2.75 3.639943 -0.9708355 2.75 2.11494 -0.8208353 5.06639e-7 3.214941 -0.8208353 5.06639e-7 3.214941 -0.9708354 5.06639e-7 2.11494 -0.9708354 5.06639e-7 4.31494 -0.8208354 5.06639e-7 5.414941 -0.8208355 5.06639e-7 5.414941 -0.9708356 5.06639e-7 4.31494 -0.9708355 5.06639e-7</float_array>
          <technique_common>
            <accessor source="#Plane_005-mesh-positions-array" count="44" stride="3">
              <param name="X" type="float"/>
              <param name="Y" type="float"/>
              <param name="Z" type="float"/>
            </accessor>
          </technique_common>
        </source>
        <source id="Plane_005-mesh-normals">
          <float_array id="Plane_005-mesh-normals-array" count="168">3.6124e-7 0 1 0 0 1 1 0 0 0 -1 0 -1 0 0 -9.34979e-7 0 -1 0 1 0 -1.40245e-7 -1 0 0 -1 0 0 1 0 0 0 1 0 1 0 1.40246e-7 1 0 0 1 0 -1.08372e-6 0 1 0 -1 0 0 0 -1 0 -1 -2.16744e-7 0 1 0 1.40246e-7 1 0 0 1 0 0 -1 0 -1.62558e-7 -1 -2.16744e-7 0 1 1.63767e-7 0 -1 0 1 0 -1.27157e-6 0 1 0 0 1 0 0 -1 0 0 -1 0 1 0 0 -1 0 0 -7.22479e-7 0 1 0 -1 0 0 1 0 -1.40247e-7 -1 0 0 -1 0 1.62558e-7 1 2.16744e-7 2.16744e-6 0 1 0 -1 -2.54576e-7 0 0 -1 0 -1 0 0 -1 0 1.40245e-7 1 0 0 1 0 0 -1 0 -1.40246e-7 -1 0 0 1 -2.88992e-7 0 -1 0 1 0 -1.27156e-6 0 1 0 0 1 0 0 -1 0 0 -1 0 1 0 0 -1 0 0</float_array>
          <technique_common>
            <accessor source="#Plane_005-mesh-normals-array" count="56" stride="3">
              <param name="X" type="float"/>
              <param name="Y" type="float"/>
              <param name="Z" type="float"/>
            </accessor>
          </technique_common>
        </source>
        <source id="Plane_005-mesh-map-0">
          <float_array id="Plane_005-mesh-map-0-array" count="504">0.5041413 0.8476119 0.5047935 0.8476119 0.5047935 0.864157 0.5047935 0.831067 0.5041413 0.831067 0.5041413 0.814522 0.5971565 0.1235049 0.5971565 0.125761 0.5944393 0.125761 0.8545837 0.6957285 0.8758177 0.695501 0.8758586 0.7372624 0.5576597 0.4096502 0.5576597 0.3947353 0.5756236 0.3947353 0.4493125 0.7357453 0.4615279 0.7357453 0.4615279 0.7506603 0.7478768 0.6954817 0.769143 0.6957363 0.7691128 0.7375618 0.8415758 0.6709179 0.8415626 0.6875442 0.8333535 0.6957514 0.8120833 0.6955282 0.8333535 0.6957514 0.833329 0.7375864 0.7903727 0.6957767 0.8116104 0.695585 0.8116454 0.7373526 0.5047935 0.836582 0.5041413 0.836582 0.5041413 0.831067 0.769143 0.6957363 0.7773499 0.6875551 0.7762099 0.7376122 0.7821679 0.6875747 0.7903727 0.6957767 0.7903965 0.7375581 0.7773499 0.6875551 0.7821679 0.6875747 0.783304 0.7376122 0.5047935 0.8476119 0.5041413 0.8476119 0.5041413 0.8420969 0.5047935 0.8420969 0.5041413 0.8420969 0.5041413 0.836582 0.8545498 0.6706183 0.8545837 0.6957285 0.846382 0.687554 0.05117493 0.9155926 0.05117493 1.000294 0.02669101 1.000294 0.4687136 0.7357453 0.480929 0.7357453 0.480929 0.7506603 0.4615279 0.7357453 0.4687136 0.7357453 0.4687134 0.7506603 0.846382 0.687554 0.8475223 0.7375844 0.8404277 0.7376127 0.8545837 0.6957285 0.8546125 0.7375014 0.8475223 0.7375844 0.001152217 0.9175254 0.02395379 0.9175254 0.02395379 0.9964064 0.7821626 0.6710084 0.790341 0.6706557 0.7903727 0.6957767 0.7691787 0.6706224 0.7773727 0.6709306 0.7773499 0.6875551 0.790341 0.6706557 0.8115897 0.6705722 0.8116104 0.695585 0.8121061 0.6704332 0.8333875 0.6706272 0.8333535 0.6957514 0.8415626 0.6875442 0.8404277 0.7376127 0.833329 0.7375864 0.7479025 0.6703918 0.7691787 0.6706224 0.769143 0.6957363 0.5468813 0.4096502 0.5468813 0.3947353 0.5576597 0.3947353 0.8545498 0.6706183 0.8757937 0.6704923 0.8758177 0.695501 0.598787 0.1235049 0.598787 0.125761 0.5971565 0.125761 0.7903744 0.5254806 0.8115814 0.5421577 0.8115897 0.6705722 0.747988 0.5419918 0.7691869 0.5254307 0.7691787 0.6706224 0.6057434 0.1235048 0.6057434 0.125761 0.598787 0.125761 0.854549 0.525442 0.8757609 0.5420722 0.8757937 0.6704923 0.3867979 0.7506602 0.3867979 0.7357453 0.4493125 0.7357453 0.8121693 0.5420395 0.8333638 0.5254324 0.8333875 0.6706272 0.5434435 0.7357454 0.5434435 0.7506604 0.480929 0.7506603 0.4915522 0.4096502 0.4915522 0.3947353 0.5468813 0.3947353 0.5041413 0.8476119 0.5047935 0.864157 0.5041413 0.864157 0.5047935 0.831067 0.5041413 0.814522 0.5047935 0.814522 0.5971565 0.1235049 0.5944393 0.125761 0.5944393 0.1235049 0.8545837 0.6957285 0.8758586 0.7372624 0.8546125 0.7375014 0.5576597 0.4096502 0.5756236 0.3947353 0.5756236 0.4096502 0.4493125 0.7357453 0.4615279 0.7506603 0.4493125 0.7506603 0.7478768 0.6954817 0.7691128 0.7375618 0.7478347 0.7373057 0.8415758 0.6709179 0.8333535 0.6957514 0.8333875 0.6706272 0.8120833 0.6955282 0.833329 0.7375864 0.8120463 0.7373614 0.7903727 0.6957767 0.8116454 0.7373526 0.7903965 0.7375581 0.5047935 0.836582 0.5041413 0.831067 0.5047935 0.831067 0.769143 0.6957363 0.7762099 0.7376122 0.7691128 0.7375618 0.7821679 0.6875747 0.7903965 0.7375581 0.783304 0.7376122 0.7773499 0.6875551 0.783304 0.7376122 0.7762099 0.7376122 0.5047935 0.8476119 0.5041413 0.8420969 0.5047935 0.8420969 0.5047935 0.8420969 0.5041413 0.836582 0.5047935 0.836582 0.8545498 0.6706183 0.846382 0.687554 0.8463647 0.6709855 0.05117493 0.9155926 0.02669101 1.000294 0.0266903 0.9155926 0.4687136 0.7357453 0.480929 0.7506603 0.4687134 0.7506603 0.4615279 0.7357453 0.4687134 0.7506603 0.4615279 0.7506603 0.846382 0.687554 0.8404277 0.7376127 0.8415626 0.6875442 0.8545837 0.6957285 0.8475223 0.7375844 0.846382 0.687554 0.001152217 0.9175254 0.02395379 0.9964064 0.001152217 0.9964064 0.7821626 0.6710084 0.7903727 0.6957767 0.7821679 0.6875747 0.7691787 0.6706224 0.7773499 0.6875551 0.769143 0.6957363 0.790341 0.6706557 0.8116104 0.695585 0.7903727 0.6957767 0.8121061 0.6704332 0.8333535 0.6957514 0.8120833 0.6955282 0.8415626 0.6875442 0.833329 0.7375864 0.8333535 0.6957514 0.7479025 0.6703918 0.769143 0.6957363 0.7478768 0.6954817 0.5468813 0.4096502 0.5576597 0.3947353 0.5576597 0.4096502 0.8545498 0.6706183 0.8758177 0.695501 0.8545837 0.6957285 0.598787 0.1235049 0.5971565 0.125761 0.5971565 0.1235049 0.7903744 0.5254806 0.8115897 0.6705722 0.790341 0.6706557 0.747988 0.5419918 0.7691787 0.6706224 0.7479025 0.6703918 0.6057434 0.1235048 0.598787 0.125761 0.598787 0.1235049 0.854549 0.525442 0.8757937 0.6704923 0.8545498 0.6706183 0.3867979 0.7506602 0.4493125 0.7357453 0.4493125 0.7506603 0.8121693 0.5420395 0.8333875 0.6706272 0.8121061 0.6704332 0.5434435 0.7357454 0.480929 0.7506603 0.480929 0.7357453 0.4915522 0.4096502 0.5468813 0.3947353 0.5468813 0.4096502 0.8757609 0.5420722 0.854549 0.525442 0.6057434 0.125761 0.6057434 0.125761 0.854549 0.525442 0.3867979 0.7506602 0.5434435 0.7357454 0.8121693 0.5420395 0.5434435 0.7506604 0.5434435 0.7506604 0.8121693 0.5420395 0.4915522 0.4096502</float_array>
          <technique_common>
            <accessor source="#Plane_005-mesh-map-0-array" count="252" stride="2">
              <param name="S" type="float"/>
              <param name="T" type="float"/>
            </accessor>
          </technique_common>
        </source>
        <vertices id="Plane_005-mesh-vertices">
          <input semantic="POSITION" source="#Plane_005-mesh-positions"/>
        </vertices>
        <triangles material="Material_001-material" count="84">
          <input semantic="VERTEX" source="#Plane_005-mesh-vertices" offset="0"/>
          <input semantic="NORMAL" source="#Plane_005-mesh-normals" offset="1"/>
          <input semantic="TEXCOORD" source="#Plane_005-mesh-map-0" offset="2" set="0"/>
          <p>1 0 0 0 0 1 2 0 2 4 1 3 5 1 4 6 1 5 24 2 6 30 2 7 7 2 8 25 3 9 24 3 10 6 3 11 26 4 12 28 4 13 3 4 14 14 5 15 22 5 16 19 5 17 30 6 18 31 6 19 4 6 20 23 7 21 35 7 22 27 7 23 28 8 24 27 8 25 1 8 26 29 9 27 26 9 28 2 9 29 17 10 30 21 10 31 5 10 32 31 11 33 33 11 34 17 11 35 32 12 36 29 12 37 0 12 38 33 13 39 32 13 40 16 13 41 0 14 42 1 14 43 20 14 44 16 10 45 20 10 46 21 10 47 14 15 48 25 15 49 34 15 50 22 15 51 34 15 52 35 15 53 23 16 54 10 16 55 11 16 56 22 16 57 23 16 58 18 16 59 34 17 60 21 17 61 20 17 62 25 15 63 5 15 64 21 15 65 19 18 66 18 18 67 32 18 68 18 19 69 11 19 70 29 19 71 15 18 72 19 18 73 33 18 74 11 20 75 8 20 76 26 20 77 9 21 78 10 21 79 27 21 80 35 22 81 20 22 82 1 22 83 13 23 84 15 23 85 31 23 86 8 4 87 9 4 88 28 4 89 14 24 90 12 24 91 24 24 92 12 25 93 13 25 94 30 25 95 37 26 96 36 26 97 8 26 98 41 27 99 40 27 100 15 27 101 42 2 102 41 2 103 13 2 104 43 28 105 42 28 106 12 28 107 40 4 108 43 4 109 14 4 110 39 29 111 38 29 112 10 29 113 38 30 114 37 30 115 11 30 116 36 31 117 39 31 118 9 31 119 1 32 120 2 32 121 3 32 122 4 10 123 6 10 124 7 10 125 24 2 126 7 2 127 6 2 128 25 33 129 6 33 130 5 33 131 26 4 132 3 4 133 2 4 134 14 16 135 19 16 136 15 16 137 30 34 138 4 34 139 7 34 140 23 35 141 27 35 142 10 35 143 28 36 144 1 36 145 3 36 146 29 20 147 2 20 148 0 20 149 17 10 150 5 10 151 4 10 152 31 18 153 17 18 154 4 18 155 32 37 156 0 37 157 16 37 158 33 18 159 16 18 160 17 18 161 0 38 162 20 38 163 16 38 164 16 10 165 21 10 166 17 10 167 14 15 168 34 15 169 22 15 170 22 39 171 35 39 172 23 39 173 23 40 174 11 40 175 18 40 176 22 16 177 18 16 178 19 16 179 34 41 180 20 41 181 35 41 182 25 42 183 21 42 184 34 42 185 19 18 186 32 18 187 33 18 188 18 43 189 29 43 190 32 43 191 15 18 192 33 18 193 31 18 194 11 44 195 26 44 196 29 44 197 9 45 198 27 45 199 28 45 200 35 46 201 1 46 202 27 46 203 13 47 204 31 47 205 30 47 206 8 4 207 28 4 208 26 4 209 14 48 210 24 48 211 25 48 212 12 49 213 30 49 214 24 49 215 37 50 216 8 50 217 11 50 218 41 51 219 15 51 220 13 51 221 42 2 222 13 2 223 12 2 224 43 52 225 12 52 226 14 52 227 40 4 228 14 4 229 15 4 230 39 53 231 10 53 232 9 53 233 38 54 234 11 54 235 10 54 236 36 55 237 9 55 238 8 55 239 42 16 240 43 16 241 41 16 242 41 16 243 43 16 244 40 16 245 38 16 246 39 16 247 37 16 248 37 16 249 39 16 250 36 16 251</p>
        </triangles>
      </mesh>
    </geometry>
  </library_geometries>
  <library_visual_scenes>
    <visual_scene id="Scene" name="Scene">
      <node id="Plane_001" name="Plane.001" type="NODE">
        <matrix sid="transform">1 0 0 0 0 1 0 0 0 0 1 0 0 0 0 1</matrix>
        <instance_geometry url="#Plane_005-mesh" name="Plane.001">
          <bind_material>
            <technique_common>
              <instance_material symbol="Material_001-material" target="#Material_001-material">
                <bind_vertex_input semantic="Plane_005-mesh-map-0" input_semantic="TEXCOORD" input_set="0"/>
              </instance_material>
            </technique_common>
          </bind_material>
        </instance_geometry>
      </node>
    </visual_scene>
  </library_visual_scenes>
  <scene>
    <instance_visual_scene url="#Scene"/>
  </scene>
</COLLADA>