<?xml version="1.0" encoding="utf-8"?>
<COLLADA xmlns="http://www.collada.org/2005/11/COLLADASchema" version="1.4.1" xmlns:xsi="http://www.w3.org/2001/XMLSchema-instance">
  <asset>
    <contributor>
      <author>Blender User</author>
      <authoring_tool>Blender 4.5.2 LTS commit date:2025-08-19, commit time:15:00, hash:ab25eae04993</authoring_tool>
    </contributor>
    <created>2026-09-05T22:16:29</created>
    <modified>2026-09-05T22:16:29</modified>
    <unit name="meter" meter="1"/>
    <up_axis>Z_UP</up_axis>
  </asset>
  <library_effects>
    <effect id="Material_001-effect">
      <profile_COMMON>
        <newparam sid="photo_2026-08-29_00-38-51_jpg_001-surface">
          <surface type="2D">
            <init_from>photo_2026-08-29_00-38-51_jpg_001</init_from>
          </surface>
        </newparam>
        <newparam sid="photo_2026-08-29_00-38-51_jpg_001-sampler">
          <sampler2D>
            <source>photo_2026-08-29_00-38-51_jpg_001-surface</source>
          </sampler2D>
        </newparam>
        <technique sid="common">
          <lambert>
            <emission>
              <color sid="emission">0 0 0 1</color>
            </emission>
            <diffuse>
              <texture texture="photo_2026-08-29_00-38-51_jpg_001-sampler" texcoord="Plane_009-mesh-map-0"/>
            </diffuse>
            <index_of_refraction>
              <float sid="ior">1.45</float>
            </index_of_refraction>
          </lambert>
        </technique>
      </profile_COMMON>
    </effect>
  </library_effects>
  <library_images>
    <image id="photo_2026-08-29_00-38-51_jpg_001" name="photo_2026-08-29_00-38-51_jpg_001">
      <init_from>map.png</init_from>
    </image>
  </library_images>
  <library_materials>
    <material id="Material_001-material" name="Material.001">
      <instance_effect url="#Material_001-effect"/>
    </material>
  </library_materials>
  <library_geometries>
    <geometry id="Plane_009-mesh" name="Plane.009">
      <mesh>
        <source id="Plane_009-mesh-positions">
          <float_array id="Plane_009-mesh-positions-array" count="282">1.964941 2.879161 5.13673e-7 2.114941 3.029161 5.00559e-7 1.964941 1.229161 5.13673e-7 2.114941 1.229161 5.00559e-7 1.964941 0.1291608 5.13673e-7 2.114941 0.1291608 5.00559e-7 1.964941 -2.620841 5.13673e-7 2.114941 -2.620841 5.00559e-7 1.964941 -3.720839 5.13673e-7 2.114941 -3.720839 5.00559e-7 1.964941 -5.920839 5.13673e-7 2.11494 -5.920839 5.00559e-7 1.964942 2.879161 3.5 2.114941 3.029161 3.5 1.964941 1.229161 3.5 2.114941 1.229161 3.5 1.964941 0.1291608 3.5 2.114941 0.1291608 3.5 1.964941 -2.620841 3.5 2.114941 -2.620841 3.5 1.964941 -3.720839 3.5 2.114941 -3.720839 3.5 1.964941 -5.920839 3.5 2.114941 -5.920839 3.5 1.964941 0.1291608 2.5 1.964941 -2.620841 2.5 2.114941 0.1291608 2.5 2.114941 -2.620841 2.5 1.964941 2.879161 2.5 1.964941 1.229161 2.5 2.114941 3.029161 2.5 2.114941 1.229161 2.5 2.114941 -5.920839 2.5 2.114941 -3.720839 2.5 1.964941 -3.720839 2.5 1.964941 -5.920839 2.5 1.964941 0.5541611 2.5 1.964941 0.8041611 2.5 1.964941 0.4958276 3.5 1.964941 0.8624945 3.5 2.114941 0.8624944 3.5 2.114941 0.4958276 3.5 2.114941 0.554161 2.5 2.114941 0.804161 2.5 2.114941 -5.920839 2.875 1.964941 2.879161 2.875 1.964941 0.1291608 2.875 2.114941 0.1291608 2.875 1.964941 -3.720839 2.875 2.114941 3.029161 2.875 2.114941 1.229161 2.875 1.964941 -2.620841 2.875 2.114941 -2.620841 2.875 1.964941 1.229161 2.875 2.114941 -3.720839 2.875 1.964941 -5.920839 2.875 2.114941 0.554161 2.75 2.114941 0.804161 2.75 1.964941 0.5541611 2.75 1.964941 0.8041611 2.75 1.964941 -3.295836 2.5 1.964941 -3.04584 2.5 1.964941 -3.354172 3.5 1.964941 -2.987505 3.5 2.114941 -2.987505 3.5 2.114941 -3.354172 3.5 2.114941 -3.04584 2.5 2.114941 -3.295836 2.5 1.964941 -3.04584 2.75 1.964941 -3.295836 2.75 2.114941 -3.295836 2.75 2.114941 -3.04584 2.75 1.964941 -2.620841 0.3249998 1.964941 0.1291608 0.3249998 2.114941 0.1291608 0.3249998 2.114941 -2.620841 0.3249998 1.964941 -5.920839 0.5749998 1.964941 -3.720839 0.3249998 2.114941 -3.720839 0.3249998 2.11494 -5.920839 0.5749998 1.964941 1.229161 0.3249998 1.964941 2.879161 0.5749998 2.114941 3.029161 0.5749998 2.114941 1.229161 0.3249998 -2.285058 2.879161 8.8522e-7 -2.285058 2.879161 3.5 -2.285058 2.879161 2.5 -2.285058 2.879161 2.875 -2.285058 2.879161 0.5750001 -2.285058 3.029161 8.8522e-7 -2.285058 3.029161 3.5 -2.285058 3.029161 2.5 -2.285058 3.029161 2.875 -2.285058 3.029161 0.5750001</float_array>
          <technique_common>
            <accessor source="#Plane_009-mesh-positions-array" count="94" stride="3">
              <param name="X" type="float"/>
              <param name="Y" type="float"/>
              <param name="Z" type="float"/>
            </accessor>
          </technique_common>
        </source>
        <source id="Plane_009-mesh-normals">
          <float_array id="Plane_009-mesh-normals-array" count="309">0 0 -1 0 0 -1 0 0 -1 0 0 1 1 -1.73395e-7 0 -1 0 1.90735e-7 -1 1.38716e-7 1.90735e-7 -1 0 1.62667e-7 -1 1.73395e-7 1.90735e-7 1 -4.23856e-7 0 0 -1 0 1 0 0 0 0 -1 -1 0 1.62667e-7 -9.34977e-7 0 -1 -1.16872e-6 0 -1 -1.58946e-6 0 -1 1 -7.47979e-7 0 -1 8.97576e-7 1.90735e-7 -1 0 1.96033e-7 -1 0 0 -1 2.80494e-7 0 1 -3.53212e-7 0 -1 1.44496e-7 0 -1 0 0 -1 1.92661e-7 0 1 -2.88992e-7 0 -1 -1.86993e-7 0 -1 0 1.90735e-7 -1 0 1.58946e-7 1 8.97578e-7 0 -1 0 0 -1 0 0 -1 2.6574e-7 0 1 -3.18888e-7 0 1 0 0 0 1 0 1 2.75231e-7 -1.23854e-7 0 -1 0 0 1 0 0 -1 0 1 -2.66762e-7 0 -1 1.88473e-7 2.07321e-7 0 0 -1 0 0 -1 0 0 -1 0 0 -1 0 0 -1 -1 0 1.90735e-7 -1 0 1.90735e-7 1 -1.38716e-7 0 -1 0 1.90735e-7 1.89651e-6 0 1 -1.08373e-6 0 1 -1 0 1.58946e-7 -1 8.66976e-7 1.33659e-7 -1 9.53674e-7 0 -1 2.80492e-7 0 1 -1.91373e-7 0 1 2.24394e-7 0 1 0 0 -1 1.44496e-7 0 -1 0 1.58946e-7 -1 0 1.58946e-7 -1 1.99305e-7 0 -1 1.59444e-7 0 -1 1.50126e-7 0 1 -1.59444e-7 0 1 0 -1.23854e-7 0 1 0 1 0 0 0 1 0 -1 1.33381e-7 0 -1 1.66727e-7 0 1 -4.07554e-7 0 -1 -1.25649e-7 2.07321e-7 0 0 -1 -1 3.33453e-7 0 0 0 -1 0 -1 -4.12847e-7 0 -1 4.12846e-7 0 -1 0 0 -1 0 0 -1 2.33137e-7 0 -1 0 0 1 2.25189e-7 0 1 -2.25189e-7 0 1 0 0 1 0 1.86995e-7 0 1 1.8062e-7 0 1 -1 0 1.23854e-7 -1 0 1.23854e-7 0 0 -1 0 0 -1 0 -1 0 0 -1 0 0 -1 0 0 -1 0 0 1 0 0 1 0 0 1 0 0 1 0</float_array>
          <technique_common>
            <accessor source="#Plane_009-mesh-normals-array" count="103" stride="3">
              <param name="X" type="float"/>
              <param name="Y" type="float"/>
              <param name="Z" type="float"/>
            </accessor>
          </technique_common>
        </source>
        <source id="Plane_009-mesh-map-0">
          <float_array id="Plane_009-mesh-map-0-array" count="1152">0.6004439 0.1697824 0.5949397 0.1697825 0.5944393 0.1680514 0.6132873 0.1697822 0.6041135 0.1697824 0.6041135 0.1680513 0.6242958 0.1697821 0.6169567 0.1697822 0.6169567 0.1680511 0.5944393 0.3100001 0.5949397 0.308269 0.600444 0.308269 0.6041135 0.3100001 0.6041135 0.308269 0.6132873 0.308269 0.6169569 0.3100001 0.6169569 0.308269 0.624296 0.308269 0.7079815 0.5890634 0.7467968 0.589372 0.7467787 0.6275214 0.786666 0.6089655 0.8170774 0.6091539 0.8170554 0.6490264 0.837356 0.6092289 0.8881274 0.6092023 0.8881374 0.6491395 0.8170774 0.6091539 0.8249151 0.6012459 0.8238182 0.649077 0.9083931 0.6090238 0.9489285 0.6083424 0.9489866 0.6481826 0.8340477 0.5895074 0.8657804 0.5893867 0.865793 0.6275017 0.5372145 0.4695289 0.5372145 0.4583042 0.5507338 0.4583042 0.7661811 0.5894297 0.8146635 0.5895307 0.8146599 0.6276555 0.4338452 0.7660169 0.4430385 0.7660169 0.4430385 0.7772416 0.7467968 0.589372 0.754291 0.5818393 0.7532492 0.6275448 0.6157336 0.3100001 0.6157336 0.308269 0.6169569 0.308269 0.8881274 0.6092023 0.8959597 0.6013109 0.894914 0.6491038 0.6028903 0.3100001 0.6028903 0.308269 0.6041135 0.308269 0.8340477 0.5895074 0.8265545 0.5819295 0.8265358 0.5666606 0.4576393 0.763951 0.4484461 0.763951 0.4484461 0.7527263 0.4430384 0.763951 0.4338452 0.763951 0.4338452 0.7527263 0.4484461 0.763951 0.4430384 0.763951 0.4430384 0.7527263 0.8221486 0.5819756 0.8146635 0.5895307 0.8146767 0.5666436 0.1287433 0.9969769 0.103722 0.9969769 0.103722 0.9104238 0.600444 0.3100001 0.600444 0.308269 0.6016672 0.308269 0.6016672 0.3100001 0.6016672 0.308269 0.6028903 0.308269 0.8295226 0.6012994 0.837356 0.6092289 0.8373529 0.6491395 0.8249151 0.6012459 0.8295226 0.6012994 0.8305833 0.6491192 0.02669376 0.9164993 0.05020415 0.9164993 0.05020415 0.9978358 0.82953 0.5854475 0.8373426 0.5852566 0.837356 0.6092289 0.8275949 0.6276626 0.8211266 0.627671 0.8221486 0.5819756 0.8211266 0.627671 0.8146599 0.6276555 0.8146635 0.5895307 0.8340607 0.6276385 0.8275949 0.6276626 0.8265545 0.5819295 0.8959616 0.5854375 0.8959597 0.6013109 0.8881274 0.6092023 0.7542869 0.5666882 0.754291 0.5818393 0.7467968 0.589372 0.7661809 0.5665488 0.8146767 0.5666436 0.8146635 0.5895307 0.5291028 0.4695289 0.5291028 0.4583042 0.5372145 0.4583042 0.8340342 0.5666323 0.8657734 0.5665177 0.8657804 0.5893867 0.9083459 0.5850549 0.9488939 0.5844836 0.9489285 0.6083424 0.8170927 0.5852286 0.8249343 0.5852824 0.8249151 0.6012459 0.8373426 0.5852566 0.8881437 0.5852241 0.8881274 0.6092023 0.7866786 0.58506 0.8170927 0.5852286 0.8170774 0.6091539 0.7079961 0.5661716 0.7468215 0.5664687 0.7467968 0.589372 0.7661809 0.5665488 0.7661811 0.5894297 0.75869 0.5818104 0.1551049 0.9104238 0.1551049 0.9969769 0.1300857 0.9969769 0.9083459 0.5850549 0.9083931 0.6090238 0.9005613 0.601276 0.02370595 0.9191669 0.02370595 0.9970515 0.001195192 0.9970515 0.9005613 0.601276 0.9083931 0.6090238 0.9084488 0.6488907 0.8959597 0.6013109 0.9005613 0.601276 0.9016848 0.6490209 0.6132873 0.3100001 0.6132873 0.308269 0.6145105 0.308269 0.6145105 0.3100001 0.6145105 0.308269 0.6157336 0.308269 0.75869 0.5818104 0.7661811 0.5894297 0.7661787 0.6275494 0.754291 0.5818393 0.75869 0.5818104 0.7597156 0.6275498 0.4484461 0.7660169 0.4576393 0.7660169 0.4576393 0.7772416 0.4430385 0.7660169 0.4484461 0.7660169 0.4484461 0.7772416 0.9082529 0.4464426 0.9487704 0.4619137 0.9488939 0.5844836 0.837373 0.4466918 0.8880202 0.4465925 0.8881437 0.5852241 0.7867374 0.4623998 0.8171305 0.4466235 0.8170927 0.5852286 0.766211 0.4339629 0.8146535 0.4340317 0.8146767 0.5666436 0.7080695 0.4488549 0.7468448 0.4338917 0.7468215 0.5664687 0.3867979 0.7772415 0.3867979 0.7660168 0.4338452 0.7660169 0.8340221 0.4340031 0.8657422 0.4491525 0.8657734 0.5665177 0.5046866 0.7527263 0.5046866 0.763951 0.4576393 0.763951 0.3867979 0.763951 0.3867979 0.7527263 0.4338452 0.7527263 0.5046866 0.766017 0.5046866 0.7772417 0.4576393 0.7772416 0.5046866 0.7772417 0.5046866 0.766017 0.5284806 0.7660171 0.5284806 0.7527263 0.5284806 0.763951 0.5046866 0.763951 0.766216 0.4141648 0.8146529 0.4142314 0.8146535 0.4340317 0.8373754 0.425996 0.8880109 0.4259014 0.8880202 0.4465925 0.766216 0.4141648 0.766211 0.4339629 0.7468448 0.4338917 0.7080916 0.4138083 0.7468535 0.4140889 0.7468448 0.4338917 0.9082377 0.4257552 0.9487357 0.4252962 0.9487704 0.4619137 0.9082529 0.4464426 0.8880202 0.4465925 0.8880109 0.4259014 0.8340188 0.4142009 0.8657325 0.4140996 0.8657422 0.4491525 0.7867552 0.4257645 0.8171375 0.4259276 0.8171305 0.4466235 0.6169567 0.1697822 0.6132873 0.1697822 0.6132873 0.1680511 0.8146529 0.4142314 0.8340188 0.4142009 0.8340221 0.4340031 0.8373754 0.425996 0.837373 0.4466918 0.8171305 0.4466235 0.6041135 0.1697824 0.6004439 0.1697824 0.6004439 0.1680513 0.6004439 0.1697824 0.5944393 0.1680514 0.6004439 0.1680513 0.6132873 0.1697822 0.6041135 0.1680513 0.6132873 0.1680511 0.6242958 0.1697821 0.6169567 0.1680511 0.6242958 0.168051 0.5944393 0.3100001 0.600444 0.308269 0.600444 0.3100001 0.6041135 0.3100001 0.6132873 0.308269 0.6132873 0.3100001 0.6169569 0.3100001 0.624296 0.308269 0.624296 0.3100001 0.7079815 0.5890634 0.7467787 0.6275214 0.7079565 0.6272179 0.786666 0.6089655 0.8170554 0.6490264 0.786644 0.6488093 0.837356 0.6092289 0.8881374 0.6491395 0.8373529 0.6491395 0.8170774 0.6091539 0.8238182 0.649077 0.8170554 0.6490264 0.9083931 0.6090238 0.9489866 0.6481826 0.9084488 0.6488907 0.8340477 0.5895074 0.865793 0.6275017 0.8340607 0.6276385 0.5372145 0.4695289 0.5507338 0.4583042 0.5507338 0.4695289 0.7661811 0.5894297 0.8146599 0.6276555 0.7661787 0.6275494 0.4338452 0.7660169 0.4430385 0.7772416 0.4338452 0.7772416 0.7467968 0.589372 0.7532492 0.6275448 0.7467787 0.6275214 0.6157336 0.3100001 0.6169569 0.308269 0.6169569 0.3100001 0.8881274 0.6092023 0.894914 0.6491038 0.8881374 0.6491395 0.6028903 0.3100001 0.6041135 0.308269 0.6041135 0.3100001 0.8340477 0.5895074 0.8265358 0.5666606 0.8340342 0.5666323 0.4576393 0.763951 0.4484461 0.7527263 0.4576393 0.7527263 0.4430384 0.763951 0.4338452 0.7527263 0.4430384 0.7527263 0.4484461 0.763951 0.4430384 0.7527263 0.4484461 0.7527263 0.8221486 0.5819756 0.8146767 0.5666436 0.8221466 0.5668218 0.1287433 0.9969769 0.103722 0.9104238 0.1287433 0.9104238 0.600444 0.3100001 0.6016672 0.308269 0.6016672 0.3100001 0.6016672 0.3100001 0.6028903 0.308269 0.6028903 0.3100001 0.8295226 0.6012994 0.8373529 0.6491395 0.8305833 0.6491192 0.8249151 0.6012459 0.8305833 0.6491192 0.8238182 0.649077 0.02669376 0.9164993 0.05020415 0.9978358 0.02669376 0.9978358 0.82953 0.5854475 0.837356 0.6092289 0.8295226 0.6012994 0.8275949 0.6276626 0.8221486 0.5819756 0.8265545 0.5819295 0.8211266 0.627671 0.8146635 0.5895307 0.8221486 0.5819756 0.8340607 0.6276385 0.8265545 0.5819295 0.8340477 0.5895074 0.8959616 0.5854375 0.8881274 0.6092023 0.8881437 0.5852241 0.7542869 0.5666882 0.7467968 0.589372 0.7468215 0.5664687 0.7661809 0.5665488 0.8146635 0.5895307 0.7661811 0.5894297 0.5291028 0.4695289 0.5372145 0.4583042 0.5372145 0.4695289 0.8340342 0.5666323 0.8657804 0.5893867 0.8340477 0.5895074 0.9083459 0.5850549 0.9489285 0.6083424 0.9083931 0.6090238 0.8170927 0.5852286 0.8249151 0.6012459 0.8170774 0.6091539 0.8373426 0.5852566 0.8881274 0.6092023 0.837356 0.6092289 0.7866786 0.58506 0.8170774 0.6091539 0.786666 0.6089655 0.7079961 0.5661716 0.7467968 0.589372 0.7079815 0.5890634 0.7661809 0.5665488 0.75869 0.5818104 0.7586835 0.5665501 0.1551049 0.9104238 0.1300857 0.9969769 0.1300857 0.9104238 0.9083459 0.5850549 0.9005613 0.601276 0.9005333 0.5854656 0.02370595 0.9191669 0.001195192 0.9970515 0.001195192 0.9191669 0.9005613 0.601276 0.9084488 0.6488907 0.9016848 0.6490209 0.8959597 0.6013109 0.9016848 0.6490209 0.894914 0.6491038 0.6132873 0.3100001 0.6145105 0.308269 0.6145105 0.3100001 0.6145105 0.3100001 0.6157336 0.308269 0.6157336 0.3100001 0.75869 0.5818104 0.7661787 0.6275494 0.7597156 0.6275498 0.754291 0.5818393 0.7597156 0.6275498 0.7532492 0.6275448 0.4484461 0.7660169 0.4576393 0.7772416 0.4484461 0.7772416 0.4430385 0.7660169 0.4484461 0.7772416 0.4430385 0.7772416 0.9082529 0.4464426 0.9488939 0.5844836 0.9083459 0.5850549 0.837373 0.4466918 0.8881437 0.5852241 0.8373426 0.5852566 0.7867374 0.4623998 0.8170927 0.5852286 0.7866786 0.58506 0.766211 0.4339629 0.8146767 0.5666436 0.7661809 0.5665488 0.7080695 0.4488549 0.7468215 0.5664687 0.7079961 0.5661716 0.3867979 0.7772415 0.4338452 0.7660169 0.4338452 0.7772416 0.8340221 0.4340031 0.8657734 0.5665177 0.8340342 0.5666323 0.5046866 0.7527263 0.4576393 0.763951 0.4576393 0.7527263 0.3867979 0.763951 0.4338452 0.7527263 0.4338452 0.763951 0.5046866 0.766017 0.4576393 0.7772416 0.4576393 0.7660169 0.5046866 0.7772417 0.5284806 0.7660171 0.5284806 0.7772418 0.5284806 0.7527263 0.5046866 0.763951 0.5046866 0.7527263 0.766216 0.4141648 0.8146535 0.4340317 0.766211 0.4339629 0.8373754 0.425996 0.8880202 0.4465925 0.837373 0.4466918 0.766216 0.4141648 0.7468448 0.4338917 0.7468535 0.4140889 0.7080916 0.4138083 0.7468448 0.4338917 0.7080695 0.4488549 0.9082377 0.4257552 0.9487704 0.4619137 0.9082529 0.4464426 0.9082529 0.4464426 0.8880109 0.4259014 0.9082377 0.4257552 0.8340188 0.4142009 0.8657422 0.4491525 0.8340221 0.4340031 0.7867552 0.4257645 0.8171305 0.4466235 0.7867374 0.4623998 0.6169567 0.1697822 0.6132873 0.1680511 0.6169567 0.1680511 0.8146529 0.4142314 0.8340221 0.4340031 0.8146535 0.4340317 0.8373754 0.425996 0.8171305 0.4466235 0.8171375 0.4259276 0.6041135 0.1697824 0.6004439 0.1680513 0.6041135 0.1680513 0.5291028 0.4695289 0.4874632 0.4695289 0.5291028 0.4583042 0.4874632 0.4583042 0.5291028 0.4583042 0.4874632 0.4695289 0.4874632 0.4695289 0.4750255 0.4695289 0.4874632 0.4583042 0.4750255 0.4583042 0.4874632 0.4583042 0.4750255 0.4695289 0.7084682 0.4252676 0.7867374 0.4623998 0.7084487 0.4619094 0.7867374 0.4623998 0.7084682 0.4252676 0.7867552 0.4257645 0.7083801 0.5845767 0.7084487 0.4619094 0.7866786 0.58506 0.7867374 0.4623998 0.7866786 0.58506 0.7084487 0.4619094 0.8657422 0.4491525 0.9433283 0.566236 0.8657734 0.5665177 0.9432899 0.4488661 0.9433283 0.566236 0.8657422 0.4491525 0.8657325 0.4140996 0.9432899 0.4488661 0.8657422 0.4491525 0.9432899 0.4488661 0.8657325 0.4140996 0.943279 0.4138083 0.5949397 0.2592217 0.5949397 0.308269 0.5944393 0.2592217 0.5944393 0.3100001 0.5944393 0.2592217 0.5949397 0.308269 0.4874632 0.4562384 0.4750255 0.4562384 0.4750255 0.4450137 0.4874632 0.4450137 0.4874632 0.4562384 0.4750255 0.4450137 0.5291029 0.4562383 0.4874632 0.4562384 0.4874632 0.4450137 0.4874632 0.4450137 0.5291029 0.4450136 0.5291029 0.4562383 0.5291029 0.4562383 0.5291029 0.4450136 0.5372145 0.4562383 0.5372145 0.4450136 0.5372145 0.4562383 0.5291029 0.4450136 0.5507338 0.4562383 0.5372145 0.4562383 0.5372145 0.4450136 0.5507338 0.4450136 0.5507338 0.4562383 0.5372145 0.4450136 0.5949397 0.2188298 0.5944393 0.2188298 0.5949397 0.1697825 0.5944393 0.1680514 0.5949397 0.1697825 0.5944393 0.2188298 0.786666 0.6089655 0.7083801 0.5845767 0.7866786 0.58506 0.7083801 0.5845767 0.786666 0.6089655 0.7083674 0.6084766 0.786666 0.6089655 0.786644 0.6488093 0.7083674 0.6084766 0.7083674 0.6084766 0.786644 0.6488093 0.7083462 0.6483103 0.9433283 0.566236 0.9433353 0.5891023 0.8657734 0.5665177 0.8657734 0.5665177 0.9433353 0.5891023 0.8657804 0.5893867 0.9433353 0.5891023 0.9433472 0.6272127 0.8657804 0.5893867 0.8657804 0.5893867 0.9433472 0.6272127 0.865793 0.6275017</float_array>
          <technique_common>
            <accessor source="#Plane_009-mesh-map-0-array" count="576" stride="2">
              <param name="S" type="float"/>
              <param name="T" type="float"/>
            </accessor>
          </technique_common>
        </source>
        <vertices id="Plane_009-mesh-vertices">
          <input semantic="POSITION" source="#Plane_009-mesh-positions"/>
        </vertices>
        <triangles material="Material_001-material" count="192">
          <input semantic="VERTEX" source="#Plane_009-mesh-vertices" offset="0"/>
          <input semantic="NORMAL" source="#Plane_009-mesh-normals" offset="1"/>
          <input semantic="TEXCOORD" source="#Plane_009-mesh-map-0" offset="2" set="0"/>
          <p>2 0 0 0 0 1 1 0 2 6 1 3 4 1 4 5 1 5 10 2 6 8 2 7 9 2 8 13 3 9 12 3 10 14 3 11 17 3 12 16 3 13 18 3 14 21 3 15 20 3 16 22 3 17 44 4 18 54 4 19 21 4 20 45 5 21 53 5 22 14 5 23 46 6 24 51 6 25 18 6 26 53 7 27 59 7 28 39 7 29 48 8 30 55 8 31 22 8 32 50 9 33 49 9 34 13 9 35 55 10 36 44 10 37 23 10 38 52 11 39 47 11 40 17 11 41 34 12 42 60 12 43 67 12 44 54 11 45 70 11 46 65 11 47 65 3 48 62 3 49 20 3 50 51 13 51 68 13 52 63 13 53 41 3 54 38 3 55 16 3 56 50 11 57 57 11 58 43 11 59 31 14 60 43 14 61 37 14 62 42 15 63 26 15 64 24 15 65 43 16 66 42 16 67 36 16 68 56 17 69 47 17 70 26 17 71 57 11 72 56 11 73 42 11 74 15 3 75 14 3 76 39 3 77 40 3 78 39 3 79 38 3 80 58 18 81 46 18 82 16 18 83 59 19 84 58 19 85 38 19 86 37 20 87 36 20 88 58 20 89 36 20 90 24 20 91 46 20 92 40 11 93 41 11 94 56 11 95 41 11 96 17 11 97 47 11 98 15 11 99 40 11 100 57 11 101 61 21 102 68 21 103 51 21 104 67 11 105 70 11 106 54 11 107 27 11 108 26 11 109 47 11 110 35 10 111 32 10 112 44 10 113 31 22 114 30 22 115 49 22 116 34 23 117 35 23 118 55 23 119 29 20 120 37 20 121 59 20 122 24 24 123 25 24 124 51 24 125 28 25 126 29 25 127 53 25 128 32 26 129 33 26 130 54 26 131 27 11 132 52 11 133 71 11 134 66 11 135 71 11 136 70 11 137 34 27 138 48 27 139 69 27 140 60 20 141 69 20 142 68 20 143 69 28 144 48 28 145 20 28 146 68 29 147 69 29 148 62 29 149 19 3 150 18 3 151 63 3 152 64 3 153 63 3 154 62 3 155 71 30 156 52 30 157 19 30 158 70 11 159 71 11 160 64 11 161 61 12 162 25 12 163 27 12 164 60 12 165 61 12 166 66 12 167 77 31 168 76 31 169 35 31 170 73 32 171 72 32 172 25 32 173 81 33 174 80 33 175 29 33 176 75 34 177 74 34 178 26 34 179 79 35 180 78 35 181 33 35 182 78 36 183 77 36 184 34 36 185 83 37 186 82 37 187 30 37 188 80 38 189 83 38 190 31 38 191 74 39 192 73 39 193 24 39 194 72 40 195 75 40 196 27 40 197 75 3 198 72 3 199 77 3 200 73 3 201 74 3 202 83 3 203 7 41 204 5 41 205 74 41 206 4 20 207 6 20 208 72 20 209 7 11 210 75 11 211 78 11 212 11 11 213 9 11 214 78 11 215 8 42 216 10 42 217 76 42 218 77 20 219 72 20 220 6 20 221 3 11 222 1 11 223 82 11 224 0 20 225 2 20 226 80 20 227 8 43 228 6 43 229 7 43 230 5 11 231 3 11 232 83 11 233 4 20 234 73 20 235 80 20 236 4 44 237 2 44 238 3 44 239 2 45 240 1 45 241 3 45 242 6 46 243 5 46 244 7 46 245 10 47 246 9 47 247 11 47 248 13 3 249 14 3 250 15 3 251 17 3 252 18 3 253 19 3 254 21 3 255 22 3 256 23 3 257 44 11 258 21 11 259 23 11 260 45 48 261 14 48 262 12 48 263 46 28 264 18 28 265 16 28 266 53 49 267 39 49 268 14 49 269 48 28 270 22 28 271 20 28 272 50 11 273 13 11 274 15 11 275 55 10 276 23 10 277 22 10 278 52 50 279 17 50 280 19 50 281 34 12 282 67 12 283 33 12 284 54 11 285 65 11 286 21 11 287 65 3 288 20 3 289 21 3 290 51 51 291 63 51 292 18 51 293 41 52 294 16 52 295 17 52 296 50 11 297 43 11 298 31 11 299 31 12 300 37 12 301 29 12 302 42 12 303 24 12 304 36 12 305 43 12 306 36 12 307 37 12 308 56 11 309 26 11 310 42 11 311 57 11 312 42 11 313 43 11 314 15 53 315 39 53 316 40 53 317 40 3 318 38 3 319 41 3 320 58 54 321 16 54 322 38 54 323 59 55 324 38 55 325 39 55 326 37 56 327 58 56 328 59 56 329 36 57 330 46 57 331 58 57 332 40 11 333 56 11 334 57 11 335 41 58 336 47 58 337 56 58 338 15 59 339 57 59 340 50 59 341 61 20 342 51 20 343 25 20 344 67 11 345 54 11 346 33 11 347 27 60 348 47 60 349 52 60 350 35 10 351 44 10 352 55 10 353 31 11 354 49 11 355 50 11 356 34 61 357 55 61 358 48 61 359 29 20 360 59 20 361 53 20 362 24 20 363 51 20 364 46 20 365 28 20 366 53 20 367 45 20 368 32 11 369 54 11 370 44 11 371 27 11 372 71 11 373 66 11 374 66 11 375 70 11 376 67 11 377 34 20 378 69 20 379 60 20 380 60 20 381 68 20 382 61 20 383 69 62 384 20 62 385 62 62 386 68 63 387 62 63 388 63 63 389 19 3 390 63 3 391 64 3 392 64 3 393 62 3 394 65 3 395 71 11 396 19 11 397 64 11 398 70 11 399 64 11 400 65 11 401 61 12 402 27 12 403 66 12 404 60 12 405 66 12 406 67 12 407 77 64 408 35 64 409 34 64 410 73 65 411 25 65 412 24 65 413 81 66 414 29 66 415 28 66 416 75 67 417 26 67 418 27 67 419 79 68 420 33 68 421 32 68 422 78 69 423 34 69 424 33 69 425 83 70 426 30 70 427 31 70 428 80 10 429 31 10 430 29 10 431 74 71 432 24 71 433 26 71 434 72 10 435 27 10 436 25 10 437 75 3 438 77 3 439 78 3 440 73 3 441 83 3 442 80 3 443 7 11 444 74 11 445 75 11 446 4 72 447 72 72 448 73 72 449 7 11 450 78 11 451 9 11 452 11 11 453 78 11 454 79 11 455 8 73 456 76 73 457 77 73 458 77 20 459 6 20 460 8 20 461 3 74 462 82 74 463 83 74 464 0 75 465 80 75 466 81 75 467 8 76 468 7 76 469 9 76 470 5 11 471 83 11 472 74 11 473 4 77 474 80 77 475 2 77 476 4 78 477 3 78 478 5 78 479 35 79 480 76 79 481 32 79 482 79 80 483 32 80 484 76 80 485 76 10 486 10 10 487 79 10 488 11 10 489 79 10 490 10 10 491 84 81 492 81 81 493 88 81 494 81 82 495 84 82 496 0 82 497 86 83 498 88 83 499 28 83 500 81 84 501 28 84 502 88 84 503 82 85 504 91 85 505 30 85 506 93 86 507 91 86 508 82 86 509 1 87 510 93 87 511 82 87 512 93 88 513 1 88 514 89 88 515 85 89 516 12 89 517 90 89 518 13 90 519 90 90 520 12 90 521 93 20 522 89 20 523 84 20 524 88 20 525 93 20 526 84 20 527 91 91 528 93 91 529 88 91 530 88 92 531 86 92 532 91 92 533 91 20 534 86 20 535 92 20 536 87 20 537 92 20 538 86 20 539 90 20 540 92 20 541 87 20 542 85 20 543 90 20 544 87 20 545 84 93 546 89 93 547 0 93 548 1 94 549 0 94 550 89 94 551 45 95 552 86 95 553 28 95 554 86 96 555 45 96 556 87 96 557 45 97 558 12 97 559 87 97 560 87 98 561 12 98 562 85 98 563 91 99 564 92 99 565 30 99 566 30 100 567 92 100 568 49 100 569 92 101 570 90 101 571 49 101 572 49 102 573 90 102 574 13 102 575</p>
        </triangles>
      </mesh>
    </geometry>
  </library_geometries>
  <library_visual_scenes>
    <visual_scene id="Scene" name="Scene">
      <node id="Plane_005" name="Plane.005" type="NODE">
        <matrix sid="transform">1 0 0 0 0 1 0 0 0 0 1 0 0 0 0 1</matrix>
        <instance_geometry url="#Plane_009-mesh" name="Plane.005">
          <bind_material>
            <technique_common>
              <instance_material symbol="Material_001-material" target="#Material_001-material">
                <bind_vertex_input semantic="Plane_009-mesh-map-0" input_semantic="TEXCOORD" input_set="0"/>
              </instance_material>
            </technique_common>
          </bind_material>
        </instance_geometry>
      </node>
    </visual_scene>
  </library_visual_scenes>
  <scene>
    <instance_visual_scene url="#Scene"/>
  </scene>
</COLLADA>