<?xml version="1.0" encoding="utf-8"?>
<COLLADA xmlns="http://www.collada.org/2005/11/COLLADASchema" version="1.4.1" xmlns:xsi="http://www.w3.org/2001/XMLSchema-instance">
  <asset>
    <contributor>
      <author>Blender User</author>
      <authoring_tool>Blender 4.5.2 LTS commit date:2025-08-19, commit time:15:00, hash:ab25eae04993</authoring_tool>
    </contributor>
    <created>2025-09-06T15:54:36</created>
    <modified>2025-09-06T15:54:36</modified>
    <unit name="meter" meter="1"/>
    <up_axis>Z_UP</up_axis>
  </asset>
  <library_effects>
    <effect id="Material_001-effect">
      <profile_COMMON>
        <newparam sid="textures_second1_png-surface">
          <surface type="2D">
            <init_from>textures_second1_png</init_from>
          </surface>
        </newparam>
        <newparam sid="textures_second1_png-sampler">
          <sampler2D>
            <source>textures_second1_png-surface</source>
          </sampler2D>
        </newparam>
        <technique sid="common">
          <lambert>
            <emission>
              <color sid="emission">0 0 0 1</color>
            </emission>
            <diffuse>
              <texture texture="textures_second1_png-sampler" texcoord="Plane_005-mesh-map-0"/>
            </diffuse>
            <index_of_refraction>
              <float sid="ior">1.5</float>
            </index_of_refraction>
          </lambert>
        </technique>
      </profile_COMMON>
    </effect>
  </library_effects>
  <library_images>
    <image id="textures_second1_png" name="textures_second1_png">
      <init_from>textures_second1.png</init_from>
    </image>
  </library_images>
  <library_materials>
    <material id="Material_001-material" name="Material.001">
      <instance_effect url="#Material_001-effect"/>
    </material>
  </library_materials>
  <library_geometries>
    <geometry id="Plane_005-mesh" name="Plane.005">
      <mesh>
        <source id="Plane_005-mesh-positions">
          <float_array id="Plane_005-mesh-positions-array" count="132">-4.75 -0.5999999 0 -4.6 -0.5999999 0 -4.75 0.5000002 0 -4.6 0.5000002 0 -4.75 -1.7 0 -4.6 -1.7 0 -4.6 -2.8 0 -4.75 -2.8 0 -4.75 -0.5999999 3 -4.6 -0.5999999 3 -4.75 0.5000002 3 -4.6 0.5000002 3 -4.75 -1.7 3 -4.6 -1.7 3 -4.6 -2.8 3 -4.75 -2.8 3 -4.75 0.5000002 2 -4.6 0.5000002 2 -4.6 -0.5999999 2 -4.75 -0.5999999 2 -4.6 -2.8 2 -4.75 -2.8 2 -4.6 -1.7 2 -4.75 -1.7 2 -4.75 -0.9666666 3 -4.75 -1.333333 3 -4.75 -1.025002 2 -4.75 -1.275001 2 -4.6 -0.9666666 3 -4.6 -1.333333 3 -4.6 -1.275001 2 -4.6 -1.024998 2 -4.6 -2.8 2.375 -4.6 -1.7 2.375 -4.75 0.5000002 2.375 -4.6 -0.5999999 2.375 -4.6 0.5000002 2.375 -4.75 -0.5999999 2.375 -4.75 -2.8 2.375 -4.75 -1.7 2.375 -4.75 -1.025002 2.25 -4.75 -1.275001 2.25 -4.6 -1.275001 2.25 -4.6 -1.025002 2.25</float_array>
          <technique_common>
            <accessor source="#Plane_005-mesh-positions-array" count="44" stride="3">
              <param name="X" type="float"/>
              <param name="Y" type="float"/>
              <param name="Z" type="float"/>
            </accessor>
          </technique_common>
        </source>
        <source id="Plane_005-mesh-normals">
          <float_array id="Plane_005-mesh-normals-array" count="30">0 0 -1 0 0 1 0 -1 0 1 0 0 0 1 0 -1 0 0 1 -1.12196e-6 0 1 7.47982e-7 0 1 -1.53099e-6 0 1 1.79514e-6 0</float_array>
          <technique_common>
            <accessor source="#Plane_005-mesh-normals-array" count="10" stride="3">
              <param name="X" type="float"/>
              <param name="Y" type="float"/>
              <param name="Z" type="float"/>
            </accessor>
          </technique_common>
        </source>
        <source id="Plane_005-mesh-map-0">
          <float_array id="Plane_005-mesh-map-0-array" count="504">0.376843 0.01838898 0.3818765 0.1460862 0.376843 0.1460862 0.3818767 0.8658344 0.3768432 0.738137 0.3818767 0.738137 0.4188615 0.03594028 0.381949 0.01852709 0.4188615 0.01852703 0.4557739 0.01852703 0.4926865 0.03594022 0.4557739 0.03594028 0.5136594 0.03594022 0.4926865 0.01852703 0.5136594 0.01852703 0.892783 0.4435209 0.8577418 0.5123978 0.8577418 0.4435209 0.4616464 0.7336345 0.4826194 0.7510478 0.4616464 0.7510478 0.3818766 0.5059604 0.3768431 0.4566229 0.3818766 0.4566229 0.9612813 0.4385771 0.9262402 0.507454 0.9262402 0.4385771 0.9142855 0.4021947 0.9278241 0.443521 0.9142854 0.4297455 0.9628652 0.443521 0.9278241 0.5123978 0.9278241 0.443521 0.8911991 0.4385771 0.856158 0.5074539 0.856158 0.4385771 0.4434698 0.01852703 0.4557739 0.03594028 0.4434698 0.03594028 0.9262402 0.4385771 0.9145597 0.507454 0.9127016 0.4248017 0.9047378 0.4248017 0.8911991 0.507454 0.8911991 0.4385771 0.9127016 0.4248017 0.9028795 0.507454 0.9047378 0.4248017 0.4188615 0.01852703 0.4311656 0.03594028 0.4188615 0.03594028 0.4311656 0.01852703 0.4434698 0.03594028 0.4311656 0.03594028 0.892783 0.4021947 0.9063215 0.4297455 0.892783 0.4435209 0.02802062 0.9163599 0.05020409 0.9948472 0.02802062 0.9948472 0.3818766 0.4276005 0.3768431 0.3782631 0.3818766 0.3782631 0.3818766 0.4566229 0.3768431 0.4276009 0.3818766 0.4276005 0.9063215 0.4297455 0.9161437 0.5123978 0.9044634 0.5123978 0.892783 0.4435209 0.9044634 0.5123978 0.892783 0.5123978 0.1538594 0.9166538 0.1316758 0.9951411 0.1316758 0.9166538 0.9047378 0.397251 0.8911991 0.4385771 0.8911991 0.397251 0.9262402 0.397251 0.9127016 0.4248017 0.9127016 0.397251 0.8911991 0.397251 0.856158 0.4385771 0.856158 0.3972508 0.9628652 0.4021947 0.9278241 0.443521 0.9278241 0.4021947 0.9142854 0.4297455 0.9278241 0.5123978 0.9161437 0.5123978 0.9612813 0.397251 0.9262402 0.4385771 0.9262402 0.397251 0.4490626 0.7336345 0.4616464 0.7510478 0.4490626 0.7510478 0.892783 0.4021947 0.8577418 0.4435209 0.8577418 0.4021947 0.5262433 0.03594022 0.5136594 0.01852703 0.5262433 0.01852703 0.381949 0.7510479 0.4490626 0.7336345 0.4490626 0.7510478 0.376843 0.01838898 0.3818765 0.01838898 0.3818765 0.1460862 0.3818767 0.8658344 0.3768432 0.8658344 0.3768432 0.738137 0.4188615 0.03594028 0.381949 0.03594034 0.381949 0.01852709 0.4557739 0.01852703 0.4926865 0.01852703 0.4926865 0.03594022 0.5136594 0.03594022 0.4926865 0.03594022 0.4926865 0.01852703 0.892783 0.4435209 0.892783 0.5123978 0.8577418 0.5123978 0.4616464 0.7336345 0.4826194 0.7336346 0.4826194 0.7510478 0.3818766 0.5059604 0.3768431 0.5059604 0.3768431 0.4566229 0.9612813 0.4385771 0.9612813 0.507454 0.9262402 0.507454 0.9142855 0.4021947 0.9278241 0.4021947 0.9278241 0.443521 0.9628652 0.443521 0.9628652 0.5123978 0.9278241 0.5123978 0.8911991 0.4385771 0.8911991 0.507454 0.856158 0.5074539 0.4434698 0.01852703 0.4557739 0.01852703 0.4557739 0.03594028 0.9262402 0.4385771 0.9262402 0.507454 0.9145597 0.507454 0.9047378 0.4248017 0.9028795 0.507454 0.8911991 0.507454 0.9127016 0.4248017 0.9145597 0.507454 0.9028795 0.507454 0.4188615 0.01852703 0.4311656 0.01852703 0.4311656 0.03594028 0.4311656 0.01852703 0.4434698 0.01852703 0.4434698 0.03594028 0.892783 0.4021947 0.9063215 0.4021947 0.9063215 0.4297455 0.02802062 0.9163599 0.05020409 0.9163599 0.05020409 0.9948472 0.3818766 0.4276005 0.3768431 0.4276009 0.3768431 0.3782631 0.3818766 0.4566229 0.3768431 0.4566229 0.3768431 0.4276009 0.9063215 0.4297455 0.9142854 0.4297455 0.9161437 0.5123978 0.892783 0.4435209 0.9063215 0.4297455 0.9044634 0.5123978 0.1538594 0.9166538 0.1538594 0.9951411 0.1316758 0.9951411 0.9047378 0.397251 0.9047378 0.4248017 0.8911991 0.4385771 0.9262402 0.397251 0.9262402 0.4385771 0.9127016 0.4248017 0.8911991 0.397251 0.8911991 0.4385771 0.856158 0.4385771 0.9628652 0.4021947 0.9628652 0.443521 0.9278241 0.443521 0.9142854 0.4297455 0.9278241 0.443521 0.9278241 0.5123978 0.9612813 0.397251 0.9612813 0.4385771 0.9262402 0.4385771 0.4490626 0.7336345 0.4616464 0.7336345 0.4616464 0.7510478 0.892783 0.4021947 0.892783 0.4435209 0.8577418 0.4435209 0.5262433 0.03594022 0.5136594 0.03594022 0.5136594 0.01852703 0.8911991 0.397251 0.856158 0.1768448 0.8911991 0.1768448 0.9278241 0.4021947 0.9628652 0.1817887 0.9628652 0.4021947 0.3818765 0.1460862 0.3768431 0.3782631 0.376843 0.1460862 0.9262402 0.397251 0.9612813 0.1768448 0.9612813 0.397251 0.3768431 0.5059604 0.3818767 0.738137 0.3768432 0.738137 0.892783 0.4021947 0.8577418 0.1817886 0.892783 0.1817886 0.5933568 0.01852691 0.5262433 0.03594022 0.5262433 0.01852703 0.381949 0.7510479 0.381949 0.7336346 0.4490626 0.7336345 0.8911991 0.397251 0.856158 0.3972508 0.856158 0.1768448 0.9278241 0.4021947 0.9278241 0.1817887 0.9628652 0.1817887 0.3818765 0.1460862 0.3818766 0.3782631 0.3768431 0.3782631 0.9262402 0.397251 0.9262402 0.1768448 0.9612813 0.1768448 0.3768431 0.5059604 0.3818766 0.5059604 0.3818767 0.738137 0.892783 0.4021947 0.8577418 0.4021947 0.8577418 0.1817886 0.5933568 0.01852691 0.5933568 0.03594022 0.5262433 0.03594022</float_array>
          <technique_common>
            <accessor source="#Plane_005-mesh-map-0-array" count="252" stride="2">
              <param name="S" type="float"/>
              <param name="T" type="float"/>
            </accessor>
          </technique_common>
        </source>
        <vertices id="Plane_005-mesh-vertices">
          <input semantic="POSITION" source="#Plane_005-mesh-positions"/>
        </vertices>
        <triangles material="Material_001-material" count="84">
          <input semantic="VERTEX" source="#Plane_005-mesh-vertices" offset="0"/>
          <input semantic="NORMAL" source="#Plane_005-mesh-normals" offset="1"/>
          <input semantic="TEXCOORD" source="#Plane_005-mesh-map-0" offset="2" set="0"/>
          <p>2 0 0 1 0 1 0 0 2 6 0 3 4 0 4 5 0 5 9 1 6 10 1 7 8 1 8 12 1 9 14 1 10 13 1 11 32 2 12 15 2 13 38 2 14 33 3 15 14 3 16 32 3 17 34 4 18 11 4 19 36 4 20 22 0 21 27 0 22 30 0 23 38 5 24 12 5 25 39 5 26 31 6 27 35 6 28 43 6 29 36 3 30 9 3 31 35 3 32 37 5 33 10 5 34 34 5 35 25 1 36 13 1 37 29 1 38 39 5 39 25 5 40 41 5 41 40 5 42 8 5 43 37 5 44 41 5 45 24 5 46 40 5 47 8 1 48 28 1 49 9 1 50 24 1 51 29 1 52 28 1 53 22 7 54 42 7 55 33 7 56 30 3 57 43 3 58 42 3 59 31 0 60 19 0 61 18 0 62 30 0 63 26 0 64 31 0 65 42 3 66 28 3 67 29 3 68 33 3 69 29 3 70 13 3 71 27 5 72 40 5 73 26 5 74 26 5 75 37 5 76 19 5 77 23 5 78 41 5 79 27 5 80 19 5 81 34 5 82 16 5 83 17 3 84 35 3 85 18 3 86 43 3 87 9 3 88 28 3 89 21 5 90 39 5 91 23 5 92 16 4 93 36 4 94 17 4 95 22 3 96 32 3 97 20 3 98 20 2 99 38 2 100 21 2 101 3 4 102 16 4 103 17 4 104 2 0 105 3 0 106 1 0 107 6 0 108 7 0 109 4 0 110 9 1 111 11 1 112 10 1 113 12 1 114 15 1 115 14 1 116 32 2 117 14 2 118 15 2 119 33 3 120 13 3 121 14 3 122 34 4 123 10 4 124 11 4 125 22 0 126 23 0 127 27 0 128 38 5 129 15 5 130 12 5 131 31 3 132 18 3 133 35 3 134 36 3 135 11 3 136 9 3 137 37 5 138 8 5 139 10 5 140 25 1 141 12 1 142 13 1 143 39 5 144 12 5 145 25 5 146 40 5 147 24 5 148 8 5 149 41 5 150 25 5 151 24 5 152 8 1 153 24 1 154 28 1 155 24 1 156 25 1 157 29 1 158 22 3 159 30 3 160 42 3 161 30 3 162 31 3 163 43 3 164 31 0 165 26 0 166 19 0 167 30 0 168 27 0 169 26 0 170 42 3 171 43 3 172 28 3 173 33 8 174 42 8 175 29 8 176 27 5 177 41 5 178 40 5 179 26 5 180 40 5 181 37 5 182 23 5 183 39 5 184 41 5 185 19 5 186 37 5 187 34 5 188 17 3 189 36 3 190 35 3 191 43 9 192 35 9 193 9 9 194 21 5 195 38 5 196 39 5 197 16 4 198 34 4 199 36 4 200 22 3 201 33 3 202 32 3 203 20 2 204 32 2 205 38 2 206 19 5 207 2 5 208 0 5 209 18 3 210 3 3 211 17 3 212 1 2 213 19 2 214 0 2 215 23 5 216 7 5 217 21 5 218 23 4 219 5 4 220 4 4 221 22 3 222 6 3 223 5 3 224 7 2 225 20 2 226 21 2 227 3 4 228 2 4 229 16 4 230 19 5 231 16 5 232 2 5 233 18 3 234 1 3 235 3 3 236 1 2 237 18 2 238 19 2 239 23 5 240 4 5 241 7 5 242 23 4 243 22 4 244 5 4 245 22 3 246 20 3 247 6 3 248 7 2 249 6 2 250 20 2 251</p>
        </triangles>
      </mesh>
    </geometry>
  </library_geometries>
  <library_visual_scenes>
    <visual_scene id="Scene" name="Scene">
      <node id="Plane_001" name="Plane.001" type="NODE">
        <matrix sid="transform">1 0 0 0 0 1 0 0 0 0 1 0 0 0 0 1</matrix>
        <instance_geometry url="#Plane_005-mesh" name="Plane.001">
          <bind_material>
            <technique_common>
              <instance_material symbol="Material_001-material" target="#Material_001-material">
                <bind_vertex_input semantic="Plane_005-mesh-map-0" input_semantic="TEXCOORD" input_set="0"/>
              </instance_material>
            </technique_common>
          </bind_material>
        </instance_geometry>
      </node>
    </visual_scene>
  </library_visual_scenes>
  <scene>
    <instance_visual_scene url="#Scene"/>
  </scene>
</COLLADA>