<?xml version="1.0" encoding="utf-8"?>
<COLLADA xmlns="http://www.collada.org/2005/11/COLLADASchema" version="1.4.1" xmlns:xsi="http://www.w3.org/2001/XMLSchema-instance">
  <asset>
    <contributor>
      <author>Blender User</author>
      <authoring_tool>Blender 4.5.2 LTS commit date:2025-08-19, commit time:15:00, hash:ab25eae04993</authoring_tool>
    </contributor>
    <created>2025-09-04T18:46:15</created>
    <modified>2025-09-04T18:46:15</modified>
    <unit name="meter" meter="1"/>
    <up_axis>Z_UP</up_axis>
  </asset>
  <library_effects>
    <effect id="Material_001-effect">
      <profile_COMMON>
        <newparam sid="textures_second1_png-surface">
          <surface type="2D">
            <init_from>textures_second1_png</init_from>
          </surface>
        </newparam>
        <newparam sid="textures_second1_png-sampler">
          <sampler2D>
            <source>textures_second1_png-surface</source>
          </sampler2D>
        </newparam>
        <technique sid="common">
          <lambert>
            <emission>
              <color sid="emission">0 0 0 1</color>
            </emission>
            <diffuse>
              <texture texture="textures_second1_png-sampler" texcoord="Plane_004-mesh-map-0"/>
            </diffuse>
            <index_of_refraction>
              <float sid="ior">1.5</float>
            </index_of_refraction>
          </lambert>
        </technique>
      </profile_COMMON>
    </effect>
  </library_effects>
  <library_images>
    <image id="textures_second1_png" name="textures_second1_png">
      <init_from>textures_second1.png</init_from>
    </image>
  </library_images>
  <library_materials>
    <material id="Material_001-material" name="Material.001">
      <instance_effect url="#Material_001-effect"/>
    </material>
  </library_materials>
  <library_geometries>
    <geometry id="Plane_004-mesh" name="Plane.004">
      <mesh>
        <source id="Plane_004-mesh-positions">
          <float_array id="Plane_004-mesh-positions-array" count="156">2.35 0.05000013 0 2.5 0.05000013 0 2.35 1.15 0 2.5 1.15 0 2.35 -1.05 0 2.5 -1.05 0 2.5 -2.65 0 2.35 -2.65 0 2.35 0.05000013 3 2.5 0.05000013 3 2.35 1.15 3 2.5 1.15 3 2.35 -1.05 3 2.5 -1.05 3 2.5 -2.65 3 2.35 -2.65 3 2.5 -1.05 2 2.5 -2.65 2 2.35 -2.65 2 2.35 -1.05 2 2.35 1.15 2 2.5 1.15 2 2.5 0.05000013 2 2.35 0.05000013 2 2.35 -0.6833332 3 2.35 -0.3166666 3 2.35 -0.6249998 2 2.35 -0.3750001 2 2.5 -0.3166666 3 2.5 -0.6833333 3 2.5 -0.6249998 2 2.5 -0.3750001 2 2.5 -1.05 2.375 2.35 1.15 2.375 2.5 0.05000013 2.375 2.35 -2.65 2.375 2.5 -2.65 2.375 2.35 -1.05 2.375 2.5 1.15 2.375 2.35 0.05000013 2.375 2.35 -0.6249998 2.25 2.35 -0.3750001 2.25 2.5 -0.6249998 2.25 2.5 -0.3750001 2.25 2.5 -2.65 0.4 2.5 -1.05 0.15 2.35 -2.65 0.4 2.35 -1.05 0.15 2.35 1.15 0.4 2.35 0.05000013 0.15 2.5 1.15 0.4 2.5 0.05000013 0.15</float_array>
          <technique_common>
            <accessor source="#Plane_004-mesh-positions-array" count="52" stride="3">
              <param name="X" type="float"/>
              <param name="Y" type="float"/>
              <param name="Z" type="float"/>
            </accessor>
          </technique_common>
        </source>
        <source id="Plane_004-mesh-normals">
          <float_array id="Plane_004-mesh-normals-array" count="33">0 0 -1 0 0 1 1 0 0 0 1 0 -1 0 0 0 -1 0 -1 3.82745e-7 0 -1 -4.48788e-7 0 4.33488e-6 0 1 -1 2.7093e-7 0 -4.33488e-6 0 1</float_array>
          <technique_common>
            <accessor source="#Plane_004-mesh-normals-array" count="11" stride="3">
              <param name="X" type="float"/>
              <param name="Y" type="float"/>
              <param name="Z" type="float"/>
            </accessor>
          </technique_common>
        </source>
        <source id="Plane_004-mesh-map-0">
          <float_array id="Plane_004-mesh-map-0-array" count="624">0.4613358 0.1375936 0.456603 0.01758819 0.4613358 0.01758819 0.5125683 0.01901596 0.4620848 0.03538042 0.4620848 0.01901602 0.4566031 0.5848865 0.4613358 0.4648811 0.4613358 0.5848865 0.4613358 0.7048919 0.4566031 0.8794451 0.4566031 0.7048919 0.7382937 0.4404966 0.7813473 0.3824252 0.781335 0.440593 0.4613358 0.3966962 0.4566031 0.4648811 0.4566031 0.3966962 0.44648 0.4690278 0.4530442 0.5245081 0.44648 0.5245081 0.7814002 0.3218857 0.7383834 0.3804804 0.7383506 0.322267 0.7201408 0.4751186 0.7087212 0.4405028 0.7201449 0.4520132 0.6791216 0.4406878 0.7087008 0.3823089 0.7087212 0.4405028 0.708769 0.3222163 0.6790919 0.3801802 0.679144 0.3219143 0.5875049 0.01901602 0.607225 0.03538048 0.5875049 0.03538042 0.4566031 0.6648901 0.4613358 0.7048919 0.4566031 0.7048919 0.7186178 0.3805556 0.708769 0.3222163 0.7202056 0.3108124 0.7383834 0.3804804 0.7269194 0.3108406 0.7383506 0.322267 0.7285017 0.3805556 0.7202056 0.3108124 0.7269194 0.3108406 0.4566031 0.5848865 0.4613358 0.6248883 0.4566031 0.6248883 0.4566031 0.6248883 0.4613358 0.6648901 0.4566031 0.6648901 0.73828 0.475411 0.7268629 0.4520694 0.7382937 0.4404966 0.07912743 0.9170571 0.1012373 0.9952836 0.07912743 0.9952838 0.44648 0.5799882 0.4530442 0.6354684 0.44648 0.6354684 0.44648 0.5245081 0.4530442 0.5799883 0.44648 0.5799882 0.7268629 0.4520694 0.7185719 0.3822864 0.7284384 0.3822963 0.7382937 0.4404966 0.7284384 0.3822963 0.7383047 0.3823183 0.0756452 0.9947154 0.05353528 0.9164887 0.0756452 0.9164888 0.7383506 0.322267 0.7269123 0.2877598 0.7383077 0.2872779 0.7202056 0.3108124 0.7088185 0.2872123 0.7202379 0.287647 0.5756728 0.01901602 0.5875049 0.03538042 0.5756728 0.03538042 0.7088185 0.2872123 0.679144 0.3219143 0.6791723 0.2869987 0.6791399 0.4756033 0.7087212 0.4405028 0.7087531 0.4754368 0.7201449 0.4520132 0.7087008 0.3823089 0.7185719 0.3822864 0.7813702 0.2869802 0.7383506 0.322267 0.7383077 0.2872779 0.4613358 0.3557853 0.4566031 0.3966962 0.4566031 0.3557853 0.73828 0.475411 0.781335 0.440593 0.7813285 0.4754924 0.7088479 0.115134 0.6791723 0.2869987 0.6792701 0.1381822 0.4613358 0.1812319 0.4566031 0.3557853 0.4566031 0.1812319 0.6791826 0.6243551 0.7087531 0.4754368 0.7087396 0.6475192 0.4530442 0.2269324 0.44648 0.4690278 0.44648 0.2269324 0.7382853 0.6475176 0.7813285 0.4754924 0.7813018 0.6243281 0.5251892 0.01901596 0.5756728 0.03538042 0.5251892 0.03538042 0.7813196 0.1384239 0.7383077 0.2872779 0.7383702 0.1152221 0.5192403 0.06049174 0.5126761 0.3025872 0.5126761 0.06049174 0.7813187 0.1012833 0.7383702 0.1152221 0.738372 0.1012943 0.5125683 0.01901596 0.5251892 0.03538042 0.5125683 0.03538042 0.738285 0.661461 0.7813018 0.6243281 0.7812969 0.6615278 0.6791902 0.6615278 0.7087396 0.6475192 0.7087408 0.6614589 0.4613358 0.1375936 0.4566031 0.1812319 0.4566031 0.1375936 0.7088533 0.1011986 0.6792701 0.1381822 0.6792916 0.100994 0.7088479 0.115134 0.738372 0.1012943 0.7383702 0.1152221 0.4530442 0.06049168 0.44648 0.2269324 0.44648 0.06049168 0.738285 0.661461 0.7087396 0.6475192 0.7382853 0.6475176 0.817463 0.3182823 0.7871393 0.3325949 0.7871393 0.3182823 0.4613358 0.1375936 0.4566031 0.1375936 0.456603 0.01758819 0.5125683 0.01901596 0.5125683 0.03538042 0.4620848 0.03538042 0.4566031 0.5848865 0.4566031 0.4648811 0.4613358 0.4648811 0.4613358 0.7048919 0.4613358 0.8794451 0.4566031 0.8794451 0.7382937 0.4404966 0.7383047 0.3823183 0.7813473 0.3824252 0.4613358 0.3966962 0.4613358 0.4648811 0.4566031 0.4648811 0.44648 0.4690278 0.4530442 0.4690278 0.4530442 0.5245081 0.7814002 0.3218857 0.7814457 0.3800778 0.7383834 0.3804804 0.7201408 0.4751186 0.7087531 0.4754368 0.7087212 0.4405028 0.6791216 0.4406878 0.6790919 0.3824885 0.7087008 0.3823089 0.708769 0.3222163 0.7087299 0.3804878 0.6790919 0.3801802 0.5875049 0.01901602 0.607225 0.01901602 0.607225 0.03538048 0.4566031 0.6648901 0.4613358 0.6648901 0.4613358 0.7048919 0.7186178 0.3805556 0.7087299 0.3804878 0.708769 0.3222163 0.7383834 0.3804804 0.7285017 0.3805556 0.7269194 0.3108406 0.7285017 0.3805556 0.7186178 0.3805556 0.7202056 0.3108124 0.4566031 0.5848865 0.4613358 0.5848865 0.4613358 0.6248883 0.4566031 0.6248883 0.4613358 0.6248883 0.4613358 0.6648901 0.73828 0.475411 0.7268364 0.4753485 0.7268629 0.4520694 0.07912743 0.9170571 0.1012373 0.9170571 0.1012373 0.9952836 0.44648 0.5799882 0.4530442 0.5799883 0.4530442 0.6354684 0.44648 0.5245081 0.4530442 0.5245081 0.4530442 0.5799883 0.7268629 0.4520694 0.7201449 0.4520132 0.7185719 0.3822864 0.7382937 0.4404966 0.7268629 0.4520694 0.7284384 0.3822963 0.0756452 0.9947154 0.05353528 0.9947154 0.05353528 0.9164887 0.7383506 0.322267 0.7269194 0.3108406 0.7269123 0.2877598 0.7202056 0.3108124 0.708769 0.3222163 0.7088185 0.2872123 0.5756728 0.01901602 0.5875049 0.01901602 0.5875049 0.03538042 0.7088185 0.2872123 0.708769 0.3222163 0.679144 0.3219143 0.6791399 0.4756033 0.6791216 0.4406878 0.7087212 0.4405028 0.7201449 0.4520132 0.7087212 0.4405028 0.7087008 0.3823089 0.7813702 0.2869802 0.7814002 0.3218857 0.7383506 0.322267 0.4613358 0.3557853 0.4613358 0.3966962 0.4566031 0.3966962 0.73828 0.475411 0.7382937 0.4404966 0.781335 0.440593 0.7088479 0.115134 0.7088185 0.2872123 0.6791723 0.2869987 0.4613358 0.1812319 0.4613358 0.3557853 0.4566031 0.3557853 0.6791826 0.6243551 0.6791399 0.4756033 0.7087531 0.4754368 0.4530442 0.2269324 0.4530442 0.4690278 0.44648 0.4690278 0.7382853 0.6475176 0.73828 0.475411 0.7813285 0.4754924 0.5251892 0.01901596 0.5756728 0.01901602 0.5756728 0.03538042 0.7813196 0.1384239 0.7813702 0.2869802 0.7383077 0.2872779 0.5192403 0.06049174 0.5192403 0.3025872 0.5126761 0.3025872 0.7813187 0.1012833 0.7813196 0.1384239 0.7383702 0.1152221 0.5125683 0.01901596 0.5251892 0.01901596 0.5251892 0.03538042 0.738285 0.661461 0.7382853 0.6475176 0.7813018 0.6243281 0.6791902 0.6615278 0.6791826 0.6243551 0.7087396 0.6475192 0.4613358 0.1375936 0.4613358 0.1812319 0.4566031 0.1812319 0.7088533 0.1011986 0.7088479 0.115134 0.6792701 0.1381822 0.7088479 0.115134 0.7088533 0.1011986 0.738372 0.1012943 0.4530442 0.06049168 0.4530442 0.2269324 0.44648 0.2269324 0.738285 0.661461 0.7087408 0.6614589 0.7087396 0.6475192 0.817463 0.3182823 0.817463 0.3325949 0.7871393 0.3325949</float_array>
          <technique_common>
            <accessor source="#Plane_004-mesh-map-0-array" count="312" stride="2">
              <param name="S" type="float"/>
              <param name="T" type="float"/>
            </accessor>
          </technique_common>
        </source>
        <vertices id="Plane_004-mesh-vertices">
          <input semantic="POSITION" source="#Plane_004-mesh-positions"/>
        </vertices>
        <triangles material="Material_001-material" count="104">
          <input semantic="VERTEX" source="#Plane_004-mesh-vertices" offset="0"/>
          <input semantic="NORMAL" source="#Plane_004-mesh-normals" offset="1"/>
          <input semantic="TEXCOORD" source="#Plane_004-mesh-map-0" offset="2" set="0"/>
          <p>2 0 0 1 0 1 0 0 2 6 0 3 4 0 4 5 0 5 9 1 6 10 1 7 8 1 8 12 1 9 14 1 10 13 1 11 32 2 12 14 2 13 36 2 14 33 3 15 11 3 16 38 3 17 23 0 18 31 0 19 27 0 20 35 4 21 12 4 22 37 4 23 31 2 24 34 2 25 43 2 26 38 2 27 9 2 28 34 2 29 39 4 30 10 4 31 33 4 32 36 5 33 15 5 34 35 5 35 29 1 36 12 1 37 13 1 38 25 6 39 39 6 40 41 6 41 12 7 42 40 7 43 37 7 44 24 4 45 41 4 46 40 4 47 9 1 48 25 1 49 28 1 50 28 8 51 24 8 52 29 8 53 16 2 54 42 2 55 32 2 56 30 2 57 43 2 58 42 2 59 26 0 60 16 0 61 19 0 62 27 0 63 30 0 64 26 0 65 42 2 66 28 2 67 29 2 68 32 2 69 29 2 70 13 2 71 40 4 72 27 4 73 26 4 74 37 4 75 26 4 76 19 4 77 41 4 78 23 4 79 27 4 80 17 5 81 35 5 82 18 5 83 23 4 84 33 4 85 20 4 86 21 2 87 34 2 88 22 2 89 43 2 90 9 2 91 28 2 92 18 4 93 37 4 94 19 4 95 20 3 96 38 3 97 21 3 98 16 2 99 36 2 100 17 2 101 49 9 102 20 9 103 48 9 104 48 3 105 21 3 106 50 3 107 50 2 108 22 2 109 51 2 110 51 5 111 23 5 112 49 5 113 45 2 114 17 2 115 44 2 116 44 5 117 18 5 118 46 5 119 46 4 120 19 4 121 47 4 122 47 3 123 16 3 124 45 3 125 7 4 126 47 4 127 4 4 128 6 5 129 46 5 130 7 5 131 5 2 132 44 2 133 6 2 134 3 2 135 51 2 136 1 2 137 2 3 138 50 3 139 3 3 140 0 4 141 48 4 142 2 4 143 49 4 144 4 4 145 47 4 146 45 1 147 49 1 148 47 1 149 5 2 150 51 2 151 45 2 152 5 0 153 0 0 154 1 0 155 2 0 156 3 0 157 1 0 158 6 0 159 7 0 160 4 0 161 9 1 162 11 1 163 10 1 164 12 1 165 15 1 166 14 1 167 32 2 168 13 2 169 14 2 170 33 3 171 10 3 172 11 3 173 23 0 174 22 0 175 31 0 176 35 4 177 15 4 178 12 4 179 31 2 180 22 2 181 34 2 182 38 2 183 11 2 184 9 2 185 39 4 186 8 4 187 10 4 188 36 5 189 14 5 190 15 5 191 29 10 192 24 10 193 12 10 194 25 4 195 8 4 196 39 4 197 12 4 198 24 4 199 40 4 200 24 4 201 25 4 202 41 4 203 9 1 204 8 1 205 25 1 206 28 1 207 25 1 208 24 1 209 16 2 210 30 2 211 42 2 212 30 2 213 31 2 214 43 2 215 26 0 216 30 0 217 16 0 218 27 0 219 31 0 220 30 0 221 42 2 222 43 2 223 28 2 224 32 2 225 42 2 226 29 2 227 40 4 228 41 4 229 27 4 230 37 4 231 40 4 232 26 4 233 41 4 234 39 4 235 23 4 236 17 5 237 36 5 238 35 5 239 23 4 240 39 4 241 33 4 242 21 2 243 38 2 244 34 2 245 43 2 246 34 2 247 9 2 248 18 4 249 35 4 250 37 4 251 20 3 252 33 3 253 38 3 254 16 2 255 32 2 256 36 2 257 49 4 258 23 4 259 20 4 260 48 3 261 20 3 262 21 3 263 50 2 264 21 2 265 22 2 266 51 5 267 22 5 268 23 5 269 45 2 270 16 2 271 17 2 272 44 5 273 17 5 274 18 5 275 46 4 276 18 4 277 19 4 278 47 3 279 19 3 280 16 3 281 7 4 282 46 4 283 47 4 284 6 5 285 44 5 286 46 5 287 5 2 288 45 2 289 44 2 290 3 2 291 50 2 292 51 2 293 2 3 294 48 3 295 50 3 296 0 4 297 49 4 298 48 4 299 49 4 300 0 4 301 4 4 302 45 1 303 51 1 304 49 1 305 5 2 306 1 2 307 51 2 308 5 0 309 4 0 310 0 0 311</p>
        </triangles>
      </mesh>
    </geometry>
  </library_geometries>
  <library_visual_scenes>
    <visual_scene id="Scene" name="Scene">
      <node id="Plane" name="Plane" type="NODE">
        <matrix sid="transform">1 0 0 0 0 1 0 0 0 0 1 0 0 0 0 1</matrix>
        <instance_geometry url="#Plane_004-mesh" name="Plane">
          <bind_material>
            <technique_common>
              <instance_material symbol="Material_001-material" target="#Material_001-material">
                <bind_vertex_input semantic="Plane_004-mesh-map-0" input_semantic="TEXCOORD" input_set="0"/>
              </instance_material>
            </technique_common>
          </bind_material>
        </instance_geometry>
      </node>
    </visual_scene>
  </library_visual_scenes>
  <scene>
    <instance_visual_scene url="#Scene"/>
  </scene>
</COLLADA>