<?xml version="1.0" encoding="utf-8"?>
<COLLADA xmlns="http://www.collada.org/2005/11/COLLADASchema" version="1.4.1" xmlns:xsi="http://www.w3.org/2001/XMLSchema-instance">
  <asset>
    <contributor>
      <author>Blender User</author>
      <authoring_tool>Blender 4.5.2 LTS commit date:2025-08-19, commit time:15:00, hash:ab25eae04993</authoring_tool>
    </contributor>
    <created>2025-09-06T19:22:26</created>
    <modified>2025-09-06T19:22:26</modified>
    <unit name="meter" meter="1"/>
    <up_axis>Z_UP</up_axis>
  </asset>
  <library_effects>
    <effect id="Material_002-effect">
      <profile_COMMON>
        <newparam sid="textures_second1_png-surface">
          <surface type="2D">
            <init_from>textures_second1_png</init_from>
          </surface>
        </newparam>
        <newparam sid="textures_second1_png-sampler">
          <sampler2D>
            <source>textures_second1_png-surface</source>
          </sampler2D>
        </newparam>
        <technique sid="common">
          <lambert>
            <emission>
              <color sid="emission">0 0 0 1</color>
            </emission>
            <diffuse>
              <texture texture="textures_second1_png-sampler" texcoord="Plane_004-mesh-map-0"/>
            </diffuse>
            <index_of_refraction>
              <float sid="ior">1.5</float>
            </index_of_refraction>
          </lambert>
        </technique>
      </profile_COMMON>
    </effect>
  </library_effects>
  <library_images>
    <image id="textures_second1_png" name="textures_second1_png">
      <init_from>textures_second1.png</init_from>
    </image>
  </library_images>
  <library_materials>
    <material id="Material_002-material" name="Material.002">
      <instance_effect url="#Material_002-effect"/>
    </material>
  </library_materials>
  <library_geometries>
    <geometry id="Plane_001-mesh" name="Plane.001">
      <mesh>
        <source id="Plane_001-mesh-positions">
          <float_array id="Plane_001-mesh-positions-array" count="132">2.35 0.05000013 0 2.5 0.05000013 0 2.35 1.15 0 2.5 1.15 0 2.35 -1.05 0 2.5 -1.05 0 2.5 -2.65 0 2.35 -2.65 0 2.35 0.05000013 3 2.5 0.05000013 3 2.35 1.15 3 2.5 1.15 3 2.35 -1.05 3 2.5 -1.05 3 2.5 -2.65 3 2.35 -2.65 3 2.5 -1.05 2 2.5 -2.65 2 2.35 -2.65 2 2.35 -1.05 2 2.35 1.15 2 2.5 1.15 2 2.5 0.05000013 2 2.35 0.05000013 2 2.35 -0.6833332 3 2.35 -0.3166666 3 2.35 -0.6249998 2 2.35 -0.3750001 2 2.5 -0.3166666 3 2.5 -0.6833333 3 2.5 -0.6249998 2 2.5 -0.3750001 2 2.5 -1.05 2.375 2.35 1.15 2.375 2.5 0.05000013 2.375 2.35 -2.65 2.375 2.5 -2.65 2.375 2.35 -1.05 2.375 2.5 1.15 2.375 2.35 0.05000013 2.375 2.35 -0.6249998 2.25 2.35 -0.3750001 2.25 2.5 -0.6249998 2.25 2.5 -0.3750001 2.25</float_array>
          <technique_common>
            <accessor source="#Plane_001-mesh-positions-array" count="44" stride="3">
              <param name="X" type="float"/>
              <param name="Y" type="float"/>
              <param name="Z" type="float"/>
            </accessor>
          </technique_common>
        </source>
        <source id="Plane_001-mesh-normals">
          <float_array id="Plane_001-mesh-normals-array" count="30">0 0 -1 0 0 1 1 0 0 0 1 0 -1 0 0 0 -1 0 -1 3.82745e-7 0 -1 -4.48788e-7 0 4.33488e-6 0 1 -4.33488e-6 0 1</float_array>
          <technique_common>
            <accessor source="#Plane_001-mesh-normals-array" count="10" stride="3">
              <param name="X" type="float"/>
              <param name="Y" type="float"/>
              <param name="Z" type="float"/>
            </accessor>
          </technique_common>
        </source>
        <source id="Plane_001-mesh-map-0">
          <float_array id="Plane_001-mesh-map-0-array" count="504">0.4280155 0.1090934 0.4486953 0.09933781 0.4486953 0.1090934 0.427973 0.203316 0.425153 0.09925669 0.427973 0.09925669 0.427973 0.5740275 0.425153 0.6455683 0.425153 0.5740275 0.425153 0.5024867 0.427973 0.3984273 0.427973 0.5024867 0.8616966 0.6623284 0.8209254 0.7174247 0.8209254 0.6623284 0.425153 0.6862165 0.427973 0.6455683 0.427973 0.6862165 0.4862949 0.1090934 0.4942848 0.09933781 0.4942848 0.1090934 0.917757 0.3975571 0.8769859 0.4526534 0.8769859 0.3975571 0.878897 0.6292707 0.8897268 0.6623284 0.878897 0.6513093 0.917757 0.6623284 0.8897268 0.7174247 0.8897268 0.6623284 0.8489556 0.3975571 0.8209254 0.4526534 0.8209254 0.397557 0.427973 0.3577791 0.425153 0.3984273 0.425153 0.3577792 0.427973 0.5263336 0.425153 0.5024867 0.427973 0.5024867 0.8582989 0.4526534 0.8489556 0.3975571 0.8597854 0.3865379 0.8769859 0.4526534 0.866156 0.3865379 0.8769859 0.3975571 0.8676424 0.4526534 0.8597854 0.3865379 0.866156 0.3865379 0.427973 0.5740275 0.425153 0.5501806 0.427973 0.5501806 0.427973 0.5501806 0.425153 0.5263336 0.427973 0.5263336 0.8616966 0.6292707 0.8725266 0.6513093 0.8616966 0.6623284 0.07912743 0.9170571 0.1012373 0.9952836 0.07912743 0.9952838 0.4989847 0.1090934 0.5069746 0.09933781 0.5069746 0.1090934 0.4942848 0.1090934 0.4989847 0.09933781 0.4989847 0.1090934 0.8725266 0.6513093 0.8803835 0.7174247 0.8710401 0.7174247 0.8616966 0.6623284 0.8710401 0.7174247 0.8616966 0.7174247 0.0756452 0.9947154 0.05353528 0.9164887 0.0756452 0.9164888 0.8769859 0.3975571 0.866156 0.3644993 0.8769859 0.3644993 0.8597854 0.3865379 0.8489556 0.3644993 0.8597854 0.3644993 0.427973 0.3333902 0.425153 0.3577792 0.425153 0.3333902 0.8489556 0.3644993 0.8209254 0.397557 0.8209254 0.3644993 0.917757 0.6292707 0.8897268 0.6623284 0.8897268 0.6292707 0.878897 0.6513093 0.8897268 0.7174247 0.8803835 0.7174247 0.917757 0.3644993 0.8769859 0.3975571 0.8769859 0.3644993 0.425153 0.7106054 0.427973 0.6862165 0.427973 0.7106054 0.8616966 0.6292707 0.8209254 0.6623284 0.8209254 0.6292706 0.4486953 0.5000006 0.4486953 0.5097562 0.4280155 0.5097562 0.427973 0.203316 0.425153 0.203316 0.425153 0.09925669 0.427973 0.5740275 0.427973 0.6455683 0.425153 0.6455683 0.425153 0.5024867 0.425153 0.3984273 0.427973 0.3984273 0.8616966 0.6623284 0.8616966 0.7174247 0.8209254 0.7174247 0.425153 0.6862165 0.425153 0.6455683 0.427973 0.6455683 0.4862949 0.1090934 0.4862949 0.09933781 0.4942848 0.09933781 0.917757 0.3975571 0.917757 0.4526534 0.8769859 0.4526534 0.878897 0.6292707 0.8897268 0.6292707 0.8897268 0.6623284 0.917757 0.6623284 0.917757 0.7174247 0.8897268 0.7174247 0.8489556 0.3975571 0.8489556 0.4526534 0.8209254 0.4526534 0.427973 0.3577791 0.427973 0.3984273 0.425153 0.3984273 0.427973 0.5263336 0.425153 0.5263336 0.425153 0.5024867 0.8582989 0.4526534 0.8489556 0.4526534 0.8489556 0.3975571 0.8769859 0.4526534 0.8676424 0.4526534 0.866156 0.3865379 0.8676424 0.4526534 0.8582989 0.4526534 0.8597854 0.3865379 0.427973 0.5740275 0.425153 0.5740275 0.425153 0.5501806 0.427973 0.5501806 0.425153 0.5501806 0.425153 0.5263336 0.8616966 0.6292707 0.8725266 0.6292707 0.8725266 0.6513093 0.07912743 0.9170571 0.1012373 0.9170571 0.1012373 0.9952836 0.4989847 0.1090934 0.4989847 0.09933781 0.5069746 0.09933781 0.4942848 0.1090934 0.4942848 0.09933781 0.4989847 0.09933781 0.8725266 0.6513093 0.878897 0.6513093 0.8803835 0.7174247 0.8616966 0.6623284 0.8725266 0.6513093 0.8710401 0.7174247 0.0756452 0.9947154 0.05353528 0.9947154 0.05353528 0.9164887 0.8769859 0.3975571 0.866156 0.3865379 0.866156 0.3644993 0.8597854 0.3865379 0.8489556 0.3975571 0.8489556 0.3644993 0.427973 0.3333902 0.427973 0.3577791 0.425153 0.3577792 0.8489556 0.3644993 0.8489556 0.3975571 0.8209254 0.397557 0.917757 0.6292707 0.917757 0.6623284 0.8897268 0.6623284 0.878897 0.6513093 0.8897268 0.6623284 0.8897268 0.7174247 0.917757 0.3644993 0.917757 0.3975571 0.8769859 0.3975571 0.425153 0.7106054 0.425153 0.6862165 0.427973 0.6862165 0.8616966 0.6292707 0.8616966 0.6623284 0.8209254 0.6623284 0.8489556 0.3644993 0.8209255 0.1881912 0.8489556 0.1881912 0.4486953 0.09933781 0.4862949 0.1090934 0.4486953 0.1090934 0.8897268 0.6292707 0.917757 0.4529627 0.917757 0.6292707 0.427973 0.8406795 0.425153 0.7106054 0.427973 0.7106054 0.8769859 0.3644993 0.917757 0.1881913 0.917757 0.3644993 0.5069746 0.1090934 0.5445742 0.09933775 0.5445742 0.1090934 0.8616966 0.4529627 0.8209254 0.6292706 0.8209254 0.4529626 0.425153 0.203316 0.427973 0.3333902 0.425153 0.3333902 0.8489556 0.3644993 0.8209254 0.3644993 0.8209255 0.1881912 0.4486953 0.09933781 0.4862949 0.09933781 0.4862949 0.1090934 0.8897268 0.6292707 0.8897268 0.4529627 0.917757 0.4529627 0.427973 0.8406795 0.425153 0.8406795 0.425153 0.7106054 0.8769859 0.3644993 0.8769859 0.1881913 0.917757 0.1881913 0.5069746 0.1090934 0.5069746 0.09933781 0.5445742 0.09933775 0.8616966 0.4529627 0.8616966 0.6292707 0.8209254 0.6292706 0.425153 0.203316 0.427973 0.203316 0.427973 0.3333902</float_array>
          <technique_common>
            <accessor source="#Plane_001-mesh-map-0-array" count="252" stride="2">
              <param name="S" type="float"/>
              <param name="T" type="float"/>
            </accessor>
          </technique_common>
        </source>
        <vertices id="Plane_001-mesh-vertices">
          <input semantic="POSITION" source="#Plane_001-mesh-positions"/>
        </vertices>
        <triangles material="Material_002-material" count="84">
          <input semantic="VERTEX" source="#Plane_001-mesh-vertices" offset="0"/>
          <input semantic="NORMAL" source="#Plane_001-mesh-normals" offset="1"/>
          <input semantic="TEXCOORD" source="#Plane_001-mesh-map-0" offset="2" set="0"/>
          <p>2 0 0 1 0 1 0 0 2 6 0 3 4 0 4 5 0 5 9 1 6 10 1 7 8 1 8 12 1 9 14 1 10 13 1 11 32 2 12 14 2 13 36 2 14 33 3 15 11 3 16 38 3 17 23 0 18 31 0 19 27 0 20 35 4 21 12 4 22 37 4 23 31 2 24 34 2 25 43 2 26 38 2 27 9 2 28 34 2 29 39 4 30 10 4 31 33 4 32 36 5 33 15 5 34 35 5 35 29 1 36 12 1 37 13 1 38 25 6 39 39 6 40 41 6 41 12 7 42 40 7 43 37 7 44 24 4 45 41 4 46 40 4 47 9 1 48 25 1 49 28 1 50 28 8 51 24 8 52 29 8 53 16 2 54 42 2 55 32 2 56 30 2 57 43 2 58 42 2 59 26 0 60 16 0 61 19 0 62 27 0 63 30 0 64 26 0 65 42 2 66 28 2 67 29 2 68 32 2 69 29 2 70 13 2 71 40 4 72 27 4 73 26 4 74 37 4 75 26 4 76 19 4 77 41 4 78 23 4 79 27 4 80 17 5 81 35 5 82 18 5 83 23 4 84 33 4 85 20 4 86 21 2 87 34 2 88 22 2 89 43 2 90 9 2 91 28 2 92 18 4 93 37 4 94 19 4 95 20 3 96 38 3 97 21 3 98 16 2 99 36 2 100 17 2 101 2 0 102 3 0 103 1 0 104 6 0 105 7 0 106 4 0 107 9 1 108 11 1 109 10 1 110 12 1 111 15 1 112 14 1 113 32 2 114 13 2 115 14 2 116 33 3 117 10 3 118 11 3 119 23 0 120 22 0 121 31 0 122 35 4 123 15 4 124 12 4 125 31 2 126 22 2 127 34 2 128 38 2 129 11 2 130 9 2 131 39 4 132 8 4 133 10 4 134 36 5 135 14 5 136 15 5 137 29 9 138 24 9 139 12 9 140 25 4 141 8 4 142 39 4 143 12 4 144 24 4 145 40 4 146 24 4 147 25 4 148 41 4 149 9 1 150 8 1 151 25 1 152 28 1 153 25 1 154 24 1 155 16 2 156 30 2 157 42 2 158 30 2 159 31 2 160 43 2 161 26 0 162 30 0 163 16 0 164 27 0 165 31 0 166 30 0 167 42 2 168 43 2 169 28 2 170 32 2 171 42 2 172 29 2 173 40 4 174 41 4 175 27 4 176 37 4 177 40 4 178 26 4 179 41 4 180 39 4 181 23 4 182 17 5 183 36 5 184 35 5 185 23 4 186 39 4 187 33 4 188 21 2 189 38 2 190 34 2 191 43 2 192 34 2 193 9 2 194 18 4 195 35 4 196 37 4 197 20 3 198 33 3 199 38 3 200 16 2 201 32 2 202 36 2 203 23 4 204 2 4 205 0 4 206 1 5 207 23 5 208 0 5 209 22 2 210 3 2 211 21 2 212 3 3 213 20 3 214 21 3 215 19 4 216 7 4 217 18 4 218 19 3 219 5 3 220 4 3 221 5 2 222 17 2 223 6 2 224 7 5 225 17 5 226 18 5 227 23 4 228 20 4 229 2 4 230 1 5 231 22 5 232 23 5 233 22 2 234 1 2 235 3 2 236 3 3 237 2 3 238 20 3 239 19 4 240 4 4 241 7 4 242 19 3 243 16 3 244 5 3 245 5 2 246 16 2 247 17 2 248 7 5 249 6 5 250 17 5 251</p>
        </triangles>
      </mesh>
    </geometry>
  </library_geometries>
  <library_visual_scenes>
    <visual_scene id="Scene" name="Scene">
      <node id="Plane_001" name="Plane.001" type="NODE">
        <matrix sid="transform">1 0 0 0 0 1 0 0 0 0 1 0 0 0 0 1</matrix>
        <instance_geometry url="#Plane_001-mesh" name="Plane.001">
          <bind_material>
            <technique_common>
              <instance_material symbol="Material_002-material" target="#Material_002-material">
                <bind_vertex_input semantic="Plane_004-mesh-map-0" input_semantic="TEXCOORD" input_set="0"/>
              </instance_material>
            </technique_common>
          </bind_material>
        </instance_geometry>
      </node>
    </visual_scene>
  </library_visual_scenes>
  <scene>
    <instance_visual_scene url="#Scene"/>
  </scene>
</COLLADA>