<?xml version="1.0" encoding="utf-8"?>
<COLLADA xmlns="http://www.collada.org/2005/11/COLLADASchema" version="1.4.1" xmlns:xsi="http://www.w3.org/2001/XMLSchema-instance">
  <asset>
    <contributor>
      <author>Blender User</author>
      <authoring_tool>Blender 4.5.2 LTS commit date:2025-08-19, commit time:15:00, hash:ab25eae04993</authoring_tool>
    </contributor>
    <created>2025-09-06T15:54:02</created>
    <modified>2025-09-06T15:54:02</modified>
    <unit name="meter" meter="1"/>
    <up_axis>Z_UP</up_axis>
  </asset>
  <library_effects>
    <effect id="Material_001-effect">
      <profile_COMMON>
        <newparam sid="textures_second1_png-surface">
          <surface type="2D">
            <init_from>textures_second1_png</init_from>
          </surface>
        </newparam>
        <newparam sid="textures_second1_png-sampler">
          <sampler2D>
            <source>textures_second1_png-surface</source>
          </sampler2D>
        </newparam>
        <technique sid="common">
          <lambert>
            <emission>
              <color sid="emission">0 0 0 1</color>
            </emission>
            <diffuse>
              <texture texture="textures_second1_png-sampler" texcoord="Plane_007-mesh-map-0"/>
            </diffuse>
            <index_of_refraction>
              <float sid="ior">1.5</float>
            </index_of_refraction>
          </lambert>
        </technique>
      </profile_COMMON>
    </effect>
  </library_effects>
  <library_images>
    <image id="textures_second1_png" name="textures_second1_png">
      <init_from>textures_second1.png</init_from>
    </image>
  </library_images>
  <library_materials>
    <material id="Material_001-material" name="Material.001">
      <instance_effect url="#Material_001-effect"/>
    </material>
  </library_materials>
  <library_geometries>
    <geometry id="Plane_001-mesh" name="Plane.001">
      <mesh>
        <source id="Plane_001-mesh-positions">
          <float_array id="Plane_001-mesh-positions-array" count="132">-0.6499996 -3.85 0 -0.4999996 -3.85 0 -0.6499996 -2.8 0 -0.4999996 -2.8 0 -0.6499996 -4.95 0 -0.4999996 -4.95 0 -0.4999996 -6 0 -0.6499996 -6 0 -0.6499996 -3.85 3 -0.4999996 -3.85 3 -0.6499996 -2.8 3 -0.4999996 -2.8 3 -0.6499996 -4.95 3 -0.4999996 -4.95 3 -0.4999996 -6 3 -0.6499996 -6 3 -0.4999996 -2.8 2 -0.4999996 -3.85 2 -0.6499996 -3.85 2 -0.6499996 -2.8 2 -0.6499996 -6 2 -0.6499996 -4.95 2 -0.4999996 -4.95 2 -0.4999996 -6 2 -0.6499996 -4.216667 3 -0.6499996 -4.583333 3 -0.4999996 -4.216667 3 -0.4999996 -4.583333 3 -0.6499996 -4.275002 2 -0.6499996 -4.524998 2 -0.4999996 -4.275002 2 -0.4999996 -4.524998 2 -0.6499996 -6 2.375 -0.4999996 -2.8 2.375 -0.6499996 -3.85 2.375 -0.4999996 -6 2.375 -0.4999996 -3.85 2.375 -0.6499996 -2.8 2.375 -0.6499996 -4.95 2.375 -0.4999996 -4.95 2.375 -0.6499996 -4.275002 2.25 -0.6499996 -4.524998 2.25 -0.4999996 -4.275002 2.25 -0.4999996 -4.524998 2.25</float_array>
          <technique_common>
            <accessor source="#Plane_001-mesh-positions-array" count="44" stride="3">
              <param name="X" type="float"/>
              <param name="Y" type="float"/>
              <param name="Z" type="float"/>
            </accessor>
          </technique_common>
        </source>
        <source id="Plane_001-mesh-normals">
          <float_array id="Plane_001-mesh-normals-array" count="27">0 0 -1 0 0 1 -1 0 0 1 0 0 1 0 0 0 -1 0 0 1 0 1 0 0 1 -1.40246e-7 0</float_array>
          <technique_common>
            <accessor source="#Plane_001-mesh-normals-array" count="9" stride="3">
              <param name="X" type="float"/>
              <param name="Y" type="float"/>
              <param name="Z" type="float"/>
            </accessor>
          </technique_common>
        </source>
        <source id="Plane_001-mesh-map-0">
          <float_array id="Plane_001-mesh-map-0-array" count="504">0.6261025 0.0948466 0.6311978 0.2182355 0.6261025 0.2182355 0.6259824 0.2182355 0.6208871 0.09484654 0.6259824 0.09484654 0.4011889 0.2182355 0.4062842 0.0948466 0.4062842 0.2182355 0.4062842 0.3475001 0.4011889 0.470889 0.4011889 0.3475001 0.8723508 0.5700637 0.8436902 0.6290814 0.8436902 0.5700637 0.8250513 0.6265692 0.8150429 0.5675513 0.8266437 0.5557478 0.8737288 0.5675513 0.8450682 0.6265691 0.8450682 0.5675513 0.813665 0.5700636 0.7850043 0.6290814 0.7850043 0.5700637 0.4011889 0.5443348 0.4062842 0.470889 0.4062842 0.5443348 0.8150429 0.5675513 0.7863823 0.6265691 0.7863823 0.5675514 0.6207671 0.3739405 0.6156718 0.4473863 0.6156718 0.3739405 0.4114995 0.4591376 0.4064042 0.4091943 0.4114995 0.4091943 0.8436902 0.5700637 0.8336818 0.6290814 0.8320896 0.55826 0.4062842 0.304412 0.4011889 0.3475001 0.4011889 0.304412 0.4062842 0.2182355 0.4011889 0.2613238 0.4011889 0.2182355 0.4062842 0.2613238 0.4011889 0.304412 0.4011889 0.2613238 0.8252657 0.55826 0.813665 0.6290814 0.813665 0.5700636 0.8320896 0.55826 0.8236733 0.6290814 0.8252657 0.55826 0.4114995 0.3798164 0.4064042 0.329873 0.4114995 0.329873 0.4114995 0.4091943 0.4064042 0.3798164 0.4114995 0.3798164 0.8450682 0.6265691 0.8334674 0.5557478 0.8450682 0.5675513 0.8350597 0.6265691 0.8266437 0.5557478 0.8334674 0.5557478 0.04965239 0.9954997 0.02778327 0.9181244 0.04965239 0.9181244 0.8450682 0.5675513 0.8334674 0.5321406 0.8450682 0.5321407 0.02359992 0.9185501 0.00173074 0.995925 0.00173074 0.9185501 0.8252657 0.5346529 0.813665 0.5700636 0.813665 0.5346529 0.8436902 0.5346529 0.8320896 0.55826 0.8320896 0.5346529 0.6207671 0.329873 0.6156718 0.3739405 0.6156718 0.329873 0.8150429 0.5321407 0.7863823 0.5675514 0.7863823 0.5321407 0.4011889 0.5884023 0.4062842 0.5443348 0.4062842 0.5884023 0.813665 0.5346529 0.7850043 0.5700637 0.7850043 0.5346529 0.8737288 0.5321407 0.8450682 0.5675513 0.8450682 0.5321407 0.8266437 0.5557478 0.8150429 0.5321407 0.8266437 0.5321407 0.8723508 0.5346529 0.8436902 0.5700637 0.8436902 0.5346529 0.4062842 0.8234287 0.4011889 0.5884023 0.4062842 0.5884023 0.6261025 0.0948466 0.6311978 0.0948466 0.6311978 0.2182355 0.6259824 0.2182355 0.6208871 0.2182355 0.6208871 0.09484654 0.4011889 0.2182355 0.4011889 0.0948466 0.4062842 0.0948466 0.4062842 0.3475001 0.4062842 0.470889 0.4011889 0.470889 0.8723508 0.5700637 0.8723508 0.6290814 0.8436902 0.6290814 0.8250513 0.6265692 0.8150429 0.626569 0.8150429 0.5675513 0.8737288 0.5675513 0.8737288 0.6265691 0.8450682 0.6265691 0.813665 0.5700636 0.813665 0.6290814 0.7850043 0.6290814 0.4011889 0.5443348 0.4011889 0.470889 0.4062842 0.470889 0.8150429 0.5675513 0.8150429 0.626569 0.7863823 0.6265691 0.6207671 0.3739405 0.6207671 0.4473863 0.6156718 0.4473863 0.4114995 0.4591376 0.4064042 0.4591376 0.4064042 0.4091943 0.8436902 0.5700637 0.8436902 0.6290814 0.8336818 0.6290814 0.4062842 0.304412 0.4062842 0.3475001 0.4011889 0.3475001 0.4062842 0.2182355 0.4062842 0.2613238 0.4011889 0.2613238 0.4062842 0.2613238 0.4062842 0.304412 0.4011889 0.304412 0.8252657 0.55826 0.8236733 0.6290814 0.813665 0.6290814 0.8320896 0.55826 0.8336818 0.6290814 0.8236733 0.6290814 0.4114995 0.3798164 0.4064042 0.3798164 0.4064042 0.329873 0.4114995 0.4091943 0.4064042 0.4091943 0.4064042 0.3798164 0.8450682 0.6265691 0.8350597 0.6265691 0.8334674 0.5557478 0.8350597 0.6265691 0.8250513 0.6265692 0.8266437 0.5557478 0.04965239 0.9954997 0.02778327 0.9954997 0.02778327 0.9181244 0.8450682 0.5675513 0.8334674 0.5557478 0.8334674 0.5321406 0.02359992 0.9185501 0.02359992 0.995925 0.00173074 0.995925 0.8252657 0.5346529 0.8252657 0.55826 0.813665 0.5700636 0.8436902 0.5346529 0.8436902 0.5700637 0.8320896 0.55826 0.6207671 0.329873 0.6207671 0.3739405 0.6156718 0.3739405 0.8150429 0.5321407 0.8150429 0.5675513 0.7863823 0.5675514 0.4011889 0.5884023 0.4011889 0.5443348 0.4062842 0.5443348 0.813665 0.5346529 0.813665 0.5700636 0.7850043 0.5700637 0.8737288 0.5321407 0.8737288 0.5675513 0.8450682 0.5675513 0.8266437 0.5557478 0.8150429 0.5675513 0.8150429 0.5321407 0.8723508 0.5346529 0.8723508 0.5700637 0.8436902 0.5700637 0.8436902 0.5346529 0.8723508 0.3457959 0.8723508 0.5346529 0.8150429 0.3432837 0.7863823 0.5321407 0.7863823 0.3432837 0.4064042 0.6941642 0.4114995 0.4591376 0.4114995 0.6941642 0.813665 0.345796 0.7850043 0.5346529 0.7850043 0.345796 0.4114995 0.0948466 0.4064042 0.329873 0.4064042 0.0948466 0.8450682 0.5321407 0.8737288 0.3432837 0.8737288 0.5321407 0.6156718 0.09484654 0.6207671 0.329873 0.6156718 0.329873 0.4062842 0.8234287 0.4011889 0.8234287 0.4011889 0.5884023 0.8436902 0.5346529 0.8436902 0.3457959 0.8723508 0.3457959 0.8150429 0.3432837 0.8150429 0.5321407 0.7863823 0.5321407 0.4064042 0.6941642 0.4064042 0.4591376 0.4114995 0.4591376 0.813665 0.345796 0.813665 0.5346529 0.7850043 0.5346529 0.4114995 0.0948466 0.4114995 0.329873 0.4064042 0.329873 0.8450682 0.5321407 0.8450682 0.3432837 0.8737288 0.3432837 0.6156718 0.09484654 0.6207671 0.0948466 0.6207671 0.329873</float_array>
          <technique_common>
            <accessor source="#Plane_001-mesh-map-0-array" count="252" stride="2">
              <param name="S" type="float"/>
              <param name="T" type="float"/>
            </accessor>
          </technique_common>
        </source>
        <vertices id="Plane_001-mesh-vertices">
          <input semantic="POSITION" source="#Plane_001-mesh-positions"/>
        </vertices>
        <triangles material="Material_001-material" count="84">
          <input semantic="VERTEX" source="#Plane_001-mesh-vertices" offset="0"/>
          <input semantic="NORMAL" source="#Plane_001-mesh-normals" offset="1"/>
          <input semantic="TEXCOORD" source="#Plane_001-mesh-map-0" offset="2" set="0"/>
          <p>2 0 0 1 0 1 0 0 2 6 0 3 4 0 4 5 0 5 9 1 6 10 1 7 8 1 8 12 1 9 14 1 10 13 1 11 32 2 12 12 2 13 38 2 14 27 3 15 39 3 16 43 3 17 33 4 18 9 4 19 36 4 20 34 2 21 10 2 22 37 2 23 35 5 24 15 5 25 32 5 26 39 4 27 14 4 28 35 4 29 37 6 30 11 6 31 33 6 32 22 0 33 29 0 34 31 0 35 38 2 36 25 2 37 41 2 38 25 1 39 13 1 40 27 1 41 8 1 42 26 1 43 9 1 44 24 1 45 27 1 46 26 1 47 40 2 48 8 2 49 34 2 50 41 2 51 24 2 52 40 2 53 30 0 54 18 0 55 17 0 56 31 0 57 28 0 58 30 0 59 9 7 60 42 7 61 36 7 62 26 4 63 43 4 64 42 4 65 42 4 66 31 4 67 30 4 68 36 4 69 30 4 70 17 4 71 29 2 72 40 2 73 28 2 74 28 2 75 34 2 76 18 2 77 21 2 78 41 2 79 29 2 80 19 6 81 33 6 82 16 6 83 22 4 84 35 4 85 23 4 86 23 5 87 32 5 88 20 5 89 18 2 90 37 2 91 19 2 92 16 4 93 36 4 94 17 4 95 43 4 96 22 4 97 31 4 98 20 2 99 38 2 100 21 2 101 7 5 102 23 5 103 20 5 104 2 0 105 3 0 106 1 0 107 6 0 108 7 0 109 4 0 110 9 1 111 11 1 112 10 1 113 12 1 114 15 1 115 14 1 116 32 2 117 15 2 118 12 2 119 27 4 120 13 4 121 39 4 122 33 4 123 11 4 124 9 4 125 34 2 126 8 2 127 10 2 128 35 5 129 14 5 130 15 5 131 39 4 132 13 4 133 14 4 134 37 6 135 10 6 136 11 6 137 22 0 138 21 0 139 29 0 140 38 2 141 12 2 142 25 2 143 25 1 144 12 1 145 13 1 146 8 1 147 24 1 148 26 1 149 24 1 150 25 1 151 27 1 152 40 2 153 24 2 154 8 2 155 41 2 156 25 2 157 24 2 158 30 0 159 28 0 160 18 0 161 31 0 162 29 0 163 28 0 164 9 4 165 26 4 166 42 4 167 26 4 168 27 4 169 43 4 170 42 4 171 43 4 172 31 4 173 36 8 174 42 8 175 30 8 176 29 2 177 41 2 178 40 2 179 28 2 180 40 2 181 34 2 182 21 2 183 38 2 184 41 2 185 19 6 186 37 6 187 33 6 188 22 4 189 39 4 190 35 4 191 23 5 192 35 5 193 32 5 194 18 2 195 34 2 196 37 2 197 16 4 198 33 4 199 36 4 200 43 4 201 39 4 202 22 4 203 20 2 204 32 2 205 38 2 206 21 2 207 7 2 208 20 2 209 5 4 210 23 4 211 6 4 212 4 6 213 22 6 214 5 6 215 0 2 216 19 2 217 2 2 218 1 5 219 18 5 220 0 5 221 17 4 222 3 4 223 16 4 224 3 6 225 19 6 226 16 6 227 7 5 228 6 5 229 23 5 230 21 2 231 4 2 232 7 2 233 5 4 234 22 4 235 23 4 236 4 6 237 21 6 238 22 6 239 0 2 240 18 2 241 19 2 242 1 5 243 17 5 244 18 5 245 17 4 246 1 4 247 3 4 248 3 6 249 2 6 250 19 6 251</p>
        </triangles>
      </mesh>
    </geometry>
  </library_geometries>
  <library_visual_scenes>
    <visual_scene id="Scene" name="Scene">
      <node id="Plane_004" name="Plane.004" type="NODE">
        <matrix sid="transform">1 0 0 0 0 1 0 0 0 0 1 0 0 0 0 1</matrix>
        <instance_geometry url="#Plane_001-mesh" name="Plane.004">
          <bind_material>
            <technique_common>
              <instance_material symbol="Material_001-material" target="#Material_001-material">
                <bind_vertex_input semantic="Plane_007-mesh-map-0" input_semantic="TEXCOORD" input_set="0"/>
              </instance_material>
            </technique_common>
          </bind_material>
        </instance_geometry>
      </node>
    </visual_scene>
  </library_visual_scenes>
  <scene>
    <instance_visual_scene url="#Scene"/>
  </scene>
</COLLADA>