<?xml version="1.0" encoding="utf-8"?>
<COLLADA xmlns="http://www.collada.org/2005/11/COLLADASchema" version="1.4.1" xmlns:xsi="http://www.w3.org/2001/XMLSchema-instance">
  <asset>
    <contributor>
      <author>Blender User</author>
      <authoring_tool>Blender 4.5.2 LTS commit date:2025-08-19, commit time:15:00, hash:ab25eae04993</authoring_tool>
    </contributor>
    <created>2026-09-25T11:47:27</created>
    <modified>2026-09-25T11:47:27</modified>
    <unit name="meter" meter="1"/>
    <up_axis>Z_UP</up_axis>
  </asset>
  <library_effects>
    <effect id="Material_001-effect">
      <profile_COMMON>
        <newparam sid="road_texture_png_001-surface">
          <surface type="2D">
            <init_from>road_texture_png_001</init_from>
          </surface>
        </newparam>
        <newparam sid="road_texture_png_001-sampler">
          <sampler2D>
            <source>road_texture_png_001-surface</source>
          </sampler2D>
        </newparam>
        <technique sid="common">
          <lambert>
            <emission>
              <color sid="emission">0 0 0 1</color>
            </emission>
            <diffuse>
              <texture texture="road_texture_png_001-sampler"/>
            </diffuse>
            <index_of_refraction>
              <float sid="ior">1.5</float>
            </index_of_refraction>
          </lambert>
        </technique>
      </profile_COMMON>
    </effect>
  </library_effects>
  <library_images>
    <image id="road_texture_png_001" name="road_texture_png_001">
      <init_from>road_texture.png</init_from>
    </image>
  </library_images>
  <library_materials>
    <material id="Material_001-material" name="Material.001">
      <instance_effect url="#Material_001-effect"/>
    </material>
  </library_materials>
  <library_geometries>
    <geometry id="Mesh_001-mesh" name="Mesh.001">
      <mesh>
        <source id="Mesh_001-mesh-positions">
          <float_array id="Mesh_001-mesh-positions-array" count="294">1.054148 9.156713 0 1.260822 9.549999 0 1.477783 9.91962 0 1.708866 10.26602 0 1.957907 10.58965 0 2.228739 10.89094 0 2.525199 11.17033 0 2.851121 11.42828 0 3.21034 11.66522 0 3.606692 11.8816 0 4.044011 12.07785 0 5.300489 12.57056 0 6.607182 13.03919 0 7.941862 13.45982 0 9.2823 13.80859 0 10.60627 14.06161 0 11.89154 14.19497 0 13.11588 14.18481 0 14.25706 14.00724 0 15.29286 13.63835 0 16.20105 13.05428 0 16.9594 12.23113 0 17.54568 11.14501 0 18.26317 8.381897 0 18.13431 5.924449 0 17.27493 3.722692 0 15.80085 1.726655 0 13.82789 -0.1136345 0 11.47187 -1.848148 0 8.848616 -3.526859 0 6.073952 -5.199737 0 3.263701 -6.916755 0 0.5336857 -8.727886 0 -2.000271 -10.6831 0 -4.222338 -12.83237 0 -4.598898 -13.31447 0 -4.926221 -13.84294 0 -5.217284 -14.39876 0 -5.485064 -14.96294 0 -5.74254 -15.51647 0 -6.002689 -16.04034 0 -6.27849 -16.51555 0 -6.58292 -16.9231 0 -6.928956 -17.24398 0 -7.329577 -17.45919 0 -7.79776 -17.54973 0 -8.346485 -17.49658 0 -9.227115 -17.17603 0 -9.856495 -16.6813 0 1.232892 9.066913 0 1.435681 9.452804 0 1.647353 9.813416 0 1.871491 10.14941 0 2.111751 10.46162 0 2.37194 10.75107 0 2.656087 11.01887 0 2.96846 11.26609 0 3.313497 11.49368 0 3.695686 11.70232 0 4.121506 11.89341 0 5.370769 12.3833 0 6.671023 12.84961 0 7.997137 13.26755 0 9.326299 13.61338 0 10.63541 13.86356 0 11.90106 13.99489 0 13.09959 13.98494 0 14.20771 13.81251 0 15.20406 13.45767 0 16.07132 12.89992 0 16.79532 12.11406 0 17.35818 11.07131 0 18.06183 8.361526 0 17.93628 5.967127 0 17.09828 3.820147 0 15.65093 1.860317 0 13.69996 0.04054015 0 11.35856 -1.683213 0 8.743063 -3.35696 0 5.970181 -5.028763 0 3.156244 -6.748033 0 0.4171658 -8.565176 0 -2.131291 -10.53158 0 -4.371389 -12.69829 0 -4.763205 -13.19992 0 -5.100049 -13.74376 0 -5.396282 -14.30946 0 -5.666078 -14.87788 0 -5.922804 -15.4298 0 -6.178929 -15.94556 0 -6.445654 -16.40514 0 -6.732258 -16.78883 0 -7.046165 -17.07991 0 -7.39742 -17.26861 0 -7.807301 -17.34786 0 -8.301934 -17.29996 0 -9.128659 -16.99903 0 -9.706816 -16.54457 0</float_array>
          <technique_common>
            <accessor source="#Mesh_001-mesh-positions-array" count="98" stride="3">
              <param name="X" type="float"/>
              <param name="Y" type="float"/>
              <param name="Z" type="float"/>
            </accessor>
          </technique_common>
        </source>
        <source id="Mesh_001-mesh-normals">
          <float_array id="Mesh_001-mesh-normals-array" count="3">0 0 1</float_array>
          <technique_common>
            <accessor source="#Mesh_001-mesh-normals-array" count="1" stride="3">
              <param name="X" type="float"/>
              <param name="Y" type="float"/>
              <param name="Z" type="float"/>
            </accessor>
          </technique_common>
        </source>
        <vertices id="Mesh_001-mesh-vertices">
          <input semantic="POSITION" source="#Mesh_001-mesh-positions"/>
        </vertices>
        <triangles material="Material_001-material" count="96">
          <input semantic="VERTEX" source="#Mesh_001-mesh-vertices" offset="0"/>
          <input semantic="NORMAL" source="#Mesh_001-mesh-normals" offset="1"/>
          <p>50 0 0 0 49 0 51 0 1 0 50 0 52 0 2 0 51 0 53 0 3 0 52 0 54 0 4 0 53 0 55 0 5 0 54 0 56 0 6 0 55 0 56 0 8 0 7 0 57 0 9 0 8 0 58 0 10 0 9 0 59 0 11 0 10 0 61 0 11 0 60 0 62 0 12 0 61 0 63 0 13 0 62 0 64 0 14 0 63 0 65 0 15 0 64 0 66 0 16 0 65 0 67 0 17 0 66 0 68 0 18 0 67 0 69 0 19 0 68 0 69 0 21 0 20 0 70 0 22 0 21 0 72 0 22 0 71 0 73 0 23 0 72 0 73 0 25 0 24 0 74 0 26 0 25 0 75 0 27 0 26 0 76 0 28 0 27 0 77 0 29 0 28 0 78 0 30 0 29 0 79 0 31 0 30 0 80 0 32 0 31 0 81 0 33 0 32 0 82 0 34 0 33 0 84 0 34 0 83 0 85 0 35 0 84 0 86 0 36 0 85 0 87 0 37 0 86 0 88 0 38 0 87 0 89 0 39 0 88 0 90 0 40 0 89 0 91 0 41 0 90 0 92 0 42 0 91 0 93 0 43 0 92 0 93 0 45 0 44 0 94 0 46 0 45 0 96 0 46 0 95 0 97 0 47 0 96 0 50 0 1 0 0 0 51 0 2 0 1 0 52 0 3 0 2 0 53 0 4 0 3 0 54 0 5 0 4 0 55 0 6 0 5 0 56 0 7 0 6 0 56 0 57 0 8 0 57 0 58 0 9 0 58 0 59 0 10 0 59 0 60 0 11 0 61 0 12 0 11 0 62 0 13 0 12 0 63 0 14 0 13 0 64 0 15 0 14 0 65 0 16 0 15 0 66 0 17 0 16 0 67 0 18 0 17 0 68 0 19 0 18 0 69 0 20 0 19 0 69 0 70 0 21 0 70 0 71 0 22 0 72 0 23 0 22 0 73 0 24 0 23 0 73 0 74 0 25 0 74 0 75 0 26 0 75 0 76 0 27 0 76 0 77 0 28 0 77 0 78 0 29 0 78 0 79 0 30 0 79 0 80 0 31 0 80 0 81 0 32 0 81 0 82 0 33 0 82 0 83 0 34 0 84 0 35 0 34 0 85 0 36 0 35 0 86 0 37 0 36 0 87 0 38 0 37 0 88 0 39 0 38 0 89 0 40 0 39 0 90 0 41 0 40 0 91 0 42 0 41 0 92 0 43 0 42 0 93 0 44 0 43 0 93 0 94 0 45 0 94 0 95 0 46 0 96 0 47 0 46 0 97 0 48 0 47 0</p>
        </triangles>
      </mesh>
    </geometry>
  </library_geometries>
  <library_visual_scenes>
    <visual_scene id="Scene" name="Scene">
      <node id="BézierCircle_001" name="BézierCircle.001" type="NODE">
        <matrix sid="transform">1 0 0 0 0 1 0 0 0 0 1 0 0 0 0 1</matrix>
        <instance_geometry url="#Mesh_001-mesh" name="BézierCircle.001">
          <bind_material>
            <technique_common>
              <instance_material symbol="Material_001-material" target="#Material_001-material"/>
            </technique_common>
          </bind_material>
        </instance_geometry>
      </node>
    </visual_scene>
  </library_visual_scenes>
  <scene>
    <instance_visual_scene url="#Scene"/>
  </scene>
</COLLADA>