<?xml version="1.0" encoding="utf-8"?>
<COLLADA xmlns="http://www.collada.org/2005/11/COLLADASchema" version="1.4.1" xmlns:xsi="http://www.w3.org/2001/XMLSchema-instance">
  <asset>
    <contributor>
      <author>Blender User</author>
      <authoring_tool>Blender 4.5.2 LTS commit date:2025-08-19, commit time:15:00, hash:ab25eae04993</authoring_tool>
    </contributor>
    <created>2025-09-06T15:55:11</created>
    <modified>2025-09-06T15:55:11</modified>
    <unit name="meter" meter="1"/>
    <up_axis>Z_UP</up_axis>
  </asset>
  <library_effects>
    <effect id="Material_001-effect">
      <profile_COMMON>
        <newparam sid="textures_second1_png-surface">
          <surface type="2D">
            <init_from>textures_second1_png</init_from>
          </surface>
        </newparam>
        <newparam sid="textures_second1_png-sampler">
          <sampler2D>
            <source>textures_second1_png-surface</source>
          </sampler2D>
        </newparam>
        <technique sid="common">
          <lambert>
            <emission>
              <color sid="emission">0 0 0 1</color>
            </emission>
            <diffuse>
              <texture texture="textures_second1_png-sampler" texcoord="Plane_009-mesh-map-0"/>
            </diffuse>
            <index_of_refraction>
              <float sid="ior">1.5</float>
            </index_of_refraction>
          </lambert>
        </technique>
      </profile_COMMON>
    </effect>
  </library_effects>
  <library_images>
    <image id="textures_second1_png" name="textures_second1_png">
      <init_from>textures_second1.png</init_from>
    </image>
  </library_images>
  <library_materials>
    <material id="Material_001-material" name="Material.001">
      <instance_effect url="#Material_001-effect"/>
    </material>
  </library_materials>
  <library_geometries>
    <geometry id="Plane_009-mesh" name="Plane.009">
      <mesh>
        <source id="Plane_009-mesh-positions">
          <float_array id="Plane_009-mesh-positions-array" count="216">-1.85 1.3 0 -1.85 1.15 0 -0.2000005 1.3 0 -0.2000005 1.15 0 0.8999996 1.3 0 0.8999996 1.15 0 5.3 1.3 0 5.3 1.15 0 6.4 1.3 0 6.4 1.15 0 7.5 1.3 0 7.5 1.15 0 -1.85 1.3 3 -1.85 1.15 3 -0.2000005 1.3 3 -0.2000005 1.15 3 0.8999996 1.3 3 0.8999996 1.15 3 5.3 1.3 3 5.3 1.15 3 6.4 1.3 3 6.4 1.15 3 7.5 1.3 3 7.5 1.15 3 0.8999996 1.3 2 5.3 1.3 2 0.8999996 1.15 2 5.3 1.15 2 -1.85 1.3 2 -0.2000005 1.3 2 -1.85 1.15 2 -0.2000005 1.15 2 7.5 1.15 2 6.4 1.15 2 6.4 1.3 2 7.5 1.3 2 0.4749994 1.3 2 0.2249996 1.3 2 0.5333328 1.3 3 0.1666662 1.3 3 0.1666662 1.15 3 0.5333328 1.15 3 0.4749994 1.15 2 0.2249996 1.15 2 7.5 1.15 2.375 -1.85 1.3 2.375 0.8999996 1.3 2.375 0.8999996 1.15 2.375 6.4 1.3 2.375 -1.85 1.15 2.375 -0.2000005 1.15 2.375 5.3 1.3 2.375 5.3 1.15 2.375 -0.2000005 1.3 2.375 6.4 1.15 2.375 7.5 1.3 2.375 0.4749994 1.15 2.25 0.2249996 1.15 2.25 0.4749994 1.3 2.25 0.2249996 1.3 2.25 5.974997 1.3 2 5.725001 1.3 2 6.033333 1.3 3 5.666666 1.3 3 5.666666 1.15 3 6.033333 1.15 3 5.725001 1.15 2 5.974997 1.15 2 5.725001 1.3 2.25 5.974997 1.3 2.25 5.974997 1.15 2.25 5.725001 1.15 2.25</float_array>
          <technique_common>
            <accessor source="#Plane_009-mesh-positions-array" count="72" stride="3">
              <param name="X" type="float"/>
              <param name="Y" type="float"/>
              <param name="Z" type="float"/>
            </accessor>
          </technique_common>
        </source>
        <source id="Plane_009-mesh-normals">
          <float_array id="Plane_009-mesh-normals-array" count="51">0 0 -1 0 0 1 0 -1 0 0 1 0 0 1 -2.39216e-7 -1 0 0 1 0 0 0 -1 0 0 1 0 0 1 2.38419e-7 0 -1 -3.79302e-7 0 -1 2.7093e-7 0 1 1.58948e-7 0 -1 0 0 1 -2.16744e-7 0 -1 3.17892e-7 0 1 4.33487e-7</float_array>
          <technique_common>
            <accessor source="#Plane_009-mesh-normals-array" count="17" stride="3">
              <param name="X" type="float"/>
              <param name="Y" type="float"/>
              <param name="Z" type="float"/>
            </accessor>
          </technique_common>
        </source>
        <source id="Plane_009-mesh-map-0">
          <float_array id="Plane_009-mesh-map-0-array" count="840">0.5193868 0.0251553 0.5224581 0.1420281 0.5193868 0.142028 0.3899434 0.0251553 0.3930146 0.3368161 0.3899434 0.3368161 0.5192739 0.4643145 0.5162026 0.386399 0.5192738 0.386399 0.3898305 0.2376513 0.3867592 0.3545241 0.3867593 0.2376513 0.3898304 0.4324393 0.3867592 0.7441001 0.3867592 0.4324393 0.3898304 0.8220153 0.3867592 0.8999304 0.3867592 0.8220153 0.9845265 0.3880324 0.9555995 0.4448912 0.9555995 0.3880324 0.9878447 0.3843646 0.944454 0.4412235 0.944454 0.3843646 0.9155272 0.3843646 0.7998195 0.4412235 0.7998195 0.3843646 0.944454 0.3843646 0.9348118 0.4412235 0.9332777 0.3729929 0.7708925 0.3843646 0.7419656 0.4412235 0.7419656 0.3843646 0.3898305 0.1933813 0.3867593 0.2376513 0.3867593 0.1933813 0.782038 0.3880324 0.7386475 0.4448912 0.7386475 0.3880324 0.5192738 0.6325405 0.5162025 0.6768107 0.5162026 0.6325405 0.9266725 0.3880324 0.8109648 0.4448912 0.8109647 0.3880324 0.5192739 0.2447348 0.5162027 0.214631 0.5192739 0.214631 0.9555995 0.3880324 0.9459571 0.4448912 0.9444231 0.3766607 0.3898304 0.7960435 0.3867592 0.8220153 0.3867592 0.7960435 0.7998195 0.3843646 0.7901772 0.4412235 0.7886431 0.3729929 0.3898304 0.4064676 0.3867592 0.4324393 0.3867592 0.4064676 0.782038 0.3880324 0.7932144 0.3539171 0.7932144 0.3766607 0.3930146 0.5563954 0.3899434 0.5262918 0.3930146 0.5262918 0.3930146 0.5085838 0.3899434 0.4784802 0.3930146 0.4784802 0.3930146 0.5262918 0.3899434 0.5085838 0.3930146 0.5085838 0.7997886 0.3766607 0.8109647 0.3539171 0.8109647 0.3880324 0.1315575 0.9945757 0.1539227 0.9154458 0.1539227 0.9945757 0.3898305 0.3545241 0.3867592 0.3804959 0.3867592 0.3545241 0.3898304 0.3804959 0.3867592 0.4064676 0.3867592 0.3804959 0.9267035 0.3729929 0.9155272 0.4412235 0.9155272 0.3843646 0.9332777 0.3729929 0.9251695 0.4412235 0.9267035 0.3729929 0.1017743 0.915987 0.07940912 0.995117 0.07940912 0.915987 0.9267035 0.3502494 0.9155272 0.3843646 0.9155272 0.3502494 0.7916803 0.4448912 0.7997886 0.3766607 0.8013224 0.4448912 0.8013224 0.4448912 0.8109647 0.3880324 0.8109648 0.4448912 0.782038 0.4448912 0.7932144 0.3766607 0.7916803 0.4448912 0.7886431 0.3502494 0.7998195 0.3843646 0.7886431 0.3729929 0.9444231 0.3539171 0.9555995 0.3880324 0.9444231 0.3766607 0.9266725 0.3539171 0.8109647 0.3880324 0.8109647 0.3539171 0.5192738 0.6059786 0.5162026 0.6325405 0.5162026 0.6059787 0.782038 0.3539171 0.7386475 0.3880324 0.7386475 0.3539171 0.3898305 0.1668193 0.3867593 0.1933813 0.3867593 0.1668193 0.7708925 0.3502494 0.7419656 0.3843646 0.7419656 0.3502494 0.944454 0.3502494 0.9332777 0.3729929 0.9332777 0.3502494 0.9155272 0.3502494 0.7998195 0.3843646 0.7998195 0.3502494 0.9878447 0.3502494 0.944454 0.3843646 0.944454 0.3502494 0.9845265 0.3539171 0.9555995 0.3880324 0.9555995 0.3539171 0.9266725 0.3539171 0.9378489 0.3766607 0.9266725 0.3880324 0.104995 0.915043 0.1273603 0.9941728 0.104995 0.994173 0.7708925 0.3502494 0.7820689 0.3729929 0.7708925 0.3843646 0.05362772 0.9172042 0.075993 0.9963344 0.05362772 0.9963344 0.7820689 0.3729929 0.7708925 0.4412235 0.7708925 0.3843646 0.7886431 0.3729929 0.7805349 0.4412235 0.7820689 0.3729929 0.3898304 0.7441001 0.3867592 0.7700718 0.3867592 0.7441001 0.3898304 0.7700718 0.3867592 0.7960435 0.3867592 0.7700718 0.9378489 0.3766607 0.9266725 0.4448912 0.9266725 0.3880324 0.9444231 0.3766607 0.9363148 0.4448912 0.9378489 0.3766607 0.5192739 0.1969233 0.5162027 0.1668195 0.5192739 0.1668195 0.5192739 0.214631 0.5162027 0.1969233 0.5192739 0.1969233 0.5193868 0.0251553 0.5224581 0.0251553 0.5224581 0.1420281 0.3899434 0.0251553 0.3930146 0.0251553 0.3930146 0.3368161 0.5192739 0.4643145 0.5162026 0.4643144 0.5162026 0.386399 0.3898305 0.2376513 0.3898305 0.3545241 0.3867592 0.3545241 0.3898304 0.4324393 0.3898304 0.7441001 0.3867592 0.7441001 0.3898304 0.8220153 0.3898304 0.8999304 0.3867592 0.8999304 0.9845265 0.3880324 0.9845265 0.4448912 0.9555995 0.4448912 0.9878447 0.3843646 0.9878447 0.4412235 0.944454 0.4412235 0.9155272 0.3843646 0.9155272 0.4412235 0.7998195 0.4412235 0.944454 0.3843646 0.944454 0.4412235 0.9348118 0.4412235 0.7708925 0.3843646 0.7708925 0.4412235 0.7419656 0.4412235 0.3898305 0.1933813 0.3898305 0.2376513 0.3867593 0.2376513 0.782038 0.3880324 0.782038 0.4448912 0.7386475 0.4448912 0.5192738 0.6325405 0.5192738 0.6768107 0.5162025 0.6768107 0.9266725 0.3880324 0.9266725 0.4448912 0.8109648 0.4448912 0.5192739 0.2447348 0.5162027 0.2447348 0.5162027 0.214631 0.9555995 0.3880324 0.9555995 0.4448912 0.9459571 0.4448912 0.3898304 0.7960435 0.3898304 0.8220153 0.3867592 0.8220153 0.7998195 0.3843646 0.7998195 0.4412235 0.7901772 0.4412235 0.3898304 0.4064676 0.3898304 0.4324393 0.3867592 0.4324393 0.782038 0.3880324 0.782038 0.3539171 0.7932144 0.3539171 0.3930146 0.5563954 0.3899434 0.5563954 0.3899434 0.5262918 0.3930146 0.5085838 0.3899434 0.5085838 0.3899434 0.4784802 0.3930146 0.5262918 0.3899434 0.5262918 0.3899434 0.5085838 0.7997886 0.3766607 0.7997886 0.3539171 0.8109647 0.3539171 0.1315575 0.9945757 0.1315575 0.9154458 0.1539227 0.9154458 0.3898305 0.3545241 0.3898304 0.3804959 0.3867592 0.3804959 0.3898304 0.3804959 0.3898304 0.4064676 0.3867592 0.4064676 0.9267035 0.3729929 0.9251695 0.4412235 0.9155272 0.4412235 0.9332777 0.3729929 0.9348118 0.4412235 0.9251695 0.4412235 0.1017743 0.915987 0.1017743 0.995117 0.07940912 0.995117 0.9267035 0.3502494 0.9267035 0.3729929 0.9155272 0.3843646 0.7916803 0.4448912 0.7932144 0.3766607 0.7997886 0.3766607 0.8013224 0.4448912 0.7997886 0.3766607 0.8109647 0.3880324 0.782038 0.4448912 0.782038 0.3880324 0.7932144 0.3766607 0.7886431 0.3502494 0.7998195 0.3502494 0.7998195 0.3843646 0.9444231 0.3539171 0.9555995 0.3539171 0.9555995 0.3880324 0.9266725 0.3539171 0.9266725 0.3880324 0.8109647 0.3880324 0.5192738 0.6059786 0.5192738 0.6325405 0.5162026 0.6325405 0.782038 0.3539171 0.782038 0.3880324 0.7386475 0.3880324 0.3898305 0.1668193 0.3898305 0.1933813 0.3867593 0.1933813 0.7708925 0.3502494 0.7708925 0.3843646 0.7419656 0.3843646 0.944454 0.3502494 0.944454 0.3843646 0.9332777 0.3729929 0.9155272 0.3502494 0.9155272 0.3843646 0.7998195 0.3843646 0.9878447 0.3502494 0.9878447 0.3843646 0.944454 0.3843646 0.9845265 0.3539171 0.9845265 0.3880324 0.9555995 0.3880324 0.9266725 0.3539171 0.9378489 0.3539171 0.9378489 0.3766607 0.104995 0.915043 0.1273603 0.9150427 0.1273603 0.9941728 0.7708925 0.3502494 0.7820689 0.3502494 0.7820689 0.3729929 0.05362772 0.9172042 0.075993 0.9172042 0.075993 0.9963344 0.7820689 0.3729929 0.7805349 0.4412235 0.7708925 0.4412235 0.7886431 0.3729929 0.7901772 0.4412235 0.7805349 0.4412235 0.3898304 0.7441001 0.3898304 0.7700718 0.3867592 0.7700718 0.3898304 0.7700718 0.3898304 0.7960435 0.3867592 0.7960435 0.9378489 0.3766607 0.9363148 0.4448912 0.9266725 0.4448912 0.9444231 0.3766607 0.9459571 0.4448912 0.9363148 0.4448912 0.5192739 0.1969233 0.5162027 0.1969233 0.5162027 0.1668195 0.5192739 0.214631 0.5162027 0.214631 0.5162027 0.1969233 0.7708925 0.1683011 0.7419656 0.3502494 0.7419657 0.1683011 0.5162026 0.4643144 0.5192738 0.6059786 0.5162026 0.6059787 0.9555995 0.3539171 0.9845265 0.1719688 0.9845265 0.3539171 0.5162026 0.386399 0.5192739 0.2447348 0.5192738 0.386399 0.9155272 0.1683011 0.7998195 0.3502494 0.7998195 0.1683011 0.9878447 0.1683011 0.944454 0.3502494 0.944454 0.1683011 0.3898305 0.1668193 0.3867593 0.02515536 0.3898305 0.02515536 0.7386475 0.3539171 0.782038 0.1719688 0.782038 0.3539171 0.3899434 0.6980594 0.3930146 0.5563954 0.3930146 0.6980594 0.8109647 0.3539171 0.9266725 0.1719688 0.9266725 0.3539171 0.3930146 0.3368161 0.3899434 0.4784802 0.3899434 0.3368161 0.5192739 0.1668195 0.5162028 0.0251553 0.5192739 0.0251553 0.7708925 0.1683011 0.7708925 0.3502494 0.7419656 0.3502494 0.5162026 0.4643144 0.5192739 0.4643145 0.5192738 0.6059786 0.9555995 0.3539171 0.9555995 0.1719688 0.9845265 0.1719688 0.5162026 0.386399 0.5162027 0.2447348 0.5192739 0.2447348 0.9155272 0.1683011 0.9155272 0.3502494 0.7998195 0.3502494 0.9878447 0.1683011 0.9878447 0.3502494 0.944454 0.3502494 0.3898305 0.1668193 0.3867593 0.1668193 0.3867593 0.02515536 0.7386475 0.3539171 0.7386475 0.1719688 0.782038 0.1719688 0.3899434 0.6980594 0.3899434 0.5563954 0.3930146 0.5563954 0.8109647 0.3539171 0.8109647 0.1719688 0.9266725 0.1719688 0.3930146 0.3368161 0.3930146 0.4784802 0.3899434 0.4784802 0.5192739 0.1668195 0.5162027 0.1668195 0.5162028 0.0251553</float_array>
          <technique_common>
            <accessor source="#Plane_009-mesh-map-0-array" count="420" stride="2">
              <param name="S" type="float"/>
              <param name="T" type="float"/>
            </accessor>
          </technique_common>
        </source>
        <vertices id="Plane_009-mesh-vertices">
          <input semantic="POSITION" source="#Plane_009-mesh-positions"/>
        </vertices>
        <triangles material="Material_001-material" count="140">
          <input semantic="VERTEX" source="#Plane_009-mesh-vertices" offset="0"/>
          <input semantic="NORMAL" source="#Plane_009-mesh-normals" offset="1"/>
          <input semantic="TEXCOORD" source="#Plane_009-mesh-map-0" offset="2" set="0"/>
          <p>2 0 0 1 0 1 0 0 2 6 0 3 5 0 4 4 0 5 10 0 6 9 0 7 8 0 8 13 1 9 14 1 10 12 1 11 17 1 12 18 1 13 16 1 14 21 1 15 22 1 16 20 1 17 44 2 18 21 2 19 54 2 20 45 3 21 14 3 22 53 3 23 46 3 24 18 3 25 51 3 26 53 4 27 39 4 28 59 4 29 48 3 30 22 3 31 55 3 32 49 5 33 12 5 34 45 5 35 50 2 36 13 2 37 49 2 38 55 6 39 23 6 40 44 6 41 52 2 42 17 2 43 47 2 44 34 0 45 67 0 46 60 0 47 54 7 48 65 7 49 70 7 50 65 1 51 20 1 52 62 1 53 51 8 54 63 8 55 68 8 56 41 1 57 16 1 58 38 1 59 50 2 60 43 2 61 57 2 62 31 0 63 37 0 64 43 0 65 42 0 66 24 0 67 26 0 68 43 0 69 36 0 70 42 0 71 56 2 72 26 2 73 47 2 74 57 2 75 42 2 76 56 2 77 15 1 78 39 1 79 14 1 80 40 1 81 38 1 82 39 1 83 58 3 84 16 3 85 46 3 86 59 9 87 38 9 88 58 9 89 37 3 90 58 3 91 36 3 92 36 3 93 46 3 94 24 3 95 40 10 96 56 10 97 41 10 98 41 2 99 47 2 100 17 2 101 15 11 102 57 11 103 40 11 104 61 3 105 51 3 106 68 3 107 67 2 108 54 2 109 70 2 110 27 2 111 47 2 112 26 2 113 35 6 114 44 6 115 32 6 116 31 2 117 49 2 118 30 2 119 30 5 120 45 5 121 28 5 122 34 3 123 55 3 124 35 3 125 29 3 126 59 3 127 37 3 128 24 3 129 51 3 130 25 3 131 28 3 132 53 3 133 29 3 134 32 2 135 54 2 136 33 2 137 27 2 138 71 2 139 52 2 140 66 2 141 70 2 142 71 2 143 34 3 144 69 3 145 48 3 146 60 3 147 68 3 148 69 3 149 69 3 150 20 3 151 48 3 152 68 12 153 62 12 154 69 12 155 19 1 156 63 1 157 18 1 158 64 1 159 62 1 160 63 1 161 71 2 162 19 2 163 52 2 164 70 13 165 64 13 166 71 13 167 61 0 168 27 0 169 25 0 170 60 0 171 66 0 172 61 0 173 2 0 174 3 0 175 1 0 176 6 0 177 7 0 178 5 0 179 10 0 180 11 0 181 9 0 182 13 1 183 15 1 184 14 1 185 17 1 186 19 1 187 18 1 188 21 1 189 23 1 190 22 1 191 44 2 192 23 2 193 21 2 194 45 3 195 12 3 196 14 3 197 46 3 198 16 3 199 18 3 200 53 3 201 14 3 202 39 3 203 48 3 204 20 3 205 22 3 206 49 5 207 13 5 208 12 5 209 50 2 210 15 2 211 13 2 212 55 6 213 22 6 214 23 6 215 52 2 216 19 2 217 17 2 218 34 0 219 33 0 220 67 0 221 54 2 222 21 2 223 65 2 224 65 1 225 21 1 226 20 1 227 51 3 228 18 3 229 63 3 230 41 1 231 17 1 232 16 1 233 50 2 234 31 2 235 43 2 236 31 0 237 29 0 238 37 0 239 42 0 240 36 0 241 24 0 242 43 0 243 37 0 244 36 0 245 56 2 246 42 2 247 26 2 248 57 2 249 43 2 250 42 2 251 15 1 252 40 1 253 39 1 254 40 1 255 41 1 256 38 1 257 58 14 258 38 14 259 16 14 260 59 3 261 39 3 262 38 3 263 37 3 264 59 3 265 58 3 266 36 3 267 58 3 268 46 3 269 40 15 270 57 15 271 56 15 272 41 2 273 56 2 274 47 2 275 15 2 276 50 2 277 57 2 278 61 3 279 25 3 280 51 3 281 67 2 282 33 2 283 54 2 284 27 2 285 52 2 286 47 2 287 35 6 288 55 6 289 44 6 290 31 2 291 50 2 292 49 2 293 30 5 294 49 5 295 45 5 296 34 3 297 48 3 298 55 3 299 29 3 300 53 3 301 59 3 302 24 3 303 46 3 304 51 3 305 28 3 306 45 3 307 53 3 308 32 2 309 44 2 310 54 2 311 27 2 312 66 2 313 71 2 314 66 2 315 67 2 316 70 2 317 34 3 318 60 3 319 69 3 320 60 3 321 61 3 322 68 3 323 69 16 324 62 16 325 20 16 326 68 3 327 63 3 328 62 3 329 19 1 330 64 1 331 63 1 332 64 1 333 65 1 334 62 1 335 71 2 336 64 2 337 19 2 338 70 2 339 65 2 340 64 2 341 61 0 342 66 0 343 27 0 344 60 0 345 67 0 346 66 0 347 8 3 348 35 3 349 10 3 350 11 6 351 35 6 352 32 6 353 33 2 354 11 2 355 32 2 356 9 5 357 34 5 358 8 5 359 4 3 360 25 3 361 6 3 362 0 3 363 29 3 364 2 3 365 30 5 366 0 5 367 1 5 368 30 2 369 3 2 370 31 2 371 2 6 372 31 6 373 3 6 374 26 2 375 7 2 376 27 2 377 5 5 378 24 5 379 4 5 380 25 6 381 7 6 382 6 6 383 8 3 384 34 3 385 35 3 386 11 6 387 10 6 388 35 6 389 33 2 390 9 2 391 11 2 392 9 5 393 33 5 394 34 5 395 4 3 396 24 3 397 25 3 398 0 3 399 28 3 400 29 3 401 30 5 402 28 5 403 0 5 404 30 2 405 1 2 406 3 2 407 2 6 408 29 6 409 31 6 410 26 2 411 5 2 412 7 2 413 5 5 414 26 5 415 24 5 416 25 6 417 27 6 418 7 6 419</p>
        </triangles>
      </mesh>
    </geometry>
  </library_geometries>
  <library_visual_scenes>
    <visual_scene id="Scene" name="Scene">
      <node id="Plane_005" name="Plane.005" type="NODE">
        <matrix sid="transform">1 0 0 0 0 1 0 0 0 0 1 0 0 0 0 1</matrix>
        <instance_geometry url="#Plane_009-mesh" name="Plane.005">
          <bind_material>
            <technique_common>
              <instance_material symbol="Material_001-material" target="#Material_001-material">
                <bind_vertex_input semantic="Plane_009-mesh-map-0" input_semantic="TEXCOORD" input_set="0"/>
              </instance_material>
            </technique_common>
          </bind_material>
        </instance_geometry>
      </node>
    </visual_scene>
  </library_visual_scenes>
  <scene>
    <instance_visual_scene url="#Scene"/>
  </scene>
</COLLADA>