<?xml version="1.0" encoding="utf-8"?>
<COLLADA xmlns="http://www.collada.org/2005/11/COLLADASchema" version="1.4.1" xmlns:xsi="http://www.w3.org/2001/XMLSchema-instance">
  <asset>
    <contributor>
      <author>Blender User</author>
      <authoring_tool>Blender 4.5.2 LTS commit date:2025-08-19, commit time:15:00, hash:ab25eae04993</authoring_tool>
    </contributor>
    <created>2026-09-05T22:30:08</created>
    <modified>2026-09-05T22:30:08</modified>
    <unit name="meter" meter="1"/>
    <up_axis>Z_UP</up_axis>
  </asset>
  <library_effects>
    <effect id="Material_002-effect">
      <profile_COMMON>
        <newparam sid="photo_2026-08-29_00-38-51_jpg-surface">
          <surface type="2D">
            <init_from>photo_2026-08-29_00-38-51_jpg</init_from>
          </surface>
        </newparam>
        <newparam sid="photo_2026-08-29_00-38-51_jpg-sampler">
          <sampler2D>
            <source>photo_2026-08-29_00-38-51_jpg-surface</source>
          </sampler2D>
        </newparam>
        <technique sid="common">
          <lambert>
            <emission>
              <color sid="emission">0 0 0 1</color>
            </emission>
            <diffuse>
              <texture texture="photo_2026-08-29_00-38-51_jpg-sampler" texcoord="Plane_005-mesh-map-0"/>
            </diffuse>
            <index_of_refraction>
              <float sid="ior">1.45</float>
            </index_of_refraction>
          </lambert>
        </technique>
      </profile_COMMON>
    </effect>
  </library_effects>
  <library_images>
    <image id="photo_2026-08-29_00-38-51_jpg" name="photo_2026-08-29_00-38-51_jpg">
      <init_from>map.png</init_from>
    </image>
  </library_images>
  <library_materials>
    <material id="Material_002-material" name="Material.002">
      <instance_effect url="#Material_002-effect"/>
    </material>
  </library_materials>
  <library_geometries>
    <geometry id="Plane_005-mesh" name="Plane.005">
      <mesh>
        <source id="Plane_005-mesh-positions">
          <float_array id="Plane_005-mesh-positions-array" count="96">3.214941 -0.8208354 3.5 3.214941 -0.9708355 3.5 2.11494 -0.8208353 3.5 2.11494 -0.9708354 3.5 4.31494 -0.8208354 3.5 4.31494 -0.9708355 3.5 5.414941 -0.9708356 3.5 2.11494 -0.9708354 2.5 3.214941 -0.8208354 2.5 5.414941 -0.8208355 2.5 4.31494 -0.8208354 2.5 3.581607 -0.8208354 3.5 3.948274 -0.8208354 3.5 3.581607 -0.9708355 3.5 3.948274 -0.9708355 3.5 3.948274 -0.9708355 2.5 3.581607 -0.9708355 2.5 3.948274 -0.8208354 2.5 3.581607 -0.8208354 2.5 5.414941 -0.9708356 2.5 4.31494 -0.9708355 2.5 2.11494 -0.8208353 2.5 3.214941 -0.9708355 2.5 2.11494 -0.8208353 -1.78814e-7 3.214941 -0.8208354 -1.78814e-7 3.214941 -0.9708355 -1.78814e-7 2.11494 -0.9708354 -1.78814e-7 4.31494 -0.8208354 -2.38419e-7 5.414941 -0.8208355 -2.38419e-7 5.414941 -0.9708356 -2.38419e-7 4.31494 -0.9708355 -2.38419e-7 5.414941 -0.8208355 3.5</float_array>
          <technique_common>
            <accessor source="#Plane_005-mesh-positions-array" count="32" stride="3">
              <param name="X" type="float"/>
              <param name="Y" type="float"/>
              <param name="Z" type="float"/>
            </accessor>
          </technique_common>
        </source>
        <source id="Plane_005-mesh-normals">
          <float_array id="Plane_005-mesh-normals-array" count="129">3.6124e-7 0 1 0 0 1 0 -1 0 0 0 1 0 1 0 0 1 0 -1.08372e-6 0 1 -1.62558e-7 -1 0 0 -1 0 -1 0 4.76837e-7 0 1 0 0 1 0 1 0 0 0 -1 0 -1 0 0 0 -1 0 1 0 0 -1 0 0 -7.22479e-7 0 1 0 1 0 0 -1 0 1 0 -4.76837e-7 2.16744e-6 0 1 1.62558e-7 1 1.62558e-7 0 -1 0 0 1 0 0 1 0 0 1 0 0 -1 0 0 -1 0 1 0 0 -1 -7.62939e-6 0 0 0 -1 0 0 -1 -1.08372e-6 0 -1 0 1 0 0 1 0 -1.62558e-7 -1 0 0 -1 0 -1 -3.17891e-6 0 0 -1 0 1.62559e-7 1 0 0 1 0</float_array>
          <technique_common>
            <accessor source="#Plane_005-mesh-normals-array" count="43" stride="3">
              <param name="X" type="float"/>
              <param name="Y" type="float"/>
              <param name="Z" type="float"/>
            </accessor>
          </technique_common>
        </source>
        <source id="Plane_005-mesh-map-0">
          <float_array id="Plane_005-mesh-map-0-array" count="360">0.5122445 0.446101 0.5122445 0.455603 0.4921022 0.455603 0.5323868 0.455603 0.5323868 0.446101 0.5525292 0.446101 0.8256129 0.6028738 0.8333582 0.5297968 0.8333582 0.6028738 0.5256727 0.455603 0.5256727 0.446101 0.5323868 0.446101 0.8266453 0.5323604 0.8343906 0.6054374 0.8266453 0.6054374 0.7956636 0.5323604 0.8188998 0.6054374 0.7956636 0.6054374 0.5122445 0.455603 0.5122445 0.446101 0.5189587 0.446101 0.5189587 0.455603 0.5189587 0.446101 0.5256727 0.446101 0.8178676 0.6028738 0.8256129 0.5297968 0.8256129 0.6028738 0.7946313 0.6028738 0.8178676 0.5297968 0.8178676 0.6028738 0.473791 0.455603 0.4921022 0.446101 0.4921022 0.455603 0.8421359 0.3496682 0.8653723 0.3496682 0.8653723 0.5323604 0.7956636 0.3496682 0.8188998 0.3496682 0.8188998 0.5323604 0.5397114 0.1076528 0.5397114 0.09815073 0.5854893 0.09815061 0.8411037 0.3471046 0.86434 0.3471046 0.86434 0.5297968 0.5195689 0.09815078 0.5195689 0.1076529 0.4737909 0.107653 0.7946313 0.3471046 0.8178676 0.3471046 0.8178676 0.5297968 0.4078706 0.1076527 0.4078707 0.09815055 0.4536486 0.09815096 0.428013 0.455603 0.428013 0.446101 0.473791 0.446101 0.5122445 0.446101 0.4921022 0.455603 0.4921022 0.446101 0.5323868 0.455603 0.5525292 0.446101 0.5525292 0.455603 0.8188998 0.6054374 0.8266453 0.5323604 0.8266453 0.6054374 0.5256727 0.455603 0.5323868 0.446101 0.5323868 0.455603 0.8411037 0.6028738 0.86434 0.5297968 0.86434 0.6028738 0.5854893 0.1076527 0.6038005 0.09815061 0.6038005 0.1076526 0.5122445 0.455603 0.5189587 0.446101 0.5189587 0.455603 0.5189587 0.455603 0.5256727 0.446101 0.5256727 0.455603 0.8343906 0.5323604 0.8421359 0.6054374 0.8343906 0.6054374 0.8333582 0.5297968 0.8411037 0.6028738 0.8333582 0.6028738 0.8421359 0.5323604 0.8653723 0.6054374 0.8421359 0.6054374 0.8421359 0.3496682 0.8653723 0.5323604 0.8421359 0.5323604 0.7956636 0.3496682 0.8188998 0.5323604 0.7956636 0.5323604 0.5397114 0.1076528 0.5854893 0.09815061 0.5854893 0.1076527 0.8411037 0.3471046 0.86434 0.5297968 0.8411037 0.5297968 0.5195689 0.09815078 0.4737909 0.107653 0.4737909 0.0981509 0.7946313 0.3471046 0.8178676 0.5297968 0.7946313 0.5297968 0.4078706 0.1076527 0.4536486 0.09815096 0.4536486 0.107653 0.428013 0.455603 0.473791 0.446101 0.473791 0.455603 0.4603627 0.107653 0.4536486 0.09815096 0.4603627 0.0981509 0.4670768 0.107653 0.4603627 0.0981509 0.4670768 0.0981509 0.4737909 0.0981509 0.4670768 0.107653 0.4670768 0.0981509 0.4078706 0.455603 0.428013 0.446101 0.428013 0.455603 0.4078706 0.446101 0.428013 0.446101 0.4078706 0.455603 0.5397114 0.09815073 0.5195689 0.1076529 0.5195689 0.09815078 0.5397114 0.1076528 0.5195689 0.1076529 0.5397114 0.09815073 0.8256129 0.6028738 0.8256129 0.5297968 0.8333582 0.5297968 0.8266453 0.5323604 0.8343906 0.5323604 0.8343906 0.6054374 0.7956636 0.5323604 0.8188998 0.5323604 0.8188998 0.6054374 0.8178676 0.6028738 0.8178676 0.5297968 0.8256129 0.5297968 0.7946313 0.6028738 0.7946313 0.5297968 0.8178676 0.5297968 0.473791 0.455603 0.473791 0.446101 0.4921022 0.446101 0.8188998 0.6054374 0.8188998 0.5323604 0.8266453 0.5323604 0.8411037 0.6028738 0.8411037 0.5297968 0.86434 0.5297968 0.5854893 0.1076527 0.5854893 0.09815061 0.6038005 0.09815061 0.8343906 0.5323604 0.8421359 0.5323604 0.8421359 0.6054374 0.8333582 0.5297968 0.8411037 0.5297968 0.8411037 0.6028738 0.8421359 0.5323604 0.8653723 0.5323604 0.8653723 0.6054374 0.4603627 0.107653 0.4536486 0.107653 0.4536486 0.09815096 0.4670768 0.107653 0.4603627 0.107653 0.4603627 0.0981509 0.4737909 0.0981509 0.4737909 0.107653 0.4670768 0.107653</float_array>
          <technique_common>
            <accessor source="#Plane_005-mesh-map-0-array" count="180" stride="2">
              <param name="S" type="float"/>
              <param name="T" type="float"/>
            </accessor>
          </technique_common>
        </source>
        <vertices id="Plane_005-mesh-vertices">
          <input semantic="POSITION" source="#Plane_005-mesh-positions"/>
        </vertices>
        <triangles material="Material_002-material" count="60">
          <input semantic="VERTEX" source="#Plane_005-mesh-vertices" offset="0"/>
          <input semantic="NORMAL" source="#Plane_005-mesh-normals" offset="1"/>
          <input semantic="TEXCOORD" source="#Plane_005-mesh-map-0" offset="2" set="0"/>
          <p>1 0 0 0 0 1 2 0 2 4 1 3 5 1 4 6 1 5 13 2 6 15 2 7 14 2 8 12 3 9 14 3 10 5 3 11 17 4 12 11 4 13 12 4 14 9 5 15 4 5 16 31 5 17 0 6 18 1 6 19 13 6 20 11 3 21 13 3 22 14 3 23 1 7 24 16 7 25 13 7 26 3 8 27 22 8 28 1 8 29 21 9 30 3 9 31 2 9 32 24 10 33 23 10 34 21 10 35 28 11 36 27 11 37 10 11 38 29 12 39 28 12 40 9 12 41 30 13 42 29 13 43 19 13 44 27 14 45 30 14 46 20 14 47 26 15 48 25 15 49 22 15 50 25 16 51 24 16 52 8 16 53 23 17 54 26 17 55 7 17 56 1 18 57 2 18 58 3 18 59 4 3 60 6 3 61 31 3 62 4 19 63 17 19 64 12 19 65 12 3 66 5 3 67 4 3 68 5 20 69 19 20 70 6 20 71 19 21 72 31 21 73 6 21 74 0 22 75 13 22 76 11 22 77 11 3 78 14 3 79 12 3 80 18 23 81 0 23 82 11 23 83 15 24 84 5 24 85 14 24 86 8 25 87 2 25 88 0 25 89 24 26 90 21 26 91 8 26 92 28 27 93 10 27 94 9 27 95 29 12 96 9 12 97 19 12 98 30 28 99 19 28 100 20 28 101 27 14 102 20 14 103 10 14 104 26 29 105 22 29 106 7 29 107 25 30 108 8 30 109 22 30 110 23 31 111 7 31 112 21 31 113 16 32 114 8 32 115 18 32 116 15 33 117 18 33 118 17 33 119 10 34 120 15 34 121 17 34 122 24 33 123 26 33 124 23 33 125 25 33 126 26 33 127 24 33 128 28 33 129 30 33 130 27 33 131 29 33 132 30 33 133 28 33 134 13 24 135 16 24 136 15 24 137 17 35 138 18 35 139 11 35 140 9 36 141 10 36 142 4 36 143 1 37 144 22 37 145 16 37 146 3 38 147 7 38 148 22 38 149 21 39 150 7 39 151 3 39 152 4 4 153 10 4 154 17 4 155 5 40 156 20 40 157 19 40 158 19 21 159 9 21 160 31 21 161 18 41 162 8 41 163 0 41 164 15 2 165 20 2 166 5 2 167 8 42 168 21 42 169 2 42 170 16 33 171 22 33 172 8 33 173 15 33 174 16 33 175 18 33 176 10 33 177 20 33 178 15 33 179</p>
        </triangles>
      </mesh>
    </geometry>
  </library_geometries>
  <library_visual_scenes>
    <visual_scene id="Scene" name="Scene">
      <node id="Plane_001" name="Plane.001" type="NODE">
        <matrix sid="transform">1 0 0 0 0 1 0 0 0 0 1 0 0 0 0 1</matrix>
        <instance_geometry url="#Plane_005-mesh" name="Plane.001">
          <bind_material>
            <technique_common>
              <instance_material symbol="Material_002-material" target="#Material_002-material">
                <bind_vertex_input semantic="Plane_005-mesh-map-0" input_semantic="TEXCOORD" input_set="0"/>
              </instance_material>
            </technique_common>
          </bind_material>
        </instance_geometry>
      </node>
    </visual_scene>
  </library_visual_scenes>
  <scene>
    <instance_visual_scene url="#Scene"/>
  </scene>
</COLLADA>