<?xml version="1.0" encoding="utf-8"?>
<COLLADA xmlns="http://www.collada.org/2005/11/COLLADASchema" version="1.4.1" xmlns:xsi="http://www.w3.org/2001/XMLSchema-instance">
  <asset>
    <contributor>
      <author>Blender User</author>
      <authoring_tool>Blender 4.5.2 LTS commit date:2025-08-19, commit time:15:00, hash:ab25eae04993</authoring_tool>
    </contributor>
    <created>2025-09-04T18:46:57</created>
    <modified>2025-09-04T18:46:57</modified>
    <unit name="meter" meter="1"/>
    <up_axis>Z_UP</up_axis>
  </asset>
  <library_effects>
    <effect id="Material_001-effect">
      <profile_COMMON>
        <newparam sid="textures_second1_png-surface">
          <surface type="2D">
            <init_from>textures_second1_png</init_from>
          </surface>
        </newparam>
        <newparam sid="textures_second1_png-sampler">
          <sampler2D>
            <source>textures_second1_png-surface</source>
          </sampler2D>
        </newparam>
        <technique sid="common">
          <lambert>
            <emission>
              <color sid="emission">0 0 0 1</color>
            </emission>
            <diffuse>
              <texture texture="textures_second1_png-sampler" texcoord="Plane_006-mesh-map-0"/>
            </diffuse>
            <index_of_refraction>
              <float sid="ior">1.5</float>
            </index_of_refraction>
          </lambert>
        </technique>
      </profile_COMMON>
    </effect>
  </library_effects>
  <library_images>
    <image id="textures_second1_png" name="textures_second1_png">
      <init_from>textures_second1.png</init_from>
    </image>
  </library_images>
  <library_materials>
    <material id="Material_001-material" name="Material.001">
      <instance_effect url="#Material_001-effect"/>
    </material>
  </library_materials>
  <library_geometries>
    <geometry id="Plane_006-mesh" name="Plane.006">
      <mesh>
        <source id="Plane_006-mesh-positions">
          <float_array id="Plane_006-mesh-positions-array" count="348">-2.95 -2.65 0 -2.95 -2.8 0 0.3499994 -2.65 0 0.3499994 -2.8 0 -4.05 -2.65 0 -4.05 -2.8 0 -4.6 -2.65 0 1.45 -2.65 0 1.45 -2.8 0 5.3 -2.65 0 5.3 -2.8 0 6.4 -2.65 0 6.4 -2.8 0 7.5 -2.65 0 7.5 -2.8 0 -2.95 -2.65 3 -2.95 -2.8 3 0.3499994 -2.65 3 0.3499994 -2.8 3 -4.05 -2.65 3 -4.05 -2.8 3 -4.6 -2.8 3 -4.6 -2.65 3 1.45 -2.65 3 1.45 -2.8 3 5.3 -2.65 3 5.3 -2.8 3 6.4 -2.65 3 6.4 -2.8 3 7.5 -2.65 3 7.5 -2.8 3 1.45 -2.8 2 1.45 -2.65 2 5.3 -2.65 2 5.3 -2.8 2 -2.95 -2.65 2 0.3499994 -2.65 2 -2.95 -2.8 2 0.3499994 -2.8 2 -4.05 -2.65 2 -4.05 -2.8 2 7.5 -2.65 2 7.5 -2.8 2 6.4 -2.8 2 6.4 -2.65 2 5.974997 -2.65 2 5.725001 -2.65 2 6.033333 -2.65 3 5.666666 -2.65 3 5.666666 -2.8 3 6.033333 -2.8 3 5.725001 -2.8 2 5.974997 -2.8 2 7.5 -2.65 2.375 -4.6 -2.65 2.375 -4.6 -2.8 2.375 -2.95 -2.65 2.375 6.4 -2.65 2.375 1.45 -2.8 2.375 -2.95 -2.8 2.375 5.3 -2.65 2.375 0.3499994 -2.8 2.375 1.45 -2.65 2.375 5.3 -2.8 2.375 0.3499994 -2.65 2.375 -4.05 -2.65 2.375 -4.05 -2.8 2.375 7.5 -2.8 2.375 6.4 -2.8 2.375 5.974997 -2.65 2.25 5.725001 -2.65 2.25 5.725001 -2.8 2.25 5.974997 -2.8 2.25 1.083333 -2.65 3 0.7166662 -2.65 3 1.024999 -2.65 2 0.7749997 -2.65 2 1.024999 -2.8 2 0.7749997 -2.8 2 1.083333 -2.8 3 0.7166662 -2.8 3 0.7749997 -2.65 2.25 1.024999 -2.65 2.25 0.7749997 -2.8 2.25 1.024999 -2.8 2.25 -3.375003 -2.65 2 -3.624999 -2.65 2 -3.316667 -2.65 3 -3.683334 -2.65 3 -3.375003 -2.8 2 -3.624999 -2.8 2 -3.316667 -2.8 3 -3.683334 -2.8 3 -3.375003 -2.8 2.25 -3.624999 -2.8 2.25 -3.624999 -2.65 2.25 -3.375003 -2.65 2.25 -4.6 -2.65 2 -4.6 -2.8 0 -4.6 -2.8 2 0.3499994 -2.65 0.15 -2.95 -2.65 0.15 -2.95 -2.8 0.15 0.3499994 -2.8 0.15 1.45 -2.8 0.15 5.3 -2.8 0.15 5.3 -2.65 0.15 1.45 -2.65 0.15 -4.05 -2.8 0.15 -4.05 -2.65 0.15 -4.6 -2.8 0.4 -4.6 -2.65 0.4 6.4 -2.8 0.15 7.5 -2.8 0.4 7.5 -2.65 0.4 6.4 -2.65 0.15</float_array>
          <technique_common>
            <accessor source="#Plane_006-mesh-positions-array" count="116" stride="3">
              <param name="X" type="float"/>
              <param name="Y" type="float"/>
              <param name="Z" type="float"/>
            </accessor>
          </technique_common>
        </source>
        <source id="Plane_006-mesh-normals">
          <float_array id="Plane_006-mesh-normals-array" count="51">0 0 -1 0 0 1 1 0 0 0 1 0 0 -1 0 -1 0 0 0 -1 2.87057e-7 0 1 2.87058e-7 0 -1 1.58948e-7 0 -1 -5.4186e-7 0 -1 0 0 -1 -8.66978e-7 0 1 3.17896e-7 0 1 5.74114e-7 0 -1 -7.65491e-7 0 -1 0 0 1 4.33488e-7</float_array>
          <technique_common>
            <accessor source="#Plane_006-mesh-normals-array" count="17" stride="3">
              <param name="X" type="float"/>
              <param name="Y" type="float"/>
              <param name="Z" type="float"/>
            </accessor>
          </technique_common>
        </source>
        <source id="Plane_006-mesh-map-0">
          <float_array id="Plane_006-mesh-map-0-array" count="1440">0.5693688 0.1330657 0.5721374 0.3436613 0.5693688 0.3436613 0.4595414 0.8237404 0.4616814 0.8508719 0.4595414 0.8508719 0.5653337 0.1330657 0.5681022 0.3787606 0.5653337 0.3787606 0.564067 0.2032642 0.5612985 0.1330657 0.564067 0.1330657 0.4595413 0.5943561 0.4616814 0.4315672 0.4616814 0.5943561 0.4616814 0.648619 0.4595413 0.6757506 0.4595413 0.6486191 0.4595413 0.3773042 0.4616814 0.1873838 0.4616814 0.3773042 0.4595413 0.1331208 0.4616814 0.07885783 0.4616814 0.1331208 0.564067 0.3548291 0.5612985 0.3947147 0.5612985 0.3548291 0.9938035 0.06499457 0.979131 0.1235421 0.9790167 0.06538122 0.992806 0.5213817 0.9632329 0.5800944 0.9631782 0.521811 0.4595413 0.7065817 0.4616814 0.6757506 0.4616814 0.7065818 0.9494742 0.0658676 0.8607698 0.1248682 0.8607259 0.0667026 0.6977964 0.06600511 0.6680365 0.1237017 0.668142 0.06537836 0.4595413 0.3953919 0.4616814 0.3773042 0.4616814 0.3953918 0.8003453 0.5211901 0.8118182 0.486819 0.8117911 0.5099054 0.4243938 0.6407191 0.4177697 0.5847322 0.4243938 0.5847322 0.8003453 0.5211901 0.7114362 0.5778928 0.71152 0.5196908 0.9335876 0.5219302 0.8298951 0.5797382 0.8299159 0.5214934 0.8607259 0.0667026 0.8509016 0.1250067 0.8493041 0.05534458 0.8311563 0.06679552 0.7273854 0.1246517 0.7274097 0.06637662 0.6819485 0.5189853 0.6669889 0.5767397 0.6671467 0.5184946 0.4339639 0.4727584 0.4273398 0.4167716 0.4339639 0.4167715 0.9631782 0.521811 0.9533423 0.5801899 0.9517388 0.5104314 0.4595413 0.1512085 0.4616814 0.1331208 0.4616814 0.1512085 0.7159914 0.03171563 0.7274097 0.06637662 0.7159771 0.05481755 0.9790167 0.06538122 0.9692623 0.1237669 0.9675878 0.05414402 0.4369099 0.304798 0.443534 0.3607847 0.4369099 0.3607847 0.6916821 0.5775077 0.6819485 0.5189853 0.6934011 0.5078365 0.4616814 0.6305314 0.4595413 0.6486191 0.4595413 0.6305314 0.6978775 0.0309664 0.7092559 0.05471479 0.6977964 0.06600511 0.001730442 0.9171479 0.02397525 0.995852 0.001730442 0.995852 0.4595413 0.1873838 0.4616814 0.1692961 0.4616814 0.1873838 0.4595413 0.1692961 0.4616814 0.1512085 0.4616814 0.1692961 0.9450228 0.510473 0.9335718 0.5801662 0.9335876 0.5219302 0.9517388 0.5104314 0.9434558 0.5802145 0.9450228 0.510473 0.4339639 0.3607847 0.4273398 0.304798 0.4339639 0.304798 0.4339639 0.4167715 0.4273398 0.3607848 0.4339639 0.3607847 0.07592833 0.9166951 0.0536834 0.9953991 0.0536834 0.9166951 0.9450265 0.487382 0.9335876 0.5219302 0.933628 0.4869134 0.7092559 0.05471479 0.717495 0.1246185 0.7076014 0.1245115 0.6977964 0.06600511 0.7076014 0.1245115 0.6977034 0.1243362 0.6934011 0.5078365 0.6820589 0.4839975 0.6934759 0.4846807 0.9789322 0.03045821 0.9675878 0.05414402 0.9675295 0.03102326 0.7159771 0.05481755 0.7273854 0.1246517 0.717495 0.1246185 0.9631238 0.4868204 0.9517388 0.5104314 0.9517042 0.4872627 0.6820589 0.4839975 0.6671467 0.5184946 0.667242 0.4835739 0.8311976 0.03178077 0.7274097 0.06637662 0.7273976 0.03136497 0.8606762 0.0317685 0.8493041 0.05534458 0.8492785 0.03227323 0.933628 0.4869134 0.8299159 0.5214934 0.8299072 0.4865527 0.8004242 0.4861685 0.71152 0.5196908 0.7115453 0.4847249 0.8002636 0.5793884 0.8117911 0.5099054 0.8101411 0.5795673 0.6978775 0.0309664 0.668142 0.06537836 0.6682023 0.03042733 0.949474 0.03087681 0.8607259 0.0667026 0.8606762 0.0317685 0.4595414 0.7250804 0.4616814 0.7065818 0.4616814 0.7250804 0.9927626 0.4864273 0.9631782 0.521811 0.9631238 0.4868204 0.9937251 0.03010058 0.9790167 0.06538122 0.9789322 0.03045821 0.564067 0.3308978 0.5612985 0.3548291 0.5612985 0.3308979 0.8200165 0.5796797 0.8299159 0.5214934 0.8298951 0.5797382 0.8101411 0.5795673 0.8185009 0.5099486 0.8200165 0.5796797 0.8426073 0.03217923 0.8311563 0.06679552 0.8311976 0.03178077 0.02397525 0.9171479 0.001730442 0.995852 0.001730442 0.9171479 0.8425912 0.05533981 0.831138 0.1250762 0.8311563 0.06679552 0.8493041 0.05534458 0.8410243 0.1250762 0.8425912 0.05533981 0.4243938 0.5287453 0.4177697 0.4727585 0.4243938 0.4727585 0.4243938 0.5847322 0.4177697 0.5287453 0.4243938 0.5287453 0.8185009 0.5099486 0.8299072 0.4865527 0.8299159 0.5214934 0.07946467 0.9940402 0.1017095 0.9153361 0.1017095 0.9940402 0.4595413 0.4315672 0.4616814 0.4134795 0.4616814 0.4315672 0.4595413 0.4134795 0.4616814 0.3953918 0.4616814 0.4134795 0.960859 0.03121531 0.9494742 0.0658676 0.949474 0.03087681 0.05014699 0.9162421 0.02790218 0.9949461 0.02790218 0.9162421 0.71152 0.5196908 0.7001503 0.4849423 0.7115453 0.4847249 0.1017095 0.9940403 0.07946467 0.9153361 0.1017095 0.9153361 0.4616814 0.5943561 0.4595413 0.6124438 0.4595413 0.5943561 0.4616814 0.6124438 0.4595413 0.6305314 0.4595413 0.6124438 0.7114362 0.5778928 0.7001137 0.5080144 0.71152 0.5196908 0.7015601 0.5777349 0.6934011 0.5078365 0.7001137 0.5080144 0.4369099 0.4167716 0.443534 0.4727584 0.4369099 0.4727584 0.4369099 0.3607847 0.443534 0.4167716 0.4369099 0.4167716 0.9608842 0.05428194 0.9495246 0.1240218 0.9494742 0.0658676 0.9675878 0.05414402 0.9593948 0.1239281 0.9608842 0.05428194 0.6823968 0.31195 0.667242 0.4835739 0.6675693 0.3348051 0.4595414 0.8040084 0.4616814 0.7250804 0.4616814 0.8040084 0.9934871 -0.1183708 0.9789322 0.03045821 0.9787229 -0.1412919 0.443534 0.304798 0.4369099 0.06049174 0.443534 0.06049174 0.9492545 -0.1408621 0.8606762 0.0317685 0.8606638 -0.1401526 0.4369099 0.7170646 0.443534 0.4727584 0.443534 0.7170646 0.8005791 0.3142664 0.7115453 0.4847249 0.7119174 0.312651 0.4177697 0.8850252 0.4243938 0.6407191 0.4243938 0.8850252 0.9335664 0.3149331 0.8299072 0.4865527 0.8300907 0.3145942 0.8311553 -0.1401085 0.7273976 0.03136497 0.7276188 -0.1408735 0.4339639 0.0604918 0.4273398 0.304798 0.4273398 0.0604918 0.4243938 0.2284522 0.4177697 0.4727585 0.4177697 0.2284522 0.9926198 0.3377989 0.9631238 0.4868204 0.9630826 0.3148167 0.564067 0.2287909 0.5612985 0.3308979 0.5612985 0.2287909 0.6980634 -0.141271 0.6682023 0.03042733 0.6684356 -0.11852 0.4273398 0.7170645 0.4339639 0.4727584 0.4339639 0.7170645 0.4243938 0.06049174 0.4177697 0.2284522 0.4177697 0.06049174 0.8005956 0.3003362 0.7119174 0.312651 0.7119421 0.2987176 0.8005956 0.3003362 0.8300907 0.3145942 0.8005791 0.3142664 0.9492411 -0.154777 0.8606638 -0.1401526 0.860659 -0.1540768 0.7871393 0.4301449 0.81774 0.4157015 0.81774 0.4301449 0.9335656 0.3009991 0.9630826 0.3148167 0.9335664 0.3149331 0.8311584 -0.1540455 0.7276188 -0.1408735 0.7276316 -0.1548213 0.9335656 0.3009991 0.8300907 0.3145942 0.8300993 0.3006603 0.4273397 0.885025 0.4339639 0.7170645 0.4339638 0.885025 0.9934365 -0.1554304 0.9787229 -0.1412919 0.9787053 -0.1551922 0.4595414 0.8237404 0.4616814 0.8040084 0.4616814 0.8237404 0.6824254 0.2980185 0.6675693 0.3348051 0.6676506 0.2976322 0.6980634 -0.141271 0.7276316 -0.1548213 0.7276188 -0.1408735 0.6980811 -0.1552206 0.6684356 -0.11852 0.6684907 -0.1557443 0.564067 0.2032642 0.5612985 0.2287909 0.5612985 0.2032642 0.9925951 0.3006677 0.9630826 0.3148167 0.9630761 0.3008915 0.8311553 -0.1401085 0.860659 -0.1540768 0.8606638 -0.1401526 0.7871393 0.5280434 0.81774 0.5135999 0.81774 0.5280433 0.6823968 0.31195 0.7119421 0.2987176 0.7119174 0.312651 0.443534 0.7170646 0.4369099 0.885025 0.4369099 0.7170646 0.9492411 -0.154777 0.9787229 -0.1412919 0.9492545 -0.1408621 0.6756334 0.3410845 0.9524412 0.3410843 0.70639 0.3410844 0.5693688 0.1330657 0.5721374 0.1330657 0.5721374 0.3436613 0.4595414 0.8237404 0.4616814 0.8237404 0.4616814 0.8508719 0.5653337 0.1330657 0.5681022 0.1330657 0.5681022 0.3787606 0.9925864 0.2867422 0.9925951 0.3006677 0.9630761 0.3008915 0.4595413 0.5943561 0.4595413 0.4315672 0.4616814 0.4315672 0.4616814 0.648619 0.4616814 0.6757506 0.4595413 0.6757506 0.4595413 0.3773042 0.4595413 0.1873838 0.4616814 0.1873838 0.4595413 0.1331208 0.4595413 0.07885783 0.4616814 0.07885783 0.564067 0.3548291 0.564067 0.3947147 0.5612985 0.3947147 0.9938035 0.06499457 0.9939277 0.1231639 0.979131 0.1235421 0.992806 0.5213817 0.9928786 0.5796531 0.9632329 0.5800944 0.4595413 0.7065817 0.4595413 0.6757506 0.4616814 0.6757506 0.9494742 0.0658676 0.9495246 0.1240218 0.8607698 0.1248682 0.6977964 0.06600511 0.6977034 0.1243362 0.6680365 0.1237017 0.4595413 0.3953919 0.4595413 0.3773042 0.4616814 0.3773042 0.8003453 0.5211901 0.8004242 0.4861685 0.8118182 0.486819 0.4243938 0.6407191 0.4177697 0.6407191 0.4177697 0.5847322 0.8003453 0.5211901 0.8002636 0.5793884 0.7114362 0.5778928 0.9335876 0.5219302 0.9335718 0.5801662 0.8298951 0.5797382 0.8607259 0.0667026 0.8607698 0.1248682 0.8509016 0.1250067 0.8311563 0.06679552 0.831138 0.1250762 0.7273854 0.1246517 0.6819485 0.5189853 0.6818017 0.5772134 0.6669889 0.5767397 0.4339639 0.4727584 0.4273398 0.4727585 0.4273398 0.4167716 0.9631782 0.521811 0.9632329 0.5800944 0.9533423 0.5801899 0.4595413 0.1512085 0.4595413 0.1331208 0.4616814 0.1331208 0.7159914 0.03171563 0.7273976 0.03136497 0.7274097 0.06637662 0.9790167 0.06538122 0.979131 0.1235421 0.9692623 0.1237669 0.4369099 0.304798 0.443534 0.304798 0.443534 0.3607847 0.6916821 0.5775077 0.6818017 0.5772134 0.6819485 0.5189853 0.4616814 0.6305314 0.4616814 0.648619 0.4595413 0.6486191 0.6978775 0.0309664 0.7093095 0.03152698 0.7092559 0.05471479 0.001730442 0.9171479 0.02397525 0.9171479 0.02397525 0.995852 0.4595413 0.1873838 0.4595413 0.1692961 0.4616814 0.1692961 0.4595413 0.1692961 0.4595413 0.1512085 0.4616814 0.1512085 0.9450228 0.510473 0.9434558 0.5802145 0.9335718 0.5801662 0.9517388 0.5104314 0.9533423 0.5801899 0.9434558 0.5802145 0.4339639 0.3607847 0.4273398 0.3607848 0.4273398 0.304798 0.4339639 0.4167715 0.4273398 0.4167716 0.4273398 0.3607848 0.07592833 0.9166951 0.07592833 0.9953991 0.0536834 0.9953991 0.9450265 0.487382 0.9450228 0.510473 0.9335876 0.5219302 0.7092559 0.05471479 0.7159771 0.05481755 0.717495 0.1246185 0.6977964 0.06600511 0.7092559 0.05471479 0.7076014 0.1245115 0.6934011 0.5078365 0.6819485 0.5189853 0.6820589 0.4839975 0.9789322 0.03045821 0.9790167 0.06538122 0.9675878 0.05414402 0.7159771 0.05481755 0.7274097 0.06637662 0.7273854 0.1246517 0.9631238 0.4868204 0.9631782 0.521811 0.9517388 0.5104314 0.6820589 0.4839975 0.6819485 0.5189853 0.6671467 0.5184946 0.8311976 0.03178077 0.8311563 0.06679552 0.7274097 0.06637662 0.8606762 0.0317685 0.8607259 0.0667026 0.8493041 0.05534458 0.933628 0.4869134 0.9335876 0.5219302 0.8299159 0.5214934 0.8004242 0.4861685 0.8003453 0.5211901 0.71152 0.5196908 0.8002636 0.5793884 0.8003453 0.5211901 0.8117911 0.5099054 0.6978775 0.0309664 0.6977964 0.06600511 0.668142 0.06537836 0.949474 0.03087681 0.9494742 0.0658676 0.8607259 0.0667026 0.4595414 0.7250804 0.4595413 0.7065817 0.4616814 0.7065818 0.9927626 0.4864273 0.992806 0.5213817 0.9631782 0.521811 0.9937251 0.03010058 0.9938035 0.06499457 0.9790167 0.06538122 0.564067 0.3308978 0.564067 0.3548291 0.5612985 0.3548291 0.8200165 0.5796797 0.8185009 0.5099486 0.8299159 0.5214934 0.8101411 0.5795673 0.8117911 0.5099054 0.8185009 0.5099486 0.8426073 0.03217923 0.8425912 0.05533981 0.8311563 0.06679552 0.02397525 0.9171479 0.02397525 0.995852 0.001730442 0.995852 0.8425912 0.05533981 0.8410243 0.1250762 0.831138 0.1250762 0.8493041 0.05534458 0.8509016 0.1250067 0.8410243 0.1250762 0.4243938 0.5287453 0.4177697 0.5287453 0.4177697 0.4727585 0.4243938 0.5847322 0.4177697 0.5847322 0.4177697 0.5287453 0.8185009 0.5099486 0.8184955 0.4868085 0.8299072 0.4865527 0.07946467 0.9940402 0.07946467 0.9153361 0.1017095 0.9153361 0.4595413 0.4315672 0.4595413 0.4134795 0.4616814 0.4134795 0.4595413 0.4134795 0.4595413 0.3953919 0.4616814 0.3953918 0.960859 0.03121531 0.9608842 0.05428194 0.9494742 0.0658676 0.05014699 0.9162421 0.05014699 0.9949461 0.02790218 0.9949461 0.71152 0.5196908 0.7001137 0.5080144 0.7001503 0.4849423 0.1017095 0.9940403 0.07946467 0.9940403 0.07946467 0.9153361 0.4616814 0.5943561 0.4616814 0.6124438 0.4595413 0.6124438 0.4616814 0.6124438 0.4616814 0.6305314 0.4595413 0.6305314 0.7114362 0.5778928 0.7015601 0.5777349 0.7001137 0.5080144 0.7015601 0.5777349 0.6916821 0.5775077 0.6934011 0.5078365 0.4369099 0.4167716 0.443534 0.4167716 0.443534 0.4727584 0.4369099 0.3607847 0.443534 0.3607847 0.443534 0.4167716 0.9608842 0.05428194 0.9593948 0.1239281 0.9495246 0.1240218 0.9675878 0.05414402 0.9692623 0.1237669 0.9593948 0.1239281 0.6823968 0.31195 0.6820589 0.4839975 0.667242 0.4835739 0.4595414 0.8040084 0.4595414 0.7250804 0.4616814 0.7250804 0.9934871 -0.1183708 0.9937251 0.03010058 0.9789322 0.03045821 0.443534 0.304798 0.4369099 0.304798 0.4369099 0.06049174 0.9492545 -0.1408621 0.949474 0.03087681 0.8606762 0.0317685 0.4369099 0.7170646 0.4369099 0.4727584 0.443534 0.4727584 0.8005791 0.3142664 0.8004242 0.4861685 0.7115453 0.4847249 0.4177697 0.8850252 0.4177697 0.6407191 0.4243938 0.6407191 0.9335664 0.3149331 0.933628 0.4869134 0.8299072 0.4865527 0.8311553 -0.1401085 0.8311976 0.03178077 0.7273976 0.03136497 0.4339639 0.0604918 0.4339639 0.304798 0.4273398 0.304798 0.4243938 0.2284522 0.4243938 0.4727585 0.4177697 0.4727585 0.9926198 0.3377989 0.9927626 0.4864273 0.9631238 0.4868204 0.564067 0.2287909 0.564067 0.3308978 0.5612985 0.3308979 0.6980634 -0.141271 0.6978775 0.0309664 0.6682023 0.03042733 0.4273398 0.7170645 0.4273398 0.4727585 0.4339639 0.4727584 0.4243938 0.06049174 0.4243938 0.2284522 0.4177697 0.2284522 0.8005956 0.3003362 0.8005791 0.3142664 0.7119174 0.312651 0.8005956 0.3003362 0.8300993 0.3006603 0.8300907 0.3145942 0.9492411 -0.154777 0.9492545 -0.1408621 0.8606638 -0.1401526 0.7871393 0.4301449 0.7871393 0.4157015 0.81774 0.4157015 0.9335656 0.3009991 0.9630761 0.3008915 0.9630826 0.3148167 0.8311584 -0.1540455 0.8311553 -0.1401085 0.7276188 -0.1408735 0.9335656 0.3009991 0.9335664 0.3149331 0.8300907 0.3145942 0.4273397 0.885025 0.4273398 0.7170645 0.4339639 0.7170645 0.9934365 -0.1554304 0.9934871 -0.1183708 0.9787229 -0.1412919 0.4595414 0.8237404 0.4595414 0.8040084 0.4616814 0.8040084 0.6824254 0.2980185 0.6823968 0.31195 0.6675693 0.3348051 0.6980634 -0.141271 0.6980811 -0.1552206 0.7276316 -0.1548213 0.6980811 -0.1552206 0.6980634 -0.141271 0.6684356 -0.11852 0.564067 0.2032642 0.564067 0.2287909 0.5612985 0.2287909 0.9925951 0.3006677 0.9926198 0.3377989 0.9630826 0.3148167 0.8311553 -0.1401085 0.8311584 -0.1540455 0.860659 -0.1540768 0.830112 0.2867421 0.8300993 0.3006603 0.8005956 0.3003362 0.6823968 0.31195 0.6824254 0.2980185 0.7119421 0.2987176 0.443534 0.7170646 0.443534 0.885025 0.4369099 0.885025 0.9492411 -0.154777 0.9787053 -0.1551922 0.9787229 -0.1412919 0.6756334 0.3410845 0.4616814 0.8508719 0.9524412 0.3410843</float_array>
          <technique_common>
            <accessor source="#Plane_006-mesh-map-0-array" count="720" stride="2">
              <param name="S" type="float"/>
              <param name="T" type="float"/>
            </accessor>
          </technique_common>
        </source>
        <vertices id="Plane_006-mesh-vertices">
          <input semantic="POSITION" source="#Plane_006-mesh-positions"/>
        </vertices>
        <triangles material="Material_001-material" count="240">
          <input semantic="VERTEX" source="#Plane_006-mesh-vertices" offset="0"/>
          <input semantic="NORMAL" source="#Plane_006-mesh-normals" offset="1"/>
          <input semantic="TEXCOORD" source="#Plane_006-mesh-map-0" offset="2" set="0"/>
          <p>2 0 0 1 0 1 0 0 2 98 0 3 4 0 4 5 0 5 9 0 6 8 0 7 7 0 8 13 0 9 12 0 10 11 0 11 16 1 12 17 1 13 15 1 14 19 1 15 21 1 16 20 1 17 24 1 18 25 1 19 23 1 20 28 1 21 29 1 22 27 1 23 53 2 24 30 2 25 67 2 26 54 3 27 19 3 28 65 3 29 67 4 30 28 4 31 68 4 32 55 5 33 22 5 34 54 5 35 56 3 36 17 3 37 64 3 38 57 3 39 29 3 40 53 3 41 79 1 42 23 1 43 73 1 44 61 4 45 78 4 46 83 4 47 38 0 48 76 0 49 78 0 50 61 4 51 16 4 52 59 4 53 63 4 54 24 4 55 58 4 56 64 3 57 74 3 58 81 3 59 62 3 60 25 3 61 60 3 62 66 4 63 21 4 64 55 4 65 44 0 66 52 0 67 45 0 68 68 6 69 50 6 70 72 6 71 50 1 72 27 1 73 47 1 74 46 3 75 60 3 76 70 3 77 65 7 78 88 7 79 95 7 80 40 0 81 86 0 82 90 0 83 92 4 84 66 4 85 94 4 86 88 1 87 20 1 88 92 1 89 44 3 90 69 3 91 57 3 92 45 3 93 70 3 94 69 3 95 26 1 96 48 1 97 25 1 98 49 1 99 47 1 100 48 1 101 71 4 102 26 4 103 63 4 104 72 8 105 49 8 106 71 8 107 46 0 108 34 0 109 33 0 110 45 0 111 51 0 112 46 0 113 52 4 114 71 4 115 51 4 116 51 4 117 63 4 118 34 4 119 69 3 120 48 3 121 47 3 122 57 3 123 47 3 124 27 3 125 94 4 126 40 4 127 90 4 128 39 3 129 95 3 130 86 3 131 70 3 132 25 3 133 48 3 134 43 4 135 72 4 136 52 4 137 40 4 138 55 4 139 99 4 140 32 3 141 60 3 142 33 3 143 36 3 144 81 3 145 76 3 146 34 4 147 58 4 148 31 4 149 38 4 150 59 4 151 37 4 152 18 9 153 83 9 154 80 9 155 44 3 156 53 3 157 41 3 158 35 3 159 64 3 160 36 3 161 99 5 162 54 5 163 97 5 164 42 4 165 68 4 166 43 4 167 97 3 168 65 3 169 39 3 170 41 2 171 67 2 172 42 2 173 79 4 174 58 4 175 24 4 176 80 10 177 84 10 178 79 10 179 75 3 180 62 3 181 32 3 182 76 3 183 82 3 184 75 3 185 82 3 186 23 3 187 62 3 188 81 3 189 73 3 190 82 3 191 77 0 192 32 0 193 31 0 194 78 0 195 75 0 196 77 0 197 84 4 198 31 4 199 58 4 200 83 4 201 77 4 202 84 4 203 18 1 204 74 1 205 17 1 206 80 1 207 73 1 208 74 1 209 85 3 210 56 3 211 35 3 212 86 3 213 96 3 214 85 3 215 59 4 216 89 4 217 37 4 218 93 4 219 90 4 220 89 4 221 15 1 222 91 1 223 16 1 224 87 1 225 92 1 226 91 1 227 16 4 228 93 4 229 59 4 230 91 4 231 94 4 232 93 4 233 89 0 234 35 0 235 37 0 236 90 0 237 85 0 238 89 0 239 96 3 240 15 3 241 56 3 242 95 3 243 87 3 244 96 3 245 108 4 246 99 4 247 110 4 248 110 5 249 97 5 250 111 5 251 111 3 252 39 3 253 109 3 254 39 2 255 108 2 256 109 2 257 101 3 258 36 3 259 100 3 260 102 5 261 35 5 262 101 5 263 103 4 264 37 4 265 102 4 266 100 2 267 38 2 268 103 2 269 105 4 270 31 4 271 104 4 272 107 3 273 33 3 274 106 3 275 106 2 276 34 2 277 105 2 278 104 5 279 32 5 280 107 5 281 113 4 282 43 4 283 112 4 284 114 2 285 42 2 286 113 2 287 115 3 288 41 3 289 114 3 290 112 5 291 44 5 292 115 5 293 103 1 294 107 1 295 100 1 296 3 4 297 102 4 298 1 4 299 3 4 300 104 4 301 103 4 302 0 3 303 100 3 304 2 3 305 11 0 306 10 0 307 9 0 308 10 4 309 112 4 310 105 4 311 7 3 312 106 3 313 9 3 314 10 4 315 104 4 316 8 4 317 105 1 318 115 1 319 106 1 320 6 3 321 109 3 322 4 3 323 98 5 324 111 5 325 6 5 326 5 4 327 110 4 328 98 4 329 115 3 330 9 3 331 106 3 332 11 3 333 114 3 334 13 3 335 13 2 336 113 2 337 14 2 338 14 4 339 112 4 340 12 4 341 107 3 342 2 3 343 100 3 344 7 0 345 3 0 346 2 0 347 108 4 348 1 4 349 102 4 350 101 1 351 108 1 352 102 1 353 0 3 354 109 3 355 101 3 356 5 0 357 0 0 358 1 0 359 2 0 360 3 0 361 1 0 362 98 0 363 6 0 364 4 0 365 9 0 366 10 0 367 8 0 368 13 0 369 14 0 370 12 0 371 16 1 372 18 1 373 17 1 374 19 1 375 22 1 376 21 1 377 24 1 378 26 1 379 25 1 380 28 1 381 30 1 382 29 1 383 53 2 384 29 2 385 30 2 386 54 3 387 22 3 388 19 3 389 67 4 390 30 4 391 28 4 392 55 5 393 21 5 394 22 5 395 56 3 396 15 3 397 17 3 398 57 3 399 27 3 400 29 3 401 79 1 402 24 1 403 23 1 404 61 4 405 38 4 406 78 4 407 38 0 408 36 0 409 76 0 410 61 4 411 18 4 412 16 4 413 63 4 414 26 4 415 24 4 416 64 3 417 17 3 418 74 3 419 62 3 420 23 3 421 25 3 422 66 4 423 20 4 424 21 4 425 44 0 426 43 0 427 52 0 428 68 4 429 28 4 430 50 4 431 50 1 432 28 1 433 27 1 434 46 3 435 33 3 436 60 3 437 65 3 438 19 3 439 88 3 440 40 0 441 39 0 442 86 0 443 92 4 444 20 4 445 66 4 446 88 1 447 19 1 448 20 1 449 44 3 450 45 3 451 69 3 452 45 3 453 46 3 454 70 3 455 26 1 456 49 1 457 48 1 458 49 1 459 50 1 460 47 1 461 71 11 462 49 11 463 26 11 464 72 4 465 50 4 466 49 4 467 46 0 468 51 0 469 34 0 470 45 0 471 52 0 472 51 0 473 52 4 474 72 4 475 71 4 476 51 4 477 71 4 478 63 4 479 69 12 480 70 12 481 48 12 482 57 13 483 69 13 484 47 13 485 94 4 486 66 4 487 40 4 488 39 3 489 65 3 490 95 3 491 70 3 492 60 3 493 25 3 494 43 4 495 68 4 496 72 4 497 40 4 498 66 4 499 55 4 500 32 3 501 62 3 502 60 3 503 36 3 504 64 3 505 81 3 506 34 4 507 63 4 508 58 4 509 38 4 510 61 4 511 59 4 512 18 4 513 61 4 514 83 4 515 44 3 516 57 3 517 53 3 518 35 3 519 56 3 520 64 3 521 99 5 522 55 5 523 54 5 524 42 4 525 67 4 526 68 4 527 97 3 528 54 3 529 65 3 530 41 2 531 53 2 532 67 2 533 79 14 534 84 14 535 58 14 536 80 4 537 83 4 538 84 4 539 75 3 540 82 3 541 62 3 542 76 3 543 81 3 544 82 3 545 82 3 546 73 3 547 23 3 548 81 3 549 74 3 550 73 3 551 77 0 552 75 0 553 32 0 554 78 0 555 76 0 556 75 0 557 84 4 558 77 4 559 31 4 560 83 4 561 78 4 562 77 4 563 18 1 564 80 1 565 74 1 566 80 1 567 79 1 568 73 1 569 85 3 570 96 3 571 56 3 572 86 3 573 95 3 574 96 3 575 59 4 576 93 4 577 89 4 578 93 4 579 94 4 580 90 4 581 15 1 582 87 1 583 91 1 584 87 1 585 88 1 586 92 1 587 16 15 588 91 15 589 93 15 590 91 4 591 92 4 592 94 4 593 89 0 594 85 0 595 35 0 596 90 0 597 86 0 598 85 0 599 96 16 600 87 16 601 15 16 602 95 3 603 88 3 604 87 3 605 108 4 606 40 4 607 99 4 608 110 5 609 99 5 610 97 5 611 111 3 612 97 3 613 39 3 614 39 2 615 40 2 616 108 2 617 101 3 618 35 3 619 36 3 620 102 5 621 37 5 622 35 5 623 103 4 624 38 4 625 37 4 626 100 2 627 36 2 628 38 2 629 105 4 630 34 4 631 31 4 632 107 3 633 32 3 634 33 3 635 106 2 636 33 2 637 34 2 638 104 5 639 31 5 640 32 5 641 113 4 642 42 4 643 43 4 644 114 2 645 41 2 646 42 2 647 115 3 648 44 3 649 41 3 650 112 5 651 43 5 652 44 5 653 103 1 654 104 1 655 107 1 656 3 4 657 103 4 658 102 4 659 3 4 660 8 4 661 104 4 662 0 3 663 101 3 664 100 3 665 11 0 666 12 0 667 10 0 668 10 4 669 12 4 670 112 4 671 7 3 672 107 3 673 106 3 674 10 4 675 105 4 676 104 4 677 105 1 678 112 1 679 115 1 680 6 3 681 111 3 682 109 3 683 98 5 684 110 5 685 111 5 686 5 4 687 108 4 688 110 4 689 115 3 690 11 3 691 9 3 692 11 3 693 115 3 694 114 3 695 13 2 696 114 2 697 113 2 698 14 4 699 113 4 700 112 4 701 107 3 702 7 3 703 2 3 704 7 0 705 8 0 706 3 0 707 108 4 708 5 4 709 1 4 710 101 1 711 109 1 712 108 1 713 0 3 714 4 3 715 109 3 716 5 0 717 4 0 718 0 0 719</p>
        </triangles>
      </mesh>
    </geometry>
  </library_geometries>
  <library_visual_scenes>
    <visual_scene id="Scene" name="Scene">
      <node id="Plane_002" name="Plane.002" type="NODE">
        <matrix sid="transform">1 0 0 0 0 1 0 0 0 0 1 0 0 0 0 1</matrix>
        <instance_geometry url="#Plane_006-mesh" name="Plane.002">
          <bind_material>
            <technique_common>
              <instance_material symbol="Material_001-material" target="#Material_001-material">
                <bind_vertex_input semantic="Plane_006-mesh-map-0" input_semantic="TEXCOORD" input_set="0"/>
              </instance_material>
            </technique_common>
          </bind_material>
        </instance_geometry>
      </node>
    </visual_scene>
  </library_visual_scenes>
  <scene>
    <instance_visual_scene url="#Scene"/>
  </scene>
</COLLADA>