<?xml version="1.0" encoding="utf-8"?>
<COLLADA xmlns="http://www.collada.org/2005/11/COLLADASchema" version="1.4.1" xmlns:xsi="http://www.w3.org/2001/XMLSchema-instance">
  <asset>
    <contributor>
      <author>Blender User</author>
      <authoring_tool>Blender 4.5.2 LTS commit date:2025-08-19, commit time:15:00, hash:ab25eae04993</authoring_tool>
    </contributor>
    <created>2026-09-05T22:29:59</created>
    <modified>2026-09-05T22:29:59</modified>
    <unit name="meter" meter="1"/>
    <up_axis>Z_UP</up_axis>
  </asset>
  <library_effects>
    <effect id="Material_002-effect">
      <profile_COMMON>
        <newparam sid="photo_2026-08-29_00-38-51_jpg-surface">
          <surface type="2D">
            <init_from>photo_2026-08-29_00-38-51_jpg</init_from>
          </surface>
        </newparam>
        <newparam sid="photo_2026-08-29_00-38-51_jpg-sampler">
          <sampler2D>
            <source>photo_2026-08-29_00-38-51_jpg-surface</source>
          </sampler2D>
        </newparam>
        <technique sid="common">
          <lambert>
            <emission>
              <color sid="emission">0 0 0 1</color>
            </emission>
            <diffuse>
              <texture texture="photo_2026-08-29_00-38-51_jpg-sampler" texcoord="Plane_003-mesh-map-0"/>
            </diffuse>
            <index_of_refraction>
              <float sid="ior">1.45</float>
            </index_of_refraction>
          </lambert>
        </technique>
      </profile_COMMON>
    </effect>
  </library_effects>
  <library_images>
    <image id="photo_2026-08-29_00-38-51_jpg" name="photo_2026-08-29_00-38-51_jpg">
      <init_from>map.png</init_from>
    </image>
  </library_images>
  <library_materials>
    <material id="Material_002-material" name="Material.002">
      <instance_effect url="#Material_002-effect"/>
    </material>
  </library_materials>
  <library_geometries>
    <geometry id="Plane_003-mesh" name="Plane.003">
      <mesh>
        <source id="Plane_003-mesh-positions">
          <float_array id="Plane_003-mesh-positions-array" count="96">-0.7850585 -1.070835 3.5 -0.7850586 -1.220836 3.5 -2.43506 -1.070834 3.5 -2.43506 -1.220835 3.5 0.3149414 -1.070836 3.5 0.3149413 -1.220837 3.5 1.964942 -1.220838 3.5 1.964942 -1.070837 3.5 0.3149413 -1.070836 2.5 -2.43506 -1.220835 2.5 -2.43506 -1.070834 2.5 -0.05172455 -1.070836 3.5 -0.4183917 -1.070836 3.5 -0.4183918 -1.220837 3.5 -0.05172467 -1.220837 3.5 -0.05172514 -1.220837 2.5 -0.4183923 -1.220837 2.5 -0.4183922 -1.070836 2.5 -0.05172502 -1.070836 2.5 1.964941 -1.070837 2.5 1.964941 -1.220838 2.5 0.3149408 -1.220837 2.5 -0.785059 -1.220836 2.5 -0.785059 -1.070835 2.5 0.3149412 -1.070836 1.19209e-7 1.964941 -1.070837 -2.38419e-7 1.964941 -1.220838 -2.38419e-7 0.3149411 -1.220837 1.19209e-7 -2.43506 -1.070834 1.78814e-7 -0.7850587 -1.070835 1.78814e-7 -2.435061 -1.220835 1.78814e-7 -0.7850588 -1.220836 1.78814e-7</float_array>
          <technique_common>
            <accessor source="#Plane_003-mesh-positions-array" count="32" stride="3">
              <param name="X" type="float"/>
              <param name="Y" type="float"/>
              <param name="Z" type="float"/>
            </accessor>
          </technique_common>
        </source>
        <source id="Plane_003-mesh-normals">
          <float_array id="Plane_003-mesh-normals-array" count="135">0 0 1 1 -1.58945e-6 -4.76837e-7 6.50232e-7 1 0 1.08372e-6 1 1.44496e-7 -1.08372e-6 -1 -1.61352e-7 3.25117e-7 1 1.62558e-7 6.50232e-7 1 0 5.77984e-7 1 0 1 -2.54311e-6 0 -5.77984e-7 -1 0 -1 3.17889e-7 0 1.08372e-6 1 0 -1 0 0 -1.08372e-6 -1 0 1 0 0 4.81649e-7 0 1 4.8165e-7 0 1 5.77984e-7 1 0 -5.77984e-7 -1 1.27641e-7 -6.50232e-7 -1 0 -1 3.17889e-6 0 -6.50232e-7 -1 0 -3.25117e-7 -1 0 5.77985e-7 1 0 1 0 0 -5.77984e-7 -1 0 -1 3.17889e-6 0 1.08372e-6 1 0 -1.08372e-6 -1 0 1 -6.35778e-7 0 0 0 -1 -2.16744e-7 0 -1 -2.16744e-7 0 -1 1 0 -4.76837e-7 6.50232e-7 1 0 1.08372e-6 1 0 -1.08372e-6 -1 0 3.25116e-7 1 0 6.50232e-7 1 0 5.77984e-7 1 0 -5.77984e-7 -1 0 -6.50232e-7 -1 0 -1 0 0 -6.50232e-7 -1 -1.62558e-7 -3.25117e-7 -1 -1.62558e-7</float_array>
          <technique_common>
            <accessor source="#Plane_003-mesh-normals-array" count="45" stride="3">
              <param name="X" type="float"/>
              <param name="Y" type="float"/>
              <param name="Z" type="float"/>
            </accessor>
          </technique_common>
        </source>
        <source id="Plane_003-mesh-map-0">
          <float_array id="Plane_003-mesh-map-0-array" count="360">0.5160759 0.5857875 0.5160759 0.5967559 0.4811999 0.5967559 0.5393264 0.596756 0.5393264 0.5857875 0.5742024 0.5857875 0.5297157 0.4651111 0.5480384 0.4556031 0.5480384 0.4651111 0.5315762 0.5967559 0.5315762 0.5857875 0.5393264 0.5857875 0.5160759 0.5967559 0.5160759 0.5857875 0.523826 0.5857875 0.523826 0.5967559 0.523826 0.5857875 0.5315762 0.5857875 0.8375984 0.5247061 0.8453486 0.5978283 0.8375984 0.5978283 0.8453486 0.5247061 0.8802246 0.5978283 0.8453486 0.5978283 0.7836053 0.5941345 0.8184813 0.5210122 0.8184813 0.5941345 0.8220979 0.5247061 0.8298482 0.5978283 0.8220979 0.5978284 0.8298482 0.5247061 0.8375984 0.5978283 0.8298482 0.5978283 0.7872221 0.3419004 0.8220979 0.3419004 0.8220979 0.5247061 0.4839093 0.4651111 0.4839093 0.4556031 0.5297157 0.4556031 0.8417318 0.3382065 0.8766079 0.3382065 0.8766079 0.5210122 0.453677 0.4556031 0.453677 0.4651111 0.4078706 0.4651111 0.8453486 0.3419004 0.8802246 0.3419004 0.8802246 0.524706 0.5121199 0.658647 0.5121199 0.648166 0.5626139 0.6481662 0.7836053 0.3382064 0.8184813 0.3382064 0.8184813 0.5210122 0.5108878 0.363673 0.5108878 0.353192 0.5613818 0.353192 0.5160759 0.5857875 0.4811999 0.5967559 0.4811999 0.5857875 0.5393264 0.596756 0.5742024 0.5857875 0.5742024 0.596756 0.7872221 0.5247061 0.8220979 0.5978284 0.7872221 0.5978284 0.8417318 0.5941345 0.8766079 0.5210122 0.8766079 0.5941345 0.8262314 0.5941345 0.8339816 0.5210122 0.8339816 0.5941345 0.5315762 0.5967559 0.5393264 0.5857875 0.5393264 0.596756 0.5626139 0.6586472 0.5828115 0.6481663 0.5828115 0.6586473 0.5160759 0.5967559 0.523826 0.5857875 0.523826 0.5967559 0.523826 0.5967559 0.5315762 0.5857875 0.5315762 0.5967559 0.8184813 0.5941345 0.8262314 0.5210122 0.8262314 0.5941345 0.8339816 0.5941345 0.8417318 0.5210122 0.8417318 0.5941345 0.7872221 0.3419004 0.8220979 0.5247061 0.7872221 0.5247061 0.4839093 0.4651111 0.5297157 0.4556031 0.5297157 0.4651111 0.8417318 0.3382065 0.8766079 0.5210122 0.8417318 0.5210122 0.453677 0.4556031 0.4078706 0.4651111 0.4078706 0.4556031 0.8453486 0.3419004 0.8802246 0.524706 0.8453486 0.5247061 0.5121199 0.658647 0.5626139 0.6481662 0.5626139 0.6586472 0.7836053 0.3382064 0.8184813 0.5210122 0.7836053 0.5210122 0.5108878 0.363673 0.5613818 0.353192 0.5613818 0.363673 0.5761933 0.353192 0.5835991 0.363673 0.5761933 0.363673 0.5761933 0.363673 0.5687876 0.353192 0.5761933 0.353192 0.5687876 0.353192 0.5613818 0.363673 0.5613818 0.353192 0.4787938 0.658647 0.5121199 0.648166 0.5121199 0.658647 0.5121199 0.648166 0.4787938 0.658647 0.4787938 0.648166 0.4839093 0.4556031 0.453677 0.4651111 0.453677 0.4556031 0.4839093 0.4651111 0.453677 0.4651111 0.4839093 0.4556031 0.5297157 0.4651111 0.5297157 0.4556031 0.5480384 0.4556031 0.8375984 0.5247061 0.8453486 0.5247061 0.8453486 0.5978283 0.8453486 0.5247061 0.8802246 0.524706 0.8802246 0.5978283 0.7836053 0.5941345 0.7836053 0.5210122 0.8184813 0.5210122 0.8220979 0.5247061 0.8298482 0.5247061 0.8298482 0.5978283 0.8298482 0.5247061 0.8375984 0.5247061 0.8375984 0.5978283 0.7872221 0.5247061 0.8220979 0.5247061 0.8220979 0.5978284 0.8417318 0.5941345 0.8417318 0.5210122 0.8766079 0.5210122 0.8262314 0.5941345 0.8262314 0.5210122 0.8339816 0.5210122 0.5626139 0.6586472 0.5626139 0.6481662 0.5828115 0.6481663 0.8184813 0.5941345 0.8184813 0.5210122 0.8262314 0.5210122 0.8339816 0.5941345 0.8339816 0.5210122 0.8417318 0.5210122 0.5761933 0.353192 0.5835991 0.353192 0.5835991 0.363673 0.5761933 0.363673 0.5687876 0.363673 0.5687876 0.353192 0.5687876 0.353192 0.5687876 0.363673 0.5613818 0.363673</float_array>
          <technique_common>
            <accessor source="#Plane_003-mesh-map-0-array" count="180" stride="2">
              <param name="S" type="float"/>
              <param name="T" type="float"/>
            </accessor>
          </technique_common>
        </source>
        <vertices id="Plane_003-mesh-vertices">
          <input semantic="POSITION" source="#Plane_003-mesh-positions"/>
        </vertices>
        <triangles material="Material_002-material" count="60">
          <input semantic="VERTEX" source="#Plane_003-mesh-vertices" offset="0"/>
          <input semantic="NORMAL" source="#Plane_003-mesh-normals" offset="1"/>
          <input semantic="TEXCOORD" source="#Plane_003-mesh-map-0" offset="2" set="0"/>
          <p>1 0 0 0 0 1 2 0 2 4 0 3 5 0 4 6 0 5 20 1 6 7 1 7 6 1 8 11 0 9 14 0 10 5 0 11 0 0 12 1 0 13 13 0 14 12 0 15 13 0 16 14 0 17 17 2 18 0 2 19 12 2 20 23 3 21 2 3 22 0 3 23 3 4 24 22 4 25 1 4 26 8 5 27 11 5 28 4 5 29 18 6 30 12 6 31 11 6 32 25 7 33 24 7 34 8 7 35 26 8 36 25 8 37 19 8 38 27 9 39 26 9 40 20 9 41 24 10 42 27 10 43 21 10 44 29 11 45 28 11 46 10 11 47 28 12 48 30 12 49 9 12 50 30 13 51 31 13 52 22 13 53 31 14 54 29 14 55 23 14 56 1 15 57 2 15 58 3 15 59 4 16 60 6 16 61 7 16 62 19 17 63 4 17 64 7 17 65 5 18 66 20 18 67 6 18 68 13 19 69 15 19 70 14 19 71 11 0 72 5 0 73 4 0 74 10 20 75 3 20 76 2 20 77 0 0 78 13 0 79 12 0 80 12 0 81 14 0 82 11 0 83 1 21 84 16 21 85 13 21 86 14 22 87 21 22 88 5 22 89 25 23 90 8 23 91 19 23 92 26 24 93 19 24 94 20 24 95 27 25 96 20 25 97 21 25 98 24 26 99 21 26 100 8 26 101 29 27 102 10 27 103 23 27 104 28 12 105 9 12 106 10 12 107 30 28 108 22 28 109 9 28 110 31 29 111 23 29 112 22 29 113 18 30 114 21 30 115 15 30 116 15 30 117 17 30 118 18 30 119 17 30 120 22 30 121 23 30 122 29 30 123 30 30 124 28 30 125 30 30 126 29 30 127 31 30 128 25 31 129 27 31 130 24 31 131 26 32 132 27 32 133 25 32 134 20 33 135 19 33 136 7 33 137 17 34 138 23 34 139 0 34 140 23 35 141 10 35 142 2 35 143 3 36 144 9 36 145 22 36 146 8 37 147 18 37 148 11 37 149 18 38 150 17 38 151 12 38 152 19 39 153 8 39 154 4 39 155 5 40 156 21 40 157 20 40 158 13 41 159 16 41 160 15 41 161 10 42 162 9 42 163 3 42 164 1 43 165 22 43 166 16 43 167 14 44 168 15 44 169 21 44 170 18 30 171 8 30 172 21 30 173 15 30 174 16 30 175 17 30 176 17 30 177 16 30 178 22 30 179</p>
        </triangles>
      </mesh>
    </geometry>
  </library_geometries>
  <library_visual_scenes>
    <visual_scene id="Scene" name="Scene">
      <node id="Plane_009" name="Plane.009" type="NODE">
        <matrix sid="transform">1 0 0 0 0 1 0 0 0 0 1 0 0 0 0 1</matrix>
        <instance_geometry url="#Plane_003-mesh" name="Plane.009">
          <bind_material>
            <technique_common>
              <instance_material symbol="Material_002-material" target="#Material_002-material">
                <bind_vertex_input semantic="Plane_003-mesh-map-0" input_semantic="TEXCOORD" input_set="0"/>
              </instance_material>
            </technique_common>
          </bind_material>
        </instance_geometry>
      </node>
    </visual_scene>
  </library_visual_scenes>
  <scene>
    <instance_visual_scene url="#Scene"/>
  </scene>
</COLLADA>