<?xml version="1.0" encoding="utf-8"?>
<COLLADA xmlns="http://www.collada.org/2005/11/COLLADASchema" version="1.4.1" xmlns:xsi="http://www.w3.org/2001/XMLSchema-instance">
  <asset>
    <contributor>
      <author>Blender User</author>
      <authoring_tool>Blender 4.5.2 LTS commit date:2025-08-19, commit time:15:00, hash:ab25eae04993</authoring_tool>
    </contributor>
    <created>2026-09-05T22:16:00</created>
    <modified>2026-09-05T22:16:00</modified>
    <unit name="meter" meter="1"/>
    <up_axis>Z_UP</up_axis>
  </asset>
  <library_effects>
    <effect id="Material_001-effect">
      <profile_COMMON>
        <newparam sid="photo_2026-08-29_00-38-51_jpg_001-surface">
          <surface type="2D">
            <init_from>photo_2026-08-29_00-38-51_jpg_001</init_from>
          </surface>
        </newparam>
        <newparam sid="photo_2026-08-29_00-38-51_jpg_001-sampler">
          <sampler2D>
            <source>photo_2026-08-29_00-38-51_jpg_001-surface</source>
          </sampler2D>
        </newparam>
        <technique sid="common">
          <lambert>
            <emission>
              <color sid="emission">0 0 0 1</color>
            </emission>
            <diffuse>
              <texture texture="photo_2026-08-29_00-38-51_jpg_001-sampler" texcoord="Plane_010-mesh-map-0"/>
            </diffuse>
            <index_of_refraction>
              <float sid="ior">1.45</float>
            </index_of_refraction>
          </lambert>
        </technique>
      </profile_COMMON>
    </effect>
  </library_effects>
  <library_images>
    <image id="photo_2026-08-29_00-38-51_jpg_001" name="photo_2026-08-29_00-38-51_jpg_001">
      <init_from>map.png</init_from>
    </image>
  </library_images>
  <library_materials>
    <material id="Material_001-material" name="Material.001">
      <instance_effect url="#Material_001-effect"/>
    </material>
  </library_materials>
  <library_geometries>
    <geometry id="Plane_010-mesh" name="Plane.010">
      <mesh>
        <source id="Plane_010-mesh-positions">
          <float_array id="Plane_010-mesh-positions-array" count="156">-6.835059 2.879162 8.9407e-7 -6.835059 3.029163 8.9407e-7 -2.435059 2.879161 8.9407e-7 -2.435059 3.029162 8.9407e-7 -7.935059 2.879162 8.9407e-7 -7.935059 3.029163 8.9407e-7 -9.585061 3.029164 8.9407e-7 -9.585061 2.879163 8.9407e-7 -6.835059 2.879162 3.5 -6.835059 3.029163 3.5 -2.435059 2.87916 3.5 -2.435059 3.029161 3.5 -7.935059 2.879162 3.5 -7.935059 3.029163 3.5 -9.585061 3.029164 3.5 -9.585061 2.879163 3.5 -7.935059 2.879162 2.5 -7.935059 3.029163 2.5 -9.585061 3.029164 2.5 -9.585061 2.879163 2.5 -2.435059 3.029161 2.5 -6.835059 3.029163 2.5 -6.835059 2.879162 2.5 -2.435059 2.87916 2.5 -7.510057 2.879162 2.5 -7.260061 2.879162 2.5 -7.568393 2.879162 3.5 -7.201726 2.879162 3.5 -7.201726 3.029163 3.5 -7.568393 3.029163 3.5 -7.510057 3.029163 2.5 -7.260061 3.029163 2.5 -7.935059 2.879162 2.875 -2.435059 3.029161 2.875 -6.835059 2.879162 2.875 -9.585061 3.029164 2.875 -7.935059 3.029163 2.875 -9.585061 2.879163 2.875 -6.835059 3.029163 2.875 -2.435059 2.87916 2.875 -7.510057 2.879162 2.75 -7.260061 2.879162 2.75 -7.510057 3.029163 2.75 -7.260061 3.029163 2.75 -7.935059 2.879162 0.3250004 -9.585061 2.879163 0.5750004 -9.585061 3.029164 0.5750004 -7.935059 3.029163 0.3250004 -2.435059 2.879161 0.5750004 -6.835059 2.879162 0.3250004 -2.435059 3.029162 0.5750004 -6.835059 3.029163 0.3250004</float_array>
          <technique_common>
            <accessor source="#Plane_010-mesh-positions-array" count="52" stride="3">
              <param name="X" type="float"/>
              <param name="Y" type="float"/>
              <param name="Z" type="float"/>
            </accessor>
          </technique_common>
        </source>
        <source id="Plane_010-mesh-normals">
          <float_array id="Plane_010-mesh-normals-array" count="165">0 0 -1 0 0 1 0 0 1 3.25116e-7 1 0 -3.25116e-7 -1 0 -1 0 0 4.33488e-7 1 0 1 0 0 4.7843e-7 1 0 -4.33488e-7 -1 0 0 0 1 -5.60981e-7 -1 0 0 -1 0 0 0 1 0 1 0 0 1 3.17898e-7 -6.50229e-7 -1 2.16743e-7 0 -1 5.41859e-7 -4.33489e-7 -1 0 5.60981e-7 1 0 4.33488e-7 1 0 -3.25117e-7 -1 0 3.25117e-7 1 0 -4.50097e-7 -1 -2.6574e-7 4.52253e-7 1 3.00251e-7 -3.18079e-7 -1 0 3.18888e-7 1 0 0 0 1 4.33488e-7 1 0 -4.33488e-7 -1 0 2.16744e-7 1 0 3.25116e-7 1 0 -3.25116e-7 -1 0 -2.16744e-7 -1 0 0 0 -1 3.25116e-7 1 0 -3.25116e-7 -1 0 4.33488e-7 1 0 -4.33488e-7 -1 0 -5.60983e-7 -1 0 0 1 8.66978e-7 6.50229e-7 1 0 0 -1 -6.35796e-7 -5.60982e-7 -1 0 -4.33488e-7 -1 0 5.60983e-7 1 0 4.33488e-7 1 0 3.25116e-7 1 0 -4.33488e-7 -1 -3.00251e-7 4.33488e-7 1 2.6574e-7 -3.25116e-7 -1 -1.99305e-7 3.25116e-7 1 4.50377e-7 -4.33488e-7 -1 0 3.25116e-7 1 0 -3.25116e-7 -1 0</float_array>
          <technique_common>
            <accessor source="#Plane_010-mesh-normals-array" count="55" stride="3">
              <param name="X" type="float"/>
              <param name="Y" type="float"/>
              <param name="Z" type="float"/>
            </accessor>
          </technique_common>
        </source>
        <source id="Plane_010-mesh-map-0">
          <float_array id="Plane_010-mesh-map-0-array" count="624">0.4903526 0.07092654 0.4712421 0.07092636 0.4712421 0.06867253 0.459298 0.06867241 0.4664645 0.06867247 0.4664645 0.0709263 0.5246649 0.06867295 0.5246649 0.07092678 0.5055543 0.07092666 0.5294426 0.07092678 0.5294426 0.06867295 0.5366089 0.06867301 0.4812075 0.6850252 0.4934592 0.6850254 0.4934592 0.6999844 0.7545073 0.5733904 0.8281089 0.5733905 0.8281089 0.6095584 0.7894388 0.5476537 0.8630404 0.5476537 0.8630404 0.5838215 0.4468109 0.06867235 0.4468109 0.07092618 0.4440963 0.07092618 0.8465093 0.5733904 0.87411 0.5733904 0.87411 0.6095584 0.5579041 0.3926695 0.5579041 0.3777104 0.5759212 0.3777104 0.8281089 0.5733905 0.8352183 0.5661568 0.8342424 0.6095584 0.7434377 0.5476537 0.7710382 0.5476537 0.7710382 0.5838215 0.52785 0.07092678 0.52785 0.06867295 0.5294426 0.06867295 0.7894388 0.5476537 0.7823294 0.5404201 0.7823294 0.5259529 0.7781476 0.5404201 0.7710382 0.5476537 0.7710382 0.5259529 0.07594549 0.9967796 0.05283176 0.9967796 0.05283176 0.9168184 0.5246649 0.07092678 0.5246649 0.06867295 0.5262574 0.06867295 0.5262574 0.07092678 0.5262574 0.06867295 0.52785 0.06867295 0.8394 0.5661568 0.8465093 0.5733904 0.8465093 0.6095584 0.8352183 0.5661568 0.8394 0.5661568 0.8403759 0.6095584 0.5006659 0.6850253 0.5129176 0.6850253 0.5129176 0.6999844 0.4934592 0.6850254 0.5006659 0.6850253 0.5006659 0.6999844 0.07966428 0.9172527 0.1022 0.9172527 0.1022 0.9952188 0.8394002 0.5516896 0.8465093 0.5516896 0.8465093 0.5733904 0.7833053 0.5838215 0.7771718 0.5838215 0.7781476 0.5404201 0.7771718 0.5838215 0.7710382 0.5838215 0.7710382 0.5476537 0.7894388 0.5838215 0.7833053 0.5838215 0.7823294 0.5404201 0.7434377 0.5259529 0.7710382 0.5259529 0.7710382 0.5476537 0.8281089 0.5516896 0.8352183 0.5516896 0.8352183 0.5661568 0.5470939 0.3926695 0.5470939 0.3777104 0.5579041 0.3777104 0.8465093 0.5516896 0.87411 0.5516896 0.87411 0.5733904 0.4484397 0.06867235 0.4484397 0.07092618 0.4468109 0.07092618 0.7894388 0.5259529 0.8630404 0.5259529 0.8630404 0.5476537 0.7545073 0.5516896 0.8281089 0.5516896 0.8281089 0.5733905 0.7434377 0.4145558 0.7710382 0.4000887 0.7710382 0.5259529 0.455389 0.06867241 0.455389 0.07092624 0.4484397 0.07092618 0.8465093 0.4258253 0.87411 0.4402925 0.87411 0.5516896 0.5756171 0.6850253 0.5756171 0.6999846 0.5129176 0.6999844 0.7894388 0.4000887 0.8630404 0.4145558 0.8630404 0.5259529 0.4916012 0.3926695 0.4916012 0.3777104 0.5470939 0.3777104 0.7545073 0.4402925 0.8281089 0.4258254 0.8281089 0.5516896 0.418508 0.6999844 0.418508 0.6850252 0.4812075 0.6850252 0.3867979 0.6999843 0.3867979 0.6850252 0.418508 0.6850252 0.8465093 0.4070181 0.87411 0.4070181 0.87411 0.4402925 0.459298 0.06867241 0.459298 0.0709263 0.455389 0.07092624 0.7434377 0.3812814 0.7710382 0.3812814 0.7710382 0.4000887 0.8465093 0.4070181 0.8465093 0.4258253 0.8281089 0.4258253 0.7545073 0.4070181 0.8281089 0.4070181 0.8281089 0.4258254 0.4750255 0.3926695 0.4750255 0.3777104 0.4916012 0.3777104 0.7894388 0.3812814 0.8630404 0.3812814 0.8630404 0.4145558 0.7894388 0.4000887 0.7710382 0.4000887 0.7710382 0.3812814 0.4664645 0.06867247 0.4712421 0.06867253 0.4712421 0.07092636 0.4903526 0.07092654 0.4712421 0.06867253 0.4903526 0.06867271 0.459298 0.06867241 0.4664645 0.0709263 0.459298 0.0709263 0.5246649 0.06867295 0.5055543 0.07092666 0.5055543 0.06867277 0.5294426 0.07092678 0.5366089 0.06867301 0.5366089 0.07092684 0.4812075 0.6850252 0.4934592 0.6999844 0.4812075 0.6999844 0.7545073 0.5733904 0.8281089 0.6095584 0.7545073 0.6095584 0.7894388 0.5476537 0.8630404 0.5838215 0.7894388 0.5838215 0.4468109 0.06867235 0.4440963 0.07092618 0.4440963 0.06867229 0.8465093 0.5733904 0.87411 0.6095584 0.8465093 0.6095584 0.5579041 0.3926695 0.5759212 0.3777104 0.5759212 0.3926695 0.8281089 0.5733905 0.8342424 0.6095584 0.8281089 0.6095584 0.7434377 0.5476537 0.7710382 0.5838215 0.7434377 0.5838215 0.52785 0.07092678 0.5294426 0.06867295 0.5294426 0.07092678 0.7894388 0.5476537 0.7823294 0.5259529 0.7894388 0.5259529 0.7781476 0.5404201 0.7710382 0.5259529 0.7781476 0.5259529 0.07594549 0.9967796 0.05283176 0.9168184 0.07594549 0.9168184 0.5246649 0.07092678 0.5262574 0.06867295 0.5262574 0.07092678 0.5262574 0.07092678 0.52785 0.06867295 0.52785 0.07092678 0.8394 0.5661568 0.8465093 0.6095584 0.8403759 0.6095584 0.8352183 0.5661568 0.8403759 0.6095584 0.8342424 0.6095584 0.5006659 0.6850253 0.5129176 0.6999844 0.5006659 0.6999844 0.4934592 0.6850254 0.5006659 0.6999844 0.4934592 0.6999844 0.07966428 0.9172527 0.1022 0.9952188 0.07966428 0.9952188 0.8394002 0.5516896 0.8465093 0.5733904 0.8394 0.5661568 0.7833053 0.5838215 0.7781476 0.5404201 0.7823294 0.5404201 0.7771718 0.5838215 0.7710382 0.5476537 0.7781476 0.5404201 0.7894388 0.5838215 0.7823294 0.5404201 0.7894388 0.5476537 0.7434377 0.5259529 0.7710382 0.5476537 0.7434377 0.5476537 0.8281089 0.5516896 0.8352183 0.5661568 0.8281089 0.5733905 0.5470939 0.3926695 0.5579041 0.3777104 0.5579041 0.3926695 0.8465093 0.5516896 0.87411 0.5733904 0.8465093 0.5733904 0.4484397 0.06867235 0.4468109 0.07092618 0.4468109 0.06867235 0.7894388 0.5259529 0.8630404 0.5476537 0.7894388 0.5476537 0.7545073 0.5516896 0.8281089 0.5733905 0.7545073 0.5733904 0.7434377 0.4145558 0.7710382 0.5259529 0.7434377 0.5259529 0.455389 0.06867241 0.4484397 0.07092618 0.4484397 0.06867235 0.8465093 0.4258253 0.87411 0.5516896 0.8465093 0.5516896 0.5756171 0.6850253 0.5129176 0.6999844 0.5129176 0.6850253 0.7894388 0.4000887 0.8630404 0.5259529 0.7894388 0.5259529 0.4916012 0.3926695 0.5470939 0.3777104 0.5470939 0.3926695 0.7545073 0.4402925 0.8281089 0.5516896 0.7545073 0.5516896 0.418508 0.6999844 0.4812075 0.6850252 0.4812075 0.6999844 0.3867979 0.6999843 0.418508 0.6850252 0.418508 0.6999844 0.8465093 0.4070181 0.87411 0.4402925 0.8465093 0.4258253 0.459298 0.06867241 0.455389 0.07092624 0.455389 0.06867241 0.7434377 0.3812814 0.7710382 0.4000887 0.7434377 0.4145558 0.8465093 0.4070181 0.8281089 0.4258254 0.8281089 0.4070181 0.7545073 0.4070181 0.8281089 0.4258254 0.7545073 0.4402925 0.4750255 0.3926695 0.4916012 0.3777104 0.4916012 0.3926695 0.7894388 0.3812814 0.8630404 0.4145558 0.7894388 0.4000887 0.7894388 0.4000887 0.7710382 0.3812814 0.7894388 0.3812814 0.4664645 0.06867247 0.4712421 0.07092636 0.4664645 0.0709263</float_array>
          <technique_common>
            <accessor source="#Plane_010-mesh-map-0-array" count="312" stride="2">
              <param name="S" type="float"/>
              <param name="T" type="float"/>
            </accessor>
          </technique_common>
        </source>
        <vertices id="Plane_010-mesh-vertices">
          <input semantic="POSITION" source="#Plane_010-mesh-positions"/>
        </vertices>
        <triangles material="Material_001-material" count="104">
          <input semantic="VERTEX" source="#Plane_010-mesh-vertices" offset="0"/>
          <input semantic="NORMAL" source="#Plane_010-mesh-normals" offset="1"/>
          <input semantic="TEXCOORD" source="#Plane_010-mesh-map-0" offset="2" set="0"/>
          <p>2 0 0 0 0 1 1 0 2 6 0 3 5 0 4 4 0 5 9 1 6 8 1 7 10 1 8 12 2 9 13 2 10 14 2 11 22 0 12 25 0 13 31 0 14 33 3 15 38 3 16 9 3 17 34 4 18 39 4 19 10 4 20 35 5 21 37 5 22 15 5 23 36 6 24 35 6 25 14 6 26 39 7 27 33 7 28 11 7 29 38 8 30 43 8 31 28 8 32 37 9 33 32 9 34 12 9 35 26 10 36 29 10 37 13 10 38 34 11 39 41 11 40 25 11 41 40 12 42 32 12 43 16 12 44 41 12 45 40 12 46 24 12 47 8 10 48 9 10 49 28 10 50 27 13 51 28 13 52 29 13 53 42 14 54 36 14 55 13 14 56 43 15 57 42 15 58 29 15 59 24 0 60 16 0 61 17 0 62 25 0 63 24 0 64 30 0 65 31 14 66 30 14 67 42 14 68 30 14 69 17 14 70 36 14 71 27 16 72 26 16 73 40 16 74 26 12 75 12 12 76 32 12 77 8 17 78 27 17 79 41 17 80 19 18 81 16 18 82 32 18 83 21 19 84 31 19 85 43 19 86 23 7 87 20 7 88 33 7 89 17 20 90 18 20 91 35 20 92 18 5 93 19 5 94 37 5 95 22 21 96 23 21 97 39 21 98 20 22 99 21 22 100 38 22 101 45 23 102 44 23 103 16 23 104 46 5 105 45 5 106 19 5 107 47 24 108 46 24 109 18 24 110 44 7 111 47 7 112 17 7 113 49 25 114 48 25 115 23 25 116 48 7 117 50 7 118 20 7 119 50 26 120 51 26 121 21 26 122 51 5 123 49 5 124 22 5 125 47 27 126 44 27 127 49 27 128 5 28 129 6 28 130 46 28 131 6 5 132 7 5 133 45 5 134 7 29 135 4 29 136 44 29 137 5 30 138 47 30 139 51 30 140 3 31 141 1 31 142 51 31 143 2 7 144 3 7 145 50 7 146 0 32 147 2 32 148 48 32 149 49 33 150 44 33 151 4 33 152 5 0 153 1 0 154 0 0 155 2 0 156 1 0 157 3 0 158 6 0 159 4 0 160 7 0 161 9 10 162 10 10 163 11 10 164 12 10 165 14 10 166 15 10 167 22 34 168 31 34 169 21 34 170 33 35 171 9 35 172 11 35 173 34 36 174 10 36 175 8 36 176 35 5 177 15 5 178 14 5 179 36 37 180 14 37 181 13 37 182 39 7 183 11 7 184 10 7 185 38 14 186 28 14 187 9 14 188 37 38 189 12 38 190 15 38 191 26 10 192 13 10 193 12 10 194 34 39 195 25 39 196 22 39 197 40 12 198 16 12 199 24 12 200 41 12 201 24 12 202 25 12 203 8 10 204 28 10 205 27 10 206 27 10 207 29 10 208 26 10 209 42 40 210 13 40 211 29 40 212 43 41 213 29 41 214 28 41 215 24 0 216 17 0 217 30 0 218 25 0 219 30 0 220 31 0 221 31 14 222 42 14 223 43 14 224 30 14 225 36 14 226 42 14 227 27 42 228 40 42 229 41 42 230 26 12 231 32 12 232 40 12 233 8 43 234 41 43 235 34 43 236 19 44 237 32 44 238 37 44 239 21 45 240 43 45 241 38 45 242 23 7 243 33 7 244 39 7 245 17 46 246 35 46 247 36 46 248 18 5 249 37 5 250 35 5 251 22 36 252 39 36 253 34 36 254 20 47 255 38 47 256 33 47 257 45 48 258 16 48 259 19 48 260 46 5 261 19 5 262 18 5 263 47 49 264 18 49 265 17 49 266 44 7 267 17 7 268 16 7 269 49 50 270 23 50 271 22 50 272 48 7 273 20 7 274 23 7 275 50 51 276 21 51 277 20 51 278 51 5 279 22 5 280 21 5 281 47 10 282 49 10 283 51 10 284 5 20 285 46 20 286 47 20 287 6 5 288 45 5 289 46 5 290 7 52 291 44 52 292 45 52 293 5 30 294 51 30 295 1 30 296 3 53 297 51 53 298 50 53 299 2 7 300 50 7 301 48 7 302 0 54 303 48 54 304 49 54 305 49 33 306 4 33 307 0 33 308 5 0 309 0 0 310 4 0 311</p>
        </triangles>
      </mesh>
    </geometry>
  </library_geometries>
  <library_visual_scenes>
    <visual_scene id="Scene" name="Scene">
      <node id="Plane_006" name="Plane.006" type="NODE">
        <matrix sid="transform">1 0 0 0 0 1 0 0 0 0 1 0 0 0 0 1</matrix>
        <instance_geometry url="#Plane_010-mesh" name="Plane.006">
          <bind_material>
            <technique_common>
              <instance_material symbol="Material_001-material" target="#Material_001-material">
                <bind_vertex_input semantic="Plane_010-mesh-map-0" input_semantic="TEXCOORD" input_set="0"/>
              </instance_material>
            </technique_common>
          </bind_material>
        </instance_geometry>
      </node>
    </visual_scene>
  </library_visual_scenes>
  <scene>
    <instance_visual_scene url="#Scene"/>
  </scene>
</COLLADA>