<?xml version="1.0" encoding="utf-8"?>
<COLLADA xmlns="http://www.collada.org/2005/11/COLLADASchema" version="1.4.1" xmlns:xsi="http://www.w3.org/2001/XMLSchema-instance">
  <asset>
    <contributor>
      <author>Blender User</author>
      <authoring_tool>Blender 4.5.2 LTS commit date:2025-08-19, commit time:15:00, hash:ab25eae04993</authoring_tool>
    </contributor>
    <created>2026-09-05T22:29:46</created>
    <modified>2026-09-05T22:29:46</modified>
    <unit name="meter" meter="1"/>
    <up_axis>Z_UP</up_axis>
  </asset>
  <library_effects>
    <effect id="Material_002-effect">
      <profile_COMMON>
        <newparam sid="photo_2026-08-29_00-38-51_jpg-surface">
          <surface type="2D">
            <init_from>photo_2026-08-29_00-38-51_jpg</init_from>
          </surface>
        </newparam>
        <newparam sid="photo_2026-08-29_00-38-51_jpg-sampler">
          <sampler2D>
            <source>photo_2026-08-29_00-38-51_jpg-surface</source>
          </sampler2D>
        </newparam>
        <technique sid="common">
          <lambert>
            <emission>
              <color sid="emission">0 0 0 1</color>
            </emission>
            <diffuse>
              <texture texture="photo_2026-08-29_00-38-51_jpg-sampler" texcoord="Plane_009-mesh-map-0"/>
            </diffuse>
            <index_of_refraction>
              <float sid="ior">1.45</float>
            </index_of_refraction>
          </lambert>
        </technique>
      </profile_COMMON>
    </effect>
  </library_effects>
  <library_images>
    <image id="photo_2026-08-29_00-38-51_jpg" name="photo_2026-08-29_00-38-51_jpg">
      <init_from>map.png</init_from>
    </image>
  </library_images>
  <library_materials>
    <material id="Material_002-material" name="Material.002">
      <instance_effect url="#Material_002-effect"/>
    </material>
  </library_materials>
  <library_geometries>
    <geometry id="Plane_009-mesh" name="Plane.009">
      <mesh>
        <source id="Plane_009-mesh-positions">
          <float_array id="Plane_009-mesh-positions-array" count="174">1.964942 2.879161 3.5 2.114941 3.029161 3.5 1.964941 1.229161 3.5 2.114941 1.229161 3.5 1.964941 0.1291608 3.5 2.114941 0.1291608 3.5 1.964941 -2.620841 3.5 2.114941 -2.620841 3.5 1.964941 -3.720839 3.5 2.114941 -3.720839 3.5 1.964941 -5.920839 3.5 2.114941 -5.920839 3.5 1.964941 0.1291608 2.5 2.114941 -2.620841 2.5 2.114941 -3.720839 2.5 1.964941 -5.920839 2.5 1.964941 0.4958276 3.5 1.964941 0.8624945 3.5 2.114941 0.8624944 3.5 2.114941 0.4958276 3.5 -2.285058 3.029161 2.5 -2.285058 2.879161 2.5 2.11494 -3.354172 2.5 2.11494 -2.987505 2.5 1.964941 -2.987505 2.5 1.964941 -3.354172 2.5 2.114941 0.4958276 2.5 2.114941 0.8624944 2.5 1.964941 0.8624945 2.5 1.964941 0.4958276 2.5 2.11494 -5.920839 2.5 1.964941 -3.720839 2.5 1.964941 -2.620841 2.5 1.964941 -3.354172 3.5 1.964941 -2.987505 3.5 2.114941 -2.987505 3.5 2.114941 -3.354172 3.5 2.114941 0.1291608 2.5 2.114941 1.229161 2.5 1.964941 1.229161 2.5 1.964941 -2.620841 -2.38419e-7 1.964941 0.1291608 -2.38419e-7 2.114941 0.1291608 -2.38419e-7 2.114941 -2.620841 -2.38419e-7 1.964941 -5.920839 -2.38419e-7 1.964941 -3.720839 -2.38419e-7 2.114941 -3.720839 -2.38419e-7 2.11494 -5.920839 -2.38419e-7 1.964941 1.229161 -2.38419e-7 1.964941 2.879161 -2.38419e-7 2.114941 3.029161 -2.38419e-7 2.114941 1.229161 -2.38419e-7 -2.285058 2.879161 3.5 2.114941 3.029161 2.5 -2.285058 2.879161 1.19209e-7 -2.285058 3.029161 3.5 1.964941 2.879161 2.5 -2.285058 3.029161 1.19209e-7</float_array>
          <technique_common>
            <accessor source="#Plane_009-mesh-positions-array" count="58" stride="3">
              <param name="X" type="float"/>
              <param name="Y" type="float"/>
              <param name="Z" type="float"/>
            </accessor>
          </technique_common>
        </source>
        <source id="Plane_009-mesh-normals">
          <float_array id="Plane_009-mesh-normals-array" count="216">0 0 1 1 0 -4.76837e-7 -1 1.44496e-7 4.76837e-7 1 0 -4.76837e-7 0 -1 2.5151e-7 -1 0 4.76837e-7 0 -1 -5.03294e-7 -1 0 1.19209e-7 1 -2.6491e-7 -4.76837e-7 1 0 -4.76837e-7 -1 0 4.76837e-7 -1 0 0 -1 0 0 -1 2.31194e-7 0 1 0 0 1 0 0 0 1 -1.40406e-7 1 -2.11928e-7 0 0 -1 0 0 1 0 0 -1 0 1 -1.73395e-7 0 -1 0 4.76837e-7 1 0 -4.76837e-7 1.89651e-6 0 1 0 1 8.66977e-7 -1 0 4.76837e-7 -1.08373e-6 0 1 1 -2.16744e-7 -4.76837e-7 -1 0 4.76837e-7 1 0 -4.76837e-7 1 0 0 -1 0 0 -1 2.77432e-7 0 -1 0 0 1 0 0 1 -3.46791e-7 0 0 1 0 1 -2.11928e-7 0 0 -1 0 0 1 0 0 -1 -1.58946e-7 0 -1 0 0 -1 -1.79515e-7 0 -1 1.79515e-7 0 1 0 0 1 0 1.86995e-7 0 1 1.8062e-7 0 1 -1 0 0 0 0 -1 -2.16745e-6 0 -1 -2.16744e-6 0 -1 0 0 -1 0 0 -1 1 0 -4.76837e-7 -1 0 4.76837e-7 1 0 -4.76837e-7 0 -1 -4.48788e-7 -1 0 4.76838e-7 -1 2.60093e-7 4.76837e-7 -1 -6.50232e-7 1.19209e-7 -1 0 4.76837e-7 1 1.73395e-7 -4.76837e-7 -1 0 1.19209e-7 1 0 -4.76838e-7 0 1 -6.56553e-7 -1 6.50232e-7 4.76837e-7 1 -2.16744e-7 0 -1 0 4.76837e-7 1 -1.30048e-6 0 1 1.30046e-6 -4.76837e-7</float_array>
          <technique_common>
            <accessor source="#Plane_009-mesh-normals-array" count="72" stride="3">
              <param name="X" type="float"/>
              <param name="Y" type="float"/>
              <param name="Z" type="float"/>
            </accessor>
          </technique_common>
        </source>
        <source id="Plane_009-mesh-map-0">
          <float_array id="Plane_009-mesh-map-0-array" count="672">0.4787939 0.6401711 0.4811047 0.6321764 0.5065253 0.6321765 0.5234723 0.6401711 0.5234723 0.6321765 0.5658397 0.6321765 0.5827867 0.6401712 0.5827867 0.6321765 0.6166806 0.6321765 0.8266557 0.5176098 0.8341636 0.5884464 0.8266557 0.5884464 0.7847929 0.5323883 0.8192046 0.6045374 0.7847929 0.6045376 0.5771376 0.6401712 0.5771376 0.6321765 0.5827867 0.6321765 0.5178232 0.6401712 0.5178232 0.6321765 0.5234723 0.6321765 0.8191478 0.5176098 0.8266557 0.5884464 0.8191478 0.5884464 0.5065253 0.6401711 0.5065253 0.6321765 0.5121742 0.6321765 0.5121742 0.6401711 0.5121742 0.6321765 0.5178232 0.6321765 0.6961565 0.6045376 0.7847929 0.5323883 0.7847929 0.6045376 0.9147931 0.5323883 0.9224401 0.6045374 0.9147931 0.6045374 0.5098342 0.6303406 0.4944279 0.6223459 0.5098342 0.6223459 0.8421459 0.5323883 0.8994989 0.6045374 0.8421459 0.6045376 0.8416717 0.5176098 0.8785288 0.5884464 0.8416717 0.5884464 0.8341636 0.5176098 0.8416717 0.5884464 0.8341636 0.5884464 0.8344988 0.5323883 0.8421459 0.6045376 0.8344988 0.6045376 0.8192046 0.5323883 0.8268517 0.6045376 0.8192046 0.6045374 0.5658397 0.6401712 0.5658397 0.6321765 0.5714886 0.6321765 0.5714886 0.6401712 0.5714886 0.6321765 0.5771376 0.6321765 0.8994989 0.5323883 0.907146 0.6045374 0.8994989 0.6045374 0.9224401 0.3520153 0.9683224 0.3520153 0.9683224 0.5323883 0.8421459 0.3520153 0.8994989 0.3520153 0.8994989 0.5323883 0.7847929 0.3520153 0.8192046 0.3520153 0.8192046 0.5323883 0.7628381 0.3405183 0.8191478 0.3405183 0.8191478 0.5176098 0.6952667 0.3405183 0.7403143 0.3405183 0.7403143 0.5176098 0.4676473 0.7252876 0.4676473 0.7172929 0.5061631 0.7172929 0.8416717 0.3405184 0.8785288 0.3405183 0.8785288 0.5176098 0.4078706 0.7018954 0.409967 0.7018954 0.409967 0.8227697 0.4078706 0.6852101 0.409967 0.6852101 0.409967 0.8060843 0.5616259 0.7172929 0.5616259 0.7252876 0.5231101 0.7252876 0.4787939 0.6401711 0.5065253 0.6321765 0.5065253 0.6401711 0.5234723 0.6401711 0.5658397 0.6321765 0.5658397 0.6401712 0.5827867 0.6401712 0.6166806 0.6321765 0.6166806 0.6401712 0.7628381 0.5176098 0.8191478 0.5884464 0.7628381 0.5884464 0.9224401 0.5323883 0.9683224 0.6045374 0.9224401 0.6045374 0.7478224 0.5176098 0.7553303 0.5884464 0.7478224 0.5884464 0.5771376 0.6401712 0.5827867 0.6321765 0.5827867 0.6401712 0.5178232 0.6401712 0.5234723 0.6321765 0.5234723 0.6401711 0.8785288 0.5176098 0.9686239 0.5884462 0.8785288 0.5884464 0.4787938 0.3523644 0.4811047 0.4056619 0.4787938 0.4056619 0.5065253 0.6401711 0.5121742 0.6321765 0.5121742 0.6401711 0.5121742 0.6401711 0.5178232 0.6321765 0.5178232 0.6401712 0.8268517 0.5323883 0.8344988 0.6045376 0.8268517 0.6045376 0.6952667 0.5176098 0.7403143 0.5884464 0.6952667 0.5884464 0.907146 0.5323883 0.9147931 0.6045374 0.907146 0.6045374 0.7553303 0.5176098 0.7628381 0.5884464 0.7553303 0.5884464 0.7403143 0.5176098 0.7478224 0.5884464 0.7403143 0.5884464 0.5658397 0.6401712 0.5714886 0.6321765 0.5714886 0.6401712 0.5714886 0.6401712 0.5771376 0.6321765 0.5771376 0.6401712 0.9224401 0.3520153 0.9683224 0.5323883 0.9224401 0.5323883 0.8421459 0.3520153 0.8994989 0.5323883 0.8421459 0.5323883 0.7847929 0.3520153 0.8192046 0.5323883 0.7847929 0.5323883 0.7628381 0.3405183 0.8191478 0.5176098 0.7628381 0.5176098 0.6952667 0.3405183 0.7403143 0.5176098 0.6952667 0.5176098 0.4676473 0.7252876 0.5061631 0.7172929 0.5061631 0.7252876 0.8416717 0.3405184 0.8785288 0.5176098 0.8416717 0.5176098 0.4078706 0.7018954 0.409967 0.8227697 0.4078706 0.8227697 0.4078706 0.6852101 0.409967 0.8060843 0.4078706 0.8060843 0.5616259 0.7172929 0.5231101 0.7252876 0.5231101 0.7172929 0.4944279 0.6303405 0.4559121 0.6303403 0.4944279 0.6223459 0.4559121 0.6223457 0.4944279 0.6223459 0.4559121 0.6303403 0.6961565 0.5323883 0.6961565 0.3520153 0.7847929 0.5323883 0.7847929 0.3520153 0.7847929 0.5323883 0.6961565 0.3520153 0.8785288 0.3405183 0.9686239 0.5176098 0.8785288 0.5176098 0.9686239 0.3405183 0.9686239 0.5176098 0.8785288 0.3405183 0.4811047 0.4056619 0.4811047 0.6321764 0.4787938 0.4056619 0.4787939 0.6401711 0.4787938 0.4056619 0.4811047 0.6321764 0.4787938 0.3523644 0.4787938 0.2191206 0.4811047 0.2191206 0.4811047 0.2191206 0.4811047 0.3523644 0.4787938 0.3523644 0.5231101 0.7172929 0.5174611 0.7252875 0.5174611 0.7172929 0.5174611 0.7172929 0.5118122 0.7252876 0.5118122 0.7172929 0.5118122 0.7252876 0.5061631 0.7172929 0.5118122 0.7172929 0.409967 0.8060843 0.4078706 0.8238126 0.4078706 0.8060843 0.4078706 0.8415408 0.409967 0.8238126 0.409967 0.8415408 0.409967 0.8415408 0.4078706 0.8592691 0.4078706 0.8415408 0.4220182 0.6223455 0.4559121 0.6223457 0.4220182 0.6303402 0.4220182 0.6303402 0.4559121 0.6223457 0.4559121 0.6303403 0.6039933 0.7252876 0.5616259 0.7252876 0.6039933 0.7172929 0.6039933 0.7172929 0.5616259 0.7252876 0.5616259 0.7172929 0.5131988 0.4516139 0.5108878 0.3636731 0.5131987 0.3636731 0.5108878 0.3636731 0.5131988 0.4516139 0.5108878 0.4596085 0.5131988 0.4516139 0.5786756 0.4516138 0.5108878 0.4596085 0.5108878 0.4596085 0.5786756 0.4516138 0.5786756 0.4596085 0.8266557 0.5176098 0.8341636 0.5176098 0.8341636 0.5884464 0.7847929 0.5323883 0.8192046 0.5323883 0.8192046 0.6045374 0.8191478 0.5176098 0.8266557 0.5176098 0.8266557 0.5884464 0.6961565 0.6045376 0.6961565 0.5323883 0.7847929 0.5323883 0.9147931 0.5323883 0.9224401 0.5323883 0.9224401 0.6045374 0.5098342 0.6303406 0.4944279 0.6303405 0.4944279 0.6223459 0.8421459 0.5323883 0.8994989 0.5323883 0.8994989 0.6045374 0.8416717 0.5176098 0.8785288 0.5176098 0.8785288 0.5884464 0.8341636 0.5176098 0.8416717 0.5176098 0.8416717 0.5884464 0.8344988 0.5323883 0.8421459 0.5323883 0.8421459 0.6045376 0.8192046 0.5323883 0.8268517 0.5323883 0.8268517 0.6045376 0.8994989 0.5323883 0.907146 0.5323883 0.907146 0.6045374 0.7628381 0.5176098 0.8191478 0.5176098 0.8191478 0.5884464 0.9224401 0.5323883 0.9683224 0.5323883 0.9683224 0.6045374 0.7478224 0.5176098 0.7553303 0.5176098 0.7553303 0.5884464 0.8785288 0.5176098 0.9686239 0.5176098 0.9686239 0.5884462 0.4787938 0.3523644 0.4811047 0.3523644 0.4811047 0.4056619 0.8268517 0.5323883 0.8344988 0.5323883 0.8344988 0.6045376 0.6952667 0.5176098 0.7403143 0.5176098 0.7403143 0.5884464 0.907146 0.5323883 0.9147931 0.5323883 0.9147931 0.6045374 0.7553303 0.5176098 0.7628381 0.5176098 0.7628381 0.5884464 0.7403143 0.5176098 0.7478224 0.5176098 0.7478224 0.5884464 0.5231101 0.7172929 0.5231101 0.7252876 0.5174611 0.7252875 0.5174611 0.7172929 0.5174611 0.7252875 0.5118122 0.7252876 0.5118122 0.7252876 0.5061631 0.7252876 0.5061631 0.7172929 0.409967 0.8060843 0.409967 0.8238126 0.4078706 0.8238126 0.4078706 0.8415408 0.4078706 0.8238126 0.409967 0.8238126 0.409967 0.8415408 0.409967 0.8592691 0.4078706 0.8592691</float_array>
          <technique_common>
            <accessor source="#Plane_009-mesh-map-0-array" count="336" stride="2">
              <param name="S" type="float"/>
              <param name="T" type="float"/>
            </accessor>
          </technique_common>
        </source>
        <vertices id="Plane_009-mesh-vertices">
          <input semantic="POSITION" source="#Plane_009-mesh-positions"/>
        </vertices>
        <triangles material="Material_002-material" count="112">
          <input semantic="VERTEX" source="#Plane_009-mesh-vertices" offset="0"/>
          <input semantic="NORMAL" source="#Plane_009-mesh-normals" offset="1"/>
          <input semantic="TEXCOORD" source="#Plane_009-mesh-map-0" offset="2" set="0"/>
          <p>1 0 0 0 0 1 2 0 2 5 0 3 4 0 4 6 0 5 9 0 6 8 0 7 10 0 8 26 1 9 18 1 10 19 1 11 56 2 12 2 2 13 0 2 14 36 0 15 33 0 16 8 0 17 19 0 18 16 0 19 4 0 20 37 3 21 19 3 22 5 3 23 3 0 24 2 0 25 17 0 26 18 0 27 17 0 28 16 0 29 52 4 30 56 4 31 0 4 32 25 5 33 8 5 34 33 5 35 10 6 36 30 6 37 11 6 38 12 7 39 6 7 40 4 7 41 38 8 42 1 8 43 3 8 44 27 9 45 3 9 46 18 9 47 29 10 48 4 10 49 16 10 50 39 10 51 17 10 52 2 10 53 7 0 54 6 0 55 34 0 56 35 0 57 34 0 58 33 0 59 32 10 60 34 10 61 6 10 62 45 11 63 44 11 64 15 11 65 41 12 66 40 12 67 32 12 68 49 13 69 48 13 70 39 13 71 43 14 72 42 14 73 37 14 74 47 15 75 46 15 76 14 15 77 46 16 78 45 16 79 31 16 80 51 17 81 50 17 82 53 17 83 48 18 84 51 18 85 38 18 86 42 19 87 41 19 88 12 19 89 40 20 90 43 20 91 13 20 92 1 0 93 2 0 94 3 0 95 5 0 96 6 0 97 7 0 98 9 0 99 10 0 100 11 0 101 13 21 102 5 21 103 7 21 104 31 22 105 10 22 106 8 22 107 22 23 108 35 23 109 36 23 110 36 0 111 8 0 112 9 0 113 19 24 114 4 24 115 5 24 116 53 25 117 55 25 118 1 25 119 20 26 120 52 26 121 55 26 122 3 27 123 17 27 124 18 27 125 18 0 126 16 0 127 19 0 128 28 10 129 16 10 130 17 10 131 30 28 132 9 28 133 11 28 134 24 29 135 33 29 136 34 29 137 23 30 138 7 30 139 35 30 140 14 31 141 36 31 142 9 31 143 7 0 144 34 0 145 35 0 146 35 0 147 33 0 148 36 0 149 45 32 150 15 32 151 31 32 152 41 33 153 32 33 154 12 33 155 49 34 156 39 34 157 56 34 158 43 35 159 37 35 160 13 35 161 47 36 162 14 36 163 30 36 164 46 37 165 31 37 166 14 37 167 51 38 168 53 38 169 38 38 170 48 39 171 38 39 172 39 39 173 42 40 174 12 40 175 37 40 176 40 41 177 13 41 178 32 41 179 15 42 180 44 42 181 30 42 182 47 42 183 30 42 184 44 42 185 21 43 186 54 43 187 56 43 188 49 44 189 56 44 190 54 44 191 50 45 192 20 45 193 53 45 194 57 46 195 20 46 196 50 46 197 52 47 198 0 47 199 55 47 200 1 48 201 55 48 202 0 48 203 20 49 204 57 49 205 54 49 206 54 34 207 21 34 208 20 34 209 32 50 210 23 50 211 24 50 212 24 50 213 22 50 214 25 50 215 22 50 216 31 50 217 25 50 218 12 51 219 26 51 220 37 51 221 27 52 222 29 52 223 28 52 224 28 50 225 38 50 226 27 50 227 46 50 228 47 50 229 45 50 230 45 50 231 47 50 232 44 50 233 42 50 234 43 50 235 41 50 236 41 50 237 43 50 238 40 50 239 49 50 240 51 50 241 48 50 242 51 50 243 49 50 244 50 50 245 49 53 246 54 53 247 50 53 248 50 54 249 54 54 250 57 54 251 26 55 252 27 55 253 18 55 254 56 56 255 39 56 256 2 56 257 37 57 258 26 57 259 19 57 260 52 58 261 21 58 262 56 58 263 25 59 264 31 59 265 8 59 266 10 42 267 15 42 268 30 42 269 12 60 270 32 60 271 6 60 272 38 9 273 53 9 274 1 9 275 27 30 276 38 30 277 3 30 278 29 61 279 12 61 280 4 61 281 39 10 282 28 10 283 17 10 284 32 62 285 24 62 286 34 62 287 13 63 288 37 63 289 5 63 290 31 64 291 15 64 292 10 64 293 22 65 294 23 65 295 35 65 296 53 66 297 20 66 298 55 66 299 20 10 300 21 10 301 52 10 302 28 67 303 29 67 304 16 67 305 30 68 306 14 68 307 9 68 308 24 69 309 25 69 310 33 69 311 23 70 312 13 70 313 7 70 314 14 71 315 22 71 316 36 71 317 32 50 318 13 50 319 23 50 320 24 50 321 23 50 322 22 50 323 22 50 324 14 50 325 31 50 326 12 50 327 29 50 328 26 50 329 27 50 330 26 50 331 29 50 332 28 50 333 39 50 334 38 50 335</p>
        </triangles>
      </mesh>
    </geometry>
  </library_geometries>
  <library_visual_scenes>
    <visual_scene id="Scene" name="Scene">
      <node id="Plane_005" name="Plane.005" type="NODE">
        <matrix sid="transform">1 0 0 0 0 1 0 0 0 0 1 0 0 0 0 1</matrix>
        <instance_geometry url="#Plane_009-mesh" name="Plane.005">
          <bind_material>
            <technique_common>
              <instance_material symbol="Material_002-material" target="#Material_002-material">
                <bind_vertex_input semantic="Plane_009-mesh-map-0" input_semantic="TEXCOORD" input_set="0"/>
              </instance_material>
            </technique_common>
          </bind_material>
        </instance_geometry>
      </node>
    </visual_scene>
  </library_visual_scenes>
  <scene>
    <instance_visual_scene url="#Scene"/>
  </scene>
</COLLADA>