<?xml version="1.0" encoding="utf-8"?>
<COLLADA xmlns="http://www.collada.org/2005/11/COLLADASchema" version="1.4.1" xmlns:xsi="http://www.w3.org/2001/XMLSchema-instance">
  <asset>
    <contributor>
      <author>Blender User</author>
      <authoring_tool>Blender 4.5.2 LTS commit date:2025-08-19, commit time:15:00, hash:ab25eae04993</authoring_tool>
    </contributor>
    <created>2025-09-06T15:55:01</created>
    <modified>2025-09-06T15:55:01</modified>
    <unit name="meter" meter="1"/>
    <up_axis>Z_UP</up_axis>
  </asset>
  <library_effects>
    <effect id="Material_001-effect">
      <profile_COMMON>
        <newparam sid="textures_second1_png-surface">
          <surface type="2D">
            <init_from>textures_second1_png</init_from>
          </surface>
        </newparam>
        <newparam sid="textures_second1_png-sampler">
          <sampler2D>
            <source>textures_second1_png-surface</source>
          </sampler2D>
        </newparam>
        <technique sid="common">
          <lambert>
            <emission>
              <color sid="emission">0 0 0 1</color>
            </emission>
            <diffuse>
              <texture texture="textures_second1_png-sampler" texcoord="Plane_006-mesh-map-0"/>
            </diffuse>
            <index_of_refraction>
              <float sid="ior">1.5</float>
            </index_of_refraction>
          </lambert>
        </technique>
      </profile_COMMON>
    </effect>
  </library_effects>
  <library_images>
    <image id="textures_second1_png" name="textures_second1_png">
      <init_from>textures_second1.png</init_from>
    </image>
  </library_images>
  <library_materials>
    <material id="Material_001-material" name="Material.001">
      <instance_effect url="#Material_001-effect"/>
    </material>
  </library_materials>
  <library_geometries>
    <geometry id="Plane_006-mesh" name="Plane.006">
      <mesh>
        <source id="Plane_006-mesh-positions">
          <float_array id="Plane_006-mesh-positions-array" count="300">-2.95 -2.65 0 -2.95 -2.8 0 0.3499994 -2.65 0 0.3499994 -2.8 0 -4.05 -2.65 0 -4.05 -2.8 0 -4.6 -2.65 0 1.45 -2.65 0 1.45 -2.8 0 5.3 -2.65 0 5.3 -2.8 0 6.4 -2.65 0 6.4 -2.8 0 7.5 -2.65 0 7.5 -2.8 0 -2.95 -2.65 3 -2.95 -2.8 3 0.3499994 -2.65 3 0.3499994 -2.8 3 -4.05 -2.65 3 -4.05 -2.8 3 -4.6 -2.8 3 -4.6 -2.65 3 1.45 -2.65 3 1.45 -2.8 3 5.3 -2.65 3 5.3 -2.8 3 6.4 -2.65 3 6.4 -2.8 3 7.5 -2.65 3 7.5 -2.8 3 1.45 -2.8 2 1.45 -2.65 2 5.3 -2.65 2 5.3 -2.8 2 -2.95 -2.65 2 0.3499994 -2.65 2 -2.95 -2.8 2 0.3499994 -2.8 2 -4.05 -2.65 2 -4.05 -2.8 2 7.5 -2.65 2 7.5 -2.8 2 6.4 -2.8 2 6.4 -2.65 2 5.974997 -2.65 2 5.725001 -2.65 2 6.033333 -2.65 3 5.666666 -2.65 3 5.666666 -2.8 3 6.033333 -2.8 3 5.725001 -2.8 2 5.974997 -2.8 2 7.5 -2.65 2.375 -4.6 -2.65 2.375 -4.6 -2.8 2.375 -2.95 -2.65 2.375 6.4 -2.65 2.375 1.45 -2.8 2.375 -2.95 -2.8 2.375 5.3 -2.65 2.375 0.3499994 -2.8 2.375 1.45 -2.65 2.375 5.3 -2.8 2.375 0.3499994 -2.65 2.375 -4.05 -2.65 2.375 -4.05 -2.8 2.375 7.5 -2.8 2.375 6.4 -2.8 2.375 5.974997 -2.65 2.25 5.725001 -2.65 2.25 5.725001 -2.8 2.25 5.974997 -2.8 2.25 1.083333 -2.65 3 0.7166662 -2.65 3 1.024999 -2.65 2 0.7749997 -2.65 2 1.024999 -2.8 2 0.7749997 -2.8 2 1.083333 -2.8 3 0.7166662 -2.8 3 0.7749997 -2.65 2.25 1.024999 -2.65 2.25 0.7749997 -2.8 2.25 1.024999 -2.8 2.25 -3.375003 -2.65 2 -3.624999 -2.65 2 -3.316667 -2.65 3 -3.683334 -2.65 3 -3.375003 -2.8 2 -3.624999 -2.8 2 -3.316667 -2.8 3 -3.683334 -2.8 3 -3.375003 -2.8 2.25 -3.624999 -2.8 2.25 -3.624999 -2.65 2.25 -3.375003 -2.65 2.25 -4.6 -2.65 2 -4.6 -2.8 0 -4.6 -2.8 2</float_array>
          <technique_common>
            <accessor source="#Plane_006-mesh-positions-array" count="100" stride="3">
              <param name="X" type="float"/>
              <param name="Y" type="float"/>
              <param name="Z" type="float"/>
            </accessor>
          </technique_common>
        </source>
        <source id="Plane_006-mesh-normals">
          <float_array id="Plane_006-mesh-normals-array" count="51">0 0 -1 0 0 1 1 0 0 0 1 0 0 -1 0 -1 0 0 0 -1 2.87057e-7 0 1 2.87058e-7 0 -1 1.58948e-7 0 -1 -5.4186e-7 0 -1 0 0 -1 -8.66978e-7 0 1 3.17896e-7 0 1 5.74114e-7 0 -1 -7.65491e-7 0 -1 0 0 1 4.33488e-7</float_array>
          <technique_common>
            <accessor source="#Plane_006-mesh-normals-array" count="17" stride="3">
              <param name="X" type="float"/>
              <param name="Y" type="float"/>
              <param name="Z" type="float"/>
            </accessor>
          </technique_common>
        </source>
        <source id="Plane_006-mesh-map-0">
          <float_array id="Plane_006-mesh-map-0-array" count="1176">0.4518327 0.5352034 0.4542517 0.7193113 0.4518327 0.7193113 0.5587947 0.06656515 0.5563757 0.03588044 0.5587947 0.03588044 0.4518326 0.03588044 0.4542517 0.2506731 0.4518327 0.2506731 0.5537468 0.3817805 0.5513277 0.3204113 0.5537468 0.3204113 0.4517277 0.1279345 0.4493087 0.3120425 0.4493087 0.1279345 0.4493087 0.06656509 0.4517278 0.03588044 0.4517277 0.06656515 0.4517277 0.3734118 0.4493087 0.5882045 0.4493087 0.3734118 0.4517277 0.6495738 0.4493086 0.7109431 0.4493087 0.6495738 0.4493086 0.7458121 0.4517277 0.7109431 0.4517277 0.7458121 0.9978464 0.624917 0.9827111 0.6844167 0.9827111 0.624917 0.9992105 0.6273647 0.9689401 0.6868643 0.9689401 0.6273648 0.5587947 0.1990672 0.5563757 0.2339361 0.5563757 0.1990672 0.9524406 0.624917 0.8616294 0.6844165 0.8616294 0.624917 0.6951422 0.624917 0.6648718 0.6844165 0.6648718 0.624917 0.4517277 0.3529554 0.4493087 0.3734118 0.4493087 0.3529554 0.8024526 0.6273647 0.8141482 0.591665 0.8141482 0.6154648 0.4542517 0.4236229 0.4518327 0.399912 0.4542517 0.399912 0.8024526 0.6273647 0.7116416 0.6868643 0.7116416 0.6273647 0.9386698 0.6273648 0.8327233 0.6868643 0.8327233 0.6273647 0.8616294 0.624917 0.8515391 0.6844165 0.8499341 0.613017 0.8313589 0.624917 0.7254124 0.6844164 0.7254124 0.6249169 0.6813711 0.6273647 0.6662361 0.6868643 0.6662361 0.6273647 0.5537468 0.2088305 0.5513278 0.1851195 0.5537468 0.1851195 0.9689401 0.6273648 0.9588499 0.6868643 0.9572446 0.6154649 0.4517277 0.6291174 0.4493087 0.6495738 0.4493087 0.6291174 0.713717 0.5892172 0.7254124 0.6249169 0.713717 0.613017 0.9827111 0.624917 0.9726209 0.6844167 0.9710157 0.613017 0.5538518 0.1474611 0.5562708 0.171172 0.5538518 0.171172 0.6914612 0.6868643 0.6813711 0.6273647 0.6930667 0.6154649 0.4493087 0.08702152 0.4517277 0.06656515 0.4517277 0.08702152 0.6951422 0.5892172 0.7068374 0.613017 0.6951422 0.624917 0.001730442 0.9171479 0.02397525 0.995852 0.001730442 0.995852 0.4517277 0.5882045 0.4493087 0.6086609 0.4493087 0.5882045 0.4517277 0.6086609 0.4493087 0.6291174 0.4493087 0.6086609 0.9503651 0.6154649 0.9386698 0.6868644 0.9386698 0.6273648 0.9572446 0.6154649 0.9487597 0.6868643 0.9503651 0.6154649 0.5537469 0.1711722 0.5513278 0.1474611 0.5537469 0.1474611 0.5537468 0.1851195 0.5513278 0.1711721 0.5537469 0.1711722 0.07592833 0.9166951 0.0536834 0.9953991 0.0536834 0.9166951 0.9503651 0.591665 0.9386698 0.6273648 0.9386698 0.591665 0.7068374 0.613017 0.7153223 0.6844165 0.7052323 0.6844165 0.6951422 0.624917 0.7052323 0.6844165 0.6951422 0.6844165 0.6930667 0.6154649 0.6813711 0.591665 0.6930667 0.591665 0.9827111 0.5892173 0.9710157 0.613017 0.9710157 0.5892173 0.713717 0.613017 0.7254124 0.6844164 0.7153223 0.6844165 0.9689401 0.591665 0.9572446 0.6154649 0.9572446 0.591665 0.6813711 0.591665 0.6662361 0.6273647 0.6662361 0.591665 0.8313589 0.5892172 0.7254124 0.6249169 0.7254124 0.5892171 0.8616294 0.5892172 0.8499341 0.613017 0.8499341 0.5892172 0.9386698 0.591665 0.8327233 0.6273647 0.8327233 0.591665 0.8024526 0.591665 0.7116416 0.6273647 0.7116416 0.591665 0.8024526 0.6868643 0.8141482 0.6154648 0.8125429 0.6868643 0.6951422 0.5892172 0.6648718 0.624917 0.6648715 0.5892172 0.9524406 0.5892173 0.8616294 0.624917 0.8616294 0.5892172 0.5587947 0.1781458 0.5563757 0.1990672 0.5563757 0.1781458 0.9992105 0.591665 0.9689401 0.6273648 0.9689401 0.591665 0.9978464 0.5892173 0.9827111 0.624917 0.9827111 0.5892173 0.4493086 0.7667335 0.4517277 0.7458121 0.4517277 0.7667335 0.8226331 0.6868643 0.8327233 0.6273647 0.8327233 0.6868643 0.8125429 0.6868643 0.8210278 0.6154648 0.8226331 0.6868643 0.8430543 0.5892172 0.8313589 0.624917 0.8313589 0.5892172 0.02397525 0.9171479 0.001730442 0.995852 0.001730442 0.9171479 0.8430543 0.613017 0.8313589 0.6844165 0.8313589 0.624917 0.8499341 0.613017 0.841449 0.6844164 0.8430543 0.613017 0.4542517 0.3859645 0.4518327 0.3622536 0.4542517 0.3622536 0.4542517 0.399912 0.4518327 0.3859645 0.4542517 0.3859645 0.8210278 0.6154648 0.8327233 0.591665 0.8327233 0.6273647 0.07946467 0.9940402 0.1017095 0.9153361 0.1017095 0.9940402 0.4517277 0.3120425 0.4493087 0.3324989 0.4493087 0.3120425 0.4517277 0.3324989 0.4493087 0.3529554 0.4493087 0.3324989 0.9641361 0.5892173 0.9524406 0.624917 0.9524406 0.5892173 0.05014699 0.9162421 0.02790218 0.9949461 0.02790218 0.9162421 0.7116416 0.6273647 0.6999461 0.591665 0.7116416 0.591665 0.1017095 0.9940403 0.07946467 0.9153361 0.1017095 0.9153361 0.4493087 0.1279345 0.4517277 0.107478 0.4517277 0.1279345 0.4493087 0.107478 0.4517277 0.08702152 0.4517277 0.107478 0.7116416 0.6868643 0.6999461 0.6154649 0.7116416 0.6273647 0.7015514 0.6868643 0.6930667 0.6154649 0.6999461 0.6154649 0.5538518 0.1851194 0.5562708 0.2088304 0.5538518 0.2088304 0.5538518 0.171172 0.5562708 0.1851194 0.5538518 0.1851194 0.9641361 0.613017 0.9524406 0.6844167 0.9524406 0.624917 0.9710157 0.613017 0.9625307 0.6844167 0.9641361 0.613017 0.5513279 0.03588044 0.5537469 0.1474611 0.5513278 0.1474611 0.8327233 0.591665 0.9386698 0.4012663 0.9386698 0.591665 0.5513277 0.3204113 0.5537468 0.2088305 0.5537468 0.3204113 0.4518327 0.5352034 0.4542517 0.5352034 0.4542517 0.7193113 0.5587947 0.06656515 0.5563757 0.06656515 0.5563757 0.03588044 0.4518326 0.03588044 0.4542517 0.03588044 0.4542517 0.2506731 0.5537468 0.3817805 0.5513277 0.3817805 0.5513277 0.3204113 0.4517277 0.1279345 0.4517277 0.3120425 0.4493087 0.3120425 0.4493087 0.06656509 0.4493087 0.0358805 0.4517278 0.03588044 0.4517277 0.3734118 0.4517277 0.5882045 0.4493087 0.5882045 0.4517277 0.6495738 0.4517277 0.7109431 0.4493086 0.7109431 0.4493086 0.7458121 0.4493086 0.7109431 0.4517277 0.7109431 0.9978464 0.624917 0.9978464 0.6844167 0.9827111 0.6844167 0.9992105 0.6273647 0.9992105 0.6868643 0.9689401 0.6868643 0.5587947 0.1990672 0.5587947 0.2339361 0.5563757 0.2339361 0.9524406 0.624917 0.9524406 0.6844167 0.8616294 0.6844165 0.6951422 0.624917 0.6951422 0.6844165 0.6648718 0.6844165 0.4517277 0.3529554 0.4517277 0.3734118 0.4493087 0.3734118 0.8024526 0.6273647 0.8024526 0.591665 0.8141482 0.591665 0.4542517 0.4236229 0.4518327 0.4236229 0.4518327 0.399912 0.8024526 0.6273647 0.8024526 0.6868643 0.7116416 0.6868643 0.9386698 0.6273648 0.9386698 0.6868644 0.8327233 0.6868643 0.8616294 0.624917 0.8616294 0.6844165 0.8515391 0.6844165 0.8313589 0.624917 0.8313589 0.6844165 0.7254124 0.6844164 0.6813711 0.6273647 0.6813711 0.6868643 0.6662361 0.6868643 0.5537468 0.2088305 0.5513278 0.2088305 0.5513278 0.1851195 0.9689401 0.6273648 0.9689401 0.6868643 0.9588499 0.6868643 0.4517277 0.6291174 0.4517277 0.6495738 0.4493087 0.6495738 0.713717 0.5892172 0.7254124 0.5892171 0.7254124 0.6249169 0.9827111 0.624917 0.9827111 0.6844167 0.9726209 0.6844167 0.5538518 0.1474611 0.5562708 0.1474611 0.5562708 0.171172 0.6914612 0.6868643 0.6813711 0.6868643 0.6813711 0.6273647 0.4493087 0.08702152 0.4493087 0.06656509 0.4517277 0.06656515 0.6951422 0.5892172 0.7068374 0.5892172 0.7068374 0.613017 0.001730442 0.9171479 0.02397525 0.9171479 0.02397525 0.995852 0.4517277 0.5882045 0.4517277 0.6086609 0.4493087 0.6086609 0.4517277 0.6086609 0.4517277 0.6291174 0.4493087 0.6291174 0.9503651 0.6154649 0.9487597 0.6868643 0.9386698 0.6868644 0.9572446 0.6154649 0.9588499 0.6868643 0.9487597 0.6868643 0.5537469 0.1711722 0.5513278 0.1711721 0.5513278 0.1474611 0.5537468 0.1851195 0.5513278 0.1851195 0.5513278 0.1711721 0.07592833 0.9166951 0.07592833 0.9953991 0.0536834 0.9953991 0.9503651 0.591665 0.9503651 0.6154649 0.9386698 0.6273648 0.7068374 0.613017 0.713717 0.613017 0.7153223 0.6844165 0.6951422 0.624917 0.7068374 0.613017 0.7052323 0.6844165 0.6930667 0.6154649 0.6813711 0.6273647 0.6813711 0.591665 0.9827111 0.5892173 0.9827111 0.624917 0.9710157 0.613017 0.713717 0.613017 0.7254124 0.6249169 0.7254124 0.6844164 0.9689401 0.591665 0.9689401 0.6273648 0.9572446 0.6154649 0.6813711 0.591665 0.6813711 0.6273647 0.6662361 0.6273647 0.8313589 0.5892172 0.8313589 0.624917 0.7254124 0.6249169 0.8616294 0.5892172 0.8616294 0.624917 0.8499341 0.613017 0.9386698 0.591665 0.9386698 0.6273648 0.8327233 0.6273647 0.8024526 0.591665 0.8024526 0.6273647 0.7116416 0.6273647 0.8024526 0.6868643 0.8024526 0.6273647 0.8141482 0.6154648 0.6951422 0.5892172 0.6951422 0.624917 0.6648718 0.624917 0.9524406 0.5892173 0.9524406 0.624917 0.8616294 0.624917 0.5587947 0.1781458 0.5587947 0.1990672 0.5563757 0.1990672 0.9992105 0.591665 0.9992105 0.6273647 0.9689401 0.6273648 0.9978464 0.5892173 0.9978464 0.624917 0.9827111 0.624917 0.4493086 0.7667335 0.4493086 0.7458121 0.4517277 0.7458121 0.8226331 0.6868643 0.8210278 0.6154648 0.8327233 0.6273647 0.8125429 0.6868643 0.8141482 0.6154648 0.8210278 0.6154648 0.8430543 0.5892172 0.8430543 0.613017 0.8313589 0.624917 0.02397525 0.9171479 0.02397525 0.995852 0.001730442 0.995852 0.8430543 0.613017 0.841449 0.6844164 0.8313589 0.6844165 0.8499341 0.613017 0.8515391 0.6844165 0.841449 0.6844164 0.4542517 0.3859645 0.4518327 0.3859645 0.4518327 0.3622536 0.4542517 0.399912 0.4518327 0.399912 0.4518327 0.3859645 0.8210278 0.6154648 0.8210278 0.591665 0.8327233 0.591665 0.07946467 0.9940402 0.07946467 0.9153361 0.1017095 0.9153361 0.4517277 0.3120425 0.4517277 0.3324989 0.4493087 0.3324989 0.4517277 0.3324989 0.4517277 0.3529554 0.4493087 0.3529554 0.9641361 0.5892173 0.9641361 0.613017 0.9524406 0.624917 0.05014699 0.9162421 0.05014699 0.9949461 0.02790218 0.9949461 0.7116416 0.6273647 0.6999461 0.6154649 0.6999461 0.591665 0.1017095 0.9940403 0.07946467 0.9940403 0.07946467 0.9153361 0.4493087 0.1279345 0.4493087 0.107478 0.4517277 0.107478 0.4493087 0.107478 0.4493087 0.08702152 0.4517277 0.08702152 0.7116416 0.6868643 0.7015514 0.6868643 0.6999461 0.6154649 0.7015514 0.6868643 0.6914612 0.6868643 0.6930667 0.6154649 0.5538518 0.1851194 0.5562708 0.1851194 0.5562708 0.2088304 0.5538518 0.171172 0.5562708 0.171172 0.5562708 0.1851194 0.9641361 0.613017 0.9625307 0.6844167 0.9524406 0.6844167 0.9710157 0.613017 0.9726209 0.6844167 0.9625307 0.6844167 0.6951422 0.5892172 0.6648715 0.3988184 0.6951422 0.3988184 0.4517276 0.8783141 0.4493086 0.7667335 0.4517277 0.7667335 0.9689401 0.591665 0.9992105 0.4012663 0.9992105 0.591665 0.8313589 0.3988185 0.7254124 0.5892171 0.7254124 0.3988184 0.4542517 0.2506731 0.4518327 0.3622536 0.4518327 0.2506731 0.7116416 0.591665 0.8024526 0.4012663 0.8024526 0.591665 0.5538518 0.2088304 0.5562708 0.320411 0.5538518 0.320411 0.9524406 0.3988185 0.8616294 0.5892172 0.8616294 0.3988184 0.4518327 0.5352034 0.4542517 0.4236229 0.4542517 0.5352034 0.681371 0.4012663 0.6662361 0.591665 0.6662361 0.4012663 0.5562708 0.03588044 0.5538518 0.1474611 0.5538518 0.03588044 0.9827111 0.5892173 0.9978464 0.3988185 0.9978464 0.5892173 0.5563757 0.1781458 0.5587947 0.06656515 0.5587947 0.1781458 0.5513279 0.03588044 0.5537469 0.03588044 0.5537469 0.1474611 0.8327233 0.591665 0.8327233 0.4012663 0.9386698 0.4012663 0.5513277 0.3204113 0.5513278 0.2088305 0.5537468 0.2088305 0.6951422 0.5892172 0.6648715 0.5892172 0.6648715 0.3988184 0.4517276 0.8783141 0.4493086 0.8783141 0.4493086 0.7667335 0.9689401 0.591665 0.9689401 0.4012663 0.9992105 0.4012663 0.8313589 0.3988185 0.8313589 0.5892172 0.7254124 0.5892171 0.4542517 0.2506731 0.4542517 0.3622536 0.4518327 0.3622536 0.7116416 0.591665 0.7116416 0.4012663 0.8024526 0.4012663 0.5538518 0.2088304 0.5562708 0.2088304 0.5562708 0.320411 0.9524406 0.3988185 0.9524406 0.5892173 0.8616294 0.5892172 0.4518327 0.5352034 0.4518327 0.4236229 0.4542517 0.4236229 0.681371 0.4012663 0.6813711 0.591665 0.6662361 0.591665 0.5562708 0.03588044 0.5562708 0.1474611 0.5538518 0.1474611 0.9827111 0.5892173 0.9827111 0.3988185 0.9978464 0.3988185 0.5563757 0.1781458 0.5563757 0.06656515 0.5587947 0.06656515</float_array>
          <technique_common>
            <accessor source="#Plane_006-mesh-map-0-array" count="588" stride="2">
              <param name="S" type="float"/>
              <param name="T" type="float"/>
            </accessor>
          </technique_common>
        </source>
        <vertices id="Plane_006-mesh-vertices">
          <input semantic="POSITION" source="#Plane_006-mesh-positions"/>
        </vertices>
        <triangles material="Material_001-material" count="196">
          <input semantic="VERTEX" source="#Plane_006-mesh-vertices" offset="0"/>
          <input semantic="NORMAL" source="#Plane_006-mesh-normals" offset="1"/>
          <input semantic="TEXCOORD" source="#Plane_006-mesh-map-0" offset="2" set="0"/>
          <p>2 0 0 1 0 1 0 0 2 98 0 3 4 0 4 5 0 5 9 0 6 8 0 7 7 0 8 13 0 9 12 0 10 11 0 11 16 1 12 17 1 13 15 1 14 19 1 15 21 1 16 20 1 17 24 1 18 25 1 19 23 1 20 28 1 21 29 1 22 27 1 23 53 2 24 30 2 25 67 2 26 54 3 27 19 3 28 65 3 29 67 4 30 28 4 31 68 4 32 55 5 33 22 5 34 54 5 35 56 3 36 17 3 37 64 3 38 57 3 39 29 3 40 53 3 41 79 1 42 23 1 43 73 1 44 61 4 45 78 4 46 83 4 47 38 0 48 76 0 49 78 0 50 61 4 51 16 4 52 59 4 53 63 4 54 24 4 55 58 4 56 64 3 57 74 3 58 81 3 59 62 3 60 25 3 61 60 3 62 66 4 63 21 4 64 55 4 65 44 0 66 52 0 67 45 0 68 68 6 69 50 6 70 72 6 71 50 1 72 27 1 73 47 1 74 46 3 75 60 3 76 70 3 77 65 7 78 88 7 79 95 7 80 40 0 81 86 0 82 90 0 83 92 4 84 66 4 85 94 4 86 88 1 87 20 1 88 92 1 89 44 3 90 69 3 91 57 3 92 45 3 93 70 3 94 69 3 95 26 1 96 48 1 97 25 1 98 49 1 99 47 1 100 48 1 101 71 4 102 26 4 103 63 4 104 72 8 105 49 8 106 71 8 107 46 0 108 34 0 109 33 0 110 45 0 111 51 0 112 46 0 113 52 4 114 71 4 115 51 4 116 51 4 117 63 4 118 34 4 119 69 3 120 48 3 121 47 3 122 57 3 123 47 3 124 27 3 125 94 4 126 40 4 127 90 4 128 39 3 129 95 3 130 86 3 131 70 3 132 25 3 133 48 3 134 43 4 135 72 4 136 52 4 137 40 4 138 55 4 139 99 4 140 32 3 141 60 3 142 33 3 143 36 3 144 81 3 145 76 3 146 34 4 147 58 4 148 31 4 149 38 4 150 59 4 151 37 4 152 18 9 153 83 9 154 80 9 155 44 3 156 53 3 157 41 3 158 35 3 159 64 3 160 36 3 161 99 5 162 54 5 163 97 5 164 42 4 165 68 4 166 43 4 167 97 3 168 65 3 169 39 3 170 41 2 171 67 2 172 42 2 173 79 4 174 58 4 175 24 4 176 80 10 177 84 10 178 79 10 179 75 3 180 62 3 181 32 3 182 76 3 183 82 3 184 75 3 185 82 3 186 23 3 187 62 3 188 81 3 189 73 3 190 82 3 191 77 0 192 32 0 193 31 0 194 78 0 195 75 0 196 77 0 197 84 4 198 31 4 199 58 4 200 83 4 201 77 4 202 84 4 203 18 1 204 74 1 205 17 1 206 80 1 207 73 1 208 74 1 209 85 3 210 56 3 211 35 3 212 86 3 213 96 3 214 85 3 215 59 4 216 89 4 217 37 4 218 93 4 219 90 4 220 89 4 221 15 1 222 91 1 223 16 1 224 87 1 225 92 1 226 91 1 227 16 4 228 93 4 229 59 4 230 91 4 231 94 4 232 93 4 233 89 0 234 35 0 235 37 0 236 90 0 237 85 0 238 89 0 239 96 3 240 15 3 241 56 3 242 95 3 243 87 3 244 96 3 245 10 2 246 33 2 247 34 2 248 31 4 249 10 4 250 34 4 251 12 5 252 44 5 253 11 5 254 2 0 255 3 0 256 1 0 257 98 0 258 6 0 259 4 0 260 9 0 261 10 0 262 8 0 263 13 0 264 14 0 265 12 0 266 16 1 267 18 1 268 17 1 269 19 1 270 22 1 271 21 1 272 24 1 273 26 1 274 25 1 275 28 1 276 30 1 277 29 1 278 53 2 279 29 2 280 30 2 281 54 3 282 22 3 283 19 3 284 67 4 285 30 4 286 28 4 287 55 5 288 21 5 289 22 5 290 56 3 291 15 3 292 17 3 293 57 3 294 27 3 295 29 3 296 79 1 297 24 1 298 23 1 299 61 4 300 38 4 301 78 4 302 38 0 303 36 0 304 76 0 305 61 4 306 18 4 307 16 4 308 63 4 309 26 4 310 24 4 311 64 3 312 17 3 313 74 3 314 62 3 315 23 3 316 25 3 317 66 4 318 20 4 319 21 4 320 44 0 321 43 0 322 52 0 323 68 4 324 28 4 325 50 4 326 50 1 327 28 1 328 27 1 329 46 3 330 33 3 331 60 3 332 65 3 333 19 3 334 88 3 335 40 0 336 39 0 337 86 0 338 92 4 339 20 4 340 66 4 341 88 1 342 19 1 343 20 1 344 44 3 345 45 3 346 69 3 347 45 3 348 46 3 349 70 3 350 26 1 351 49 1 352 48 1 353 49 1 354 50 1 355 47 1 356 71 11 357 49 11 358 26 11 359 72 4 360 50 4 361 49 4 362 46 0 363 51 0 364 34 0 365 45 0 366 52 0 367 51 0 368 52 4 369 72 4 370 71 4 371 51 4 372 71 4 373 63 4 374 69 12 375 70 12 376 48 12 377 57 13 378 69 13 379 47 13 380 94 4 381 66 4 382 40 4 383 39 3 384 65 3 385 95 3 386 70 3 387 60 3 388 25 3 389 43 4 390 68 4 391 72 4 392 40 4 393 66 4 394 55 4 395 32 3 396 62 3 397 60 3 398 36 3 399 64 3 400 81 3 401 34 4 402 63 4 403 58 4 404 38 4 405 61 4 406 59 4 407 18 4 408 61 4 409 83 4 410 44 3 411 57 3 412 53 3 413 35 3 414 56 3 415 64 3 416 99 5 417 55 5 418 54 5 419 42 4 420 67 4 421 68 4 422 97 3 423 54 3 424 65 3 425 41 2 426 53 2 427 67 2 428 79 14 429 84 14 430 58 14 431 80 4 432 83 4 433 84 4 434 75 3 435 82 3 436 62 3 437 76 3 438 81 3 439 82 3 440 82 3 441 73 3 442 23 3 443 81 3 444 74 3 445 73 3 446 77 0 447 75 0 448 32 0 449 78 0 450 76 0 451 75 0 452 84 4 453 77 4 454 31 4 455 83 4 456 78 4 457 77 4 458 18 1 459 80 1 460 74 1 461 80 1 462 79 1 463 73 1 464 85 3 465 96 3 466 56 3 467 86 3 468 95 3 469 96 3 470 59 4 471 93 4 472 89 4 473 93 4 474 94 4 475 90 4 476 15 1 477 87 1 478 91 1 479 87 1 480 88 1 481 92 1 482 16 15 483 91 15 484 93 15 485 91 4 486 92 4 487 94 4 488 89 0 489 85 0 490 35 0 491 90 0 492 86 0 493 85 0 494 96 16 495 87 16 496 15 16 497 95 3 498 88 3 499 87 3 500 44 3 501 13 3 502 11 3 503 14 2 504 41 2 505 42 2 506 43 4 507 14 4 508 42 4 509 7 3 510 33 3 511 9 3 512 8 5 513 32 5 514 7 5 515 37 4 516 3 4 517 38 4 518 37 5 519 0 5 520 1 5 521 0 3 522 36 3 523 2 3 524 2 2 525 38 2 526 3 2 527 5 4 528 99 4 529 98 4 530 4 2 531 40 2 532 5 2 533 39 3 534 6 3 535 97 3 536 97 5 537 98 5 538 99 5 539 10 2 540 9 2 541 33 2 542 31 4 543 8 4 544 10 4 545 12 5 546 43 5 547 44 5 548 44 3 549 41 3 550 13 3 551 14 2 552 13 2 553 41 2 554 43 4 555 12 4 556 14 4 557 7 3 558 32 3 559 33 3 560 8 5 561 31 5 562 32 5 563 37 4 564 1 4 565 3 4 566 37 5 567 35 5 568 0 5 569 0 3 570 35 3 571 36 3 572 2 2 573 36 2 574 38 2 575 5 4 576 40 4 577 99 4 578 4 2 579 39 2 580 40 2 581 39 3 582 4 3 583 6 3 584 97 5 585 6 5 586 98 5 587</p>
        </triangles>
      </mesh>
    </geometry>
  </library_geometries>
  <library_visual_scenes>
    <visual_scene id="Scene" name="Scene">
      <node id="Plane_002" name="Plane.002" type="NODE">
        <matrix sid="transform">1 0 0 0 0 1 0 0 0 0 1 0 0 0 0 1</matrix>
        <instance_geometry url="#Plane_006-mesh" name="Plane.002">
          <bind_material>
            <technique_common>
              <instance_material symbol="Material_001-material" target="#Material_001-material">
                <bind_vertex_input semantic="Plane_006-mesh-map-0" input_semantic="TEXCOORD" input_set="0"/>
              </instance_material>
            </technique_common>
          </bind_material>
        </instance_geometry>
      </node>
    </visual_scene>
  </library_visual_scenes>
  <scene>
    <instance_visual_scene url="#Scene"/>
  </scene>
</COLLADA>