<?xml version="1.0" encoding="utf-8"?>
<COLLADA xmlns="http://www.collada.org/2005/11/COLLADASchema" version="1.4.1" xmlns:xsi="http://www.w3.org/2001/XMLSchema-instance">
  <asset>
    <contributor>
      <author>Blender User</author>
      <authoring_tool>Blender 4.5.2 LTS commit date:2025-08-19, commit time:15:00, hash:ab25eae04993</authoring_tool>
    </contributor>
    <created>2026-09-05T22:16:55</created>
    <modified>2026-09-05T22:16:55</modified>
    <unit name="meter" meter="1"/>
    <up_axis>Z_UP</up_axis>
  </asset>
  <library_effects>
    <effect id="Material_001-effect">
      <profile_COMMON>
        <newparam sid="photo_2026-08-29_00-38-51_jpg_001-surface">
          <surface type="2D">
            <init_from>photo_2026-08-29_00-38-51_jpg_001</init_from>
          </surface>
        </newparam>
        <newparam sid="photo_2026-08-29_00-38-51_jpg_001-sampler">
          <sampler2D>
            <source>photo_2026-08-29_00-38-51_jpg_001-surface</source>
          </sampler2D>
        </newparam>
        <technique sid="common">
          <lambert>
            <emission>
              <color sid="emission">0 0 0 1</color>
            </emission>
            <diffuse>
              <texture texture="photo_2026-08-29_00-38-51_jpg_001-sampler" texcoord="Plane_005-mesh-map-0"/>
            </diffuse>
            <index_of_refraction>
              <float sid="ior">1.45</float>
            </index_of_refraction>
          </lambert>
        </technique>
      </profile_COMMON>
    </effect>
  </library_effects>
  <library_images>
    <image id="photo_2026-08-29_00-38-51_jpg_001" name="photo_2026-08-29_00-38-51_jpg_001">
      <init_from>map.png</init_from>
    </image>
  </library_images>
  <library_materials>
    <material id="Material_001-material" name="Material.001">
      <instance_effect url="#Material_001-effect"/>
    </material>
  </library_materials>
  <library_geometries>
    <geometry id="Plane_005-mesh" name="Plane.005">
      <mesh>
        <source id="Plane_005-mesh-positions">
          <float_array id="Plane_005-mesh-positions-array" count="156">3.214941 -0.8208354 6.13011e-7 3.214941 -0.9708355 6.13011e-7 2.11494 -0.8208353 7.09176e-7 2.11494 -0.9708354 7.09176e-7 4.31494 -0.8208354 5.16846e-7 4.31494 -0.9708355 5.16846e-7 5.414941 -0.9708356 4.2068e-7 5.414941 -0.8208355 4.2068e-7 3.214941 -0.8208354 3.5 3.214941 -0.9708355 3.5 2.11494 -0.8208353 3.5 2.11494 -0.9708354 3.5 4.31494 -0.8208354 3.5 4.31494 -0.9708355 3.5 5.414941 -0.9708356 3.5 5.414941 -0.8208355 3.5 2.11494 -0.8208353 2.5 2.11494 -0.9708354 2.5 3.214941 -0.9708355 2.5 3.214941 -0.8208354 2.5 5.414941 -0.9708356 2.5 5.414941 -0.8208355 2.5 4.31494 -0.9708355 2.5 4.31494 -0.8208354 2.5 3.581607 -0.8208354 3.5 3.948274 -0.8208354 3.5 3.639943 -0.8208354 2.5 3.889942 -0.8208354 2.5 3.581607 -0.9708355 3.5 3.948274 -0.9708355 3.5 3.889942 -0.9708355 2.5 3.639939 -0.9708355 2.5 5.414941 -0.9708356 2.875 4.31494 -0.9708355 2.875 2.11494 -0.8208353 2.875 3.214941 -0.9708355 2.875 2.11494 -0.9708354 2.875 3.214941 -0.8208354 2.875 5.414941 -0.8208355 2.875 4.31494 -0.8208354 2.875 3.639943 -0.8208354 2.75 3.889942 -0.8208354 2.75 3.889942 -0.9708355 2.75 3.639943 -0.9708355 2.75 2.11494 -0.8208353 0.5749999 3.214941 -0.8208354 0.3249998 3.214941 -0.9708355 0.3249998 2.11494 -0.9708354 0.5749999 4.31494 -0.8208354 0.3249998 5.414941 -0.8208355 0.5749996 5.414941 -0.9708356 0.5749996 4.31494 -0.9708355 0.3249998</float_array>
          <technique_common>
            <accessor source="#Plane_005-mesh-positions-array" count="52" stride="3">
              <param name="X" type="float"/>
              <param name="Y" type="float"/>
              <param name="Z" type="float"/>
            </accessor>
          </technique_common>
        </source>
        <source id="Plane_005-mesh-normals">
          <float_array id="Plane_005-mesh-normals-array" count="225">0 0 -1 0 0 -1 3.6124e-7 0 1 0 0 1 1 0 0 0 -1 0 -1 0 0 -9.34979e-7 0 -1 0 1 0 -1.40245e-7 -1 0 0 -1 0 0 1 0 0 0 1 0 1 0 1.40246e-7 1 0 0 1 0 -1.08372e-6 0 1 0 -1 0 0 0 -1 0 -1 -2.16744e-7 0 1 0 1.40246e-7 1 0 0 1 0 0 -1 0 -1.62558e-7 -1 -2.16744e-7 0 1 1.63767e-7 0 -1 0 1 0 -1.27157e-6 0 1 0 0 1 0 0 -1 0 0 -1 0 1 0 0 -1 0 1.23854e-7 0 -1 0 0 1 0 0 -1 0 0 1 0 0 -1 0 0 0 1 0 1 0 0 0 -1 0 0 -1 0 0 -1 -7.22479e-7 0 1 0 -1 0 0 1 0 -1.40247e-7 -1 0 0 -1 0 1.62558e-7 1 2.16744e-7 2.16744e-6 0 1 0 -1 -2.54576e-7 0 0 -1 0 -1 0 0 -1 0 1.40245e-7 1 0 0 1 0 0 -1 0 -1.40246e-7 -1 0 0 1 -2.88992e-7 0 -1 0 1 0 -1.27156e-6 0 1 0 0 1 0 0 -1 0 0 -1 0 1 0 0 0 -1 0 0 1 0 0 -1 0 0 1 0 0 -1 0 0 0 1 0 1 0 0 0 -1</float_array>
          <technique_common>
            <accessor source="#Plane_005-mesh-normals-array" count="75" stride="3">
              <param name="X" type="float"/>
              <param name="Y" type="float"/>
              <param name="Z" type="float"/>
            </accessor>
          </technique_common>
        </source>
        <source id="Plane_005-mesh-map-0">
          <float_array id="Plane_005-mesh-map-0-array" count="624">0.624004 0.125761 0.6192215 0.125761 0.6192215 0.1235048 0.6096564 0.1235048 0.614439 0.1235048 0.614439 0.125761 0.5041413 0.8476119 0.5047935 0.8476119 0.5047935 0.864157 0.5047935 0.831067 0.5041413 0.831067 0.5041413 0.814522 0.5971565 0.1235049 0.5971565 0.125761 0.5944393 0.125761 0.8545837 0.6957285 0.8758177 0.695501 0.8758586 0.7372624 0.5576597 0.4096502 0.5576597 0.3947353 0.5756236 0.3947353 0.4493125 0.7357453 0.4615279 0.7357453 0.4615279 0.7506603 0.7478768 0.6954817 0.769143 0.6957363 0.7691128 0.7375618 0.8415758 0.6709179 0.8415626 0.6875442 0.8333535 0.6957514 0.8120833 0.6955282 0.8333535 0.6957514 0.833329 0.7375864 0.7903727 0.6957767 0.8116104 0.695585 0.8116454 0.7373526 0.5047935 0.836582 0.5041413 0.836582 0.5041413 0.831067 0.769143 0.6957363 0.7773499 0.6875551 0.7762099 0.7376122 0.7821679 0.6875747 0.7903727 0.6957767 0.7903965 0.7375581 0.7773499 0.6875551 0.7821679 0.6875747 0.783304 0.7376122 0.5047935 0.8476119 0.5041413 0.8476119 0.5041413 0.8420969 0.5047935 0.8420969 0.5041413 0.8420969 0.5041413 0.836582 0.8545498 0.6706183 0.8545837 0.6957285 0.846382 0.687554 0.05117493 0.9155926 0.05117493 1.000294 0.02669101 1.000294 0.4687136 0.7357453 0.480929 0.7357453 0.480929 0.7506603 0.4615279 0.7357453 0.4687136 0.7357453 0.4687134 0.7506603 0.846382 0.687554 0.8475223 0.7375844 0.8404277 0.7376127 0.8545837 0.6957285 0.8546125 0.7375014 0.8475223 0.7375844 0.001152217 0.9175254 0.02395379 0.9175254 0.02395379 0.9964064 0.7821626 0.6710084 0.790341 0.6706557 0.7903727 0.6957767 0.7691787 0.6706224 0.7773727 0.6709306 0.7773499 0.6875551 0.790341 0.6706557 0.8115897 0.6705722 0.8116104 0.695585 0.8121061 0.6704332 0.8333875 0.6706272 0.8333535 0.6957514 0.8415626 0.6875442 0.8404277 0.7376127 0.833329 0.7375864 0.7479025 0.6703918 0.7691787 0.6706224 0.769143 0.6957363 0.5468813 0.4096502 0.5468813 0.3947353 0.5576597 0.3947353 0.8545498 0.6706183 0.8757937 0.6704923 0.8758177 0.695501 0.598787 0.1235049 0.598787 0.125761 0.5971565 0.125761 0.7903744 0.5254806 0.8115814 0.5421577 0.8115897 0.6705722 0.747988 0.5419918 0.7691869 0.5254307 0.7691787 0.6706224 0.6057434 0.1235048 0.6057434 0.125761 0.598787 0.125761 0.854549 0.525442 0.8757609 0.5420722 0.8757937 0.6704923 0.3867979 0.7506602 0.3867979 0.7357453 0.4493125 0.7357453 0.8121693 0.5420395 0.8333638 0.5254324 0.8333875 0.6706272 0.5434435 0.7357454 0.5434435 0.7506604 0.480929 0.7506603 0.4915522 0.4096502 0.4915522 0.3947353 0.5468813 0.3947353 0.4750255 0.4096502 0.4750255 0.3947353 0.4915522 0.3947353 0.8121777 0.5037258 0.8333659 0.5037766 0.8333638 0.5254324 0.7903772 0.5038177 0.8115811 0.5038139 0.8115814 0.5421577 0.8545477 0.5037788 0.8757531 0.5037255 0.8757609 0.5420722 0.6096564 0.1235048 0.6096564 0.125761 0.6057434 0.125761 0.7480034 0.5036762 0.7691927 0.5037721 0.7691869 0.5254307 0.854549 0.525442 0.8333638 0.5254324 0.8333659 0.5037766 0.4233416 0.7793077 0.4233416 0.7942227 0.391725 0.7942227 0.7903772 0.5038177 0.7903744 0.5254806 0.7691869 0.5254307 0.614439 0.1235048 0.6192215 0.1235048 0.6192215 0.125761 0.624004 0.125761 0.6192215 0.1235048 0.624004 0.1235048 0.6096564 0.1235048 0.614439 0.125761 0.6096564 0.125761 0.5041413 0.8476119 0.5047935 0.864157 0.5041413 0.864157 0.5047935 0.831067 0.5041413 0.814522 0.5047935 0.814522 0.5971565 0.1235049 0.5944393 0.125761 0.5944393 0.1235049 0.8545837 0.6957285 0.8758586 0.7372624 0.8546125 0.7375014 0.5576597 0.4096502 0.5756236 0.3947353 0.5756236 0.4096502 0.4493125 0.7357453 0.4615279 0.7506603 0.4493125 0.7506603 0.7478768 0.6954817 0.7691128 0.7375618 0.7478347 0.7373057 0.8415758 0.6709179 0.8333535 0.6957514 0.8333875 0.6706272 0.8120833 0.6955282 0.833329 0.7375864 0.8120463 0.7373614 0.7903727 0.6957767 0.8116454 0.7373526 0.7903965 0.7375581 0.5047935 0.836582 0.5041413 0.831067 0.5047935 0.831067 0.769143 0.6957363 0.7762099 0.7376122 0.7691128 0.7375618 0.7821679 0.6875747 0.7903965 0.7375581 0.783304 0.7376122 0.7773499 0.6875551 0.783304 0.7376122 0.7762099 0.7376122 0.5047935 0.8476119 0.5041413 0.8420969 0.5047935 0.8420969 0.5047935 0.8420969 0.5041413 0.836582 0.5047935 0.836582 0.8545498 0.6706183 0.846382 0.687554 0.8463647 0.6709855 0.05117493 0.9155926 0.02669101 1.000294 0.0266903 0.9155926 0.4687136 0.7357453 0.480929 0.7506603 0.4687134 0.7506603 0.4615279 0.7357453 0.4687134 0.7506603 0.4615279 0.7506603 0.846382 0.687554 0.8404277 0.7376127 0.8415626 0.6875442 0.8545837 0.6957285 0.8475223 0.7375844 0.846382 0.687554 0.001152217 0.9175254 0.02395379 0.9964064 0.001152217 0.9964064 0.7821626 0.6710084 0.7903727 0.6957767 0.7821679 0.6875747 0.7691787 0.6706224 0.7773499 0.6875551 0.769143 0.6957363 0.790341 0.6706557 0.8116104 0.695585 0.7903727 0.6957767 0.8121061 0.6704332 0.8333535 0.6957514 0.8120833 0.6955282 0.8415626 0.6875442 0.833329 0.7375864 0.8333535 0.6957514 0.7479025 0.6703918 0.769143 0.6957363 0.7478768 0.6954817 0.5468813 0.4096502 0.5576597 0.3947353 0.5576597 0.4096502 0.8545498 0.6706183 0.8758177 0.695501 0.8545837 0.6957285 0.598787 0.1235049 0.5971565 0.125761 0.5971565 0.1235049 0.7903744 0.5254806 0.8115897 0.6705722 0.790341 0.6706557 0.747988 0.5419918 0.7691787 0.6706224 0.7479025 0.6703918 0.6057434 0.1235048 0.598787 0.125761 0.598787 0.1235049 0.854549 0.525442 0.8757937 0.6704923 0.8545498 0.6706183 0.3867979 0.7506602 0.4493125 0.7357453 0.4493125 0.7506603 0.8121693 0.5420395 0.8333875 0.6706272 0.8121061 0.6704332 0.5434435 0.7357454 0.480929 0.7506603 0.480929 0.7357453 0.4915522 0.4096502 0.5468813 0.3947353 0.5468813 0.4096502 0.4750255 0.4096502 0.4915522 0.3947353 0.4915522 0.4096502 0.8121777 0.5037258 0.8333638 0.5254324 0.8121693 0.5420395 0.7903772 0.5038177 0.8115814 0.5421577 0.7903744 0.5254806 0.8545477 0.5037788 0.8757609 0.5420722 0.854549 0.525442 0.6096564 0.1235048 0.6057434 0.125761 0.6057434 0.1235048 0.7480034 0.5036762 0.7691869 0.5254307 0.747988 0.5419918 0.854549 0.525442 0.8333659 0.5037766 0.8545477 0.5037788 0.4233416 0.7793077 0.391725 0.7942227 0.391725 0.7793077 0.7903772 0.5038177 0.7691869 0.5254307 0.7691927 0.5037721 0.614439 0.1235048 0.6192215 0.125761 0.614439 0.125761</float_array>
          <technique_common>
            <accessor source="#Plane_005-mesh-map-0-array" count="312" stride="2">
              <param name="S" type="float"/>
              <param name="T" type="float"/>
            </accessor>
          </technique_common>
        </source>
        <vertices id="Plane_005-mesh-vertices">
          <input semantic="POSITION" source="#Plane_005-mesh-positions"/>
        </vertices>
        <triangles material="Material_001-material" count="104">
          <input semantic="VERTEX" source="#Plane_005-mesh-vertices" offset="0"/>
          <input semantic="NORMAL" source="#Plane_005-mesh-normals" offset="1"/>
          <input semantic="TEXCOORD" source="#Plane_005-mesh-map-0" offset="2" set="0"/>
          <p>2 0 0 0 0 1 1 0 2 6 1 3 5 1 4 4 1 5 9 2 6 8 2 7 10 2 8 12 3 9 13 3 10 14 3 11 32 4 12 38 4 13 15 4 14 33 5 15 32 5 16 14 5 17 34 6 18 36 6 19 11 6 20 22 7 21 30 7 22 27 7 23 38 8 24 39 8 25 12 8 26 31 9 27 43 9 28 35 9 29 36 10 30 35 10 31 9 10 32 37 11 33 34 11 34 10 11 35 25 12 36 29 12 37 13 12 38 39 13 39 41 13 40 25 13 41 40 14 42 37 14 43 8 14 44 41 15 45 40 15 46 24 15 47 8 16 48 9 16 49 28 16 50 24 12 51 28 12 52 29 12 53 22 17 54 33 17 55 42 17 56 30 17 57 42 17 58 43 17 59 31 18 60 18 18 61 19 18 62 30 18 63 31 18 64 26 18 65 42 19 66 29 19 67 28 19 68 33 17 69 13 17 70 29 17 71 27 20 72 26 20 73 40 20 74 26 21 75 19 21 76 37 21 77 23 20 78 27 20 79 41 20 80 19 22 81 16 22 82 34 22 83 17 23 84 18 23 85 35 23 86 43 24 87 28 24 88 9 24 89 21 25 90 23 25 91 39 25 92 16 6 93 17 6 94 36 6 95 22 26 96 20 26 97 32 26 98 20 27 99 21 27 100 38 27 101 45 28 102 44 28 103 16 28 104 49 29 105 48 29 106 23 29 107 50 4 108 49 4 109 21 4 110 51 30 111 50 30 112 20 30 113 48 6 114 51 6 115 22 6 116 47 31 117 46 31 118 18 31 119 46 32 120 45 32 121 19 32 122 44 33 123 47 33 124 17 33 125 2 6 126 3 6 127 47 6 128 3 34 129 1 34 130 46 34 131 0 35 132 2 35 133 44 35 134 5 36 135 6 36 136 50 36 137 6 4 138 7 4 139 49 4 140 7 37 141 4 37 142 48 37 143 51 38 144 46 38 145 1 38 146 45 39 147 46 39 148 51 39 149 0 40 150 45 40 151 48 40 152 5 41 153 1 41 154 0 41 155 2 42 156 1 42 157 3 42 158 6 43 159 4 43 160 7 43 161 9 44 162 10 44 163 11 44 164 12 12 165 14 12 166 15 12 167 32 4 168 15 4 169 14 4 170 33 45 171 14 45 172 13 45 173 34 6 174 11 6 175 10 6 176 22 18 177 27 18 178 23 18 179 38 46 180 12 46 181 15 46 182 31 47 183 35 47 184 18 47 185 36 48 186 9 48 187 11 48 188 37 22 189 10 22 190 8 22 191 25 12 192 13 12 193 12 12 194 39 20 195 25 20 196 12 20 197 40 49 198 8 49 199 24 49 200 41 20 201 24 20 202 25 20 203 8 50 204 28 50 205 24 50 206 24 12 207 29 12 208 25 12 209 22 17 210 42 17 211 30 17 212 30 51 213 43 51 214 31 51 215 31 52 216 19 52 217 26 52 218 30 18 219 26 18 220 27 18 221 42 53 222 28 53 223 43 53 224 33 54 225 29 54 226 42 54 227 27 20 228 40 20 229 41 20 230 26 55 231 37 55 232 40 55 233 23 20 234 41 20 235 39 20 236 19 56 237 34 56 238 37 56 239 17 57 240 35 57 241 36 57 242 43 58 243 9 58 244 35 58 245 21 59 246 39 59 247 38 59 248 16 6 249 36 6 250 34 6 251 22 60 252 32 60 253 33 60 254 20 61 255 38 61 256 32 61 257 45 62 258 16 62 259 19 62 260 49 63 261 23 63 262 21 63 263 50 4 264 21 4 265 20 4 266 51 64 267 20 64 268 22 64 269 48 6 270 22 6 271 23 6 272 47 65 273 18 65 274 17 65 275 46 66 276 19 66 277 18 66 278 44 33 279 17 33 280 16 33 281 2 6 282 47 6 283 44 6 284 3 67 285 46 67 286 47 67 287 0 68 288 44 68 289 45 68 290 5 69 291 50 69 292 51 69 293 6 4 294 49 4 295 50 4 296 7 70 297 48 70 298 49 70 299 51 71 300 1 71 301 5 71 302 45 72 303 51 72 304 48 72 305 0 73 306 48 73 307 4 73 308 5 74 309 0 74 310 4 74 311</p>
        </triangles>
      </mesh>
    </geometry>
  </library_geometries>
  <library_visual_scenes>
    <visual_scene id="Scene" name="Scene">
      <node id="Plane_001" name="Plane.001" type="NODE">
        <matrix sid="transform">1 0 0 0 0 1 0 0 0 0 1 0 0 0 0 1</matrix>
        <instance_geometry url="#Plane_005-mesh" name="Plane.001">
          <bind_material>
            <technique_common>
              <instance_material symbol="Material_001-material" target="#Material_001-material">
                <bind_vertex_input semantic="Plane_005-mesh-map-0" input_semantic="TEXCOORD" input_set="0"/>
              </instance_material>
            </technique_common>
          </bind_material>
        </instance_geometry>
      </node>
    </visual_scene>
  </library_visual_scenes>
  <scene>
    <instance_visual_scene url="#Scene"/>
  </scene>
</COLLADA>