<?xml version="1.0" encoding="utf-8"?>
<COLLADA xmlns="http://www.collada.org/2005/11/COLLADASchema" version="1.4.1" xmlns:xsi="http://www.w3.org/2001/XMLSchema-instance">
  <asset>
    <contributor>
      <author>Blender User</author>
      <authoring_tool>Blender 4.5.2 LTS commit date:2025-08-19, commit time:15:00, hash:ab25eae04993</authoring_tool>
    </contributor>
    <created>2026-09-05T22:16:12</created>
    <modified>2026-09-05T22:16:12</modified>
    <unit name="meter" meter="1"/>
    <up_axis>Z_UP</up_axis>
  </asset>
  <library_effects>
    <effect id="Material_001-effect">
      <profile_COMMON>
        <newparam sid="photo_2026-08-29_00-38-51_jpg_001-surface">
          <surface type="2D">
            <init_from>photo_2026-08-29_00-38-51_jpg_001</init_from>
          </surface>
        </newparam>
        <newparam sid="photo_2026-08-29_00-38-51_jpg_001-sampler">
          <sampler2D>
            <source>photo_2026-08-29_00-38-51_jpg_001-surface</source>
          </sampler2D>
        </newparam>
        <technique sid="common">
          <lambert>
            <emission>
              <color sid="emission">0 0 0 1</color>
            </emission>
            <diffuse>
              <texture texture="photo_2026-08-29_00-38-51_jpg_001-sampler" texcoord="Plane_002-mesh-map-0"/>
            </diffuse>
            <index_of_refraction>
              <float sid="ior">1.45</float>
            </index_of_refraction>
          </lambert>
        </technique>
      </profile_COMMON>
    </effect>
  </library_effects>
  <library_images>
    <image id="photo_2026-08-29_00-38-51_jpg_001" name="photo_2026-08-29_00-38-51_jpg_001">
      <init_from>map.png</init_from>
    </image>
  </library_images>
  <library_materials>
    <material id="Material_001-material" name="Material.001">
      <instance_effect url="#Material_001-effect"/>
    </material>
  </library_materials>
  <library_geometries>
    <geometry id="Plane_002-mesh" name="Plane.002">
      <mesh>
        <source id="Plane_002-mesh-positions">
          <float_array id="Plane_002-mesh-positions-array" count="252">-2.435059 6.079165 8.98333e-7 -2.285058 6.079165 8.8522e-7 -2.435059 4.979166 8.98333e-7 -2.285058 4.979166 8.8522e-7 -2.435059 3.879165 8.98333e-7 -2.285058 3.879165 8.8522e-7 -2.435059 1.679164 8.98333e-7 -2.285059 1.679164 8.8522e-7 -2.435059 0.5791654 8.98333e-7 -2.285059 0.5791654 8.8522e-7 -2.435059 -1.070835 8.98333e-7 -2.285059 -1.070835 8.8522e-7 -2.435058 6.079165 3.5 -2.285057 6.079165 3.5 -2.435058 4.979166 3.5 -2.285057 4.979166 3.5 -2.435059 3.879165 3.5 -2.285058 3.879165 3.5 -2.435059 1.679164 3.5 -2.285058 1.679164 3.5 -2.435059 0.5791654 3.5 -2.285059 0.5791654 3.5 -2.435059 -1.070835 3.5 -2.285059 -1.070835 3.5 -2.435059 3.879165 2.5 -2.435059 1.679164 2.5 -2.285058 3.879165 2.5 -2.285058 1.679164 2.5 -2.435058 6.079165 2.5 -2.435058 4.979166 2.5 -2.285057 6.079165 2.5 -2.285057 4.979166 2.5 -2.285059 -1.070835 2.5 -2.285059 0.5791654 2.5 -2.435059 0.5791654 2.5 -2.435059 -1.070835 2.5 -2.435059 4.304165 2.5 -2.435059 4.554165 2.5 -2.435059 4.245832 3.5 -2.435059 4.612499 3.5 -2.285058 4.612499 3.5 -2.285058 4.245832 3.5 -2.285058 4.304165 2.5 -2.285058 4.554165 2.5 -2.285059 -1.070835 2.875 -2.435058 6.079165 2.875 -2.435059 3.879165 2.875 -2.285058 3.879165 2.875 -2.435059 0.5791654 2.875 -2.285057 6.079165 2.875 -2.285057 4.979166 2.875 -2.435059 1.679164 2.875 -2.285058 1.679164 2.875 -2.435058 4.979166 2.875 -2.285059 0.5791654 2.875 -2.435059 -1.070835 2.875 -2.285058 4.304165 2.75 -2.285058 4.554165 2.75 -2.435059 4.304165 2.75 -2.435059 4.554165 2.75 -2.435059 1.004168 2.5 -2.435059 1.254164 2.5 -2.435059 0.9458322 3.5 -2.435059 1.312499 3.5 -2.285059 1.312499 3.5 -2.285059 0.9458322 3.5 -2.285059 1.254164 2.5 -2.285059 1.004168 2.5 -2.435059 1.254164 2.75 -2.435059 1.004168 2.75 -2.285059 1.004168 2.75 -2.285059 1.254164 2.75 -2.435059 1.679164 0.3250002 -2.435059 3.879165 0.3250002 -2.285058 3.879165 0.3250001 -2.285059 1.679164 0.3250001 -2.435059 -1.070835 0.5750002 -2.435059 0.5791654 0.3250002 -2.285059 0.5791654 0.3250001 -2.285059 -1.070835 0.5750001 -2.435059 4.979166 0.3250002 -2.435059 6.079165 0.5750002 -2.285058 6.079165 0.5750001 -2.285058 4.979166 0.3250001</float_array>
          <technique_common>
            <accessor source="#Plane_002-mesh-positions-array" count="84" stride="3">
              <param name="X" type="float"/>
              <param name="Y" type="float"/>
              <param name="Z" type="float"/>
            </accessor>
          </technique_common>
        </source>
        <source id="Plane_002-mesh-normals">
          <float_array id="Plane_002-mesh-normals-array" count="246">0 0 -1 0 0 -1 0 0 -1 0 0 1 1 0 0 -1 0 0 -1 0 0 0 1 0 -7.94729e-7 -1 0 1 -3.46791e-7 0 1.86994e-6 0 -1 -1 1.53098e-6 0 0 0 -1 1 0 0 -1 5.60986e-7 0 1 -5.60981e-7 0 1 -4.33487e-7 0 -7.9473e-7 -1 0 -1 -8.9757e-7 0 -4.3349e-6 0 1 -4.33487e-6 0 1 1.86995e-6 0 -1 0 0 -1 -1 -3.00252e-7 1.23854e-7 -1 0 0 -1 0 0 1 -3.9861e-7 0 1 0 0 0 1 0 1 -4.50378e-7 -1.23854e-7 0 1 2.82112e-7 0 -1 0 0 1 -1.88783e-7 -7.94726e-7 -1 0 1.08372e-6 0 1 3.61237e-7 0 1 1 -5.0018e-7 0 1 -3.33454e-7 0 -1 6.66907e-7 0 0 0 -1 -1 3.33453e-7 0 0 0 -1 0 0 -1 0 0 -1 0 0 -1 -3.25116e-6 0 1 -4.33488e-6 0 1 -1 1.04037e-6 0 -7.94728e-7 -1 0 1 -5.20186e-7 0 1 -7.47977e-7 0 -1 5.60985e-7 0 1 -8.97574e-7 0 1 -4.33488e-7 0 -7.94727e-7 -1 0 -1 1.12197e-6 0 1 -1.12197e-6 0 2.16745e-6 0 1 1 -8.66981e-7 0 -3.7399e-6 0 -1 -1 0 0 -1 0 0 -1 0 1.23854e-7 1 -3.9861e-7 0 1 0 -1.23854e-7 1 0 0 0 1 -4.12844e-7 0 -1 0 0 1 3.65389e-7 -7.94731e-7 -1 -1.82697e-7 3.6124e-7 0 1 3.61237e-7 0 1 1 -3.33453e-7 0 1 -1.25649e-7 0 -1 -1.88474e-7 0 0 0 -1 1 -3.33453e-7 0 0 0 -1 -7.94724e-7 -1 0 -7.94732e-7 -1 0 -7.94727e-7 -1 0 -7.94729e-7 -1 0</float_array>
          <technique_common>
            <accessor source="#Plane_002-mesh-normals-array" count="82" stride="3">
              <param name="X" type="float"/>
              <param name="Y" type="float"/>
              <param name="Z" type="float"/>
            </accessor>
          </technique_common>
        </source>
        <source id="Plane_002-mesh-map-0">
          <float_array id="Plane_002-mesh-map-0-array" count="1032">0.4109204 0.5047835 0.4109204 0.4648649 0.4124939 0.4648649 0.4109204 0.6245393 0.4109204 0.5447021 0.4124939 0.5447021 0.4109204 0.7243357 0.4109204 0.6644578 0.4124938 0.6644578 0.4124939 0.3378512 0.4109204 0.3378512 0.4109204 0.2979326 0.4124938 0.258014 0.4109203 0.258014 0.4109203 0.1781768 0.4124938 0.1382582 0.4109203 0.1382582 0.4109203 0.07838028 0.7483108 0.639104 0.7783902 0.6387373 0.7784827 0.6786414 0.7509303 0.6106744 0.770546 0.6110419 0.7704955 0.64963 0.7901366 0.6112048 0.8293597 0.6112123 0.8293648 0.6497673 0.770546 0.6110419 0.7781222 0.6035397 0.7770437 0.6497218 0.8489239 0.6110781 0.8782795 0.6106402 0.87833 0.6491109 0.5558196 0.426299 0.5558196 0.4117161 0.5733835 0.4117161 0.8611158 0.6378534 0.8819953 0.6380739 0.8819391 0.6790893 0.5558196 0.4429478 0.5558196 0.4283649 0.5733835 0.4283649 0.7994258 0.6379714 0.8403936 0.6377255 0.840406 0.6781946 0.7867925 0.6096755 0.790289 0.6075553 0.7907245 0.6104625 0.7783902 0.6387373 0.7862693 0.629961 0.785368 0.6787871 0.4124938 0.1515644 0.4109203 0.1515644 0.4109203 0.1382582 0.8293597 0.6112123 0.8369206 0.6036025 0.8359047 0.6497427 0.4124938 0.2713202 0.4109204 0.2713202 0.4109203 0.258014 0.8611158 0.6378534 0.8530933 0.6296751 0.8530915 0.6134279 0.4479203 0.7020509 0.4598639 0.7020509 0.4598639 0.7166339 0.4668894 0.702051 0.4788329 0.702051 0.4788329 0.716634 0.4598639 0.7020509 0.4668894 0.702051 0.4668894 0.7166339 0.8483847 0.6296443 0.8403936 0.6377255 0.840364 0.6133083 0.07632064 0.9971008 0.05273693 0.9971008 0.05273693 0.9155119 0.4124938 0.2979326 0.4109204 0.2979326 0.4109203 0.2846264 0.4124938 0.2846264 0.4109203 0.2846264 0.4109204 0.2713202 0.7825683 0.6035861 0.7901366 0.6112048 0.7901339 0.6497644 0.7781222 0.6035397 0.7825683 0.6035861 0.7835894 0.6497673 0.02628809 0.9152064 0.05031782 0.9152064 0.05031788 0.9983341 0.7825713 0.5882972 0.7901185 0.5880163 0.7901366 0.6112048 0.854147 0.6785514 0.8472564 0.6783559 0.8483847 0.6296443 0.8472564 0.6783559 0.840406 0.6781946 0.8403936 0.6377255 0.8610725 0.6787474 0.854147 0.6785514 0.8530933 0.6296751 0.8369245 0.5882856 0.8369206 0.6036025 0.8293597 0.6112123 0.7860156 0.6137101 0.7862693 0.629961 0.7783902 0.6387373 0.7997258 0.6132369 0.840364 0.6133083 0.8403936 0.6377255 0.5452812 0.4429478 0.5452812 0.4283649 0.5558196 0.4283649 0.8611131 0.6133065 0.8820341 0.6134178 0.8819953 0.6380739 0.5452812 0.426299 0.5452812 0.4117161 0.5558196 0.4117161 0.848883 0.5879242 0.8782498 0.5875996 0.8782795 0.6106402 0.7705904 0.5878757 0.7781505 0.5882003 0.7781222 0.6035397 0.7901185 0.5880163 0.8293762 0.5880751 0.8293597 0.6112123 0.7509672 0.5875326 0.7705904 0.5878757 0.770546 0.6110419 0.7483373 0.6154308 0.7782069 0.6150394 0.7783902 0.6387373 0.7997258 0.6132369 0.7994258 0.6379714 0.7910599 0.6293744 0.1020948 0.9951863 0.07913464 0.9951863 0.07913464 0.9157542 0.848883 0.5879242 0.8489239 0.6110781 0.8413614 0.6035883 0.1279342 0.9134815 0.1279342 0.9979876 0.1035057 0.9979876 0.8413614 0.6035883 0.8489239 0.6110781 0.8489714 0.6495711 0.8369206 0.6036025 0.8413614 0.6035883 0.8424397 0.6496791 0.4124938 0.1781768 0.4109203 0.1781768 0.4109203 0.1648707 0.4124938 0.1648706 0.4109203 0.1648707 0.4109203 0.1515644 0.7910599 0.6293744 0.7994258 0.6379714 0.7993832 0.6786249 0.7862693 0.629961 0.7910599 0.6293744 0.7923372 0.6787347 0.7921801 0.6066905 0.7989583 0.6075537 0.7997258 0.6132369 0.790289 0.6075553 0.7921801 0.6066905 0.7906705 0.6106687 0.8488328 0.4541309 0.8781633 0.4692751 0.8782498 0.5875996 0.7901996 0.4541587 0.8293013 0.454216 0.8293762 0.5880751 0.7511125 0.4691573 0.7706643 0.4540107 0.7705904 0.5878757 0.7990295 0.478741 0.8397125 0.473329 0.840364 0.6133083 0.7489128 0.4961574 0.7785033 0.4822266 0.7782069 0.6150394 0.7866897 0.6097378 0.78669 0.6097376 0.7867925 0.6096755 0.8607715 0.4709015 0.8821462 0.4868911 0.8820341 0.6134178 0.4911844 0.426299 0.4911844 0.4117162 0.5452812 0.4117161 0.3867979 0.7166335 0.3867979 0.7020506 0.4479203 0.7020509 0.5399553 0.7020514 0.5399553 0.7166343 0.4788329 0.716634 0.7977803 0.4849482 0.7990295 0.478741 0.7997258 0.6132369 0.7866898 0.6097378 0.7866898 0.6097378 0.78669 0.6097376 0.5399553 0.7166343 0.5399553 0.7020514 0.5708678 0.7020515 0.7987474 0.4579625 0.8394748 0.4521072 0.8397125 0.473329 0.7902081 0.4341879 0.829298 0.4342452 0.8293013 0.454216 0.7987474 0.4579625 0.7990295 0.478741 0.7785033 0.4822266 0.749038 0.46067 0.7784036 0.4616707 0.7785033 0.4822266 0.8488233 0.4341624 0.8781402 0.4339318 0.8781633 0.4692751 0.8488328 0.4541309 0.8293013 0.454216 0.829298 0.4342452 0.4750256 0.426299 0.4750256 0.4117162 0.4911844 0.4117162 0.8606289 0.4488624 0.8824628 0.4476424 0.8821462 0.4868911 0.7511451 0.4338352 0.7706794 0.4340434 0.7706643 0.4540107 0.4109204 0.6644578 0.4109204 0.6245393 0.4124938 0.6245393 0.8394748 0.4521072 0.8606289 0.4488624 0.8607715 0.4709015 0.7902081 0.4341879 0.7901996 0.4541587 0.7706643 0.4540107 0.4109204 0.5447021 0.4109204 0.5047835 0.4124939 0.5047835 0.4109204 0.5047835 0.4124939 0.4648649 0.4124939 0.5047835 0.4109204 0.6245393 0.4124939 0.5447021 0.4124938 0.6245393 0.4109204 0.7243357 0.4124938 0.6644578 0.4124938 0.7243357 0.4124939 0.3378512 0.4109204 0.2979326 0.4124938 0.2979326 0.4124938 0.258014 0.4109203 0.1781768 0.4124938 0.1781768 0.4124938 0.1382582 0.4109203 0.07838028 0.4124938 0.07838022 0.7483108 0.639104 0.7784827 0.6786414 0.7483108 0.6786414 0.7509303 0.6106744 0.7704955 0.64963 0.7508683 0.6492534 0.7901366 0.6112048 0.8293648 0.6497673 0.7901339 0.6497644 0.770546 0.6110419 0.7770437 0.6497218 0.7704955 0.64963 0.8489239 0.6110781 0.87833 0.6491109 0.8489714 0.6495711 0.5558196 0.426299 0.5733835 0.4117161 0.5733835 0.426299 0.8611158 0.6378534 0.8819391 0.6790893 0.8610725 0.6787474 0.5558196 0.4429478 0.5733835 0.4283649 0.5733835 0.4429478 0.7994258 0.6379714 0.840406 0.6781946 0.7993832 0.6786249 0.7867925 0.6096755 0.7907245 0.6104625 0.7865873 0.6097999 0.7783902 0.6387373 0.785368 0.6787871 0.7784827 0.6786414 0.4124938 0.1515644 0.4109203 0.1382582 0.4124938 0.1382582 0.8293597 0.6112123 0.8359047 0.6497427 0.8293648 0.6497673 0.4124938 0.2713202 0.4109203 0.258014 0.4124938 0.258014 0.8611158 0.6378534 0.8530915 0.6134279 0.8611131 0.6133065 0.4479203 0.7020509 0.4598639 0.7166339 0.4479203 0.7166338 0.4668894 0.702051 0.4788329 0.716634 0.4668894 0.7166339 0.4598639 0.7020509 0.4668894 0.7166339 0.4598639 0.7166339 0.8483847 0.6296443 0.840364 0.6133083 0.8483855 0.613413 0.07632064 0.9971008 0.05273693 0.9155119 0.07632064 0.9155119 0.4124938 0.2979326 0.4109203 0.2846264 0.4124938 0.2846264 0.4124938 0.2846264 0.4109204 0.2713202 0.4124938 0.2713202 0.7825683 0.6035861 0.7901339 0.6497644 0.7835894 0.6497673 0.7781222 0.6035397 0.7835894 0.6497673 0.7770437 0.6497218 0.02628809 0.9152064 0.05031788 0.9983341 0.02628809 0.9983341 0.7825713 0.5882972 0.7901366 0.6112048 0.7825683 0.6035861 0.854147 0.6785514 0.8483847 0.6296443 0.8530933 0.6296751 0.8472564 0.6783559 0.8403936 0.6377255 0.8483847 0.6296443 0.8610725 0.6787474 0.8530933 0.6296751 0.8611158 0.6378534 0.8369245 0.5882856 0.8293597 0.6112123 0.8293762 0.5880751 0.7860156 0.6137101 0.7783902 0.6387373 0.7782069 0.6150394 0.7997258 0.6132369 0.8403936 0.6377255 0.7994258 0.6379714 0.5452812 0.4429478 0.5558196 0.4283649 0.5558196 0.4429478 0.8611131 0.6133065 0.8819953 0.6380739 0.8611158 0.6378534 0.5452812 0.426299 0.5558196 0.4117161 0.5558196 0.426299 0.848883 0.5879242 0.8782795 0.6106402 0.8489239 0.6110781 0.7705904 0.5878757 0.7781222 0.6035397 0.770546 0.6110419 0.7901185 0.5880163 0.8293597 0.6112123 0.7901366 0.6112048 0.7509672 0.5875326 0.770546 0.6110419 0.7509303 0.6106744 0.7483373 0.6154308 0.7783902 0.6387373 0.7483108 0.639104 0.7997258 0.6132369 0.7910599 0.6293744 0.7907285 0.6120313 0.1020948 0.9951863 0.07913464 0.9157542 0.1020948 0.9157542 0.848883 0.5879242 0.8413614 0.6035883 0.8413404 0.5883159 0.1279342 0.9134815 0.1035057 0.9979876 0.1035057 0.9134815 0.8413614 0.6035883 0.8489714 0.6495711 0.8424397 0.6496791 0.8369206 0.6036025 0.8424397 0.6496791 0.8359047 0.6497427 0.4124938 0.1781768 0.4109203 0.1648707 0.4124938 0.1648706 0.4124938 0.1648706 0.4109203 0.1515644 0.4124938 0.1515644 0.7910599 0.6293744 0.7993832 0.6786249 0.7923372 0.6787347 0.7862693 0.629961 0.7923372 0.6787347 0.785368 0.6787871 0.7921801 0.6066905 0.7997258 0.6132369 0.7906705 0.6106687 0.790289 0.6075553 0.7906705 0.6106687 0.7907245 0.6104625 0.8488328 0.4541309 0.8782498 0.5875996 0.848883 0.5879242 0.7901996 0.4541587 0.8293762 0.5880751 0.7901185 0.5880163 0.7511125 0.4691573 0.7705904 0.5878757 0.7509672 0.5875326 0.7990295 0.478741 0.840364 0.6133083 0.7997258 0.6132369 0.7489128 0.4961574 0.7782069 0.6150394 0.7483373 0.6154308 0.7866897 0.6097378 0.7867925 0.6096755 0.7865873 0.6097999 0.8607715 0.4709015 0.8820341 0.6134178 0.8611131 0.6133065 0.4911844 0.426299 0.5452812 0.4117161 0.5452812 0.426299 0.3867979 0.7166335 0.4479203 0.7020509 0.4479203 0.7166338 0.5399553 0.7020514 0.4788329 0.716634 0.4788329 0.702051 0.7977803 0.4849482 0.7997258 0.6132369 0.7989583 0.6075537 0.7866898 0.6097378 0.78669 0.6097376 0.7866897 0.6097378 0.5399553 0.7166343 0.5708678 0.7020515 0.5708678 0.7166344 0.7987474 0.4579625 0.8397125 0.473329 0.7990295 0.478741 0.7902081 0.4341879 0.8293013 0.454216 0.7901996 0.4541587 0.7987474 0.4579625 0.7785033 0.4822266 0.7784036 0.4616707 0.749038 0.46067 0.7785033 0.4822266 0.7489128 0.4961574 0.8488233 0.4341624 0.8781633 0.4692751 0.8488328 0.4541309 0.8488328 0.4541309 0.829298 0.4342452 0.8488233 0.4341624 0.4750256 0.426299 0.4911844 0.4117162 0.4911844 0.426299 0.8606289 0.4488624 0.8821462 0.4868911 0.8607715 0.4709015 0.7511451 0.4338352 0.7706643 0.4540107 0.7511125 0.4691573 0.4109204 0.6644578 0.4124938 0.6245393 0.4124938 0.6644578 0.8394748 0.4521072 0.8607715 0.4709015 0.8397125 0.473329 0.7902081 0.4341879 0.7706643 0.4540107 0.7706794 0.4340434 0.4109204 0.5447021 0.4124939 0.5047835 0.4124939 0.5447021 0.5452812 0.4429478 0.4911844 0.4429478 0.5452812 0.4283649 0.4911844 0.4283649 0.5452812 0.4283649 0.4911844 0.4429478 0.4911844 0.4429478 0.4750256 0.4429478 0.4911844 0.4283649 0.4750256 0.4283649 0.4911844 0.4283649 0.4750256 0.4429478</float_array>
          <technique_common>
            <accessor source="#Plane_002-mesh-map-0-array" count="516" stride="2">
              <param name="S" type="float"/>
              <param name="T" type="float"/>
            </accessor>
          </technique_common>
        </source>
        <vertices id="Plane_002-mesh-vertices">
          <input semantic="POSITION" source="#Plane_002-mesh-positions"/>
        </vertices>
        <triangles material="Material_001-material" count="172">
          <input semantic="VERTEX" source="#Plane_002-mesh-vertices" offset="0"/>
          <input semantic="NORMAL" source="#Plane_002-mesh-normals" offset="1"/>
          <input semantic="TEXCOORD" source="#Plane_002-mesh-map-0" offset="2" set="0"/>
          <p>2 0 0 0 0 1 1 0 2 6 1 3 4 1 4 5 1 5 10 2 6 8 2 7 9 2 8 13 3 9 12 3 10 14 3 11 17 3 12 16 3 13 18 3 14 21 3 15 20 3 16 22 3 17 44 4 18 54 4 19 21 4 20 45 5 21 53 5 22 14 5 23 46 5 24 51 5 25 18 5 26 53 6 27 59 6 28 39 6 29 48 5 30 55 5 31 22 5 32 49 7 33 45 7 34 12 7 35 50 4 36 49 4 37 13 4 38 55 8 39 44 8 40 23 8 41 52 9 42 47 9 43 17 9 44 34 10 45 60 10 46 67 10 47 54 4 48 70 4 49 65 4 50 65 3 51 62 3 52 20 3 53 51 11 54 68 11 55 63 11 56 41 3 57 38 3 58 16 3 59 50 4 60 57 4 61 43 4 62 31 12 63 43 12 64 37 12 65 42 12 66 26 12 67 24 12 68 43 12 69 42 12 70 36 12 71 56 4 72 47 4 73 26 4 74 57 4 75 56 4 76 42 4 77 15 3 78 14 3 79 39 3 80 40 3 81 39 3 82 38 3 83 58 5 84 46 5 85 16 5 86 59 5 87 58 5 88 38 5 89 37 5 90 36 5 91 58 5 92 36 5 93 24 5 94 46 5 95 40 4 96 41 4 97 56 4 98 41 4 99 17 4 100 47 4 101 15 13 102 40 13 103 57 13 104 61 14 105 68 14 106 51 14 107 67 15 108 70 15 109 54 15 110 27 16 111 26 16 112 47 16 113 35 17 114 32 17 115 44 17 116 31 4 117 30 4 118 49 4 119 30 7 120 28 7 121 45 7 122 34 5 123 35 5 124 55 5 125 29 5 126 37 5 127 59 5 128 24 5 129 25 5 130 51 5 131 28 5 132 29 5 133 53 5 134 32 4 135 33 4 136 54 4 137 27 4 138 52 4 139 71 4 140 66 4 141 71 4 142 70 4 143 34 5 144 48 5 145 69 5 146 60 5 147 69 5 148 68 5 149 69 18 150 48 18 151 20 18 152 68 5 153 69 5 154 62 5 155 19 19 156 18 19 157 63 19 158 64 20 159 63 20 160 62 20 161 71 4 162 52 4 163 19 4 164 70 4 165 71 4 166 64 4 167 61 21 168 25 21 169 27 21 170 60 22 171 61 22 172 66 22 173 77 23 174 76 23 175 35 23 176 73 24 177 72 24 178 25 24 179 81 25 180 80 25 181 29 25 182 75 26 183 74 26 184 26 26 185 79 27 186 78 27 187 33 27 188 78 28 189 77 28 190 34 28 191 83 29 192 82 29 193 30 29 194 82 30 195 81 30 196 28 30 197 80 31 198 83 31 199 31 31 200 74 32 201 73 32 202 24 32 203 72 33 204 75 33 205 27 33 206 75 34 207 72 34 208 77 34 209 73 35 210 74 35 211 83 35 212 7 36 213 5 36 214 74 36 215 4 5 216 6 5 217 72 5 218 7 37 219 75 37 220 78 37 221 11 4 222 9 4 223 78 4 224 8 5 225 10 5 226 76 5 227 77 38 228 72 38 229 6 38 230 1 7 231 0 7 232 81 7 233 3 4 234 1 4 235 82 4 236 0 5 237 2 5 238 80 5 239 8 39 240 6 39 241 7 39 242 5 4 243 3 4 244 83 4 245 4 40 246 73 40 247 80 40 248 4 41 249 2 41 250 3 41 251 2 42 252 1 42 253 3 42 254 6 43 255 5 43 256 7 43 257 10 44 258 9 44 259 11 44 260 13 3 261 14 3 262 15 3 263 17 45 264 18 45 265 19 45 266 21 46 267 22 46 268 23 46 269 44 4 270 21 4 271 23 4 272 45 5 273 14 5 274 12 5 275 46 5 276 18 5 277 16 5 278 53 47 279 39 47 280 14 47 281 48 5 282 22 5 283 20 5 284 49 7 285 12 7 286 13 7 287 50 4 288 13 4 289 15 4 290 55 48 291 23 48 292 22 48 293 52 49 294 17 49 295 19 49 296 34 12 297 67 12 298 33 12 299 54 4 300 65 4 301 21 4 302 65 3 303 20 3 304 21 3 305 51 5 306 63 5 307 18 5 308 41 3 309 16 3 310 17 3 311 50 50 312 43 50 313 31 50 314 31 12 315 37 12 316 29 12 317 42 12 318 24 12 319 36 12 320 43 12 321 36 12 322 37 12 323 56 4 324 26 4 325 42 4 326 57 4 327 42 4 328 43 4 329 15 3 330 39 3 331 40 3 332 40 3 333 38 3 334 41 3 335 58 5 336 16 5 337 38 5 338 59 5 339 38 5 340 39 5 341 37 5 342 58 5 343 59 5 344 36 51 345 46 51 346 58 51 347 40 4 348 56 4 349 57 4 350 41 4 351 47 4 352 56 4 353 15 52 354 57 52 355 50 52 356 61 5 357 51 5 358 25 5 359 67 4 360 54 4 361 33 4 362 27 53 363 47 53 364 52 53 365 35 54 366 44 54 367 55 54 368 31 4 369 49 4 370 50 4 371 30 7 372 45 7 373 49 7 374 34 5 375 55 5 376 48 5 377 29 55 378 59 55 379 53 55 380 24 5 381 51 5 382 46 5 383 28 5 384 53 5 385 45 5 386 32 4 387 54 4 388 44 4 389 27 56 390 71 56 391 66 56 392 66 4 393 70 4 394 67 4 395 34 5 396 69 5 397 60 5 398 60 5 399 68 5 400 61 5 401 69 5 402 20 5 403 62 5 404 68 5 405 62 5 406 63 5 407 19 57 408 63 57 409 64 57 410 64 3 411 62 3 412 65 3 413 71 58 414 19 58 415 64 58 416 70 4 417 64 4 418 65 4 419 61 59 420 27 59 421 66 59 422 60 12 423 66 12 424 67 12 425 77 60 426 35 60 427 34 60 428 73 61 429 25 61 430 24 61 431 81 62 432 29 62 433 28 62 434 75 63 435 26 63 436 27 63 437 79 64 438 33 64 439 32 64 440 78 7 441 34 7 442 33 7 443 83 65 444 30 65 445 31 65 446 82 66 447 28 66 448 30 66 449 80 67 450 31 67 451 29 67 452 74 68 453 24 68 454 26 68 455 72 69 456 27 69 457 25 69 458 75 70 459 77 70 460 78 70 461 73 71 462 83 71 463 80 71 464 7 72 465 74 72 466 75 72 467 4 5 468 72 5 469 73 5 470 7 4 471 78 4 472 9 4 473 11 73 474 78 73 475 79 73 476 8 5 477 76 5 478 77 5 479 77 5 480 6 5 481 8 5 482 1 7 483 81 7 484 82 7 485 3 4 486 82 4 487 83 4 488 0 74 489 80 74 490 81 74 491 8 75 492 7 75 493 9 75 494 5 76 495 83 76 496 74 76 497 4 5 498 80 5 499 2 5 500 4 77 501 3 77 502 5 77 503 35 78 504 76 78 505 32 78 506 79 79 507 32 79 508 76 79 509 76 80 510 10 80 511 79 80 512 11 81 513 79 81 514 10 81 515</p>
        </triangles>
      </mesh>
    </geometry>
  </library_geometries>
  <library_visual_scenes>
    <visual_scene id="Scene" name="Scene">
      <node id="Plane_007" name="Plane.007" type="NODE">
        <matrix sid="transform">1 0 0 0 0 1 0 0 0 0 1 0 0 0 0 1</matrix>
        <instance_geometry url="#Plane_002-mesh" name="Plane.007">
          <bind_material>
            <technique_common>
              <instance_material symbol="Material_001-material" target="#Material_001-material">
                <bind_vertex_input semantic="Plane_002-mesh-map-0" input_semantic="TEXCOORD" input_set="0"/>
              </instance_material>
            </technique_common>
          </bind_material>
        </instance_geometry>
      </node>
    </visual_scene>
  </library_visual_scenes>
  <scene>
    <instance_visual_scene url="#Scene"/>
  </scene>
</COLLADA>