<?xml version="1.0" encoding="utf-8"?>
<COLLADA xmlns="http://www.collada.org/2005/11/COLLADASchema" version="1.4.1" xmlns:xsi="http://www.w3.org/2001/XMLSchema-instance">
  <asset>
    <contributor>
      <author>Blender User</author>
      <authoring_tool>Blender 4.5.2 LTS commit date:2025-08-19, commit time:15:00, hash:ab25eae04993</authoring_tool>
    </contributor>
    <created>2025-09-04T18:46:27</created>
    <modified>2025-09-04T18:46:27</modified>
    <unit name="meter" meter="1"/>
    <up_axis>Z_UP</up_axis>
  </asset>
  <library_effects>
    <effect id="Material_001-effect">
      <profile_COMMON>
        <newparam sid="textures_second1_png-surface">
          <surface type="2D">
            <init_from>textures_second1_png</init_from>
          </surface>
        </newparam>
        <newparam sid="textures_second1_png-sampler">
          <sampler2D>
            <source>textures_second1_png-surface</source>
          </sampler2D>
        </newparam>
        <technique sid="common">
          <lambert>
            <emission>
              <color sid="emission">0 0 0 1</color>
            </emission>
            <diffuse>
              <texture texture="textures_second1_png-sampler" texcoord="Plane_005-mesh-map-0"/>
            </diffuse>
            <index_of_refraction>
              <float sid="ior">1.5</float>
            </index_of_refraction>
          </lambert>
        </technique>
      </profile_COMMON>
    </effect>
  </library_effects>
  <library_images>
    <image id="textures_second1_png" name="textures_second1_png">
      <init_from>textures_second1.png</init_from>
    </image>
  </library_images>
  <library_materials>
    <material id="Material_001-material" name="Material.001">
      <instance_effect url="#Material_001-effect"/>
    </material>
  </library_materials>
  <library_geometries>
    <geometry id="Plane_005-mesh" name="Plane.005">
      <mesh>
        <source id="Plane_005-mesh-positions">
          <float_array id="Plane_005-mesh-positions-array" count="156">-4.75 -0.5999999 0 -4.6 -0.5999999 0 -4.75 0.5000002 0 -4.6 0.5000002 0 -4.75 -1.7 0 -4.6 -1.7 0 -4.6 -2.8 0 -4.75 -2.8 0 -4.75 -0.5999999 3 -4.6 -0.5999999 3 -4.75 0.5000002 3 -4.6 0.5000002 3 -4.75 -1.7 3 -4.6 -1.7 3 -4.6 -2.8 3 -4.75 -2.8 3 -4.75 0.5000002 2 -4.6 0.5000002 2 -4.6 -0.5999999 2 -4.75 -0.5999999 2 -4.6 -2.8 2 -4.75 -2.8 2 -4.6 -1.7 2 -4.75 -1.7 2 -4.75 -0.9666666 3 -4.75 -1.333333 3 -4.75 -1.025002 2 -4.75 -1.275001 2 -4.6 -0.9666666 3 -4.6 -1.333333 3 -4.6 -1.275001 2 -4.6 -1.024998 2 -4.6 -2.8 2.375 -4.6 -1.7 2.375 -4.75 0.5000002 2.375 -4.6 -0.5999999 2.375 -4.6 0.5000002 2.375 -4.75 -0.5999999 2.375 -4.75 -2.8 2.375 -4.75 -1.7 2.375 -4.75 -1.025002 2.25 -4.75 -1.275001 2.25 -4.6 -1.275001 2.25 -4.6 -1.025002 2.25 -4.75 0.5000002 0.4 -4.75 -0.5999999 0.15 -4.6 -0.5999999 0.15 -4.6 0.5000002 0.4 -4.75 -1.7 0.15 -4.75 -2.8 0.4 -4.6 -2.8 0.4 -4.6 -1.7 0.15</float_array>
          <technique_common>
            <accessor source="#Plane_005-mesh-positions-array" count="52" stride="3">
              <param name="X" type="float"/>
              <param name="Y" type="float"/>
              <param name="Z" type="float"/>
            </accessor>
          </technique_common>
        </source>
        <source id="Plane_005-mesh-normals">
          <float_array id="Plane_005-mesh-normals-array" count="39">0 0 -1 0 0 1 0 -1 0 1 0 0 0 1 0 -1 0 0 1 -1.12196e-6 0 1 7.47982e-7 0 -1 5.4186e-7 0 1 -1.53099e-6 0 1 1.79514e-6 0 1 5.4186e-7 0 1 -1.44496e-6 0</float_array>
          <technique_common>
            <accessor source="#Plane_005-mesh-normals-array" count="13" stride="3">
              <param name="X" type="float"/>
              <param name="Y" type="float"/>
              <param name="Z" type="float"/>
            </accessor>
          </technique_common>
        </source>
        <source id="Plane_005-mesh-map-0">
          <float_array id="Plane_005-mesh-map-0-array" count="624">0.431227 0.7213049 0.436002 0.8423767 0.431227 0.8423767 0.4717544 0.7589751 0.4367386 0.7754849 0.4367386 0.7589751 0.436002 0.2700372 0.431227 0.3911091 0.431227 0.2700372 0.431227 0.1489654 0.436002 0.0278936 0.436002 0.1489654 0.512341 0.7180531 0.5322363 0.7345628 0.512341 0.7345628 0.8351545 0.04139482 0.8055151 0.09934586 0.8055595 0.04114371 0.431227 0.4598998 0.436002 0.3911091 0.436002 0.4598998 0.4805176 0.5990627 0.4743691 0.5470953 0.4805176 0.5470952 0.767898 0.8841868 0.738346 0.9425981 0.7383202 0.8844248 0.8532791 0.00693053 0.8647125 0.04140466 0.8532841 0.0300042 0.894304 0.04106593 0.8647536 0.09959477 0.8647125 0.04140466 0.7087596 0.8843625 0.6790919 0.9422362 0.6791536 0.884006 0.431227 0.1893226 0.436002 0.1489654 0.436002 0.1893227 0.7383202 0.8844248 0.7284721 0.9426771 0.7269048 0.8730074 0.7201942 0.8729706 0.7087116 0.9426021 0.7087596 0.8843625 0.7269048 0.8730074 0.7185941 0.9426771 0.7201942 0.8729706 0.431227 0.2700372 0.436002 0.22968 0.436002 0.2700372 0.431227 0.22968 0.436002 0.1893227 0.436002 0.22968 0.8351992 0.006431519 0.8465782 0.02997255 0.8351545 0.04139482 0.02802062 0.9163599 0.05020409 0.9948472 0.02802062 0.9948472 0.4805176 0.4951279 0.4743691 0.4431606 0.4805176 0.4431606 0.4805176 0.5470952 0.4743691 0.4951279 0.4805176 0.4951279 0.8465782 0.02997255 0.854874 0.09967046 0.8449981 0.09967052 0.8351545 0.04139482 0.8449981 0.09967052 0.8351207 0.09960931 0.1538594 0.9166538 0.1316758 0.9951411 0.1316758 0.9166538 0.7202195 0.8498185 0.7087596 0.8843625 0.7088172 0.8493686 0.7382836 0.8494727 0.7269048 0.8730074 0.7268874 0.8499388 0.7088172 0.8493686 0.6791536 0.884006 0.6791878 0.8491136 0.8942659 0.006161093 0.8647125 0.04140466 0.8646664 0.006415665 0.8532841 0.0300042 0.8647536 0.09959477 0.854874 0.09967046 0.7678694 0.8493 0.7383202 0.8844248 0.7382836 0.8494727 0.431227 0.5011743 0.436002 0.4598998 0.436002 0.5011743 0.8351992 0.006431519 0.8055595 0.04114371 0.805583 0.006267428 0.5004038 0.7180531 0.512341 0.7345628 0.5004038 0.7345629 0.7088533 0.6774168 0.6791878 0.8491136 0.6792973 0.7004168 0.7678431 0.7007883 0.7382836 0.8494727 0.7383488 0.6775504 0.4494716 0.7180531 0.5004038 0.7345629 0.4494716 0.7345629 0.8351993 -0.1655218 0.805583 0.006267428 0.8056506 -0.1424232 0.5467138 0.06049174 0.5405652 0.2872583 0.5405652 0.06049174 0.8941993 -0.1423575 0.8646664 0.006415665 0.8646985 -0.1654984 0.4805176 0.2163938 0.4743691 0.4431606 0.4743691 0.2163938 0.431227 0.6772788 0.436002 0.5011743 0.436002 0.6772788 0.431227 0.7213049 0.436002 0.6772788 0.436002 0.7213049 0.8941941 -0.1794605 0.8646985 -0.1654984 0.8646982 -0.1794138 0.7088599 0.6634936 0.6792973 0.7004168 0.679322 0.6632584 0.8352022 -0.1794458 0.8056506 -0.1424232 0.805665 -0.1795806 0.4367386 0.7180531 0.4494716 0.7345629 0.4367386 0.7345629 0.7678484 0.663686 0.7383488 0.6775504 0.7383525 0.6636355 0.8351993 -0.1655218 0.8646982 -0.1794138 0.8646985 -0.1654984 0.4743691 0.2163938 0.4805176 0.06049168 0.4805176 0.2163938 0.7088599 0.6634936 0.7383488 0.6775504 0.7088533 0.6774168 0.8205354 0.6354584 0.8489393 0.622052 0.8489393 0.6354584 0.431227 0.7213049 0.436002 0.7213049 0.436002 0.8423767 0.4717544 0.7589751 0.4717544 0.7754849 0.4367386 0.7754849 0.436002 0.2700372 0.436002 0.3911091 0.431227 0.3911091 0.431227 0.1489654 0.431227 0.0278936 0.436002 0.0278936 0.512341 0.7180531 0.5322363 0.7180531 0.5322363 0.7345628 0.8351545 0.04139482 0.8351207 0.09960931 0.8055151 0.09934586 0.431227 0.4598998 0.431227 0.3911091 0.436002 0.3911091 0.4805176 0.5990627 0.4743691 0.5990627 0.4743691 0.5470953 0.767898 0.8841868 0.7679383 0.9423533 0.738346 0.9425981 0.8532791 0.00693053 0.8646664 0.006415665 0.8647125 0.04140466 0.894304 0.04106593 0.8943592 0.0992586 0.8647536 0.09959477 0.7087596 0.8843625 0.7087116 0.9426021 0.6790919 0.9422362 0.431227 0.1893226 0.431227 0.1489654 0.436002 0.1489654 0.7383202 0.8844248 0.738346 0.9425981 0.7284721 0.9426771 0.7201942 0.8729706 0.7185941 0.9426771 0.7087116 0.9426021 0.7269048 0.8730074 0.7284721 0.9426771 0.7185941 0.9426771 0.431227 0.2700372 0.431227 0.22968 0.436002 0.22968 0.431227 0.22968 0.431227 0.1893226 0.436002 0.1893227 0.8351992 0.006431519 0.8466065 0.00683701 0.8465782 0.02997255 0.02802062 0.9163599 0.05020409 0.9163599 0.05020409 0.9948472 0.4805176 0.4951279 0.4743691 0.4951279 0.4743691 0.4431606 0.4805176 0.5470952 0.4743691 0.5470953 0.4743691 0.4951279 0.8465782 0.02997255 0.8532841 0.0300042 0.854874 0.09967046 0.8351545 0.04139482 0.8465782 0.02997255 0.8449981 0.09967052 0.1538594 0.9166538 0.1538594 0.9951411 0.1316758 0.9951411 0.7202195 0.8498185 0.7201942 0.8729706 0.7087596 0.8843625 0.7382836 0.8494727 0.7383202 0.8844248 0.7269048 0.8730074 0.7088172 0.8493686 0.7087596 0.8843625 0.6791536 0.884006 0.8942659 0.006161093 0.894304 0.04106593 0.8647125 0.04140466 0.8532841 0.0300042 0.8647125 0.04140466 0.8647536 0.09959477 0.7678694 0.8493 0.767898 0.8841868 0.7383202 0.8844248 0.431227 0.5011743 0.431227 0.4598998 0.436002 0.4598998 0.8351992 0.006431519 0.8351545 0.04139482 0.8055595 0.04114371 0.5004038 0.7180531 0.512341 0.7180531 0.512341 0.7345628 0.7088533 0.6774168 0.7088172 0.8493686 0.6791878 0.8491136 0.7678431 0.7007883 0.7678694 0.8493 0.7382836 0.8494727 0.4494716 0.7180531 0.5004038 0.7180531 0.5004038 0.7345629 0.8351993 -0.1655218 0.8351992 0.006431519 0.805583 0.006267428 0.5467138 0.06049174 0.5467138 0.2872583 0.5405652 0.2872583 0.8941993 -0.1423575 0.8942659 0.006161093 0.8646664 0.006415665 0.4805176 0.2163938 0.4805176 0.4431606 0.4743691 0.4431606 0.431227 0.6772788 0.431227 0.5011743 0.436002 0.5011743 0.431227 0.7213049 0.431227 0.6772788 0.436002 0.6772788 0.8941941 -0.1794605 0.8941993 -0.1423575 0.8646985 -0.1654984 0.7088599 0.6634936 0.7088533 0.6774168 0.6792973 0.7004168 0.8352022 -0.1794458 0.8351993 -0.1655218 0.8056506 -0.1424232 0.4367386 0.7180531 0.4494716 0.7180531 0.4494716 0.7345629 0.7678484 0.663686 0.7678431 0.7007883 0.7383488 0.6775504 0.8351993 -0.1655218 0.8352022 -0.1794458 0.8646982 -0.1794138 0.4743691 0.2163938 0.4743691 0.06049168 0.4805176 0.06049168 0.7088599 0.6634936 0.7383525 0.6636355 0.7383488 0.6775504 0.8205354 0.6354584 0.8205354 0.622052 0.8489393 0.622052</float_array>
          <technique_common>
            <accessor source="#Plane_005-mesh-map-0-array" count="312" stride="2">
              <param name="S" type="float"/>
              <param name="T" type="float"/>
            </accessor>
          </technique_common>
        </source>
        <vertices id="Plane_005-mesh-vertices">
          <input semantic="POSITION" source="#Plane_005-mesh-positions"/>
        </vertices>
        <triangles material="Material_001-material" count="104">
          <input semantic="VERTEX" source="#Plane_005-mesh-vertices" offset="0"/>
          <input semantic="NORMAL" source="#Plane_005-mesh-normals" offset="1"/>
          <input semantic="TEXCOORD" source="#Plane_005-mesh-map-0" offset="2" set="0"/>
          <p>2 0 0 1 0 1 0 0 2 6 0 3 4 0 4 5 0 5 9 1 6 10 1 7 8 1 8 12 1 9 14 1 10 13 1 11 32 2 12 15 2 13 38 2 14 33 3 15 14 3 16 32 3 17 34 4 18 11 4 19 36 4 20 22 0 21 27 0 22 30 0 23 38 5 24 12 5 25 39 5 26 31 6 27 35 6 28 43 6 29 36 3 30 9 3 31 35 3 32 37 5 33 10 5 34 34 5 35 25 1 36 13 1 37 29 1 38 39 5 39 25 5 40 41 5 41 40 5 42 8 5 43 37 5 44 41 5 45 24 5 46 40 5 47 8 1 48 28 1 49 9 1 50 24 1 51 29 1 52 28 1 53 22 7 54 42 7 55 33 7 56 30 3 57 43 3 58 42 3 59 31 0 60 19 0 61 18 0 62 30 0 63 26 0 64 31 0 65 42 3 66 28 3 67 29 3 68 33 3 69 29 3 70 13 3 71 27 5 72 40 5 73 26 5 74 26 5 75 37 5 76 19 5 77 23 5 78 41 5 79 27 5 80 19 5 81 34 5 82 16 5 83 17 3 84 35 3 85 18 3 86 43 3 87 9 3 88 28 3 89 21 5 90 39 5 91 23 5 92 16 4 93 36 4 94 17 4 95 22 3 96 32 3 97 20 3 98 20 2 99 38 2 100 21 2 101 45 8 102 16 8 103 44 8 104 49 5 105 23 5 106 48 5 107 50 2 108 21 2 109 49 2 110 51 3 111 20 3 112 50 3 113 48 4 114 22 4 115 51 4 116 47 3 117 18 3 118 46 3 119 46 2 120 19 2 121 45 2 122 44 4 123 17 4 124 47 4 125 2 4 126 47 4 127 3 4 128 3 3 129 46 3 130 1 3 131 0 5 132 44 5 133 2 5 134 5 3 135 50 3 136 6 3 137 6 2 138 49 2 139 7 2 140 7 5 141 48 5 142 4 5 143 51 3 144 1 3 145 46 3 146 45 1 147 51 1 148 46 1 149 0 5 150 48 5 151 45 5 152 5 0 153 0 0 154 1 0 155 2 0 156 3 0 157 1 0 158 6 0 159 7 0 160 4 0 161 9 1 162 11 1 163 10 1 164 12 1 165 15 1 166 14 1 167 32 2 168 14 2 169 15 2 170 33 3 171 13 3 172 14 3 173 34 4 174 10 4 175 11 4 176 22 0 177 23 0 178 27 0 179 38 5 180 15 5 181 12 5 182 31 3 183 18 3 184 35 3 185 36 3 186 11 3 187 9 3 188 37 5 189 8 5 190 10 5 191 25 1 192 12 1 193 13 1 194 39 5 195 12 5 196 25 5 197 40 5 198 24 5 199 8 5 200 41 5 201 25 5 202 24 5 203 8 1 204 24 1 205 28 1 206 24 1 207 25 1 208 29 1 209 22 3 210 30 3 211 42 3 212 30 3 213 31 3 214 43 3 215 31 0 216 26 0 217 19 0 218 30 0 219 27 0 220 26 0 221 42 3 222 43 3 223 28 3 224 33 9 225 42 9 226 29 9 227 27 5 228 41 5 229 40 5 230 26 5 231 40 5 232 37 5 233 23 5 234 39 5 235 41 5 236 19 5 237 37 5 238 34 5 239 17 3 240 36 3 241 35 3 242 43 10 243 35 10 244 9 10 245 21 5 246 38 5 247 39 5 248 16 4 249 34 4 250 36 4 251 22 3 252 33 3 253 32 3 254 20 2 255 32 2 256 38 2 257 45 5 258 19 5 259 16 5 260 49 5 261 21 5 262 23 5 263 50 2 264 20 2 265 21 2 266 51 3 267 22 3 268 20 3 269 48 4 270 23 4 271 22 4 272 47 3 273 17 3 274 18 3 275 46 2 276 18 2 277 19 2 278 44 4 279 16 4 280 17 4 281 2 4 282 44 4 283 47 4 284 3 11 285 47 11 286 46 11 287 0 5 288 45 5 289 44 5 290 5 12 291 51 12 292 50 12 293 6 2 294 50 2 295 49 2 296 7 5 297 49 5 298 48 5 299 51 3 300 5 3 301 1 3 302 45 1 303 48 1 304 51 1 305 0 5 306 4 5 307 48 5 308 5 0 309 4 0 310 0 0 311</p>
        </triangles>
      </mesh>
    </geometry>
  </library_geometries>
  <library_visual_scenes>
    <visual_scene id="Scene" name="Scene">
      <node id="Plane_001" name="Plane.001" type="NODE">
        <matrix sid="transform">1 0 0 0 0 1 0 0 0 0 1 0 0 0 0 1</matrix>
        <instance_geometry url="#Plane_005-mesh" name="Plane.001">
          <bind_material>
            <technique_common>
              <instance_material symbol="Material_001-material" target="#Material_001-material">
                <bind_vertex_input semantic="Plane_005-mesh-map-0" input_semantic="TEXCOORD" input_set="0"/>
              </instance_material>
            </technique_common>
          </bind_material>
        </instance_geometry>
      </node>
    </visual_scene>
  </library_visual_scenes>
  <scene>
    <instance_visual_scene url="#Scene"/>
  </scene>
</COLLADA>