<?xml version="1.0" encoding="utf-8"?>
<COLLADA xmlns="http://www.collada.org/2005/11/COLLADASchema" version="1.4.1" xmlns:xsi="http://www.w3.org/2001/XMLSchema-instance">
  <asset>
    <contributor>
      <author>Blender User</author>
      <authoring_tool>Blender 4.5.2 LTS commit date:2025-08-19, commit time:15:00, hash:ab25eae04993</authoring_tool>
    </contributor>
    <created>2026-09-05T22:29:23</created>
    <modified>2026-09-05T22:29:23</modified>
    <unit name="meter" meter="1"/>
    <up_axis>Z_UP</up_axis>
  </asset>
  <library_effects>
    <effect id="Material_002-effect">
      <profile_COMMON>
        <newparam sid="photo_2026-08-29_00-38-51_jpg-surface">
          <surface type="2D">
            <init_from>photo_2026-08-29_00-38-51_jpg</init_from>
          </surface>
        </newparam>
        <newparam sid="photo_2026-08-29_00-38-51_jpg-sampler">
          <sampler2D>
            <source>photo_2026-08-29_00-38-51_jpg-surface</source>
          </sampler2D>
        </newparam>
        <technique sid="common">
          <lambert>
            <emission>
              <color sid="emission">0 0 0 1</color>
            </emission>
            <diffuse>
              <texture texture="photo_2026-08-29_00-38-51_jpg-sampler" texcoord="Plane_010-mesh-map-0"/>
            </diffuse>
            <index_of_refraction>
              <float sid="ior">1.45</float>
            </index_of_refraction>
          </lambert>
        </technique>
      </profile_COMMON>
    </effect>
  </library_effects>
  <library_images>
    <image id="photo_2026-08-29_00-38-51_jpg" name="photo_2026-08-29_00-38-51_jpg">
      <init_from>map.png</init_from>
    </image>
  </library_images>
  <library_materials>
    <material id="Material_002-material" name="Material.002">
      <instance_effect url="#Material_002-effect"/>
    </material>
  </library_materials>
  <library_geometries>
    <geometry id="Plane_010-mesh" name="Plane.010">
      <mesh>
        <source id="Plane_010-mesh-positions">
          <float_array id="Plane_010-mesh-positions-array" count="96">-6.835059 2.879162 3.5 -6.835059 3.029163 3.5 -2.435059 2.87916 3.5 -2.435059 3.029161 3.5 -7.935059 2.879162 3.5 -7.935059 3.029163 3.5 -9.585061 3.029164 3.5 -9.585061 2.879163 3.5 -6.835059 3.029163 2.5 -7.568393 2.879162 3.5 -7.201726 2.879162 3.5 -7.201726 3.029163 3.5 -7.568393 3.029163 3.5 -7.568394 3.029163 2.5 -7.201726 3.029163 2.5 -7.201726 2.879162 2.5 -7.568394 2.879162 2.5 -9.585061 2.879163 2.5 -9.585061 3.029164 2.5 -7.93506 3.029163 2.5 -7.93506 2.879162 2.5 -2.43506 3.029161 2.5 -2.43506 2.87916 2.5 -6.835059 2.879162 2.5 -7.935059 2.879162 3.57628e-7 -9.585061 2.879163 3.57628e-7 -9.585061 3.029164 3.57628e-7 -7.935059 3.029163 3.57628e-7 -2.435059 2.879161 1.78814e-7 -6.835059 2.879162 3.57628e-7 -2.435059 3.029162 1.78814e-7 -6.835059 3.029163 3.57628e-7</float_array>
          <technique_common>
            <accessor source="#Plane_010-mesh-positions-array" count="32" stride="3">
              <param name="X" type="float"/>
              <param name="Y" type="float"/>
              <param name="Z" type="float"/>
            </accessor>
          </technique_common>
        </source>
        <source id="Plane_010-mesh-normals">
          <float_array id="Plane_010-mesh-normals-array" count="123">0 0 1 0 0 1 -3.25116e-7 -1 2.42935e-7 0 0 1 0 0 1 -6.50231e-7 -1 3.14291e-7 -4.33488e-7 -1 0 1 0 -4.76837e-7 4.33488e-7 1 0 6.50231e-7 1 0 -4.33488e-7 -1 -2.59131e-7 -1 0 0 4.33488e-7 1 2.31194e-7 1 0 1.90735e-7 -3.25116e-7 -1 0 1 0 1.90734e-7 3.25116e-7 1 0 -1 0 -1.90735e-7 3.25116e-7 1 4.33488e-7 0 1 0 0 -1 3.14293e-7 0 -1 3.14292e-7 -4.33488e-7 -1 -2.31194e-7 4.33488e-7 1 2.31194e-7 -3.25116e-7 -1 0 3.25116e-7 1 1.73395e-7 -1 1.01725e-5 0 0 0 -1 0 0 -1 0 0 -1 -3.25116e-7 -1 -4.33488e-7 -6.50231e-7 -1 0 -4.33488e-7 -1 0 1 0 -4.76837e-7 4.33488e-7 1 0 6.50231e-7 1 0 3.25116e-7 1 0 0 1 0 0 -1 0 0 1 0 0 0 -1</float_array>
          <technique_common>
            <accessor source="#Plane_010-mesh-normals-array" count="41" stride="3">
              <param name="X" type="float"/>
              <param name="Y" type="float"/>
              <param name="Z" type="float"/>
            </accessor>
          </technique_common>
        </source>
        <source id="Plane_010-mesh-map-0">
          <float_array id="Plane_010-mesh-map-0-array" count="360">0.4051437 0.5855109 0.4078705 0.5855109 0.4078704 0.8622065 0.4078705 0.5163369 0.4051438 0.5163369 0.4051438 0.412576 0.8443813 0.5952268 0.936649 0.5226822 0.936649 0.5952267 0.4078705 0.5393948 0.4051438 0.5393948 0.4051438 0.5163369 0.4078705 0.5855109 0.4051437 0.5855109 0.4051438 0.5624529 0.4078705 0.5624529 0.4051438 0.5624529 0.4051438 0.5393948 0.8290034 0.5952269 0.8366924 0.5226822 0.8366925 0.5952268 0.7867141 0.5952268 0.8213145 0.5226822 0.8213145 0.5952268 0.5987377 0.09815037 0.6169156 0.08871769 0.6169156 0.09815055 0.8430148 0.5232619 0.8776152 0.5958064 0.8430148 0.5958064 0.8276369 0.5232619 0.835326 0.5958064 0.8276369 0.5958064 0.7867141 0.3413208 0.8213145 0.3413208 0.8213145 0.5226822 0.4051438 0.1924771 0.4078705 0.1924771 0.4078705 0.3496906 0.8430148 0.3419005 0.8776152 0.3419004 0.8776152 0.5232618 0.4078706 0.6924625 0.4105973 0.6924625 0.4105973 0.8496761 0.8443813 0.3413208 0.936649 0.3413206 0.936649 0.5226822 0.5532932 0.09815007 0.5532932 0.08871716 0.5987378 0.08871752 0.7276802 0.3419005 0.819948 0.3419005 0.819948 0.5232619 0.4733108 0.08871638 0.4733108 0.09814929 0.4278662 0.09814894 0.4051437 0.5855109 0.4078704 0.8622065 0.4051437 0.8622065 0.4078705 0.5163369 0.4051438 0.412576 0.4078705 0.412576 0.7276802 0.5232619 0.819948 0.5958064 0.7276802 0.5958065 0.819948 0.5232619 0.8276369 0.5958064 0.819948 0.5958064 0.8213145 0.5952268 0.8290033 0.5226822 0.8290034 0.5952269 0.4078705 0.5393948 0.4051438 0.5163369 0.4078705 0.5163369 0.835326 0.5232618 0.8430148 0.5958064 0.835326 0.5958064 0.4078705 0.5855109 0.4051438 0.5624529 0.4078705 0.5624529 0.4078705 0.5624529 0.4051438 0.5393948 0.4078705 0.5393948 0.4051438 0.3496906 0.4078705 0.412576 0.4051438 0.412576 0.8366925 0.5952268 0.8443813 0.5226822 0.8443813 0.5952268 0.7867141 0.3413208 0.8213145 0.5226822 0.7867141 0.5226822 0.4051438 0.1924771 0.4078705 0.3496906 0.4051438 0.3496906 0.8430148 0.3419005 0.8776152 0.5232618 0.8430148 0.5232619 0.4078706 0.6924625 0.4105973 0.8496761 0.4078706 0.8496761 0.8443813 0.3413208 0.936649 0.5226822 0.8443813 0.5226822 0.5532932 0.09815007 0.5987378 0.08871752 0.5987377 0.09815037 0.7276802 0.3419005 0.819948 0.5232619 0.7276802 0.5232619 0.4733108 0.08871638 0.4278662 0.09814894 0.4278662 0.08871608 0.4145358 0.08871614 0.4078706 0.098149 0.4078706 0.08871608 0.4145358 0.098149 0.4212009 0.08871608 0.4212009 0.09814894 0.4212009 0.08871608 0.4278662 0.09814894 0.4212009 0.09814894 0.4733108 0.09814929 0.5532932 0.08871716 0.5532932 0.09815007 0.5532932 0.08871716 0.4733108 0.09814929 0.4733108 0.08871638 0.4078705 0.1924771 0.4051439 0.08871608 0.4078706 0.08871608 0.4051438 0.1924771 0.4051439 0.08871608 0.4078705 0.1924771 0.8443813 0.5952268 0.8443813 0.5226822 0.936649 0.5226822 0.8290034 0.5952269 0.8290033 0.5226822 0.8366924 0.5226822 0.7867141 0.5952268 0.7867141 0.5226822 0.8213145 0.5226822 0.5987377 0.09815037 0.5987378 0.08871752 0.6169156 0.08871769 0.8430148 0.5232619 0.8776152 0.5232618 0.8776152 0.5958064 0.8276369 0.5232619 0.835326 0.5232618 0.835326 0.5958064 0.7276802 0.5232619 0.819948 0.5232619 0.819948 0.5958064 0.819948 0.5232619 0.8276369 0.5232619 0.8276369 0.5958064 0.8213145 0.5952268 0.8213145 0.5226822 0.8290033 0.5226822 0.835326 0.5232618 0.8430148 0.5232619 0.8430148 0.5958064 0.4051438 0.3496906 0.4078705 0.3496906 0.4078705 0.412576 0.8366925 0.5952268 0.8366924 0.5226822 0.8443813 0.5226822 0.4145358 0.08871614 0.4145358 0.098149 0.4078706 0.098149 0.4145358 0.098149 0.4145358 0.08871614 0.4212009 0.08871608 0.4212009 0.08871608 0.4278662 0.08871608 0.4278662 0.09814894</float_array>
          <technique_common>
            <accessor source="#Plane_010-mesh-map-0-array" count="180" stride="2">
              <param name="S" type="float"/>
              <param name="T" type="float"/>
            </accessor>
          </technique_common>
        </source>
        <vertices id="Plane_010-mesh-vertices">
          <input semantic="POSITION" source="#Plane_010-mesh-positions"/>
        </vertices>
        <triangles material="Material_002-material" count="60">
          <input semantic="VERTEX" source="#Plane_010-mesh-vertices" offset="0"/>
          <input semantic="NORMAL" source="#Plane_010-mesh-normals" offset="1"/>
          <input semantic="TEXCOORD" source="#Plane_010-mesh-map-0" offset="2" set="0"/>
          <p>1 0 0 0 0 1 2 0 2 4 1 3 5 1 4 6 1 5 0 2 6 22 2 7 2 2 8 9 3 9 12 3 10 5 3 11 0 3 12 1 3 13 11 3 14 10 4 15 11 4 16 12 4 17 9 5 18 15 5 19 10 5 20 7 6 21 20 6 22 4 6 23 22 7 24 3 7 25 2 7 26 19 8 27 6 8 28 5 8 29 14 9 30 12 9 31 11 9 32 25 10 33 24 10 34 20 10 35 26 11 36 25 11 37 17 11 38 27 12 39 26 12 40 18 12 41 24 13 42 27 13 43 19 13 44 29 14 45 28 14 46 22 14 47 28 15 48 30 15 49 21 15 50 30 16 51 31 16 52 8 16 53 31 17 54 29 17 55 23 17 56 1 3 57 2 3 58 3 3 59 4 3 60 6 3 61 7 3 62 21 18 63 1 18 64 3 18 65 8 19 66 11 19 67 1 19 68 4 20 69 16 20 70 9 20 71 9 3 72 5 3 73 4 3 74 13 19 75 5 19 76 12 19 77 0 3 78 11 3 79 10 3 80 10 3 81 12 3 82 9 3 83 18 11 84 7 11 85 6 11 86 10 21 87 23 21 88 0 21 89 25 22 90 20 22 91 17 22 92 26 11 93 17 11 94 18 11 95 27 23 96 18 23 97 19 23 98 24 15 99 19 15 100 20 15 101 29 24 102 22 24 103 23 24 104 28 13 105 21 13 106 22 13 107 30 25 108 8 25 109 21 25 110 31 26 111 23 26 112 8 26 113 13 27 114 20 27 115 19 27 116 16 27 117 14 27 118 15 27 119 14 27 120 23 27 121 15 27 122 29 28 123 30 28 124 28 28 125 30 29 126 29 29 127 31 29 128 25 27 129 27 27 130 24 27 131 26 27 132 27 27 133 25 27 134 0 30 135 23 30 136 22 30 137 9 31 138 16 31 139 15 31 140 7 32 141 17 32 142 20 32 143 22 33 144 21 33 145 3 33 146 19 34 147 18 34 148 6 34 149 14 35 150 13 35 151 12 35 152 21 36 153 8 36 154 1 36 155 8 37 156 14 37 157 11 37 158 4 38 159 20 38 160 16 38 161 13 39 162 19 39 163 5 39 164 18 11 165 17 11 166 7 11 167 10 38 168 15 38 169 23 38 170 13 27 171 16 27 172 20 27 173 16 40 174 13 40 175 14 40 176 14 27 177 8 27 178 23 27 179</p>
        </triangles>
      </mesh>
    </geometry>
  </library_geometries>
  <library_visual_scenes>
    <visual_scene id="Scene" name="Scene">
      <node id="Plane_006" name="Plane.006" type="NODE">
        <matrix sid="transform">1 0 0 0 0 1 0 0 0 0 1 0 0 0 0 1</matrix>
        <instance_geometry url="#Plane_010-mesh" name="Plane.006">
          <bind_material>
            <technique_common>
              <instance_material symbol="Material_002-material" target="#Material_002-material">
                <bind_vertex_input semantic="Plane_010-mesh-map-0" input_semantic="TEXCOORD" input_set="0"/>
              </instance_material>
            </technique_common>
          </bind_material>
        </instance_geometry>
      </node>
    </visual_scene>
  </library_visual_scenes>
  <scene>
    <instance_visual_scene url="#Scene"/>
  </scene>
</COLLADA>