<?xml version="1.0" encoding="utf-8"?>
<COLLADA xmlns="http://www.collada.org/2005/11/COLLADASchema" version="1.4.1" xmlns:xsi="http://www.w3.org/2001/XMLSchema-instance">
  <asset>
    <contributor>
      <author>Blender User</author>
      <authoring_tool>Blender 4.5.2 LTS commit date:2025-08-19, commit time:15:00, hash:ab25eae04993</authoring_tool>
    </contributor>
    <created>2026-09-25T11:46:12</created>
    <modified>2026-09-25T11:46:12</modified>
    <unit name="meter" meter="1"/>
    <up_axis>Z_UP</up_axis>
  </asset>
  <library_effects>
    <effect id="Material_001-effect">
      <profile_COMMON>
        <newparam sid="road_texture_png_001-surface">
          <surface type="2D">
            <init_from>road_texture_png_001</init_from>
          </surface>
        </newparam>
        <newparam sid="road_texture_png_001-sampler">
          <sampler2D>
            <source>road_texture_png_001-surface</source>
          </sampler2D>
        </newparam>
        <technique sid="common">
          <lambert>
            <emission>
              <color sid="emission">0 0 0 1</color>
            </emission>
            <diffuse>
              <texture texture="road_texture_png_001-sampler"/>
            </diffuse>
            <index_of_refraction>
              <float sid="ior">1.5</float>
            </index_of_refraction>
          </lambert>
        </technique>
      </profile_COMMON>
    </effect>
  </library_effects>
  <library_images>
    <image id="road_texture_png_001" name="road_texture_png_001">
      <init_from>road_texture.png</init_from>
    </image>
  </library_images>
  <library_materials>
    <material id="Material_001-material" name="Material.001">
      <instance_effect url="#Material_001-effect"/>
    </material>
  </library_materials>
  <library_geometries>
    <geometry id="Mesh_001-mesh" name="Mesh.001">
      <mesh>
        <source id="Mesh_001-mesh-positions">
          <float_array id="Mesh_001-mesh-positions-array" count="570">-11.39049 -7.235313 0 -12.02097 -6.257022 0 -12.81818 -5.381554 0 -13.73082 -4.588493 0 -14.7076 -3.857424 0 -15.69721 -3.167929 0 -16.64837 -2.499594 0 -17.50977 -1.832002 0 -18.23011 -1.144738 0 -18.75809 -0.4173851 0 -19.04241 0.3704718 0 -19.03179 1.239249 0 -18.67491 2.209363 0 -17.69214 3.449561 0 -16.48472 4.029006 0 -15.08876 4.07278 0 -13.54038 3.705965 0 -11.87569 3.053642 0 -10.13081 2.240892 0 -8.341854 1.392797 0 -6.544937 0.6344391 0 -4.776178 0.09089905 0 -3.071692 -0.1127414 0 -1.467594 0.1485991 0 0 1 0 0.447528 1.48436 0 0.7237794 2.004451 0 0.8587099 2.556304 0 0.8822752 3.135951 0 0.8244307 3.739421 0 0.7151322 4.362747 0 0.5843355 5.001959 0 0.4619959 5.653087 0 0.3780692 6.312163 0 0.3625111 6.975217 0 0.4452772 7.638281 0 0.6563215 8.297387 0 1.054148 9.156713 0 1.260822 9.549999 0 1.477783 9.91962 0 1.708866 10.26602 0 1.957907 10.58965 0 2.228739 10.89094 0 2.525199 11.17033 0 2.851121 11.42828 0 3.21034 11.66522 0 3.606692 11.8816 0 4.044011 12.07785 0 5.300489 12.57056 0 6.607182 13.03919 0 7.941862 13.45982 0 9.2823 13.80859 0 10.60627 14.06161 0 11.89154 14.19497 0 13.11588 14.18481 0 14.25706 14.00724 0 15.29286 13.63835 0 16.20105 13.05428 0 16.9594 12.23113 0 17.54568 11.14501 0 18.26317 8.381897 0 18.13431 5.924449 0 17.27493 3.722692 0 15.80085 1.726655 0 13.82789 -0.1136345 0 11.47187 -1.848148 0 8.848616 -3.526859 0 6.073952 -5.199737 0 3.263701 -6.916755 0 0.5336857 -8.727886 0 -2.000271 -10.6831 0 -4.222338 -12.83237 0 -4.598898 -13.31447 0 -4.926221 -13.84294 0 -5.217284 -14.39876 0 -5.485064 -14.96294 0 -5.74254 -15.51647 0 -6.002689 -16.04034 0 -6.27849 -16.51555 0 -6.58292 -16.9231 0 -6.928956 -17.24398 0 -7.329577 -17.45919 0 -7.79776 -17.54973 0 -8.346485 -17.49658 0 -9.227115 -17.17603 0 -9.856495 -16.6813 0 -10.2758 -16.03549 0 -10.52621 -15.26168 0 -10.6489 -14.38298 0 -10.68505 -13.42249 0 -10.67583 -12.40331 0 -10.66243 -11.34852 0 -10.68602 -10.28123 0 -10.78777 -9.224534 0 -11.00887 -8.201529 0 -11.21171 -7.143525 0 -11.86188 -6.13468 0 -12.67817 -5.238255 0 -13.60514 -4.432744 0 -14.59048 -3.695268 0 -15.58256 -3.004058 0 -16.52956 -2.338644 0 -17.37914 -1.68021 0 -18.07892 -1.012562 0 -18.57958 -0.3228337 0 -18.84199 0.404269 0 -18.83222 1.202445 0 -18.49826 2.110252 0 -17.56403 3.289202 0 -16.43625 3.830428 0 -15.10903 3.872046 0 -13.60021 3.514604 0 -11.95447 2.869707 0 -10.21587 2.059881 0 -8.423611 1.21022 0 -6.613369 0.4462379 0 -4.817749 -0.1055567 0 -3.067391 -0.3146776 0 -1.399087 -0.04287654 0 0.1264375 0.8421317 0 0.6120052 1.367662 0 0.9121248 1.932689 0 1.057733 2.528214 0 1.082664 3.141456 0 1.022773 3.766275 0 0.9116387 4.400073 0 0.7805985 5.040474 0 0.6596475 5.684212 0 0.5777719 6.32718 0 0.562803 6.965122 0 0.6414303 7.595028 0 0.8434197 8.225853 0 1.232892 9.066913 0 1.435681 9.452804 0 1.647353 9.813416 0 1.871491 10.14941 0 2.111751 10.46162 0 2.37194 10.75107 0 2.656087 11.01887 0 2.96846 11.26609 0 3.313497 11.49368 0 3.695686 11.70232 0 4.121506 11.89341 0 5.370769 12.3833 0 6.671023 12.84961 0 7.997137 13.26755 0 9.326299 13.61338 0 10.63541 13.86356 0 11.90106 13.99489 0 13.09959 13.98494 0 14.20771 13.81251 0 15.20406 13.45767 0 16.07132 12.89992 0 16.79532 12.11406 0 17.35818 11.07131 0 18.06183 8.361526 0 17.93628 5.967127 0 17.09828 3.820147 0 15.65093 1.860317 0 13.69996 0.04054015 0 11.35856 -1.683213 0 8.743063 -3.35696 0 5.970181 -5.028763 0 3.156244 -6.748033 0 0.4171658 -8.565176 0 -2.131291 -10.53158 0 -4.371389 -12.69829 0 -4.763205 -13.19992 0 -5.100049 -13.74376 0 -5.396282 -14.30946 0 -5.666078 -14.87788 0 -5.922804 -15.4298 0 -6.178929 -15.94556 0 -6.445654 -16.40514 0 -6.732258 -16.78883 0 -7.046165 -17.07991 0 -7.39742 -17.26861 0 -7.807301 -17.34786 0 -8.301934 -17.29996 0 -9.128659 -16.99903 0 -9.706816 -16.54457 0 -10.09366 -15.94875 0 -10.33055 -15.21672 0 -10.44942 -14.36535 0 -10.48501 -13.41964 0 -10.47584 -12.40548 0 -10.4624 -11.34758 0 -10.48623 -10.26942 0 -10.58981 -9.193718 0 -10.81684 -8.143281 0</float_array>
          <technique_common>
            <accessor source="#Mesh_001-mesh-positions-array" count="190" stride="3">
              <param name="X" type="float"/>
              <param name="Y" type="float"/>
              <param name="Z" type="float"/>
            </accessor>
          </technique_common>
        </source>
        <source id="Mesh_001-mesh-normals">
          <float_array id="Mesh_001-mesh-normals-array" count="3">0 0 1</float_array>
          <technique_common>
            <accessor source="#Mesh_001-mesh-normals-array" count="1" stride="3">
              <param name="X" type="float"/>
              <param name="Y" type="float"/>
              <param name="Z" type="float"/>
            </accessor>
          </technique_common>
        </source>
        <vertices id="Mesh_001-mesh-vertices">
          <input semantic="POSITION" source="#Mesh_001-mesh-positions"/>
        </vertices>
        <triangles material="Material_001-material" count="184">
          <input semantic="VERTEX" source="#Mesh_001-mesh-vertices" offset="0"/>
          <input semantic="NORMAL" source="#Mesh_001-mesh-normals" offset="1"/>
          <p>96 0 0 0 95 0 97 0 1 0 96 0 98 0 2 0 97 0 99 0 3 0 98 0 100 0 4 0 99 0 101 0 5 0 100 0 102 0 6 0 101 0 103 0 7 0 102 0 104 0 8 0 103 0 105 0 11 0 10 0 106 0 12 0 11 0 108 0 12 0 107 0 108 0 14 0 13 0 109 0 15 0 14 0 110 0 16 0 15 0 111 0 17 0 16 0 112 0 18 0 17 0 113 0 19 0 18 0 114 0 20 0 19 0 115 0 21 0 20 0 116 0 22 0 21 0 117 0 23 0 22 0 119 0 23 0 118 0 120 0 24 0 119 0 121 0 25 0 120 0 122 0 26 0 121 0 123 0 27 0 122 0 124 0 28 0 123 0 125 0 29 0 124 0 126 0 30 0 125 0 127 0 31 0 126 0 128 0 32 0 127 0 129 0 33 0 128 0 130 0 34 0 129 0 130 0 36 0 35 0 133 0 37 0 132 0 134 0 38 0 133 0 135 0 39 0 134 0 136 0 40 0 135 0 137 0 41 0 136 0 138 0 42 0 137 0 139 0 43 0 138 0 139 0 45 0 44 0 140 0 46 0 45 0 141 0 47 0 46 0 142 0 48 0 47 0 144 0 48 0 143 0 145 0 49 0 144 0 146 0 50 0 145 0 147 0 51 0 146 0 148 0 52 0 147 0 149 0 53 0 148 0 150 0 54 0 149 0 151 0 55 0 150 0 152 0 56 0 151 0 152 0 58 0 57 0 153 0 59 0 58 0 155 0 59 0 154 0 156 0 60 0 155 0 156 0 62 0 61 0 157 0 63 0 62 0 158 0 64 0 63 0 159 0 65 0 64 0 160 0 66 0 65 0 161 0 67 0 66 0 162 0 68 0 67 0 163 0 69 0 68 0 164 0 70 0 69 0 165 0 71 0 70 0 167 0 71 0 166 0 168 0 72 0 167 0 169 0 73 0 168 0 170 0 74 0 169 0 171 0 75 0 170 0 172 0 76 0 171 0 173 0 77 0 172 0 174 0 78 0 173 0 175 0 79 0 174 0 176 0 80 0 175 0 176 0 82 0 81 0 177 0 83 0 82 0 179 0 83 0 178 0 180 0 84 0 179 0 181 0 87 0 86 0 182 0 88 0 87 0 183 0 89 0 88 0 184 0 90 0 89 0 185 0 91 0 90 0 186 0 92 0 91 0 187 0 93 0 92 0 188 0 94 0 93 0 189 0 0 0 94 0 96 0 1 0 0 0 97 0 2 0 1 0 98 0 3 0 2 0 99 0 4 0 3 0 100 0 5 0 4 0 101 0 6 0 5 0 102 0 7 0 6 0 103 0 8 0 7 0 104 0 9 0 8 0 105 0 106 0 11 0 106 0 107 0 12 0 108 0 13 0 12 0 108 0 109 0 14 0 109 0 110 0 15 0 110 0 111 0 16 0 111 0 112 0 17 0 112 0 113 0 18 0 113 0 114 0 19 0 114 0 115 0 20 0 115 0 116 0 21 0 116 0 117 0 22 0 117 0 118 0 23 0 119 0 24 0 23 0 120 0 25 0 24 0 121 0 26 0 25 0 122 0 27 0 26 0 123 0 28 0 27 0 124 0 29 0 28 0 125 0 30 0 29 0 126 0 31 0 30 0 127 0 32 0 31 0 128 0 33 0 32 0 129 0 34 0 33 0 130 0 35 0 34 0 130 0 131 0 36 0 133 0 38 0 37 0 134 0 39 0 38 0 135 0 40 0 39 0 136 0 41 0 40 0 137 0 42 0 41 0 138 0 43 0 42 0 139 0 44 0 43 0 139 0 140 0 45 0 140 0 141 0 46 0 141 0 142 0 47 0 142 0 143 0 48 0 144 0 49 0 48 0 145 0 50 0 49 0 146 0 51 0 50 0 147 0 52 0 51 0 148 0 53 0 52 0 149 0 54 0 53 0 150 0 55 0 54 0 151 0 56 0 55 0 152 0 57 0 56 0 152 0 153 0 58 0 153 0 154 0 59 0 155 0 60 0 59 0 156 0 61 0 60 0 156 0 157 0 62 0 157 0 158 0 63 0 158 0 159 0 64 0 159 0 160 0 65 0 160 0 161 0 66 0 161 0 162 0 67 0 162 0 163 0 68 0 163 0 164 0 69 0 164 0 165 0 70 0 165 0 166 0 71 0 167 0 72 0 71 0 168 0 73 0 72 0 169 0 74 0 73 0 170 0 75 0 74 0 171 0 76 0 75 0 172 0 77 0 76 0 173 0 78 0 77 0 174 0 79 0 78 0 175 0 80 0 79 0 176 0 81 0 80 0 176 0 177 0 82 0 177 0 178 0 83 0 179 0 84 0 83 0 180 0 85 0 84 0 181 0 182 0 87 0 182 0 183 0 88 0 183 0 184 0 89 0 184 0 185 0 90 0 185 0 186 0 91 0 186 0 187 0 92 0 187 0 188 0 93 0 188 0 189 0 94 0 189 0 95 0 0 0</p>
        </triangles>
      </mesh>
    </geometry>
  </library_geometries>
  <library_visual_scenes>
    <visual_scene id="Scene" name="Scene">
      <node id="BézierCircle_001" name="BézierCircle.001" type="NODE">
        <matrix sid="transform">1 0 0 0 0 1 0 0 0 0 1 0 0 0 0 1</matrix>
        <instance_geometry url="#Mesh_001-mesh" name="BézierCircle.001">
          <bind_material>
            <technique_common>
              <instance_material symbol="Material_001-material" target="#Material_001-material"/>
            </technique_common>
          </bind_material>
        </instance_geometry>
      </node>
    </visual_scene>
  </library_visual_scenes>
  <scene>
    <instance_visual_scene url="#Scene"/>
  </scene>
</COLLADA>