<?xml version="1.0" encoding="utf-8"?>
<COLLADA xmlns="http://www.collada.org/2005/11/COLLADASchema" version="1.4.1" xmlns:xsi="http://www.w3.org/2001/XMLSchema-instance">
  <asset>
    <contributor>
      <author>Blender User</author>
      <authoring_tool>Blender 4.5.2 LTS commit date:2025-08-19, commit time:15:00, hash:ab25eae04993</authoring_tool>
    </contributor>
    <created>2026-09-11T01:11:38</created>
    <modified>2026-09-11T01:11:38</modified>
    <unit name="meter" meter="1"/>
    <up_axis>Z_UP</up_axis>
  </asset>
  <library_effects>
    <effect id="Material_001-effect">
      <profile_COMMON>
        <newparam sid="photo_2026-08-29_00-38-51_jpg_001-surface">
          <surface type="2D">
            <init_from>photo_2026-08-29_00-38-51_jpg_001</init_from>
          </surface>
        </newparam>
        <newparam sid="photo_2026-08-29_00-38-51_jpg_001-sampler">
          <sampler2D>
            <source>photo_2026-08-29_00-38-51_jpg_001-surface</source>
          </sampler2D>
        </newparam>
        <technique sid="common">
          <lambert>
            <emission>
              <color sid="emission">0 0 0 1</color>
            </emission>
            <diffuse>
              <texture texture="photo_2026-08-29_00-38-51_jpg_001-sampler" texcoord="Plane_009-mesh-map-0"/>
            </diffuse>
            <index_of_refraction>
              <float sid="ior">1.45</float>
            </index_of_refraction>
          </lambert>
        </technique>
      </profile_COMMON>
    </effect>
  </library_effects>
  <library_images>
    <image id="photo_2026-08-29_00-38-51_jpg_001" name="photo_2026-08-29_00-38-51_jpg_001">
      <init_from>map.png</init_from>
    </image>
  </library_images>
  <library_materials>
    <material id="Material_001-material" name="Material.001">
      <instance_effect url="#Material_001-effect"/>
    </material>
  </library_materials>
  <library_geometries>
    <geometry id="Plane_009-mesh" name="Plane.009">
      <mesh>
        <source id="Plane_009-mesh-positions">
          <float_array id="Plane_009-mesh-positions-array" count="240">1.964942 2.879161 3.5 2.114941 3.029161 3.5 1.964941 1.229161 3.5 2.114941 1.229161 3.5 1.964941 0.1291608 3.5 2.114941 0.1291608 3.5 1.964941 -2.620841 3.5 2.114941 -2.620841 3.5 1.964941 -3.720839 3.5 2.114941 -3.720839 3.5 1.964941 -5.920839 3.5 2.114941 -5.920839 3.5 1.964941 0.1291608 2.5 1.964941 -2.620841 2.5 2.114941 0.1291608 2.5 2.114941 -2.620841 2.5 1.964941 2.879161 2.5 1.964941 1.229161 2.5 2.114941 3.029161 2.5 2.114941 1.229161 2.5 2.114941 -5.920839 2.5 2.114941 -3.720839 2.5 1.964941 -3.720839 2.5 1.964941 -5.920839 2.5 1.964941 0.5541611 2.5 1.964941 0.8041611 2.5 1.964941 0.4958276 3.5 1.964941 0.8624945 3.5 2.114941 0.8624944 3.5 2.114941 0.4958276 3.5 2.114941 0.554161 2.5 2.114941 0.804161 2.5 2.114941 -5.920839 2.875 1.964941 2.879161 2.875 1.964941 0.1291608 2.875 2.114941 0.1291608 2.875 1.964941 -3.720839 2.875 2.114941 3.029161 2.875 2.114941 1.229161 2.875 1.964941 -2.620841 2.875 2.114941 -2.620841 2.875 1.964941 1.229161 2.875 2.114941 -3.720839 2.875 1.964941 -5.920839 2.875 2.114941 0.554161 2.75 2.114941 0.804161 2.75 1.964941 0.5541611 2.75 1.964941 0.8041611 2.75 1.964941 -3.295836 2.5 1.964941 -3.04584 2.5 1.964941 -3.354172 3.5 1.964941 -2.987505 3.5 2.114941 -2.987505 3.5 2.114941 -3.354172 3.5 2.114941 -3.04584 2.5 2.114941 -3.295836 2.5 1.964941 -3.04584 2.75 1.964941 -3.295836 2.75 2.114941 -3.295836 2.75 2.114941 -3.04584 2.75 1.964941 -2.620841 5.06639e-7 1.964941 0.1291608 5.06639e-7 2.114941 0.1291608 5.06639e-7 2.114941 -2.620841 5.06639e-7 1.964941 -5.920839 5.06639e-7 1.964941 -3.720839 5.06639e-7 2.114941 -3.720839 5.06639e-7 2.11494 -5.920839 5.06639e-7 1.964941 1.229161 5.06639e-7 1.964941 2.879161 5.06639e-7 2.114941 3.029161 5.06639e-7 2.114941 1.229161 5.06639e-7 -2.285058 2.879161 3.5 -2.285058 2.879161 2.5 -2.285058 2.879161 2.875 -2.285058 2.879161 5.06639e-7 -2.285058 3.029161 3.5 -2.285058 3.029161 2.5 -2.285058 3.029161 2.875 -2.285058 3.029161 5.06639e-7</float_array>
          <technique_common>
            <accessor source="#Plane_009-mesh-positions-array" count="80" stride="3">
              <param name="X" type="float"/>
              <param name="Y" type="float"/>
              <param name="Z" type="float"/>
            </accessor>
          </technique_common>
        </source>
        <source id="Plane_009-mesh-normals">
          <float_array id="Plane_009-mesh-normals-array" count="246">0 0 1 1 -1.73395e-7 0 -1 0 1.90735e-7 -1 1.38716e-7 1.90735e-7 -1 0 1.62667e-7 -1 1.73395e-7 1.90735e-7 1 -4.23856e-7 0 0 -1 0 1 0 0 0 0 -1 -1 0 1.62667e-7 -9.34977e-7 0 -1 -1.16872e-6 0 -1 -1.58946e-6 0 -1 1 -7.47979e-7 0 -1 8.97576e-7 1.90735e-7 -1 0 1.96033e-7 -1 0 0 -1 2.80494e-7 0 1 -3.53212e-7 0 -1 1.44496e-7 0 -1 0 0 -1 1.92661e-7 0 1 -2.88992e-7 0 -1 -1.86993e-7 0 -1 0 1.90735e-7 -1 0 1.58946e-7 1 8.97578e-7 0 -1 1.73395e-7 0 -1 1.38716e-7 0 -1 0 1.43051e-7 1 -1.38716e-7 0 1 0 0 0 1 0 1 0 0 0 -1 0 1.98683e-7 1 0 0 -1 0 -1 0 1.90735e-7 -1 0 1.90735e-7 1 -1.38716e-7 0 -1 0 1.90735e-7 1.89651e-6 0 1 -1.08373e-6 0 1 -1 0 1.58946e-7 -1 8.66976e-7 1.33659e-7 -1 9.53674e-7 0 -1 2.80492e-7 0 1 -1.91373e-7 0 1 2.24394e-7 0 1 0 0 -1 1.44496e-7 0 -1 0 1.58946e-7 -1 0 1.58946e-7 -1 0 0 -1 2.31194e-7 0 1 -1.38716e-7 0 1 0 0 0 1 0 1 0 0 0 -1 0 0 1 0 0 -1 -3.17891e-7 0 -1 3.17891e-7 0 -1 1.79515e-7 0 -1 -1.79515e-7 0 1 1.73395e-7 0 1 -1.73395e-7 1.86995e-7 0 1 1.8062e-7 0 1 -1 0 0 -1 0 0 0 -1 0 0 -1 0 0 -1 0 0 -1 0 0 1 0 0 1 0 0 1 0 0 1 0 0 0 -1 0 0 -1</float_array>
          <technique_common>
            <accessor source="#Plane_009-mesh-normals-array" count="82" stride="3">
              <param name="X" type="float"/>
              <param name="Y" type="float"/>
              <param name="Z" type="float"/>
            </accessor>
          </technique_common>
        </source>
        <source id="Plane_009-mesh-map-0">
          <float_array id="Plane_009-mesh-map-0-array" count="936">0.5944393 0.3100001 0.5949397 0.308269 0.600444 0.308269 0.6041135 0.3100001 0.6041135 0.308269 0.6132873 0.308269 0.6169569 0.3100001 0.6169569 0.308269 0.624296 0.308269 0.7079815 0.5890634 0.7467968 0.589372 0.7467787 0.6275214 0.786666 0.6089655 0.8170774 0.6091539 0.8170554 0.6490264 0.837356 0.6092289 0.8881274 0.6092023 0.8881374 0.6491395 0.8170774 0.6091539 0.8249151 0.6012459 0.8238182 0.649077 0.9083931 0.6090238 0.9489285 0.6083424 0.9489866 0.6481826 0.8340477 0.5895074 0.8657804 0.5893867 0.865793 0.6275017 0.5372145 0.4695289 0.5372145 0.4583042 0.5507338 0.4583042 0.7661811 0.5894297 0.8146635 0.5895307 0.8146599 0.6276555 0.4338452 0.7660169 0.4430385 0.7660169 0.4430385 0.7772416 0.7467968 0.589372 0.754291 0.5818393 0.7532492 0.6275448 0.6157336 0.3100001 0.6157336 0.308269 0.6169569 0.308269 0.8881274 0.6092023 0.8959597 0.6013109 0.894914 0.6491038 0.6028903 0.3100001 0.6028903 0.308269 0.6041135 0.308269 0.8340477 0.5895074 0.8265545 0.5819295 0.8265358 0.5666606 0.4576393 0.763951 0.4484461 0.763951 0.4484461 0.7527263 0.4430384 0.763951 0.4338452 0.763951 0.4338452 0.7527263 0.4484461 0.763951 0.4430384 0.763951 0.4430384 0.7527263 0.8221486 0.5819756 0.8146635 0.5895307 0.8146767 0.5666436 0.1287433 0.9969769 0.103722 0.9969769 0.103722 0.9104238 0.600444 0.3100001 0.600444 0.308269 0.6016672 0.308269 0.6016672 0.3100001 0.6016672 0.308269 0.6028903 0.308269 0.8295226 0.6012994 0.837356 0.6092289 0.8373529 0.6491395 0.8249151 0.6012459 0.8295226 0.6012994 0.8305833 0.6491192 0.02669376 0.9164993 0.05020415 0.9164993 0.05020415 0.9978358 0.82953 0.5854475 0.8373426 0.5852566 0.837356 0.6092289 0.8275949 0.6276626 0.8211266 0.627671 0.8221486 0.5819756 0.8211266 0.627671 0.8146599 0.6276555 0.8146635 0.5895307 0.8340607 0.6276385 0.8275949 0.6276626 0.8265545 0.5819295 0.8959616 0.5854375 0.8959597 0.6013109 0.8881274 0.6092023 0.7542869 0.5666882 0.754291 0.5818393 0.7467968 0.589372 0.7661809 0.5665488 0.8146767 0.5666436 0.8146635 0.5895307 0.5291028 0.4695289 0.5291028 0.4583042 0.5372145 0.4583042 0.8340342 0.5666323 0.8657734 0.5665177 0.8657804 0.5893867 0.9083459 0.5850549 0.9488939 0.5844836 0.9489285 0.6083424 0.8170927 0.5852286 0.8249343 0.5852824 0.8249151 0.6012459 0.8373426 0.5852566 0.8881437 0.5852241 0.8881274 0.6092023 0.7866786 0.58506 0.8170927 0.5852286 0.8170774 0.6091539 0.7079961 0.5661716 0.7468215 0.5664687 0.7467968 0.589372 0.7661809 0.5665488 0.7661811 0.5894297 0.75869 0.5818104 0.1551049 0.9104238 0.1551049 0.9969769 0.1300857 0.9969769 0.9083459 0.5850549 0.9083931 0.6090238 0.9005613 0.601276 0.02370595 0.9191669 0.02370595 0.9970515 0.001195192 0.9970515 0.9005613 0.601276 0.9083931 0.6090238 0.9084488 0.6488907 0.8959597 0.6013109 0.9005613 0.601276 0.9016848 0.6490209 0.6132873 0.3100001 0.6132873 0.308269 0.6145105 0.308269 0.6145105 0.3100001 0.6145105 0.308269 0.6157336 0.308269 0.75869 0.5818104 0.7661811 0.5894297 0.7661787 0.6275494 0.754291 0.5818393 0.75869 0.5818104 0.7597156 0.6275498 0.4484461 0.7660169 0.4576393 0.7660169 0.4576393 0.7772416 0.4430385 0.7660169 0.4484461 0.7660169 0.4484461 0.7772416 0.9082529 0.4464426 0.9487704 0.4619137 0.9488939 0.5844836 0.837373 0.4466918 0.8880202 0.4465925 0.8881437 0.5852241 0.7867374 0.4623998 0.8171305 0.4466235 0.8170927 0.5852286 0.766211 0.4339629 0.8146535 0.4340317 0.8146767 0.5666436 0.7080695 0.4488549 0.7468448 0.4338917 0.7468215 0.5664687 0.3867979 0.7772415 0.3867979 0.7660168 0.4338452 0.7660169 0.8340221 0.4340031 0.8657422 0.4491525 0.8657734 0.5665177 0.5046866 0.7527263 0.5046866 0.763951 0.4576393 0.763951 0.3867979 0.763951 0.3867979 0.7527263 0.4338452 0.7527263 0.5046866 0.766017 0.5046866 0.7772417 0.4576393 0.7772416 0.5944393 0.3100001 0.600444 0.308269 0.600444 0.3100001 0.6041135 0.3100001 0.6132873 0.308269 0.6132873 0.3100001 0.6169569 0.3100001 0.624296 0.308269 0.624296 0.3100001 0.7079815 0.5890634 0.7467787 0.6275214 0.7079565 0.6272179 0.786666 0.6089655 0.8170554 0.6490264 0.786644 0.6488093 0.837356 0.6092289 0.8881374 0.6491395 0.8373529 0.6491395 0.8170774 0.6091539 0.8238182 0.649077 0.8170554 0.6490264 0.9083931 0.6090238 0.9489866 0.6481826 0.9084488 0.6488907 0.8340477 0.5895074 0.865793 0.6275017 0.8340607 0.6276385 0.5372145 0.4695289 0.5507338 0.4583042 0.5507338 0.4695289 0.7661811 0.5894297 0.8146599 0.6276555 0.7661787 0.6275494 0.4338452 0.7660169 0.4430385 0.7772416 0.4338452 0.7772416 0.7467968 0.589372 0.7532492 0.6275448 0.7467787 0.6275214 0.6157336 0.3100001 0.6169569 0.308269 0.6169569 0.3100001 0.8881274 0.6092023 0.894914 0.6491038 0.8881374 0.6491395 0.6028903 0.3100001 0.6041135 0.308269 0.6041135 0.3100001 0.8340477 0.5895074 0.8265358 0.5666606 0.8340342 0.5666323 0.4576393 0.763951 0.4484461 0.7527263 0.4576393 0.7527263 0.4430384 0.763951 0.4338452 0.7527263 0.4430384 0.7527263 0.4484461 0.763951 0.4430384 0.7527263 0.4484461 0.7527263 0.8221486 0.5819756 0.8146767 0.5666436 0.8221466 0.5668218 0.1287433 0.9969769 0.103722 0.9104238 0.1287433 0.9104238 0.600444 0.3100001 0.6016672 0.308269 0.6016672 0.3100001 0.6016672 0.3100001 0.6028903 0.308269 0.6028903 0.3100001 0.8295226 0.6012994 0.8373529 0.6491395 0.8305833 0.6491192 0.8249151 0.6012459 0.8305833 0.6491192 0.8238182 0.649077 0.02669376 0.9164993 0.05020415 0.9978358 0.02669376 0.9978358 0.82953 0.5854475 0.837356 0.6092289 0.8295226 0.6012994 0.8275949 0.6276626 0.8221486 0.5819756 0.8265545 0.5819295 0.8211266 0.627671 0.8146635 0.5895307 0.8221486 0.5819756 0.8340607 0.6276385 0.8265545 0.5819295 0.8340477 0.5895074 0.8959616 0.5854375 0.8881274 0.6092023 0.8881437 0.5852241 0.7542869 0.5666882 0.7467968 0.589372 0.7468215 0.5664687 0.7661809 0.5665488 0.8146635 0.5895307 0.7661811 0.5894297 0.5291028 0.4695289 0.5372145 0.4583042 0.5372145 0.4695289 0.8340342 0.5666323 0.8657804 0.5893867 0.8340477 0.5895074 0.9083459 0.5850549 0.9489285 0.6083424 0.9083931 0.6090238 0.8170927 0.5852286 0.8249151 0.6012459 0.8170774 0.6091539 0.8373426 0.5852566 0.8881274 0.6092023 0.837356 0.6092289 0.7866786 0.58506 0.8170774 0.6091539 0.786666 0.6089655 0.7079961 0.5661716 0.7467968 0.589372 0.7079815 0.5890634 0.7661809 0.5665488 0.75869 0.5818104 0.7586835 0.5665501 0.1551049 0.9104238 0.1300857 0.9969769 0.1300857 0.9104238 0.9083459 0.5850549 0.9005613 0.601276 0.9005333 0.5854656 0.02370595 0.9191669 0.001195192 0.9970515 0.001195192 0.9191669 0.9005613 0.601276 0.9084488 0.6488907 0.9016848 0.6490209 0.8959597 0.6013109 0.9016848 0.6490209 0.894914 0.6491038 0.6132873 0.3100001 0.6145105 0.308269 0.6145105 0.3100001 0.6145105 0.3100001 0.6157336 0.308269 0.6157336 0.3100001 0.75869 0.5818104 0.7661787 0.6275494 0.7597156 0.6275498 0.754291 0.5818393 0.7597156 0.6275498 0.7532492 0.6275448 0.4484461 0.7660169 0.4576393 0.7772416 0.4484461 0.7772416 0.4430385 0.7660169 0.4484461 0.7772416 0.4430385 0.7772416 0.9082529 0.4464426 0.9488939 0.5844836 0.9083459 0.5850549 0.837373 0.4466918 0.8881437 0.5852241 0.8373426 0.5852566 0.7867374 0.4623998 0.8170927 0.5852286 0.7866786 0.58506 0.766211 0.4339629 0.8146767 0.5666436 0.7661809 0.5665488 0.7080695 0.4488549 0.7468215 0.5664687 0.7079961 0.5661716 0.3867979 0.7772415 0.4338452 0.7660169 0.4338452 0.7772416 0.8340221 0.4340031 0.8657734 0.5665177 0.8340342 0.5666323 0.5046866 0.7527263 0.4576393 0.763951 0.4576393 0.7527263 0.3867979 0.763951 0.4338452 0.7527263 0.4338452 0.763951 0.5046866 0.766017 0.4576393 0.7772416 0.4576393 0.7660169 0.5291028 0.4695289 0.4874632 0.4695289 0.5291028 0.4583042 0.4874632 0.4583042 0.5291028 0.4583042 0.4874632 0.4695289 0.7083801 0.5845767 0.7084487 0.4619094 0.7866786 0.58506 0.7867374 0.4623998 0.7866786 0.58506 0.7084487 0.4619094 0.8657422 0.4491525 0.9433283 0.566236 0.8657734 0.5665177 0.9432899 0.4488661 0.9433283 0.566236 0.8657422 0.4491525 0.5949397 0.2592217 0.5949397 0.308269 0.5944393 0.2592217 0.5944393 0.3100001 0.5944393 0.2592217 0.5949397 0.308269 0.5291029 0.4562383 0.4874632 0.4562384 0.4874632 0.4450137 0.4874632 0.4450137 0.5291029 0.4450136 0.5291029 0.4562383 0.5291029 0.4562383 0.5291029 0.4450136 0.5372145 0.4562383 0.5372145 0.4450136 0.5372145 0.4562383 0.5291029 0.4450136 0.5507338 0.4562383 0.5372145 0.4562383 0.5372145 0.4450136 0.5507338 0.4450136 0.5507338 0.4562383 0.5372145 0.4450136 0.786666 0.6089655 0.7083801 0.5845767 0.7866786 0.58506 0.7083801 0.5845767 0.786666 0.6089655 0.7083674 0.6084766 0.786666 0.6089655 0.786644 0.6488093 0.7083674 0.6084766 0.7083674 0.6084766 0.786644 0.6488093 0.7083462 0.6483103 0.9433283 0.566236 0.9433353 0.5891023 0.8657734 0.5665177 0.8657734 0.5665177 0.9433353 0.5891023 0.8657804 0.5893867 0.9433353 0.5891023 0.9433472 0.6272127 0.8657804 0.5893867 0.8657804 0.5893867 0.9433472 0.6272127 0.865793 0.6275017 0.4874632 0.4583042 0.4874632 0.4695289 0.7468448 0.4338917 0.4874632 0.4695289 0.3867979 0.7660168 0.7468448 0.4338917 0.5046866 0.7772417 0.5046866 0.766017 0.8146535 0.4340317 0.5046866 0.766017 0.3867979 0.7527263 0.8146535 0.4340317 0.5046866 0.763951 0.5046866 0.7527263 0.8657422 0.4491525 0.5046866 0.7527263 0.7867374 0.4623998 0.8657422 0.4491525 0.8657422 0.4491525 0.7867374 0.4623998 0.9432899 0.4488661 0.7867374 0.4623998 0.4874632 0.4450137 0.9432899 0.4488661</float_array>
          <technique_common>
            <accessor source="#Plane_009-mesh-map-0-array" count="468" stride="2">
              <param name="S" type="float"/>
              <param name="T" type="float"/>
            </accessor>
          </technique_common>
        </source>
        <vertices id="Plane_009-mesh-vertices">
          <input semantic="POSITION" source="#Plane_009-mesh-positions"/>
        </vertices>
        <triangles material="Material_001-material" count="156">
          <input semantic="VERTEX" source="#Plane_009-mesh-vertices" offset="0"/>
          <input semantic="NORMAL" source="#Plane_009-mesh-normals" offset="1"/>
          <input semantic="TEXCOORD" source="#Plane_009-mesh-map-0" offset="2" set="0"/>
          <p>1 0 0 0 0 1 2 0 2 5 0 3 4 0 4 6 0 5 9 0 6 8 0 7 10 0 8 32 1 9 42 1 10 9 1 11 33 2 12 41 2 13 2 2 14 34 3 15 39 3 16 6 3 17 41 4 18 47 4 19 27 4 20 36 5 21 43 5 22 10 5 23 38 6 24 37 6 25 1 6 26 43 7 27 32 7 28 11 7 29 40 8 30 35 8 31 5 8 32 22 9 33 48 9 34 55 9 35 42 8 36 58 8 37 53 8 38 53 0 39 50 0 40 8 0 41 39 10 42 56 10 43 51 10 44 29 0 45 26 0 46 4 0 47 38 8 48 45 8 49 31 8 50 19 11 51 31 11 52 25 11 53 30 12 54 14 12 55 12 12 56 31 13 57 30 13 58 24 13 59 44 14 60 35 14 61 14 14 62 45 8 63 44 8 64 30 8 65 3 0 66 2 0 67 27 0 68 28 0 69 27 0 70 26 0 71 46 15 72 34 15 73 4 15 74 47 16 75 46 16 76 26 16 77 25 17 78 24 17 79 46 17 80 24 17 81 12 17 82 34 17 83 28 8 84 29 8 85 44 8 86 29 8 87 5 8 88 35 8 89 3 8 90 28 8 91 45 8 92 49 18 93 56 18 94 39 18 95 55 8 96 58 8 97 42 8 98 15 8 99 14 8 100 35 8 101 23 7 102 20 7 103 32 7 104 19 19 105 18 19 106 37 19 107 22 20 108 23 20 109 43 20 110 17 17 111 25 17 112 47 17 113 12 21 114 13 21 115 39 21 116 16 22 117 17 22 118 41 22 119 20 23 120 21 23 121 42 23 122 15 8 123 40 8 124 59 8 125 54 8 126 59 8 127 58 8 128 22 24 129 36 24 130 57 24 131 48 17 132 57 17 133 56 17 134 57 25 135 36 25 136 8 25 137 56 26 138 57 26 139 50 26 140 7 0 141 6 0 142 51 0 143 52 0 144 51 0 145 50 0 146 59 27 147 40 27 148 7 27 149 58 8 150 59 8 151 52 8 152 49 9 153 13 9 154 15 9 155 48 9 156 49 9 157 54 9 158 65 28 159 64 28 160 23 28 161 61 29 162 60 29 163 13 29 164 69 30 165 68 30 166 17 30 167 63 31 168 62 31 169 14 31 170 67 32 171 66 32 172 21 32 173 66 33 174 65 33 175 22 33 176 71 34 177 70 34 178 18 34 179 68 35 180 71 35 181 19 35 182 62 36 183 61 36 184 12 36 185 60 37 186 63 37 187 15 37 188 1 0 189 2 0 190 3 0 191 5 0 192 6 0 193 7 0 194 9 0 195 10 0 196 11 0 197 32 8 198 9 8 199 11 8 200 33 38 201 2 38 202 0 38 203 34 25 204 6 25 205 4 25 206 41 39 207 27 39 208 2 39 209 36 25 210 10 25 211 8 25 212 38 8 213 1 8 214 3 8 215 43 7 216 11 7 217 10 7 218 40 40 219 5 40 220 7 40 221 22 9 222 55 9 223 21 9 224 42 8 225 53 8 226 9 8 227 53 0 228 8 0 229 9 0 230 39 41 231 51 41 232 6 41 233 29 42 234 4 42 235 5 42 236 38 8 237 31 8 238 19 8 239 19 9 240 25 9 241 17 9 242 30 9 243 12 9 244 24 9 245 31 9 246 24 9 247 25 9 248 44 8 249 14 8 250 30 8 251 45 8 252 30 8 253 31 8 254 3 43 255 27 43 256 28 43 257 28 0 258 26 0 259 29 0 260 46 44 261 4 44 262 26 44 263 47 45 264 26 45 265 27 45 266 25 46 267 46 46 268 47 46 269 24 47 270 34 47 271 46 47 272 28 8 273 44 8 274 45 8 275 29 48 276 35 48 277 44 48 278 3 49 279 45 49 280 38 49 281 49 17 282 39 17 283 13 17 284 55 8 285 42 8 286 21 8 287 15 50 288 35 50 289 40 50 290 23 7 291 32 7 292 43 7 293 19 8 294 37 8 295 38 8 296 22 51 297 43 51 298 36 51 299 17 17 300 47 17 301 41 17 302 12 17 303 39 17 304 34 17 305 16 17 306 41 17 307 33 17 308 20 8 309 42 8 310 32 8 311 15 8 312 59 8 313 54 8 314 54 8 315 58 8 316 55 8 317 22 17 318 57 17 319 48 17 320 48 17 321 56 17 322 49 17 323 57 52 324 8 52 325 50 52 326 56 53 327 50 53 328 51 53 329 7 0 330 51 0 331 52 0 332 52 0 333 50 0 334 53 0 335 59 8 336 7 8 337 52 8 338 58 8 339 52 8 340 53 8 341 49 9 342 15 9 343 54 9 344 48 9 345 54 9 346 55 9 347 65 54 348 23 54 349 22 54 350 61 29 351 13 29 352 12 29 353 69 55 354 17 55 355 16 55 356 63 56 357 14 56 358 15 56 359 67 57 360 21 57 361 20 57 362 66 58 363 22 58 364 21 58 365 71 59 366 18 59 367 19 59 368 68 60 369 19 60 370 17 60 371 62 61 372 12 61 373 14 61 374 60 7 375 15 7 376 13 7 377 23 62 378 64 62 379 20 62 380 67 63 381 20 63 382 64 63 383 73 64 384 75 64 385 16 64 386 69 65 387 16 65 388 75 65 389 70 66 390 77 66 391 18 66 392 79 67 393 77 67 394 70 67 395 72 68 396 0 68 397 76 68 398 1 69 399 76 69 400 0 69 401 77 70 402 79 70 403 75 70 404 75 71 405 73 71 406 77 71 407 77 17 408 73 17 409 78 17 410 74 17 411 78 17 412 73 17 413 76 17 414 78 17 415 74 17 416 72 17 417 76 17 418 74 17 419 33 72 420 73 72 421 16 72 422 73 73 423 33 73 424 74 73 425 33 74 426 0 74 427 74 74 428 74 75 429 0 75 430 72 75 431 77 76 432 78 76 433 18 76 434 18 77 435 78 77 436 37 77 437 78 78 438 76 78 439 37 78 440 37 79 441 76 79 442 1 79 443 67 9 444 64 9 445 66 9 446 64 9 447 65 9 448 66 9 449 63 9 450 60 9 451 62 9 452 60 80 453 61 80 454 62 80 455 71 9 456 68 9 457 70 9 458 68 81 459 69 81 460 70 81 461 70 9 462 69 9 463 79 9 464 69 9 465 75 9 466 79 9 467</p>
        </triangles>
      </mesh>
    </geometry>
  </library_geometries>
  <library_visual_scenes>
    <visual_scene id="Scene" name="Scene">
      <node id="Plane_005" name="Plane.005" type="NODE">
        <matrix sid="transform">1 0 0 0 0 1 0 0 0 0 1 0 0 0 0 1</matrix>
        <instance_geometry url="#Plane_009-mesh" name="Plane.005">
          <bind_material>
            <technique_common>
              <instance_material symbol="Material_001-material" target="#Material_001-material">
                <bind_vertex_input semantic="Plane_009-mesh-map-0" input_semantic="TEXCOORD" input_set="0"/>
              </instance_material>
            </technique_common>
          </bind_material>
        </instance_geometry>
      </node>
    </visual_scene>
  </library_visual_scenes>
  <scene>
    <instance_visual_scene url="#Scene"/>
  </scene>
</COLLADA>