<?xml version="1.0" encoding="utf-8"?>
<COLLADA xmlns="http://www.collada.org/2005/11/COLLADASchema" version="1.4.1" xmlns:xsi="http://www.w3.org/2001/XMLSchema-instance">
  <asset>
    <contributor>
      <author>Blender User</author>
      <authoring_tool>Blender 4.5.2 LTS commit date:2025-08-19, commit time:15:00, hash:ab25eae04993</authoring_tool>
    </contributor>
    <created>2025-09-04T18:46:02</created>
    <modified>2025-09-04T18:46:02</modified>
    <unit name="meter" meter="1"/>
    <up_axis>Z_UP</up_axis>
  </asset>
  <library_effects>
    <effect id="Material_001-effect">
      <profile_COMMON>
        <newparam sid="textures_second1_png-surface">
          <surface type="2D">
            <init_from>textures_second1_png</init_from>
          </surface>
        </newparam>
        <newparam sid="textures_second1_png-sampler">
          <sampler2D>
            <source>textures_second1_png-surface</source>
          </sampler2D>
        </newparam>
        <technique sid="common">
          <lambert>
            <emission>
              <color sid="emission">0 0 0 1</color>
            </emission>
            <diffuse>
              <texture texture="textures_second1_png-sampler" texcoord="Plane_007-mesh-map-0"/>
            </diffuse>
            <index_of_refraction>
              <float sid="ior">1.5</float>
            </index_of_refraction>
          </lambert>
        </technique>
      </profile_COMMON>
    </effect>
  </library_effects>
  <library_images>
    <image id="textures_second1_png" name="textures_second1_png">
      <init_from>textures_second1.png</init_from>
    </image>
  </library_images>
  <library_materials>
    <material id="Material_001-material" name="Material.001">
      <instance_effect url="#Material_001-effect"/>
    </material>
  </library_materials>
  <library_geometries>
    <geometry id="Plane_001-mesh" name="Plane.001">
      <mesh>
        <source id="Plane_001-mesh-positions">
          <float_array id="Plane_001-mesh-positions-array" count="156">-0.6499996 -3.85 0 -0.4999996 -3.85 0 -0.6499996 -2.8 0 -0.4999996 -2.8 0 -0.6499996 -4.95 0 -0.4999996 -4.95 0 -0.4999996 -6 0 -0.6499996 -6 0 -0.6499996 -3.85 3 -0.4999996 -3.85 3 -0.6499996 -2.8 3 -0.4999996 -2.8 3 -0.6499996 -4.95 3 -0.4999996 -4.95 3 -0.4999996 -6 3 -0.6499996 -6 3 -0.4999996 -2.8 2 -0.4999996 -3.85 2 -0.6499996 -3.85 2 -0.6499996 -2.8 2 -0.6499996 -6 2 -0.6499996 -4.95 2 -0.4999996 -4.95 2 -0.4999996 -6 2 -0.6499996 -4.216667 3 -0.6499996 -4.583333 3 -0.4999996 -4.216667 3 -0.4999996 -4.583333 3 -0.6499996 -4.275002 2 -0.6499996 -4.524998 2 -0.4999996 -4.275002 2 -0.4999996 -4.524998 2 -0.6499996 -6 2.375 -0.4999996 -2.8 2.375 -0.6499996 -3.85 2.375 -0.4999996 -6 2.375 -0.4999996 -3.85 2.375 -0.6499996 -2.8 2.375 -0.6499996 -4.95 2.375 -0.4999996 -4.95 2.375 -0.6499996 -4.275002 2.25 -0.6499996 -4.524998 2.25 -0.4999996 -4.275002 2.25 -0.4999996 -4.524998 2.25 -0.4999996 -3.85 0.15 -0.4999996 -2.8 0.4 -0.6499996 -2.8 0.4 -0.6499996 -3.85 0.15 -0.4999996 -6 0.4 -0.4999996 -4.95 0.15 -0.6499996 -6 0.4 -0.6499996 -4.95 0.15</float_array>
          <technique_common>
            <accessor source="#Plane_001-mesh-positions-array" count="52" stride="3">
              <param name="X" type="float"/>
              <param name="Y" type="float"/>
              <param name="Z" type="float"/>
            </accessor>
          </technique_common>
        </source>
        <source id="Plane_001-mesh-normals">
          <float_array id="Plane_001-mesh-normals-array" count="33">0 0 -1 0 0 1 -1 0 0 1 0 0 1 0 0 0 -1 0 0 1 0 1 0 0 1 -1.40246e-7 0 1 0 0 1 0 0</float_array>
          <technique_common>
            <accessor source="#Plane_001-mesh-normals-array" count="11" stride="3">
              <param name="X" type="float"/>
              <param name="Y" type="float"/>
              <param name="Z" type="float"/>
            </accessor>
          </technique_common>
        </source>
        <source id="Plane_001-mesh-map-0">
          <float_array id="Plane_001-mesh-map-0-array" count="624">0.4741902 0.05519282 0.4395275 0.07231438 0.4395275 0.05519282 0.4338438 0.7614868 0.4387956 0.8813374 0.4338438 0.8813374 0.4338436 0.1736482 0.4387953 0.0537976 0.4387953 0.1736482 0.4387953 0.299206 0.4338436 0.4190566 0.4338436 0.299206 0.8915642 0.6029818 0.8633475 0.6612301 0.8633319 0.6030799 0.8436111 0.3804709 0.8337622 0.3222937 0.8451884 0.3107293 0.8915627 0.3221336 0.8633401 0.3804653 0.8633217 0.3222977 0.8337711 0.6031028 0.8055151 0.6611669 0.8055332 0.6030042 0.4338436 0.4903962 0.4387954 0.4190566 0.4387955 0.4903962 0.8337622 0.3222937 0.8055151 0.380359 0.80553 0.3222156 0.5525938 0.05519282 0.5732263 0.07231438 0.5525938 0.07231438 0.4925581 0.3228298 0.4996712 0.3829489 0.4925581 0.3829489 0.8633319 0.6030799 0.8534857 0.6612606 0.8519055 0.5915212 0.4387953 0.2573533 0.4338436 0.299206 0.4338436 0.2573534 0.4387953 0.1736482 0.4338436 0.2155007 0.4338436 0.1736482 0.4387953 0.2155008 0.4338436 0.2573534 0.4338436 0.2155007 0.8451907 0.5915834 0.8337587 0.6612659 0.8337711 0.6031028 0.8519055 0.5915212 0.8436242 0.6612791 0.8451907 0.5915834 0.4925581 0.443068 0.4996712 0.5031871 0.4925581 0.5031871 0.4925581 0.3829489 0.4996712 0.4430679 0.4925581 0.443068 0.8633401 0.3804653 0.8519032 0.310788 0.8633217 0.3222977 0.8534735 0.3804845 0.8451884 0.3107293 0.8519032 0.310788 0.04965239 0.9954997 0.02778327 0.9181244 0.04965239 0.9181244 0.8633217 0.3222977 0.8519082 0.2876927 0.8632915 0.2873787 0.02359992 0.9185501 0.00173074 0.995925 0.00173074 0.9185501 0.8451848 0.5684857 0.8337711 0.6031028 0.8338008 0.5681738 0.8633167 0.5681845 0.8519055 0.5915212 0.8518779 0.5682519 0.5402143 0.05519282 0.5525938 0.07231438 0.5402144 0.07231438 0.8337764 0.2873944 0.80553 0.3222156 0.8055381 0.2873321 0.4338436 0.5331999 0.4387955 0.4903962 0.4387955 0.5331999 0.8338008 0.5681738 0.8055332 0.6030042 0.8055458 0.5681318 0.8915455 0.2872345 0.8633217 0.3222977 0.8632915 0.2873787 0.8451884 0.3107293 0.8337764 0.2873944 0.8452155 0.28746 0.8915539 0.5681005 0.8633319 0.6030799 0.8633167 0.5681845 0.8915122 0.1385604 0.8632915 0.2873787 0.863311 0.1386201 0.487395 0.05519282 0.5402144 0.07231438 0.487395 0.07231438 0.8337852 0.4194231 0.8055458 0.5681318 0.8055731 0.4193898 0.5097302 0.240849 0.5026171 0.5031871 0.5026172 0.240849 0.833777 0.1386144 0.8055381 0.2873321 0.8055645 0.1385772 0.4338438 0.7158294 0.4387955 0.5331999 0.4387956 0.7158294 0.8915255 0.4193861 0.8633167 0.5681845 0.8633177 0.4194108 0.4996711 0.06049174 0.4925581 0.3228298 0.4925581 0.06049174 0.8337854 0.3822581 0.8055731 0.4193898 0.8055777 0.3822153 0.4741902 0.05519282 0.487395 0.07231438 0.4741902 0.07231438 0.8915053 0.1014012 0.863311 0.1386201 0.8633092 0.1014599 0.8915218 0.3822154 0.8633177 0.4194108 0.8633161 0.3822479 0.4338438 0.7614868 0.4387956 0.7158294 0.4387956 0.7614868 0.8337787 0.1014499 0.8055645 0.1385772 0.80557 0.1014013 0.833777 0.1386144 0.8633092 0.1014599 0.863311 0.1386201 0.5026172 0.240849 0.5097302 0.06049174 0.5097302 0.240849 0.8337854 0.3822581 0.8633177 0.4194108 0.8337852 0.4194231 0.8199988 0.614341 0.7871393 0.6298506 0.7871393 0.614341 0.4741902 0.05519282 0.4741902 0.07231438 0.4395275 0.07231438 0.4338438 0.7614868 0.4387956 0.7614868 0.4387956 0.8813374 0.4338436 0.1736482 0.4338434 0.0537976 0.4387953 0.0537976 0.4387953 0.299206 0.4387954 0.4190566 0.4338436 0.4190566 0.8915642 0.6029818 0.8915824 0.6611232 0.8633475 0.6612301 0.8436111 0.3804709 0.8337492 0.3804445 0.8337622 0.3222937 0.8915627 0.3221336 0.8915901 0.3803058 0.8633401 0.3804653 0.8337711 0.6031028 0.8337587 0.6612659 0.8055151 0.6611669 0.4338436 0.4903962 0.4338436 0.4190566 0.4387954 0.4190566 0.8337622 0.3222937 0.8337492 0.3804445 0.8055151 0.380359 0.5525938 0.05519282 0.5732263 0.05519282 0.5732263 0.07231438 0.4925581 0.3228298 0.4996711 0.3228297 0.4996712 0.3829489 0.8633319 0.6030799 0.8633475 0.6612301 0.8534857 0.6612606 0.4387953 0.2573533 0.4387953 0.299206 0.4338436 0.299206 0.4387953 0.1736482 0.4387953 0.2155008 0.4338436 0.2155007 0.4387953 0.2155008 0.4387953 0.2573533 0.4338436 0.2573534 0.8451907 0.5915834 0.8436242 0.6612791 0.8337587 0.6612659 0.8519055 0.5915212 0.8534857 0.6612606 0.8436242 0.6612791 0.4925581 0.443068 0.4996712 0.4430679 0.4996712 0.5031871 0.4925581 0.3829489 0.4996712 0.3829489 0.4996712 0.4430679 0.8633401 0.3804653 0.8534735 0.3804845 0.8519032 0.310788 0.8534735 0.3804845 0.8436111 0.3804709 0.8451884 0.3107293 0.04965239 0.9954997 0.02778327 0.9954997 0.02778327 0.9181244 0.8633217 0.3222977 0.8519032 0.310788 0.8519082 0.2876927 0.02359992 0.9185501 0.02359992 0.995925 0.00173074 0.995925 0.8451848 0.5684857 0.8451907 0.5915834 0.8337711 0.6031028 0.8633167 0.5681845 0.8633319 0.6030799 0.8519055 0.5915212 0.5402143 0.05519282 0.5525938 0.05519282 0.5525938 0.07231438 0.8337764 0.2873944 0.8337622 0.3222937 0.80553 0.3222156 0.4338436 0.5331999 0.4338436 0.4903962 0.4387955 0.4903962 0.8338008 0.5681738 0.8337711 0.6031028 0.8055332 0.6030042 0.8915455 0.2872345 0.8915627 0.3221336 0.8633217 0.3222977 0.8451884 0.3107293 0.8337622 0.3222937 0.8337764 0.2873944 0.8915539 0.5681005 0.8915642 0.6029818 0.8633319 0.6030799 0.8915122 0.1385604 0.8915455 0.2872345 0.8632915 0.2873787 0.487395 0.05519282 0.5402143 0.05519282 0.5402144 0.07231438 0.8337852 0.4194231 0.8338008 0.5681738 0.8055458 0.5681318 0.5097302 0.240849 0.5097302 0.5031871 0.5026171 0.5031871 0.833777 0.1386144 0.8337764 0.2873944 0.8055381 0.2873321 0.4338438 0.7158294 0.4338436 0.5331999 0.4387955 0.5331999 0.8915255 0.4193861 0.8915539 0.5681005 0.8633167 0.5681845 0.4996711 0.06049174 0.4996711 0.3228297 0.4925581 0.3228298 0.8337854 0.3822581 0.8337852 0.4194231 0.8055731 0.4193898 0.4741902 0.05519282 0.487395 0.05519282 0.487395 0.07231438 0.8915053 0.1014012 0.8915122 0.1385604 0.863311 0.1386201 0.8915218 0.3822154 0.8915255 0.4193861 0.8633177 0.4194108 0.4338438 0.7614868 0.4338438 0.7158294 0.4387956 0.7158294 0.8337787 0.1014499 0.833777 0.1386144 0.8055645 0.1385772 0.833777 0.1386144 0.8337787 0.1014499 0.8633092 0.1014599 0.5026172 0.240849 0.5026171 0.06049174 0.5097302 0.06049174 0.8337854 0.3822581 0.8633161 0.3822479 0.8633177 0.4194108 0.8199988 0.614341 0.8199988 0.6298506 0.7871393 0.6298506</float_array>
          <technique_common>
            <accessor source="#Plane_001-mesh-map-0-array" count="312" stride="2">
              <param name="S" type="float"/>
              <param name="T" type="float"/>
            </accessor>
          </technique_common>
        </source>
        <vertices id="Plane_001-mesh-vertices">
          <input semantic="POSITION" source="#Plane_001-mesh-positions"/>
        </vertices>
        <triangles material="Material_001-material" count="104">
          <input semantic="VERTEX" source="#Plane_001-mesh-vertices" offset="0"/>
          <input semantic="NORMAL" source="#Plane_001-mesh-normals" offset="1"/>
          <input semantic="TEXCOORD" source="#Plane_001-mesh-map-0" offset="2" set="0"/>
          <p>2 0 0 1 0 1 0 0 2 6 0 3 4 0 4 5 0 5 9 1 6 10 1 7 8 1 8 12 1 9 14 1 10 13 1 11 32 2 12 12 2 13 38 2 14 27 3 15 39 3 16 43 3 17 33 4 18 9 4 19 36 4 20 34 2 21 10 2 22 37 2 23 35 5 24 15 5 25 32 5 26 39 4 27 14 4 28 35 4 29 37 6 30 11 6 31 33 6 32 22 0 33 29 0 34 31 0 35 38 2 36 25 2 37 41 2 38 25 1 39 13 1 40 27 1 41 8 1 42 26 1 43 9 1 44 24 1 45 27 1 46 26 1 47 40 2 48 8 2 49 34 2 50 41 2 51 24 2 52 40 2 53 30 0 54 18 0 55 17 0 56 31 0 57 28 0 58 30 0 59 9 7 60 42 7 61 36 7 62 26 4 63 43 4 64 42 4 65 42 4 66 31 4 67 30 4 68 36 4 69 30 4 70 17 4 71 29 2 72 40 2 73 28 2 74 28 2 75 34 2 76 18 2 77 21 2 78 41 2 79 29 2 80 19 6 81 33 6 82 16 6 83 22 4 84 35 4 85 23 4 86 23 5 87 32 5 88 20 5 89 18 2 90 37 2 91 19 2 92 16 4 93 36 4 94 17 4 95 43 4 96 22 4 97 31 4 98 20 2 99 38 2 100 21 2 101 45 4 102 17 4 103 44 4 104 46 6 105 16 6 106 45 6 107 47 2 108 19 2 109 46 2 110 44 5 111 18 5 112 47 5 113 49 4 114 23 4 115 48 4 116 48 5 117 20 5 118 50 5 119 50 2 120 21 2 121 51 2 122 51 6 123 22 6 124 49 6 125 0 2 126 46 2 127 2 2 128 2 6 129 45 6 130 3 6 131 3 4 132 44 4 133 1 4 134 7 2 135 51 2 136 4 2 137 6 5 138 50 5 139 7 5 140 5 4 141 48 4 142 6 4 143 49 4 144 1 4 145 44 4 146 47 1 147 49 1 148 44 1 149 0 2 150 51 2 151 47 2 152 5 0 153 0 0 154 1 0 155 2 0 156 3 0 157 1 0 158 6 0 159 7 0 160 4 0 161 9 1 162 11 1 163 10 1 164 12 1 165 15 1 166 14 1 167 32 2 168 15 2 169 12 2 170 27 4 171 13 4 172 39 4 173 33 4 174 11 4 175 9 4 176 34 2 177 8 2 178 10 2 179 35 5 180 14 5 181 15 5 182 39 4 183 13 4 184 14 4 185 37 6 186 10 6 187 11 6 188 22 0 189 21 0 190 29 0 191 38 2 192 12 2 193 25 2 194 25 1 195 12 1 196 13 1 197 8 1 198 24 1 199 26 1 200 24 1 201 25 1 202 27 1 203 40 2 204 24 2 205 8 2 206 41 2 207 25 2 208 24 2 209 30 0 210 28 0 211 18 0 212 31 0 213 29 0 214 28 0 215 9 4 216 26 4 217 42 4 218 26 4 219 27 4 220 43 4 221 42 4 222 43 4 223 31 4 224 36 8 225 42 8 226 30 8 227 29 2 228 41 2 229 40 2 230 28 2 231 40 2 232 34 2 233 21 2 234 38 2 235 41 2 236 19 6 237 37 6 238 33 6 239 22 4 240 39 4 241 35 4 242 23 5 243 35 5 244 32 5 245 18 2 246 34 2 247 37 2 248 16 4 249 33 4 250 36 4 251 43 4 252 39 4 253 22 4 254 20 2 255 32 2 256 38 2 257 45 4 258 16 4 259 17 4 260 46 6 261 19 6 262 16 6 263 47 2 264 18 2 265 19 2 266 44 5 267 17 5 268 18 5 269 49 4 270 22 4 271 23 4 272 48 5 273 23 5 274 20 5 275 50 2 276 20 2 277 21 2 278 51 6 279 21 6 280 22 6 281 0 2 282 47 2 283 46 2 284 2 6 285 46 6 286 45 6 287 3 9 288 45 9 289 44 9 290 7 2 291 50 2 292 51 2 293 6 5 294 48 5 295 50 5 296 5 10 297 49 10 298 48 10 299 49 4 300 5 4 301 1 4 302 47 1 303 51 1 304 49 1 305 0 2 306 4 2 307 51 2 308 5 0 309 4 0 310 0 0 311</p>
        </triangles>
      </mesh>
    </geometry>
  </library_geometries>
  <library_visual_scenes>
    <visual_scene id="Scene" name="Scene">
      <node id="Plane_004" name="Plane.004" type="NODE">
        <matrix sid="transform">1 0 0 0 0 1 0 0 0 0 1 0 0 0 0 1</matrix>
        <instance_geometry url="#Plane_001-mesh" name="Plane.004">
          <bind_material>
            <technique_common>
              <instance_material symbol="Material_001-material" target="#Material_001-material">
                <bind_vertex_input semantic="Plane_007-mesh-map-0" input_semantic="TEXCOORD" input_set="0"/>
              </instance_material>
            </technique_common>
          </bind_material>
        </instance_geometry>
      </node>
    </visual_scene>
  </library_visual_scenes>
  <scene>
    <instance_visual_scene url="#Scene"/>
  </scene>
</COLLADA>