<?xml version="1.0" encoding="utf-8"?>
<COLLADA xmlns="http://www.collada.org/2005/11/COLLADASchema" version="1.4.1" xmlns:xsi="http://www.w3.org/2001/XMLSchema-instance">
  <asset>
    <contributor>
      <author>Blender User</author>
      <authoring_tool>Blender 4.5.2 LTS commit date:2025-08-19, commit time:15:00, hash:ab25eae04993</authoring_tool>
    </contributor>
    <created>2026-09-05T22:29:35</created>
    <modified>2026-09-05T22:29:35</modified>
    <unit name="meter" meter="1"/>
    <up_axis>Z_UP</up_axis>
  </asset>
  <library_effects>
    <effect id="Material_002-effect">
      <profile_COMMON>
        <newparam sid="photo_2026-08-29_00-38-51_jpg-surface">
          <surface type="2D">
            <init_from>photo_2026-08-29_00-38-51_jpg</init_from>
          </surface>
        </newparam>
        <newparam sid="photo_2026-08-29_00-38-51_jpg-sampler">
          <sampler2D>
            <source>photo_2026-08-29_00-38-51_jpg-surface</source>
          </sampler2D>
        </newparam>
        <technique sid="common">
          <lambert>
            <emission>
              <color sid="emission">0 0 0 1</color>
            </emission>
            <diffuse>
              <texture texture="photo_2026-08-29_00-38-51_jpg-sampler" texcoord="Plane_002-mesh-map-0"/>
            </diffuse>
            <index_of_refraction>
              <float sid="ior">1.45</float>
            </index_of_refraction>
          </lambert>
        </technique>
      </profile_COMMON>
    </effect>
  </library_effects>
  <library_images>
    <image id="photo_2026-08-29_00-38-51_jpg" name="photo_2026-08-29_00-38-51_jpg">
      <init_from>map.png</init_from>
    </image>
  </library_images>
  <library_materials>
    <material id="Material_002-material" name="Material.002">
      <instance_effect url="#Material_002-effect"/>
    </material>
  </library_materials>
  <library_geometries>
    <geometry id="Plane_002-mesh" name="Plane.002">
      <mesh>
        <source id="Plane_002-mesh-positions">
          <float_array id="Plane_002-mesh-positions-array" count="156">-2.435058 6.079165 3.5 -2.285057 6.079165 3.5 -2.435058 4.979166 3.5 -2.285057 4.979166 3.5 -2.435059 3.879165 3.5 -2.285058 3.879165 3.5 -2.435059 1.679164 3.5 -2.285058 1.679164 3.5 -2.435059 0.5791654 3.5 -2.285059 0.5791654 3.5 -2.435059 -1.070835 3.5 -2.285059 -1.070835 3.5 -2.435059 3.879165 2.5 -2.285058 3.879165 2.5 -2.285058 1.679164 2.5 -2.285057 6.079165 2.5 -2.285059 -1.070835 2.5 -2.285059 0.5791654 2.5 -2.435059 4.245832 3.5 -2.435059 4.612499 3.5 -2.285058 4.612499 3.5 -2.285058 4.245832 3.5 -2.285059 0.9458322 2.5 -2.285059 1.312499 2.5 -2.435059 1.312499 2.5 -2.435059 0.9458322 2.5 -2.285058 4.245832 2.5 -2.285058 4.612499 2.5 -2.435059 4.612499 2.5 -2.435059 4.245832 2.5 -2.435059 -1.070835 2.5 -2.435059 0.5791654 2.5 -2.435059 1.679164 2.5 -2.435059 0.9458322 3.5 -2.435059 1.312499 3.5 -2.285059 1.312499 3.5 -2.285059 0.9458322 3.5 -2.285058 4.979166 2.5 -2.435059 4.979166 2.5 -2.435059 6.079165 2.5 -2.435059 1.679164 1.78814e-7 -2.435059 3.879165 1.78814e-7 -2.285058 3.879165 1.19209e-7 -2.285059 1.679164 1.19209e-7 -2.435059 -1.070835 0 -2.435059 0.5791654 1.78814e-7 -2.285059 0.5791654 1.19209e-7 -2.285059 -1.070835 0 -2.435059 4.979166 1.78814e-7 -2.435059 6.079165 1.78814e-7 -2.285058 6.079165 1.19209e-7 -2.285058 4.979166 1.19209e-7</float_array>
          <technique_common>
            <accessor source="#Plane_002-mesh-positions-array" count="52" stride="3">
              <param name="X" type="float"/>
              <param name="Y" type="float"/>
              <param name="Z" type="float"/>
            </accessor>
          </technique_common>
        </source>
        <source id="Plane_002-mesh-normals">
          <float_array id="Plane_002-mesh-normals-array" count="207">0 0 1 -1 0 0 1 0 -4.76838e-7 -1 0 4.76837e-7 1 -4.33488e-7 0 1 -1.30046e-6 -4.76838e-7 1 0 0 -1 0 4.76837e-7 -1 0 4.76837e-7 1 0 -4.76837e-7 -4.3349e-6 0 1 -4.33487e-6 0 1 -1 2.31194e-7 0 -1 0 0 -1 0 0 1 -5.20186e-7 0 1 0 0 0 1 0 1 0 0 0 1 0 0 -1 0 0 1 -1.64241e-7 -7.94727e-7 -1 0 -3.25116e-6 0 1 -4.33488e-6 0 1 -7.94728e-7 -1 0 1 0 -4.76837e-7 1 0 -4.76837e-7 -1 0 4.76837e-7 -1 1.30047e-6 4.76837e-7 2.16745e-6 0 1 -1 0 0 -1 3.46791e-7 0 -1 0 0 1 -5.20186e-7 0 0 1 0 1 0 0 0 1 0 0 -1 0 0 1 3.17888e-7 -7.94727e-7 -1 0 -7.94725e-7 -1 0 -7.94731e-7 -1 0 0 0 -1 0 0 -1 -3.97364e-7 0 -1 -3.97364e-7 0 -1 -3.97364e-7 0 -1 -3.97361e-7 0 -1 -3.97362e-7 0 -1 -3.97361e-7 0 -1 -1 2.16744e-7 4.76837e-7 1 -2.60094e-6 0 -1 0 4.76837e-7 1 -4.33488e-7 0 1 0 -4.76836e-7 1 1.30046e-6 -4.76837e-7 -1 1.30046e-6 4.76838e-7 -1 0 4.76837e-7 1 0 -4.76837e-7 -1 -1.30046e-6 0 -7.94726e-7 -1 0 1 -4.33489e-7 0 1 0 -4.76837e-7 -1 0 4.76837e-7 -1 0 4.76837e-7 -1 0 4.76837e-7 0 0 -1 0 1 -5.03312e-7</float_array>
          <technique_common>
            <accessor source="#Plane_002-mesh-normals-array" count="69" stride="3">
              <param name="X" type="float"/>
              <param name="Y" type="float"/>
              <param name="Z" type="float"/>
            </accessor>
          </technique_common>
        </source>
        <source id="Plane_002-mesh-map-0">
          <float_array id="Plane_002-mesh-map-0-array" count="600">0.4562792 0.370588 0.4543047 0.370588 0.4543047 0.3204973 0.4562792 0.2704065 0.4543047 0.2704065 0.4543047 0.1702248 0.4562791 0.1201341 0.4543047 0.1201341 0.4543047 0.04499787 0.7720357 0.7078282 0.8107009 0.7686284 0.7720357 0.7686284 0.7752578 0.4950273 0.7817021 0.5558275 0.7752578 0.5558275 0.4562791 0.136831 0.4543047 0.136831 0.4543047 0.1201341 0.4562792 0.2871034 0.4543047 0.2871034 0.4543047 0.2704065 0.7591473 0.7078282 0.7655915 0.7686284 0.7591474 0.7686284 0.4562792 0.3204973 0.4543047 0.3204973 0.4543047 0.3038004 0.4562792 0.3038004 0.4543047 0.3038004 0.4543047 0.2871034 0.7817021 0.4950273 0.8203673 0.5558275 0.7817021 0.5558275 0.8332556 0.4950273 0.8396997 0.5558275 0.8332556 0.5558275 0.8203671 0.4950273 0.8268114 0.5558275 0.8203673 0.5558275 0.7527032 0.7078282 0.7591474 0.7686284 0.7527032 0.7686284 0.7333706 0.7078281 0.7527032 0.7686284 0.7333706 0.7686284 0.8268114 0.4950273 0.8332556 0.5558275 0.8268114 0.5558275 0.4562791 0.1702248 0.4543047 0.1702248 0.4543047 0.1535279 0.4562791 0.1535279 0.4543047 0.1535279 0.4543047 0.136831 0.7655915 0.7078281 0.7720357 0.7686284 0.7655915 0.7686284 0.8300335 0.5558275 0.8590324 0.5558275 0.8590324 0.7078282 0.7720357 0.5558275 0.8107009 0.5558276 0.8107009 0.7078282 0.7333706 0.5558275 0.7527032 0.5558276 0.7527032 0.7078282 0.7817021 0.3430266 0.8203671 0.3430266 0.8203671 0.4950273 0.7333706 0.3430266 0.7623693 0.3430266 0.7623693 0.4950273 0.4582537 0.4229556 0.4562792 0.4229556 0.4562792 0.309113 0.8396997 0.3430266 0.8590323 0.3430266 0.8590324 0.4950273 0.4562792 0.5299679 0.4543047 0.5299679 0.4543047 0.4161251 0.4543047 0.5800587 0.4562792 0.5800587 0.4562792 0.6939014 0.4562791 0.8578351 0.4543047 0.8578348 0.4543047 0.7439922 0.4562792 0.1451795 0.4582537 0.1451795 0.4582537 0.2590222 0.4562792 0.370588 0.4543047 0.3204973 0.4562792 0.3204973 0.4562792 0.2704065 0.4543047 0.1702248 0.4562791 0.1702248 0.4562791 0.1201341 0.4543047 0.04499787 0.4562791 0.04499787 0.7623693 0.4950273 0.7688137 0.5558275 0.7623693 0.5558275 0.5503951 0.2795138 0.5523697 0.2339767 0.5523697 0.2795138 0.8396997 0.4950273 0.8590324 0.5558275 0.8396997 0.5558275 0.7688137 0.4950273 0.7752578 0.5558275 0.7688137 0.5558275 0.4562791 0.136831 0.4543047 0.1201341 0.4562791 0.1201341 0.4562792 0.2871034 0.4543047 0.2704065 0.4562792 0.2704065 0.8300335 0.7078281 0.8590324 0.7686285 0.8300335 0.7686284 0.8235892 0.7078281 0.8300335 0.7686284 0.8235892 0.7686284 0.4562792 0.3204973 0.4543047 0.3038004 0.4562792 0.3038004 0.4562792 0.3038004 0.4543047 0.2871034 0.4562792 0.2871034 0.7333707 0.4950273 0.7623693 0.5558275 0.7333707 0.5558275 0.8107009 0.7078282 0.8171451 0.7686284 0.8107009 0.7686284 0.8171451 0.7078281 0.8235892 0.7686284 0.8171451 0.7686284 0.4562791 0.1702248 0.4543047 0.1535279 0.4562791 0.1535279 0.4562791 0.1535279 0.4543047 0.136831 0.4562791 0.136831 0.8300335 0.5558275 0.8590324 0.7078282 0.8300335 0.7078281 0.7720357 0.5558275 0.8107009 0.7078282 0.7720357 0.7078282 0.7333706 0.5558275 0.7527032 0.7078282 0.7333706 0.7078281 0.7817021 0.3430266 0.8203671 0.4950273 0.7817021 0.4950273 0.7333706 0.3430266 0.7623693 0.4950273 0.7333707 0.4950273 0.4582537 0.4229556 0.4562792 0.309113 0.4582537 0.309113 0.8396997 0.3430266 0.8590324 0.4950273 0.8396997 0.4950273 0.4562792 0.5299679 0.4543047 0.4161251 0.4562792 0.4161252 0.4543047 0.5800587 0.4562792 0.6939014 0.4543047 0.6939014 0.4562791 0.8578351 0.4543047 0.7439922 0.4562792 0.7439922 0.4562792 0.1451795 0.4582537 0.2590222 0.4562792 0.2590222 0.5503951 0.2339767 0.5503951 0.1201341 0.5523697 0.2339767 0.5523697 0.1201341 0.5523697 0.2339767 0.5503951 0.1201341 0.4562792 0.7272953 0.4543047 0.7439922 0.4543047 0.7272953 0.4562792 0.7272953 0.4543047 0.7105984 0.4562792 0.7105984 0.4543047 0.6939014 0.4562792 0.7105984 0.4543047 0.7105984 0.4562792 0.2590222 0.4582537 0.2757191 0.4562792 0.2757191 0.4562792 0.292416 0.4582537 0.2757191 0.4582537 0.292416 0.4582537 0.292416 0.4562792 0.309113 0.4562792 0.292416 0.4562792 0.4161252 0.4543047 0.370588 0.4562792 0.370588 0.5503951 0.04499787 0.5523697 0.1201341 0.5503951 0.1201341 0.5523696 0.04499787 0.5523697 0.1201341 0.5503951 0.04499787 0.4562792 0.04499793 0.4582537 0.1451795 0.4562792 0.1451795 0.4582537 0.04499793 0.4582537 0.1451795 0.4562792 0.04499793 0.4543047 0.5299679 0.4562792 0.5800587 0.4543047 0.5800587 0.4562792 0.5299679 0.4562792 0.5800587 0.4543047 0.5299679 0.7720357 0.7078282 0.8107009 0.7078282 0.8107009 0.7686284 0.7752578 0.4950273 0.7817021 0.4950273 0.7817021 0.5558275 0.7591473 0.7078282 0.7655915 0.7078281 0.7655915 0.7686284 0.7817021 0.4950273 0.8203671 0.4950273 0.8203673 0.5558275 0.8332556 0.4950273 0.8396997 0.4950273 0.8396997 0.5558275 0.8203671 0.4950273 0.8268114 0.4950273 0.8268114 0.5558275 0.7527032 0.7078282 0.7591473 0.7078282 0.7591474 0.7686284 0.7333706 0.7078281 0.7527032 0.7078282 0.7527032 0.7686284 0.8268114 0.4950273 0.8332556 0.4950273 0.8332556 0.5558275 0.7655915 0.7078281 0.7720357 0.7078282 0.7720357 0.7686284 0.7623693 0.4950273 0.7688137 0.4950273 0.7688137 0.5558275 0.5503951 0.2795138 0.5503951 0.2339767 0.5523697 0.2339767 0.8396997 0.4950273 0.8590324 0.4950273 0.8590324 0.5558275 0.7688137 0.4950273 0.7752578 0.4950273 0.7752578 0.5558275 0.8300335 0.7078281 0.8590324 0.7078282 0.8590324 0.7686285 0.8235892 0.7078281 0.8300335 0.7078281 0.8300335 0.7686284 0.7333707 0.4950273 0.7623693 0.4950273 0.7623693 0.5558275 0.8107009 0.7078282 0.8171451 0.7078281 0.8171451 0.7686284 0.8171451 0.7078281 0.8235892 0.7078281 0.8235892 0.7686284 0.4562792 0.7272953 0.4562792 0.7439922 0.4543047 0.7439922 0.4562792 0.7272953 0.4543047 0.7272953 0.4543047 0.7105984 0.4543047 0.6939014 0.4562792 0.6939014 0.4562792 0.7105984 0.4562792 0.2590222 0.4582537 0.2590222 0.4582537 0.2757191 0.4562792 0.292416 0.4562792 0.2757191 0.4582537 0.2757191 0.4582537 0.292416 0.4582537 0.309113 0.4562792 0.309113 0.4562792 0.4161252 0.4543047 0.4161251 0.4543047 0.370588</float_array>
          <technique_common>
            <accessor source="#Plane_002-mesh-map-0-array" count="300" stride="2">
              <param name="S" type="float"/>
              <param name="T" type="float"/>
            </accessor>
          </technique_common>
        </source>
        <vertices id="Plane_002-mesh-vertices">
          <input semantic="POSITION" source="#Plane_002-mesh-positions"/>
        </vertices>
        <triangles material="Material_002-material" count="100">
          <input semantic="VERTEX" source="#Plane_002-mesh-vertices" offset="0"/>
          <input semantic="NORMAL" source="#Plane_002-mesh-normals" offset="1"/>
          <input semantic="TEXCOORD" source="#Plane_002-mesh-map-0" offset="2" set="0"/>
          <p>1 0 0 0 0 1 2 0 2 5 0 3 4 0 4 6 0 5 9 0 6 8 0 7 10 0 8 12 1 9 6 1 10 4 1 11 23 2 12 7 2 13 35 2 14 36 0 15 33 0 16 8 0 17 21 0 18 18 0 19 4 0 20 28 3 21 18 3 22 19 3 23 3 0 24 2 0 25 19 0 26 20 0 27 19 0 28 18 0 29 14 4 30 5 4 31 7 4 32 27 5 33 3 5 34 20 5 35 13 6 36 21 6 37 5 6 38 38 7 39 19 7 40 2 7 41 39 8 42 2 8 43 0 8 44 26 9 45 20 9 46 21 9 47 7 10 48 6 10 49 34 10 50 35 11 51 34 11 52 33 11 53 29 3 54 4 3 55 18 3 56 45 12 57 44 12 58 30 12 59 41 13 60 40 13 61 32 13 62 49 14 63 48 14 64 38 14 65 43 15 66 42 15 67 13 15 68 47 16 69 46 16 70 17 16 71 46 17 72 45 17 73 31 17 74 51 18 75 50 18 76 15 18 77 50 19 78 49 19 79 39 19 80 48 20 81 51 20 82 37 20 83 42 21 84 41 21 85 12 21 86 40 22 87 43 22 88 14 22 89 1 0 90 2 0 91 3 0 92 5 23 93 6 23 94 7 23 95 9 24 96 10 24 97 11 24 98 17 6 99 36 6 100 9 6 101 10 25 102 16 25 103 11 25 104 37 26 105 1 26 106 3 26 107 22 27 108 35 27 109 36 27 110 36 0 111 8 0 112 9 0 113 21 0 114 4 0 115 5 0 116 31 28 117 10 28 118 8 28 119 25 3 120 8 3 121 33 3 122 3 0 123 19 0 124 20 0 125 20 0 126 18 0 127 21 0 128 16 6 129 9 6 130 11 6 131 32 29 132 34 29 133 6 29 134 24 3 135 33 3 136 34 3 137 7 30 138 34 30 139 35 30 140 35 0 141 33 0 142 36 0 143 45 31 144 30 31 145 31 31 146 41 32 147 32 32 148 12 32 149 49 33 150 38 33 151 39 33 152 43 34 153 13 34 154 14 34 155 47 16 156 17 16 157 16 16 158 46 35 159 31 35 160 17 35 161 51 36 162 15 36 163 37 36 164 50 37 165 39 37 166 15 37 167 48 38 168 37 38 169 38 38 170 42 39 171 12 39 172 13 39 173 40 40 174 14 40 175 32 40 176 30 41 177 44 41 178 16 41 179 47 42 180 16 42 181 44 42 182 26 43 183 12 43 184 29 43 185 26 43 186 28 43 187 27 43 188 38 43 189 27 43 190 28 43 191 32 44 192 23 44 193 24 44 194 25 43 195 23 43 196 22 43 197 22 43 198 31 43 199 25 43 200 15 37 201 0 37 202 1 37 203 45 45 204 47 45 205 44 45 206 46 46 207 47 46 208 45 46 209 41 47 210 43 47 211 40 47 212 42 48 213 43 48 214 41 48 215 49 49 216 51 49 217 48 49 218 50 50 219 51 50 220 49 50 221 12 51 222 32 51 223 6 51 224 23 52 225 14 52 226 7 52 227 28 53 228 29 53 229 18 53 230 14 54 231 13 54 232 5 54 233 27 55 234 37 55 235 3 55 236 13 56 237 26 56 238 21 56 239 38 57 240 28 57 241 19 57 242 39 58 243 38 58 244 2 58 245 26 59 246 27 59 247 20 59 248 29 60 249 12 60 250 4 60 251 17 56 252 22 56 253 36 56 254 10 61 255 30 61 256 16 61 257 37 62 258 15 62 259 1 62 260 22 63 261 23 63 262 35 63 263 31 64 264 30 64 265 10 64 266 25 53 267 31 53 268 8 53 269 16 6 270 17 6 271 9 6 272 32 65 273 24 65 274 34 65 275 24 66 276 25 66 277 33 66 278 26 43 279 13 43 280 12 43 281 26 43 282 29 43 283 28 43 284 38 43 285 37 43 286 27 43 287 32 43 288 14 43 289 23 43 290 25 67 291 24 67 292 23 67 293 22 43 294 17 43 295 31 43 296 15 68 297 39 68 298 0 68 299</p>
        </triangles>
      </mesh>
    </geometry>
  </library_geometries>
  <library_visual_scenes>
    <visual_scene id="Scene" name="Scene">
      <node id="Plane_007" name="Plane.007" type="NODE">
        <matrix sid="transform">1 0 0 0 0 1 0 0 0 0 1 0 0 0 0 1</matrix>
        <instance_geometry url="#Plane_002-mesh" name="Plane.007">
          <bind_material>
            <technique_common>
              <instance_material symbol="Material_002-material" target="#Material_002-material">
                <bind_vertex_input semantic="Plane_002-mesh-map-0" input_semantic="TEXCOORD" input_set="0"/>
              </instance_material>
            </technique_common>
          </bind_material>
        </instance_geometry>
      </node>
    </visual_scene>
  </library_visual_scenes>
  <scene>
    <instance_visual_scene url="#Scene"/>
  </scene>
</COLLADA>