<?xml version="1.0" encoding="utf-8"?>
<COLLADA xmlns="http://www.collada.org/2005/11/COLLADASchema" version="1.4.1" xmlns:xsi="http://www.w3.org/2001/XMLSchema-instance">
  <asset>
    <contributor>
      <author>Blender User</author>
      <authoring_tool>Blender 4.5.2 LTS commit date:2025-08-19, commit time:15:00, hash:ab25eae04993</authoring_tool>
    </contributor>
    <created>2025-09-04T18:47:15</created>
    <modified>2025-09-04T18:47:15</modified>
    <unit name="meter" meter="1"/>
    <up_axis>Z_UP</up_axis>
  </asset>
  <library_effects>
    <effect id="Material_001-effect">
      <profile_COMMON>
        <newparam sid="textures_second1_png-surface">
          <surface type="2D">
            <init_from>textures_second1_png</init_from>
          </surface>
        </newparam>
        <newparam sid="textures_second1_png-sampler">
          <sampler2D>
            <source>textures_second1_png-surface</source>
          </sampler2D>
        </newparam>
        <technique sid="common">
          <lambert>
            <emission>
              <color sid="emission">0 0 0 1</color>
            </emission>
            <diffuse>
              <texture texture="textures_second1_png-sampler" texcoord="Plane_009-mesh-map-0"/>
            </diffuse>
            <index_of_refraction>
              <float sid="ior">1.5</float>
            </index_of_refraction>
          </lambert>
        </technique>
      </profile_COMMON>
    </effect>
  </library_effects>
  <library_images>
    <image id="textures_second1_png" name="textures_second1_png">
      <init_from>textures_second1.png</init_from>
    </image>
  </library_images>
  <library_materials>
    <material id="Material_001-material" name="Material.001">
      <instance_effect url="#Material_001-effect"/>
    </material>
  </library_materials>
  <library_geometries>
    <geometry id="Plane_009-mesh" name="Plane.009">
      <mesh>
        <source id="Plane_009-mesh-positions">
          <float_array id="Plane_009-mesh-positions-array" count="252">-1.85 1.3 0 -1.85 1.15 0 -0.2000005 1.3 0 -0.2000005 1.15 0 0.8999996 1.3 0 0.8999996 1.15 0 5.3 1.3 0 5.3 1.15 0 6.4 1.3 0 6.4 1.15 0 7.5 1.3 0 7.5 1.15 0 -1.85 1.3 3 -1.85 1.15 3 -0.2000005 1.3 3 -0.2000005 1.15 3 0.8999996 1.3 3 0.8999996 1.15 3 5.3 1.3 3 5.3 1.15 3 6.4 1.3 3 6.4 1.15 3 7.5 1.3 3 7.5 1.15 3 0.8999996 1.3 2 5.3 1.3 2 0.8999996 1.15 2 5.3 1.15 2 -1.85 1.3 2 -0.2000005 1.3 2 -1.85 1.15 2 -0.2000005 1.15 2 7.5 1.15 2 6.4 1.15 2 6.4 1.3 2 7.5 1.3 2 0.4749994 1.3 2 0.2249996 1.3 2 0.5333328 1.3 3 0.1666662 1.3 3 0.1666662 1.15 3 0.5333328 1.15 3 0.4749994 1.15 2 0.2249996 1.15 2 7.5 1.15 2.375 -1.85 1.3 2.375 0.8999996 1.3 2.375 0.8999996 1.15 2.375 6.4 1.3 2.375 -1.85 1.15 2.375 -0.2000005 1.15 2.375 5.3 1.3 2.375 5.3 1.15 2.375 -0.2000005 1.3 2.375 6.4 1.15 2.375 7.5 1.3 2.375 0.4749994 1.15 2.25 0.2249996 1.15 2.25 0.4749994 1.3 2.25 0.2249996 1.3 2.25 5.974997 1.3 2 5.725001 1.3 2 6.033333 1.3 3 5.666666 1.3 3 5.666666 1.15 3 6.033333 1.15 3 5.725001 1.15 2 5.974997 1.15 2 5.725001 1.3 2.25 5.974997 1.3 2.25 5.974997 1.15 2.25 5.725001 1.15 2.25 5.3 1.3 0.15 0.8999996 1.3 0.15 0.8999996 1.15 0.15 5.3 1.15 0.15 7.5 1.3 0.4 6.4 1.3 0.15 6.4 1.15 0.15 7.5 1.15 0.4 -0.2000005 1.3 0.15 -1.85 1.3 0.4 -1.85 1.15 0.4 -0.2000005 1.15 0.15</float_array>
          <technique_common>
            <accessor source="#Plane_009-mesh-positions-array" count="84" stride="3">
              <param name="X" type="float"/>
              <param name="Y" type="float"/>
              <param name="Z" type="float"/>
            </accessor>
          </technique_common>
        </source>
        <source id="Plane_009-mesh-normals">
          <float_array id="Plane_009-mesh-normals-array" count="51">0 0 -1 0 0 1 0 -1 0 0 1 0 0 1 -2.39216e-7 -1 0 0 1 0 0 0 -1 0 0 1 0 0 1 2.38419e-7 0 -1 -3.79302e-7 0 -1 2.7093e-7 0 1 1.58948e-7 0 -1 0 0 1 -2.16744e-7 0 -1 3.17892e-7 0 1 4.33487e-7</float_array>
          <technique_common>
            <accessor source="#Plane_009-mesh-normals-array" count="17" stride="3">
              <param name="X" type="float"/>
              <param name="Y" type="float"/>
              <param name="Z" type="float"/>
            </accessor>
          </technique_common>
        </source>
        <source id="Plane_009-mesh-map-0">
          <float_array id="Plane_009-mesh-map-0-array" count="1032">0.4326432 0.0518592 0.435261 0.1514247 0.4326432 0.1514247 0.5456534 0.4380528 0.5430355 0.1725447 0.5456534 0.1725447 0.5575897 0.0518592 0.5602074 0.1182364 0.5575897 0.1182364 0.435261 0.3324529 0.4326432 0.4320184 0.4326432 0.3324529 0.435261 0.4983954 0.4326432 0.7639035 0.4326432 0.4983954 0.435261 0.8302804 0.4326432 0.8966574 0.4326432 0.8302804 0.9195809 0.3479718 0.8901134 0.4065833 0.8900454 0.3484852 0.9195548 0.6291308 0.8753128 0.6879775 0.8752436 0.6298716 0.845706 0.6300847 0.7272815 0.688289 0.7272976 0.6301009 0.8752436 0.6298716 0.86545 0.6881596 0.8638247 0.6185781 0.6977255 0.6298603 0.6680365 0.6876128 0.6681172 0.6293895 0.435261 0.2947387 0.4326432 0.3324529 0.4326432 0.2947387 0.7125579 0.3484385 0.6680364 0.4059483 0.6681208 0.3476955 0.5602074 0.1418856 0.5575897 0.1795998 0.5575897 0.1418856 0.8605206 0.3486695 0.7421287 0.4068313 0.7421349 0.3486431 0.471423 0.6073769 0.4651796 0.5546073 0.4714231 0.5546072 0.8900454 0.3484852 0.8802509 0.4067502 0.8786267 0.3371779 0.435261 0.8081548 0.4326432 0.8302804 0.4326432 0.8081548 0.7272976 0.6301009 0.7174062 0.6882987 0.715869 0.618616 0.435261 0.4762697 0.4326432 0.4983954 0.4326432 0.4762697 0.7125579 0.3484385 0.7240388 0.3139367 0.7240039 0.3370984 0.4559901 0.4490681 0.4622336 0.5018377 0.4559901 0.5018377 0.4559901 0.5546073 0.4622336 0.6073769 0.4559901 0.6073769 0.4559901 0.5018377 0.4622336 0.5546073 0.4559901 0.5546073 0.7307182 0.3371694 0.7421118 0.3136896 0.7421349 0.3486431 0.1315575 0.9945757 0.1539227 0.9154458 0.1539227 0.9945757 0.435261 0.4320184 0.4326432 0.4541441 0.4326432 0.4320184 0.435261 0.4541441 0.4326432 0.4762697 0.4326432 0.4541441 0.8571221 0.6185849 0.8457075 0.6882987 0.845706 0.6300847 0.8638247 0.6185781 0.8555818 0.6882634 0.8571221 0.6185849 0.1017743 0.915987 0.07940912 0.995117 0.07940912 0.915987 0.8571293 0.5954601 0.845706 0.6300847 0.8457344 0.5951245 0.7223743 0.4068248 0.7307182 0.3371694 0.7322552 0.4068653 0.7322552 0.4068653 0.7421349 0.3486431 0.7421287 0.4068313 0.7124863 0.4067094 0.7240039 0.3370984 0.7223743 0.4068248 0.7158806 0.5955321 0.7272976 0.6301009 0.715869 0.618616 0.8786063 0.3141378 0.8900454 0.3484852 0.8786267 0.3371779 0.8605479 0.3137154 0.7421349 0.3486431 0.7421118 0.3136896 0.5602074 0.1192571 0.5575897 0.1418856 0.5575897 0.1192571 0.7126298 0.3134316 0.6681208 0.3476955 0.6681685 0.3127914 0.435261 0.2721102 0.4326432 0.2947387 0.4326432 0.2721102 0.6977908 0.5948808 0.6681172 0.6293895 0.6681616 0.5944967 0.8751808 0.5949429 0.8638247 0.6185781 0.8637956 0.595516 0.8457344 0.5951245 0.7272976 0.6301009 0.7272726 0.5951238 0.9195015 0.5942906 0.8752436 0.6298716 0.8751808 0.5949429 0.9195244 0.3131339 0.8900454 0.3484852 0.8899793 0.313574 0.8605479 0.3137154 0.8719276 0.337189 0.8605206 0.3486695 0.104995 0.915043 0.1273603 0.9941728 0.104995 0.994173 0.6977908 0.5948808 0.709161 0.6185159 0.6977255 0.6298603 0.05362772 0.9172042 0.075993 0.9963344 0.05362772 0.9963344 0.709161 0.6185159 0.6976521 0.6881026 0.6977255 0.6298603 0.715869 0.618616 0.7075296 0.6882309 0.709161 0.6185159 0.435261 0.7639035 0.4326432 0.7860291 0.4326432 0.7639035 0.435261 0.7860291 0.4326432 0.8081548 0.4326432 0.7860291 0.8719276 0.337189 0.8605182 0.4068653 0.8605206 0.3486695 0.8786267 0.3371779 0.8703862 0.4068406 0.8719276 0.337189 0.471423 0.5018376 0.4651796 0.449068 0.4714231 0.449068 0.4714231 0.5546072 0.4651796 0.5018377 0.471423 0.5018376 0.697889 0.4228657 0.6681616 0.5944967 0.6683152 0.4457681 0.845629 0.4233894 0.7272726 0.5951238 0.7274045 0.4231003 0.9193463 0.4459998 0.8751808 0.5949429 0.8751078 0.4232297 0.8604547 0.1420659 0.7421118 0.3136896 0.7422719 0.1416818 0.919385 0.16487 0.8899793 0.313574 0.8899173 0.1419379 0.5284298 0.06049174 0.5221863 0.2907593 0.5221863 0.06049174 0.7127508 0.1414064 0.6681685 0.3127914 0.6683727 0.1639975 0.435261 0.1755618 0.4326432 0.2721102 0.4326432 0.1755618 0.4622336 0.2188006 0.4559901 0.4490681 0.4559901 0.2188006 0.5376192 0.06049174 0.5313758 0.2907593 0.5313758 0.06049174 0.471423 0.2188007 0.4651796 0.449068 0.4651796 0.2188006 0.4651796 0.2188006 0.471423 0.06049174 0.471423 0.2188007 0.4622336 0.06049174 0.4559901 0.2188006 0.4559901 0.06049174 0.8604535 0.1281485 0.7422719 0.1416818 0.7422798 0.1277507 0.8456267 0.4094659 0.7274045 0.4231003 0.727411 0.4091679 0.8604535 0.1281485 0.8899173 0.1419379 0.8604547 0.1420659 0.9193623 0.1278244 0.8899173 0.1419379 0.8899109 0.1280415 0.6978998 0.4089352 0.6683152 0.4457681 0.6683508 0.4085959 0.697889 0.4228657 0.727411 0.4091679 0.7274045 0.4231003 0.435261 0.1514247 0.4326432 0.1755618 0.4326432 0.1514247 0.7127645 0.1274712 0.6683727 0.1639975 0.6684193 0.1268071 0.9193182 0.4089187 0.8751078 0.4232297 0.8750998 0.4093232 0.8182768 0.5302566 0.847119 0.5166431 0.847119 0.5302566 0.7422798 0.1277507 0.7127508 0.1414064 0.7127645 0.1274712 0.8456267 0.4094659 0.8751078 0.4232297 0.845629 0.4233894 0.8179997 0.3344597 0.8468422 0.3208463 0.8468422 0.3344597 0.4326432 0.0518592 0.435261 0.0518592 0.435261 0.1514247 0.5456534 0.4380528 0.5430355 0.4380528 0.5430355 0.1725447 0.5575897 0.0518592 0.5602074 0.0518592 0.5602074 0.1182364 0.435261 0.3324529 0.435261 0.4320184 0.4326432 0.4320184 0.435261 0.4983954 0.435261 0.7639035 0.4326432 0.7639035 0.435261 0.8302804 0.435261 0.8966574 0.4326432 0.8966574 0.9195809 0.3479718 0.9196665 0.4060616 0.8901134 0.4065833 0.9195548 0.6291308 0.9196382 0.6872148 0.8753128 0.6879775 0.845706 0.6300847 0.8457075 0.6882987 0.7272815 0.688289 0.8752436 0.6298716 0.8753128 0.6879775 0.86545 0.6881596 0.6977255 0.6298603 0.6976521 0.6881026 0.6680365 0.6876128 0.435261 0.2947387 0.435261 0.3324529 0.4326432 0.3324529 0.7125579 0.3484385 0.7124863 0.4067094 0.6680364 0.4059483 0.5602074 0.1418856 0.5602074 0.1795998 0.5575897 0.1795998 0.8605206 0.3486695 0.8605182 0.4068653 0.7421287 0.4068313 0.471423 0.6073769 0.4651796 0.6073769 0.4651796 0.5546073 0.8900454 0.3484852 0.8901134 0.4065833 0.8802509 0.4067502 0.435261 0.8081548 0.435261 0.8302804 0.4326432 0.8302804 0.7272976 0.6301009 0.7272815 0.688289 0.7174062 0.6882987 0.435261 0.4762697 0.435261 0.4983954 0.4326432 0.4983954 0.7125579 0.3484385 0.7126298 0.3134316 0.7240388 0.3139367 0.4559901 0.4490681 0.4622336 0.4490681 0.4622336 0.5018377 0.4559901 0.5546073 0.4622336 0.5546073 0.4622336 0.6073769 0.4559901 0.5018377 0.4622336 0.5018377 0.4622336 0.5546073 0.7307182 0.3371694 0.7307105 0.3140919 0.7421118 0.3136896 0.1315575 0.9945757 0.1315575 0.9154458 0.1539227 0.9154458 0.435261 0.4320184 0.435261 0.4541441 0.4326432 0.4541441 0.435261 0.4541441 0.435261 0.4762697 0.4326432 0.4762697 0.8571221 0.6185849 0.8555818 0.6882634 0.8457075 0.6882987 0.8638247 0.6185781 0.86545 0.6881596 0.8555818 0.6882634 0.1017743 0.915987 0.1017743 0.995117 0.07940912 0.995117 0.8571293 0.5954601 0.8571221 0.6185849 0.845706 0.6300847 0.7223743 0.4068248 0.7240039 0.3370984 0.7307182 0.3371694 0.7322552 0.4068653 0.7307182 0.3371694 0.7421349 0.3486431 0.7124863 0.4067094 0.7125579 0.3484385 0.7240039 0.3370984 0.7158806 0.5955321 0.7272726 0.5951238 0.7272976 0.6301009 0.8786063 0.3141378 0.8899793 0.313574 0.8900454 0.3484852 0.8605479 0.3137154 0.8605206 0.3486695 0.7421349 0.3486431 0.5602074 0.1192571 0.5602074 0.1418856 0.5575897 0.1418856 0.7126298 0.3134316 0.7125579 0.3484385 0.6681208 0.3476955 0.435261 0.2721102 0.435261 0.2947387 0.4326432 0.2947387 0.6977908 0.5948808 0.6977255 0.6298603 0.6681172 0.6293895 0.8751808 0.5949429 0.8752436 0.6298716 0.8638247 0.6185781 0.8457344 0.5951245 0.845706 0.6300847 0.7272976 0.6301009 0.9195015 0.5942906 0.9195548 0.6291308 0.8752436 0.6298716 0.9195244 0.3131339 0.9195809 0.3479718 0.8900454 0.3484852 0.8605479 0.3137154 0.8719455 0.3140718 0.8719276 0.337189 0.104995 0.915043 0.1273603 0.9150427 0.1273603 0.9941728 0.6977908 0.5948808 0.7092057 0.5953792 0.709161 0.6185159 0.05362772 0.9172042 0.075993 0.9172042 0.075993 0.9963344 0.709161 0.6185159 0.7075296 0.6882309 0.6976521 0.6881026 0.715869 0.618616 0.7174062 0.6882987 0.7075296 0.6882309 0.435261 0.7639035 0.435261 0.7860291 0.4326432 0.7860291 0.435261 0.7860291 0.435261 0.8081548 0.4326432 0.8081548 0.8719276 0.337189 0.8703862 0.4068406 0.8605182 0.4068653 0.8786267 0.3371779 0.8802509 0.4067502 0.8703862 0.4068406 0.471423 0.5018376 0.4651796 0.5018377 0.4651796 0.449068 0.4714231 0.5546072 0.4651796 0.5546073 0.4651796 0.5018377 0.697889 0.4228657 0.6977908 0.5948808 0.6681616 0.5944967 0.845629 0.4233894 0.8457344 0.5951245 0.7272726 0.5951238 0.9193463 0.4459998 0.9195015 0.5942906 0.8751808 0.5949429 0.8604547 0.1420659 0.8605479 0.3137154 0.7421118 0.3136896 0.919385 0.16487 0.9195244 0.3131339 0.8899793 0.313574 0.5284298 0.06049174 0.5284298 0.2907593 0.5221863 0.2907593 0.7127508 0.1414064 0.7126298 0.3134316 0.6681685 0.3127914 0.435261 0.1755618 0.435261 0.2721102 0.4326432 0.2721102 0.4622336 0.2188006 0.4622336 0.4490681 0.4559901 0.4490681 0.5376192 0.06049174 0.5376192 0.2907593 0.5313758 0.2907593 0.471423 0.2188007 0.4714231 0.449068 0.4651796 0.449068 0.4651796 0.2188006 0.4651796 0.06049174 0.471423 0.06049174 0.4622336 0.06049174 0.4622336 0.2188006 0.4559901 0.2188006 0.8604535 0.1281485 0.8604547 0.1420659 0.7422719 0.1416818 0.8456267 0.4094659 0.845629 0.4233894 0.7274045 0.4231003 0.8604535 0.1281485 0.8899109 0.1280415 0.8899173 0.1419379 0.9193623 0.1278244 0.919385 0.16487 0.8899173 0.1419379 0.6978998 0.4089352 0.697889 0.4228657 0.6683152 0.4457681 0.697889 0.4228657 0.6978998 0.4089352 0.727411 0.4091679 0.435261 0.1514247 0.435261 0.1755618 0.4326432 0.1755618 0.7127645 0.1274712 0.7127508 0.1414064 0.6683727 0.1639975 0.9193182 0.4089187 0.9193463 0.4459998 0.8751078 0.4232297 0.8182768 0.5302566 0.8182768 0.5166431 0.847119 0.5166431 0.7422798 0.1277507 0.7422719 0.1416818 0.7127508 0.1414064 0.8456267 0.4094659 0.8750998 0.4093232 0.8751078 0.4232297 0.8179997 0.3344597 0.8179997 0.3208463 0.8468422 0.3208463 0.6681616 0.5944967 0.5575897 0.1192571 0.6683152 0.4457681 0.919385 0.16487 0.6683152 0.4457681 0.5575897 0.1192571 0.6683152 0.4457681 0.919385 0.16487 0.6683508 0.4085959 0.9193623 0.1278244 0.6683508 0.4085959 0.919385 0.16487</float_array>
          <technique_common>
            <accessor source="#Plane_009-mesh-map-0-array" count="516" stride="2">
              <param name="S" type="float"/>
              <param name="T" type="float"/>
            </accessor>
          </technique_common>
        </source>
        <vertices id="Plane_009-mesh-vertices">
          <input semantic="POSITION" source="#Plane_009-mesh-positions"/>
        </vertices>
        <triangles material="Material_001-material" count="172">
          <input semantic="VERTEX" source="#Plane_009-mesh-vertices" offset="0"/>
          <input semantic="NORMAL" source="#Plane_009-mesh-normals" offset="1"/>
          <input semantic="TEXCOORD" source="#Plane_009-mesh-map-0" offset="2" set="0"/>
          <p>2 0 0 1 0 1 0 0 2 6 0 3 5 0 4 4 0 5 10 0 6 9 0 7 8 0 8 13 1 9 14 1 10 12 1 11 17 1 12 18 1 13 16 1 14 21 1 15 22 1 16 20 1 17 44 2 18 21 2 19 54 2 20 45 3 21 14 3 22 53 3 23 46 3 24 18 3 25 51 3 26 53 4 27 39 4 28 59 4 29 48 3 30 22 3 31 55 3 32 49 5 33 12 5 34 45 5 35 50 2 36 13 2 37 49 2 38 55 6 39 23 6 40 44 6 41 52 2 42 17 2 43 47 2 44 34 0 45 67 0 46 60 0 47 54 7 48 65 7 49 70 7 50 65 1 51 20 1 52 62 1 53 51 8 54 63 8 55 68 8 56 41 1 57 16 1 58 38 1 59 50 2 60 43 2 61 57 2 62 31 0 63 37 0 64 43 0 65 42 0 66 24 0 67 26 0 68 43 0 69 36 0 70 42 0 71 56 2 72 26 2 73 47 2 74 57 2 75 42 2 76 56 2 77 15 1 78 39 1 79 14 1 80 40 1 81 38 1 82 39 1 83 58 3 84 16 3 85 46 3 86 59 9 87 38 9 88 58 9 89 37 3 90 58 3 91 36 3 92 36 3 93 46 3 94 24 3 95 40 10 96 56 10 97 41 10 98 41 2 99 47 2 100 17 2 101 15 11 102 57 11 103 40 11 104 61 3 105 51 3 106 68 3 107 67 2 108 54 2 109 70 2 110 27 2 111 47 2 112 26 2 113 35 6 114 44 6 115 32 6 116 31 2 117 49 2 118 30 2 119 30 5 120 45 5 121 28 5 122 34 3 123 55 3 124 35 3 125 29 3 126 59 3 127 37 3 128 24 3 129 51 3 130 25 3 131 28 3 132 53 3 133 29 3 134 32 2 135 54 2 136 33 2 137 27 2 138 71 2 139 52 2 140 66 2 141 70 2 142 71 2 143 34 3 144 69 3 145 48 3 146 60 3 147 68 3 148 69 3 149 69 3 150 20 3 151 48 3 152 68 12 153 62 12 154 69 12 155 19 1 156 63 1 157 18 1 158 64 1 159 62 1 160 63 1 161 71 2 162 19 2 163 52 2 164 70 13 165 64 13 166 71 13 167 61 0 168 27 0 169 25 0 170 60 0 171 66 0 172 61 0 173 77 3 174 35 3 175 76 3 176 73 3 177 25 3 178 72 3 179 81 3 180 29 3 181 80 3 182 75 2 183 26 2 184 74 2 185 79 2 186 33 2 187 78 2 188 78 5 189 34 5 190 77 5 191 83 2 192 30 2 193 82 2 194 82 5 195 28 5 196 81 5 197 80 6 198 31 6 199 83 6 200 74 5 201 24 5 202 73 5 203 72 6 204 27 6 205 75 6 206 75 1 207 77 1 208 72 1 209 73 1 210 83 1 211 74 1 212 7 2 213 74 2 214 5 2 215 4 3 216 72 3 217 6 3 218 7 2 219 78 2 220 75 2 221 11 2 222 78 2 223 9 2 224 8 3 225 76 3 226 10 3 227 77 3 228 6 3 229 72 3 230 1 5 231 81 5 232 0 5 233 3 2 234 82 2 235 1 2 236 0 3 237 80 3 238 2 3 239 8 0 240 7 0 241 6 0 242 5 2 243 83 2 244 3 2 245 4 3 246 80 3 247 73 3 248 4 0 249 3 0 250 2 0 251 2 0 252 3 0 253 1 0 254 6 0 255 7 0 256 5 0 257 10 0 258 11 0 259 9 0 260 13 1 261 15 1 262 14 1 263 17 1 264 19 1 265 18 1 266 21 1 267 23 1 268 22 1 269 44 2 270 23 2 271 21 2 272 45 3 273 12 3 274 14 3 275 46 3 276 16 3 277 18 3 278 53 3 279 14 3 280 39 3 281 48 3 282 20 3 283 22 3 284 49 5 285 13 5 286 12 5 287 50 2 288 15 2 289 13 2 290 55 6 291 22 6 292 23 6 293 52 2 294 19 2 295 17 2 296 34 0 297 33 0 298 67 0 299 54 2 300 21 2 301 65 2 302 65 1 303 21 1 304 20 1 305 51 3 306 18 3 307 63 3 308 41 1 309 17 1 310 16 1 311 50 2 312 31 2 313 43 2 314 31 0 315 29 0 316 37 0 317 42 0 318 36 0 319 24 0 320 43 0 321 37 0 322 36 0 323 56 2 324 42 2 325 26 2 326 57 2 327 43 2 328 42 2 329 15 1 330 40 1 331 39 1 332 40 1 333 41 1 334 38 1 335 58 14 336 38 14 337 16 14 338 59 3 339 39 3 340 38 3 341 37 3 342 59 3 343 58 3 344 36 3 345 58 3 346 46 3 347 40 15 348 57 15 349 56 15 350 41 2 351 56 2 352 47 2 353 15 2 354 50 2 355 57 2 356 61 3 357 25 3 358 51 3 359 67 2 360 33 2 361 54 2 362 27 2 363 52 2 364 47 2 365 35 6 366 55 6 367 44 6 368 31 2 369 50 2 370 49 2 371 30 5 372 49 5 373 45 5 374 34 3 375 48 3 376 55 3 377 29 3 378 53 3 379 59 3 380 24 3 381 46 3 382 51 3 383 28 3 384 45 3 385 53 3 386 32 2 387 44 2 388 54 2 389 27 2 390 66 2 391 71 2 392 66 2 393 67 2 394 70 2 395 34 3 396 60 3 397 69 3 398 60 3 399 61 3 400 68 3 401 69 16 402 62 16 403 20 16 404 68 3 405 63 3 406 62 3 407 19 1 408 64 1 409 63 1 410 64 1 411 65 1 412 62 1 413 71 2 414 64 2 415 19 2 416 70 2 417 65 2 418 64 2 419 61 0 420 66 0 421 27 0 422 60 0 423 67 0 424 66 0 425 77 3 426 34 3 427 35 3 428 73 3 429 24 3 430 25 3 431 81 3 432 28 3 433 29 3 434 75 2 435 27 2 436 26 2 437 79 2 438 32 2 439 33 2 440 78 5 441 33 5 442 34 5 443 83 2 444 31 2 445 30 2 446 82 5 447 30 5 448 28 5 449 80 6 450 29 6 451 31 6 452 74 5 453 26 5 454 24 5 455 72 6 456 25 6 457 27 6 458 75 1 459 78 1 460 77 1 461 73 1 462 80 1 463 83 1 464 7 2 465 75 2 466 74 2 467 4 3 468 73 3 469 72 3 470 7 2 471 9 2 472 78 2 473 11 2 474 79 2 475 78 2 476 8 3 477 77 3 478 76 3 479 77 3 480 8 3 481 6 3 482 1 5 483 82 5 484 81 5 485 3 2 486 83 2 487 82 2 488 0 3 489 81 3 490 80 3 491 8 0 492 9 0 493 7 0 494 5 2 495 74 2 496 83 2 497 4 3 498 2 3 499 80 3 500 4 0 501 5 0 502 3 0 503 35 6 504 32 6 505 76 6 506 79 6 507 76 6 508 32 6 509 76 6 510 79 6 511 10 6 512 11 6 513 10 6 514 79 6 515</p>
        </triangles>
      </mesh>
    </geometry>
  </library_geometries>
  <library_visual_scenes>
    <visual_scene id="Scene" name="Scene">
      <node id="Plane_005" name="Plane.005" type="NODE">
        <matrix sid="transform">1 0 0 0 0 1 0 0 0 0 1 0 0 0 0 1</matrix>
        <instance_geometry url="#Plane_009-mesh" name="Plane.005">
          <bind_material>
            <technique_common>
              <instance_material symbol="Material_001-material" target="#Material_001-material">
                <bind_vertex_input semantic="Plane_009-mesh-map-0" input_semantic="TEXCOORD" input_set="0"/>
              </instance_material>
            </technique_common>
          </bind_material>
        </instance_geometry>
      </node>
    </visual_scene>
  </library_visual_scenes>
  <scene>
    <instance_visual_scene url="#Scene"/>
  </scene>
</COLLADA>