<?xml version="1.0" encoding="utf-8"?>
<COLLADA xmlns="http://www.collada.org/2005/11/COLLADASchema" version="1.4.1" xmlns:xsi="http://www.w3.org/2001/XMLSchema-instance">
  <asset>
    <contributor>
      <author>Blender User</author>
      <authoring_tool>Blender 4.5.2 LTS commit date:2025-08-19, commit time:15:00, hash:ab25eae04993</authoring_tool>
    </contributor>
    <created>2026-08-30T13:03:26</created>
    <modified>2026-08-30T13:03:26</modified>
    <unit name="meter" meter="1"/>
    <up_axis>Z_UP</up_axis>
  </asset>
  <library_effects>
    <effect id="Material_001-effect">
      <profile_COMMON>
        <newparam sid="photo_2026-08-29_00-38-51_jpg_001-surface">
          <surface type="2D">
            <init_from>photo_2026-08-29_00-38-51_jpg_001</init_from>
          </surface>
        </newparam>
        <newparam sid="photo_2026-08-29_00-38-51_jpg_001-sampler">
          <sampler2D>
            <source>photo_2026-08-29_00-38-51_jpg_001-surface</source>
          </sampler2D>
        </newparam>
        <technique sid="common">
          <lambert>
            <emission>
              <color sid="emission">0 0 0 1</color>
            </emission>
            <diffuse>
              <texture texture="photo_2026-08-29_00-38-51_jpg_001-sampler" texcoord="Plane_008-mesh-map-0"/>
            </diffuse>
            <index_of_refraction>
              <float sid="ior">1.45</float>
            </index_of_refraction>
          </lambert>
        </technique>
      </profile_COMMON>
    </effect>
  </library_effects>
  <library_images>
    <image id="photo_2026-08-29_00-38-51_jpg_001" name="photo_2026-08-29_00-38-51_jpg_001">
      <init_from>map.png</init_from>
    </image>
  </library_images>
  <library_materials>
    <material id="Material_001-material" name="Material.001">
      <instance_effect url="#Material_001-effect"/>
    </material>
  </library_materials>
  <library_geometries>
    <geometry id="Plane_001-mesh" name="Plane.001">
      <mesh>
        <source id="Plane_001-mesh-positions">
          <float_array id="Plane_001-mesh-positions-array" count="36">-9.585061 -0.970835 -8.37952e-7 -9.585061 -0.8208352 -8.37952e-7 -2.435061 -5.920836 -2.1288e-7 -2.585061 -5.920836 -2.25993e-7 -2.435059 -0.8208369 -2.1288e-7 -2.58506 -0.9708367 -2.25993e-7 -9.585061 -0.970835 3.499999 -9.585061 -0.8208352 3.499999 -2.58506 -0.9708367 3.5 -2.435061 -5.920836 3.5 -2.585061 -5.920836 3.5 -2.43506 -0.8208369 3.5</float_array>
          <technique_common>
            <accessor source="#Plane_001-mesh-positions-array" count="12" stride="3">
              <param name="X" type="float"/>
              <param name="Y" type="float"/>
              <param name="Z" type="float"/>
            </accessor>
          </technique_common>
        </source>
        <source id="Plane_001-mesh-normals">
          <float_array id="Plane_001-mesh-normals-array" count="54">-9.34976e-7 0 1 0 0 -1 1 -3.20563e-7 0 -1 2.20185e-7 0 -1 0 0 0 -1 0 -2.46933e-7 -1 0 0 1.33381e-7 1 2.33417e-7 1 0 0 0 -1 0 0 1 0 0 -1 1 -2.13709e-7 2.72478e-7 -1 2.20185e-7 0 -2.46934e-7 -1 0 0 0 1 2.33417e-7 1 0 0 0 -1</float_array>
          <technique_common>
            <accessor source="#Plane_001-mesh-normals-array" count="18" stride="3">
              <param name="X" type="float"/>
              <param name="Y" type="float"/>
              <param name="Z" type="float"/>
            </accessor>
          </technique_common>
        </source>
        <source id="Plane_001-mesh-map-0">
          <float_array id="Plane_001-mesh-map-0-array" count="120">0.4790717 0.7781089 0.4991382 0.7781085 0.498548 0.7801503 0.4653006 0.7781092 0.4653006 0.7801509 0.4458244 0.7801513 0.7426617 0.4675445 0.7426617 0.2971142 0.8144478 0.2971142 0.231882 0.4296924 0.2819243 0.4296924 0.2819243 0.5520996 0.4452342 0.8754329 0.4458244 0.8754329 0.4458244 0.9230738 0.4653006 0.7801509 0.4653006 0.7781092 0.4790717 0.7781089 0.1611154 0.4296924 0.231882 0.4296924 0.231882 0.5520996 0.498548 0.7801503 0.4991382 0.7781085 0.4991384 0.8754314 0.915089 0.2971142 0.915089 0.4675443 0.8144478 0.4675445 0.4458244 0.7801513 0.4458244 0.8754329 0.4452342 0.8754329 0.4790717 0.7781089 0.498548 0.7801503 0.4790717 0.7801507 0.4653006 0.7781092 0.4458244 0.7801513 0.4452342 0.7781095 0.7426617 0.4675445 0.8144478 0.2971142 0.8144478 0.4675445 0.231882 0.4296924 0.2819243 0.5520996 0.231882 0.5520996 0.4452342 0.8754329 0.4458244 0.9230738 0.4452342 0.9230738 0.4653006 0.7801509 0.4790717 0.7781089 0.4790717 0.7801507 0.1611154 0.4296924 0.231882 0.5520996 0.1611154 0.5520996 0.498548 0.7801503 0.4991384 0.8754314 0.4985482 0.8754314 0.915089 0.2971142 0.8144478 0.4675445 0.8144478 0.2971142 0.4458244 0.7801513 0.4452342 0.8754329 0.4452342 0.7781095</float_array>
          <technique_common>
            <accessor source="#Plane_001-mesh-map-0-array" count="60" stride="2">
              <param name="S" type="float"/>
              <param name="T" type="float"/>
            </accessor>
          </technique_common>
        </source>
        <vertices id="Plane_001-mesh-vertices">
          <input semantic="POSITION" source="#Plane_001-mesh-positions"/>
        </vertices>
        <triangles material="Material_001-material" count="20">
          <input semantic="VERTEX" source="#Plane_001-mesh-vertices" offset="0"/>
          <input semantic="NORMAL" source="#Plane_001-mesh-normals" offset="1"/>
          <input semantic="TEXCOORD" source="#Plane_001-mesh-map-0" offset="2" set="0"/>
          <p>9 0 0 11 0 1 8 0 2 2 1 3 3 1 4 5 1 5 9 2 6 2 2 7 4 2 8 5 3 9 3 3 10 10 3 11 1 4 12 0 4 13 6 4 14 3 5 15 2 5 16 9 5 17 0 6 18 5 6 19 8 6 20 8 7 21 11 7 22 7 7 23 1 8 24 7 8 25 11 8 26 5 9 27 0 9 28 1 9 29 9 10 30 8 10 31 10 10 32 2 11 33 5 11 34 4 11 35 9 12 36 4 12 37 11 12 38 5 13 39 10 13 40 8 13 41 1 4 42 6 4 43 7 4 44 3 5 45 9 5 46 10 5 47 0 14 48 8 14 49 6 14 50 8 15 51 7 15 52 6 15 53 1 16 54 11 16 55 4 16 56 5 17 57 1 17 58 4 17 59</p>
        </triangles>
      </mesh>
    </geometry>
  </library_geometries>
  <library_visual_scenes>
    <visual_scene id="Scene" name="Scene">
      <node id="Plane_003" name="Plane.003" type="NODE">
        <matrix sid="transform">1 0 0 0 0 1 0 0 0 0 1 0 0 0 0 1</matrix>
        <instance_geometry url="#Plane_001-mesh" name="Plane.003">
          <bind_material>
            <technique_common>
              <instance_material symbol="Material_001-material" target="#Material_001-material">
                <bind_vertex_input semantic="Plane_008-mesh-map-0" input_semantic="TEXCOORD" input_set="0"/>
              </instance_material>
            </technique_common>
          </bind_material>
        </instance_geometry>
      </node>
    </visual_scene>
  </library_visual_scenes>
  <scene>
    <instance_visual_scene url="#Scene"/>
  </scene>
</COLLADA>